v 0.06993038 -0.46307778 -0.5332518
v -0.60505927 -0.25338966 -0.41836
v -0.43272147 -0.507643 0.25662965
v 0.5438593 -0.22481258 0.6013052
v 0.4353496 -0.15985332 0.87417334
v 0.31624505 0.57258224 0.5151363
v -0.6133196 -0.20293777 -0.34655258
v -0.551934 -0.36091405 0.24226816
v -0.61746246 -0.21729925 -0.37527555
v -0.6133196 -0.20293777 -0.34655258
v -0.4740234 -0.05932295 0.4576904
v -0.551934 -0.36091405 0.24226816
v -0.6133196 -0.20293777 -0.34655258
v -0.39673242 0.40024447 0.06993038
v -0.61746246 -0.21729925 -0.37527555
v 0.66167784 -0.3321911 0.2997141
v 0.4901306 -0.38963702 -0.17421481
v 0.44498593 0.22790667 0.04120742
v 0.66167784 -0.3321911 0.2997141
v 0.45283088 0.24226816 0.11301482
v 0.44498593 0.22790667 0.04120742
v 0.66167784 -0.3321911 0.2997141
v 0.5438593 -0.22481258 0.6013052
v 0.31624505 0.57258224 0.5151363
v 0.43124723 0.28535262 0.08429187
v 0.45283088 0.24226816 0.11301482
v 0.44498593 0.22790667 0.04120742
v -0.6141268 -0.23166074 -0.38963702
v -0.551934 -0.36091405 0.24226816
v -0.61746246 -0.21729925 -0.37527555
v -0.5332518 -0.39622983 0.2135452
v -0.60505927 -0.25338966 -0.41836
v -0.43272147 -0.507643 0.25662965
v -0.43272147 -0.5045289 0.264541
v -0.5045289 -0.30346814 0.41218907
v -0.28910667 -0.22120008 0.7305585
v -0.43272147 -0.5045289 0.264541
v -0.5476133 -0.36817768 0.24226816
v -0.43272147 -0.507643 0.25662965
v -0.43272147 -0.5045289 0.264541
v -0.5476133 -0.36817768 0.24226816
v -0.5045289 -0.30346814 0.41218907
v -0.50867814 -0.2603837 0.41460595
v -0.4740234 -0.05932295 0.4576904
v -0.551934 -0.36091405 0.24226816
v 0.31407556 0.57258224 0.5211647
v 0.4353496 -0.15985332 0.87417334
v 0.31624505 0.57258224 0.5151363
v -0.2603837 0.2135452 0.6804359
v -0.20293777 0.15609927 0.72244495
v -0.18857628 0.17046076 0.7272786
v 0.02684594 0.42896742 0.63037145
v -0.2603837 0.2135452 0.6804359
v -0.17421481 0.31407556 0.6374172
v -0.42870027 0.24226816 0.3715215
v -0.6133196 -0.20293777 -0.34655258
v -0.39673242 0.40024447 0.06993038
v -0.42870027 0.24226816 0.3715215
v -0.6133196 -0.20293777 -0.34655258
v -0.4740234 -0.05932295 0.4576904
v -0.40399852 0.29409286 0.38588297
v -0.42870027 0.24226816 0.3715215
v -0.39673242 0.40024447 0.06993038
v 0.6620941 -0.34655258 0.2997141
v 0.66167784 -0.3321911 0.2997141
v 0.6640326 -0.38963702 0.32843706
v 0.6620941 -0.34655258 0.2997141
v 0.66167784 -0.3321911 0.2997141
v 0.4901306 -0.38963702 -0.17421481
v 0.31845582 0.57258224 0.50077486
v 0.66167784 -0.3321911 0.2997141
v 0.31624505 0.57258224 0.5151363
v 0.31845582 0.57258224 0.50077486
v 0.66167784 -0.3321911 0.2997141
v 0.45283088 0.24226816 0.11301482
v 0.47205186 -0.37527555 -0.20076463
v 0.4901306 -0.38963702 -0.17421481
v 0.44498593 0.22790667 0.04120742
v 0.47205186 -0.37527555 -0.20076463
v 0.35464004 -0.40399852 -0.37527555
v 0.4901306 -0.38963702 -0.17421481
v 0.42896742 0.19918372 0.00262299
v 0.47205186 -0.37527555 -0.20076463
v 0.35464004 -0.40399852 -0.37527555
v 0.41460595 0.27099112 0.02516755
v 0.42896742 0.19918372 0.00262299
v 0.35464004 -0.40399852 -0.37527555
v -0.5385796 -0.38963702 0.2135452
v -0.5332518 -0.39622983 0.2135452
v -0.60505927 -0.25338966 -0.41836
v -0.5385796 -0.38963702 0.2135452
v -0.6087402 -0.24602221 -0.41836
v -0.551934 -0.36091405 0.24226816
v -0.5385796 -0.38963702 0.2135452
v -0.6087402 -0.24602221 -0.41836
v -0.60505927 -0.25338966 -0.41836
v -0.5385796 -0.38963702 0.2135452
v -0.5476133 -0.36817768 0.24226816
v -0.551934 -0.36091405 0.24226816
v -0.5385796 -0.38963702 0.2135452
v -0.5332518 -0.39622983 0.2135452
v -0.43272147 -0.507643 0.25662965
v -0.5385796 -0.38963702 0.2135452
v -0.5476133 -0.36817768 0.24226816
v -0.43272147 -0.507643 0.25662965
v -0.28910667 -0.21729925 0.73222435
v 0.38588297 -0.18857628 0.9213316
v 0.2997141 -0.08804592 0.91386074
v -0.28910667 -0.21729925 0.73222435
v -0.20293777 0.15609927 0.72244495
v -0.18857628 0.17046076 0.7272786
v -0.28910667 -0.21729925 0.73222435
v -0.2603837 0.2135452 0.6804359
v -0.20293777 0.15609927 0.72244495
v -0.28910667 -0.21729925 0.73222435
v -0.2603837 0.2135452 0.6804359
v -0.34655258 -0.1024074 0.6658779
v -0.27474517 -0.23779021 0.7161971
v 0.40024447 -0.3064994 0.88853484
v 0.25662965 -0.6201857 0.41460595
v -0.27474517 -0.23779021 0.7161971
v -0.43272147 -0.5045289 0.264541
v 0.25662965 -0.6201857 0.41460595
v -0.27474517 -0.23779021 0.7161971
v -0.43272147 -0.5045289 0.264541
v -0.28910667 -0.22120008 0.7305585
v 0.40024447 -0.30346814 0.8921629
v 0.41460595 -0.2979739 0.90289634
v -0.28910667 -0.22120008 0.7305585
v 0.40024447 -0.30346814 0.8921629
v 0.40024447 -0.3064994 0.88853484
v 0.41460595 -0.2979739 0.90289634
v 0.40024447 -0.30346814 0.8921629
v -0.27474517 -0.23779021 0.7161971
v -0.28910667 -0.22120008 0.7305585
v 0.40024447 -0.30346814 0.8921629
v -0.27474517 -0.23779021 0.7161971
v 0.40024447 -0.3064994 0.88853484
v 0.2892262 -0.6194207 0.3715215
v 0.65875113 -0.404172 0.32843706
v 0.29657143 -0.6194207 0.35716
v -0.5476133 -0.36091405 0.25189427
v -0.5476133 -0.36817768 0.24226816
v -0.551934 -0.36091405 0.24226816
v -0.5108485 -0.30346814 0.40024447
v -0.50867814 -0.2603837 0.41460595
v -0.551934 -0.36091405 0.24226816
v -0.5108485 -0.30346814 0.40024447
v -0.5476133 -0.36091405 0.25189427
v -0.551934 -0.36091405 0.24226816
v -0.5108485 -0.30346814 0.40024447
v -0.5476133 -0.36817768 0.24226816
v -0.5045289 -0.30346814 0.41218907
v -0.5108485 -0.30346814 0.40024447
v -0.5476133 -0.36091405 0.25189427
v -0.5476133 -0.36817768 0.24226816
v -0.47327754 -0.11676888 0.50077486
v -0.50867814 -0.2603837 0.41460595
v -0.4740234 -0.05932295 0.4576904
v -0.5045289 -0.2603837 0.42272592
v -0.5045289 -0.30346814 0.41218907
v -0.4510885 -0.17421481 0.5294978
v -0.5045289 -0.2603837 0.42272592
v -0.47327754 -0.11676888 0.50077486
v -0.4510885 -0.17421481 0.5294978
v -0.5045289 -0.2603837 0.42272592
v -0.47327754 -0.11676888 0.50077486
v -0.50867814 -0.2603837 0.41460595
v -0.5045289 -0.2603837 0.42272592
v -0.5108485 -0.30346814 0.40024447
v -0.5045289 -0.30346814 0.41218907
v -0.5045289 -0.2603837 0.42272592
v -0.5108485 -0.30346814 0.40024447
v -0.50867814 -0.2603837 0.41460595
v 0.5455175 -0.23166074 0.6013052
v 0.5438593 -0.22481258 0.6013052
v 0.4353496 -0.15985332 0.87417334
v 0.31407556 0.5775612 0.5151363
v 0.31407556 0.57258224 0.5211647
v 0.31624505 0.57258224 0.5151363
v 0.31407556 0.5775612 0.5151363
v 0.31407556 0.57258224 0.5211647
v 0.287024 0.6156667 0.5294978
v 0.29309106 0.58694375 0.5438593
v 0.31407556 0.57258224 0.5211647
v 0.4353496 -0.15985332 0.87417334
v 0.29309106 0.58694375 0.5438593
v 0.31407556 0.57258224 0.5211647
v 0.287024 0.6156667 0.5294978
v 0.43783367 -0.2603837 0.90289634
v 0.43448743 -0.28910667 0.90289634
v 0.6640326 -0.38963702 0.32843706
v 0.43783367 -0.2603837 0.90289634
v 0.59788895 -0.3321911 0.50077486
v 0.6640326 -0.38963702 0.32843706
v 0.35716 -0.13113035 0.92177975
v 0.38588297 -0.18857628 0.9213316
v 0.41460595 -0.21729925 0.9219364
v 0.35716 -0.13113035 0.92177975
v 0.38588297 -0.18857628 0.9213316
v 0.2997141 -0.08804592 0.91386074
v -0.03059999 0.61974806 0.35716
v 0.24226816 0.6874741 0.47915065
v 0.24226816 0.69067854 0.47205186
v -0.01877022 0.57258224 0.47205186
v -0.03059999 0.61974806 0.35716
v 0.24226816 0.6874741 0.47915065
v -0.07368443 0.6156667 0.30490944
v -0.07368443 0.61841196 0.31407556
v 0.24226816 0.69067854 0.47205186
v -0.07368443 0.6156667 0.30490944
v 0.18482223 0.6682519 0.41460595
v 0.24226816 0.69067854 0.47205186
v -0.27474517 0.32843706 0.5540316
v -0.2603837 0.2135452 0.6804359
v -0.17421481 0.31407556 0.6374172
v -0.27474517 0.32843706 0.5540316
v -0.01877022 0.57258224 0.47205186
v -0.17421481 0.31407556 0.6374172
v -0.27474517 0.22790667 0.651908
v -0.27474517 0.32843706 0.5540316
v -0.32583788 0.32843706 0.50077486
v -0.27474517 0.22790667 0.651908
v -0.27474517 0.32843706 0.5540316
v -0.2603837 0.2135452 0.6804359
v -0.36091405 -0.1024074 0.6529465
v -0.2603837 0.2135452 0.6804359
v -0.34655258 -0.1024074 0.6658779
v -0.36091405 -0.1024074 0.6529465
v -0.28910667 -0.21729925 0.73222435
v -0.34655258 -0.1024074 0.6658779
v -0.36091405 -0.1024074 0.6529465
v -0.43272147 -0.03059999 0.5595415
v -0.2603837 0.2135452 0.6804359
v -0.36091405 -0.1024074 0.6529465
v -0.36790985 -0.1024074 0.6443896
v -0.43382162 -0.03059999 0.55822074
v -0.36091405 -0.1024074 0.6529465
v -0.43272147 -0.03059999 0.5595415
v -0.43382162 -0.03059999 0.55822074
v 0.28535262 0.6167167 0.5294978
v 0.25662965 0.67311263 0.4881552
v 0.287024 0.6156667 0.5294978
v 0.28535262 0.6167167 0.5294978
v 0.24226816 0.6874741 0.47915065
v 0.25662965 0.67311263 0.4881552
v -0.45485833 -0.03059999 0.5151363
v -0.42870027 0.24226816 0.3715215
v -0.4740234 -0.05932295 0.4576904
v -0.45485833 -0.03059999 0.5151363
v -0.47327754 -0.11676888 0.50077486
v -0.4740234 -0.05932295 0.4576904
v -0.36091405 0.3098154 0.4576904
v -0.36091405 0.29776594 0.47205186
v -0.32583788 0.32843706 0.50077486
v -0.36091405 0.3098154 0.4576904
v -0.3321911 0.33763462 0.47205186
v -0.32583788 0.32843706 0.50077486
v -0.36091405 0.3098154 0.4576904
v -0.3321911 0.33763462 0.47205186
v -0.40399852 0.29409286 0.38588297
v 0.31407556 0.58404416 0.50077486
v 0.31845582 0.57258224 0.50077486
v 0.45283088 0.24226816 0.11301482
v 0.31407556 0.58404416 0.50077486
v 0.31845582 0.57258224 0.50077486
v 0.31624505 0.57258224 0.5151363
v 0.31407556 0.58404416 0.50077486
v 0.31407556 0.5775612 0.5151363
v 0.31624505 0.57258224 0.5151363
v 0.31407556 0.58404416 0.50077486
v 0.29068896 0.6156667 0.5151363
v 0.287024 0.6156667 0.5294978
v 0.31407556 0.58404416 0.50077486
v 0.31407556 0.5775612 0.5151363
v 0.287024 0.6156667 0.5294978
v 0.48641336 -0.40675873 -0.17421481
v 0.2997141 -0.42354405 -0.41836
v 0.29657143 -0.6194207 0.35716
v 0.43552944 0.19918372 0.01248446
v 0.47205186 -0.37527555 -0.20076463
v 0.44498593 0.22790667 0.04120742
v 0.43552944 0.19918372 0.01248446
v 0.42896742 0.19918372 0.00262299
v 0.44498593 0.22790667 0.04120742
v 0.43552944 0.19918372 0.01248446
v 0.42896742 0.19918372 0.00262299
v 0.47205186 -0.37527555 -0.20076463
v 0.34279853 0.32380927 0.02684594
v 0.41460595 0.29287982 0.0555689
v 0.41460595 0.27099112 0.02516755
v 0.38588297 0.25968105 -0.00187703
v 0.18482223 -0.44708297 -0.50632876
v 0.31407556 0.31407556 0.00815121
v 0.38588297 0.25968105 -0.00187703
v 0.34279853 0.32380927 0.02684594
v 0.31407556 0.31407556 0.00815121
v 0.38588297 0.25968105 -0.00187703
v 0.34279853 0.32380927 0.02684594
v 0.41460595 0.27099112 0.02516755
v 0.38588297 0.25968105 -0.00187703
v 0.18482223 -0.44708297 -0.50632876
v 0.2997141 -0.41836 -0.4332428
v 0.38588297 0.25968105 -0.00187703
v 0.41460595 0.27099112 0.02516755
v 0.2997141 -0.41836 -0.4332428
v 0.3003807 -0.41836 -0.43272147
v 0.41460595 0.27099112 0.02516755
v 0.2997141 -0.41836 -0.4332428
v 0.3003807 -0.41836 -0.43272147
v 0.41460595 0.27099112 0.02516755
v 0.35464004 -0.40399852 -0.37527555
v 0.3003807 -0.41836 -0.43272147
v 0.18482223 -0.44708297 -0.50632876
v 0.2997141 -0.41836 -0.4332428
v 0.18482223 -0.44815943 -0.5045289
v 0.2997141 -0.42354405 -0.41836
v 0.29657143 -0.6194207 0.35716
v 0.18482223 -0.44815943 -0.5045289
v 0.25662965 -0.6228842 0.32843706
v 0.29657143 -0.6194207 0.35716
v 0.18482223 -0.44815943 -0.5045289
v 0.18482223 -0.44708297 -0.50632876
v 0.06993038 -0.46307778 -0.5332518
v 0.18482223 -0.44815943 -0.5045289
v 0.25662965 -0.6228842 0.32843706
v 0.06993038 -0.46307778 -0.5332518
v -0.6085224 -0.24602221 -0.40399852
v -0.6141268 -0.23166074 -0.38963702
v -0.551934 -0.36091405 0.24226816
v -0.6085224 -0.24602221 -0.40399852
v -0.6087402 -0.24602221 -0.41836
v -0.551934 -0.36091405 0.24226816
v -0.6085224 -0.24602221 -0.40399852
v -0.6087402 -0.24602221 -0.41836
v -0.6141268 -0.23166074 -0.38963702
v 0.0555689 -0.44708297 -0.5453516
v -0.60505927 -0.24602221 -0.43429813
v 0.06993038 -0.46307778 -0.5332518
v -0.6072146 -0.24602221 -0.43272147
v 0.06993038 -0.46307778 -0.5332518
v -0.60505927 -0.25338966 -0.41836
v -0.6072146 -0.24602221 -0.43272147
v -0.60505927 -0.24602221 -0.43429813
v 0.06993038 -0.46307778 -0.5332518
v -0.6072146 -0.24602221 -0.43272147
v -0.6087402 -0.24602221 -0.41836
v -0.60505927 -0.25338966 -0.41836
v -0.6072146 -0.24602221 -0.43272147
v -0.6141268 -0.23166074 -0.38963702
v -0.61746246 -0.21729925 -0.37527555
v -0.6072146 -0.24602221 -0.43272147
v -0.6087402 -0.24602221 -0.41836
v -0.6141268 -0.23166074 -0.38963702
v -0.23166074 -0.17421481 0.74780804
v 0.18482223 -0.01623851 0.8715233
v 0.2997141 -0.08804592 0.91386074
v -0.23166074 -0.17421481 0.74780804
v -0.28910667 -0.21729925 0.73222435
v 0.2997141 -0.08804592 0.91386074
v -0.23166074 -0.17421481 0.74780804
v 0.18482223 -0.01623851 0.8715233
v -0.18857628 0.17046076 0.7272786
v -0.23166074 -0.17421481 0.74780804
v -0.28910667 -0.21729925 0.73222435
v -0.18857628 0.17046076 0.7272786
v -0.29057375 -0.21729925 0.7305585
v -0.36790985 -0.1024074 0.6443896
v -0.4510885 -0.17421481 0.5294978
v -0.29057375 -0.21729925 0.7305585
v -0.5045289 -0.30346814 0.41218907
v -0.4510885 -0.17421481 0.5294978
v -0.29057375 -0.21729925 0.7305585
v -0.36091405 -0.1024074 0.6529465
v -0.36790985 -0.1024074 0.6443896
v -0.29057375 -0.21729925 0.7305585
v -0.36091405 -0.1024074 0.6529465
v -0.28910667 -0.21729925 0.73222435
v -0.29057375 -0.21729925 0.7305585
v -0.5045289 -0.30346814 0.41218907
v -0.28910667 -0.22120008 0.7305585
v -0.29057375 -0.21729925 0.7305585
v -0.28910667 -0.21729925 0.73222435
v -0.28910667 -0.22120008 0.7305585
v 0.65875113 -0.40399852 0.32894042
v 0.2892262 -0.6194207 0.3715215
v 0.31407556 -0.5833979 0.42896742
v 0.65875113 -0.40399852 0.32894042
v 0.2892262 -0.6194207 0.3715215
v 0.65875113 -0.404172 0.32843706
v 0.41460595 -0.28910667 0.90682197
v 0.42896742 -0.28910667 0.9068689
v 0.41460595 -0.21729925 0.9219364
v 0.41460595 -0.28910667 0.90682197
v 0.38588297 -0.18857628 0.9213316
v 0.41460595 -0.21729925 0.9219364
v 0.41460595 -0.28910667 0.90682197
v -0.28910667 -0.21729925 0.73222435
v 0.38588297 -0.18857628 0.9213316
v 0.41460595 -0.28910667 0.90682197
v 0.41460595 -0.2979739 0.90289634
v -0.28910667 -0.22120008 0.7305585
v 0.41460595 -0.28910667 0.90682197
v -0.28910667 -0.21729925 0.73222435
v -0.28910667 -0.22120008 0.7305585
v 0.2997141 -0.58634734 0.44332892
v 0.2892262 -0.6194207 0.3715215
v 0.25662965 -0.6201857 0.41460595
v 0.2997141 -0.58634734 0.44332892
v 0.2892262 -0.6194207 0.3715215
v 0.31407556 -0.5833979 0.42896742
v 0.42896742 -0.29957432 0.90289634
v 0.42896742 -0.28910667 0.9068689
v 0.43448743 -0.28910667 0.90289634
v 0.42896742 -0.29957432 0.90289634
v 0.65875113 -0.40399852 0.32894042
v 0.43448743 -0.28910667 0.90289634
v 0.42896742 -0.29957432 0.90289634
v 0.41460595 -0.28910667 0.90682197
v 0.41460595 -0.2979739 0.90289634
v 0.42896742 -0.29957432 0.90289634
v 0.41460595 -0.28910667 0.90682197
v 0.42896742 -0.28910667 0.9068689
v 0.42896742 -0.29957432 0.90289634
v 0.2997141 -0.58634734 0.44332892
v 0.25662965 -0.6201857 0.41460595
v 0.42896742 -0.29957432 0.90289634
v 0.65875113 -0.40399852 0.32894042
v 0.31407556 -0.5833979 0.42896742
v 0.42896742 -0.29957432 0.90289634
v 0.2997141 -0.58634734 0.44332892
v 0.31407556 -0.5833979 0.42896742
v 0.42896742 -0.29957432 0.90289634
v 0.40024447 -0.3064994 0.88853484
v 0.25662965 -0.6201857 0.41460595
v 0.42896742 -0.29957432 0.90289634
v 0.40024447 -0.3064994 0.88853484
v 0.41460595 -0.2979739 0.90289634
v 0.6635875 -0.37527555 0.32843706
v 0.5455175 -0.23166074 0.6013052
v 0.59788895 -0.3321911 0.50077486
v 0.6635875 -0.37527555 0.32843706
v 0.66167784 -0.3321911 0.2997141
v 0.6640326 -0.38963702 0.32843706
v 0.6635875 -0.37527555 0.32843706
v 0.59788895 -0.3321911 0.50077486
v 0.6640326 -0.38963702 0.32843706
v 0.6635875 -0.37527555 0.32843706
v 0.66167784 -0.3321911 0.2997141
v 0.5438593 -0.22481258 0.6013052
v 0.6635875 -0.37527555 0.32843706
v 0.5455175 -0.23166074 0.6013052
v 0.5438593 -0.22481258 0.6013052
v 0.41460595 -0.17421481 0.9114905
v 0.29309106 0.58694375 0.5438593
v 0.4353496 -0.15985332 0.87417334
v 0.41460595 -0.17421481 0.9114905
v 0.43036947 -0.17421481 0.88853484
v 0.4353496 -0.15985332 0.87417334
v 0.41460595 -0.17421481 0.9114905
v 0.43036947 -0.17421481 0.88853484
v 0.4226686 -0.21729925 0.9172578
v 0.41460595 -0.17421481 0.9114905
v 0.4226686 -0.21729925 0.9172578
v 0.41460595 -0.21729925 0.9219364
v 0.44618648 -0.23166074 0.88853484
v 0.43783367 -0.2603837 0.90289634
v 0.4226686 -0.21729925 0.9172578
v 0.44618648 -0.23166074 0.88853484
v 0.43036947 -0.17421481 0.88853484
v 0.4226686 -0.21729925 0.9172578
v 0.44618648 -0.23166074 0.88853484
v 0.43783367 -0.2603837 0.90289634
v 0.59788895 -0.3321911 0.50077486
v 0.44618648 -0.23166074 0.88853484
v 0.43036947 -0.17421481 0.88853484
v 0.4353496 -0.15985332 0.87417334
v 0.44618648 -0.23166074 0.88853484
v 0.5455175 -0.23166074 0.6013052
v 0.59788895 -0.3321911 0.50077486
v 0.44618648 -0.23166074 0.88853484
v 0.5455175 -0.23166074 0.6013052
v 0.4353496 -0.15985332 0.87417334
v 0.42896742 -0.2603837 0.9115795
v 0.43783367 -0.2603837 0.90289634
v 0.4226686 -0.21729925 0.9172578
v 0.42896742 -0.2603837 0.9115795
v 0.4226686 -0.21729925 0.9172578
v 0.41460595 -0.21729925 0.9219364
v 0.42896742 -0.2603837 0.9115795
v 0.42896742 -0.28910667 0.9068689
v 0.41460595 -0.21729925 0.9219364
v 0.42896742 -0.2603837 0.9115795
v 0.42896742 -0.28910667 0.9068689
v 0.43448743 -0.28910667 0.90289634
v 0.42896742 -0.2603837 0.9115795
v 0.43783367 -0.2603837 0.90289634
v 0.43448743 -0.28910667 0.90289634
v -0.01623851 0.40667257 0.6300282
v 0.02684594 0.42896742 0.63037145
v -0.17421481 0.31407556 0.6374172
v 0.02684594 0.42935586 0.6300282
v 0.02684594 0.42896742 0.63037145
v 0.24226816 0.6874741 0.47915065
v 0.02684594 0.42935586 0.6300282
v -0.01623851 0.40667257 0.6300282
v 0.02684594 0.42896742 0.63037145
v -0.07805609 0.6156667 0.31407556
v -0.3321911 0.33763462 0.47205186
v -0.2174132 0.5151363 0.25662965
v -0.38963702 0.40762496 0.06993038
v -0.40399852 0.29409286 0.38588297
v -0.39673242 0.40024447 0.06993038
v -0.38963702 0.40762496 0.06993038
v -0.3321911 0.33763462 0.47205186
v -0.2174132 0.5151363 0.25662965
v -0.38963702 0.40762496 0.06993038
v -0.07805609 0.6156667 0.31407556
v -0.2174132 0.5151363 0.25662965
v -0.38963702 0.40762496 0.06993038
v -0.07805609 0.6156667 0.31407556
v -0.07368443 0.61841196 0.31407556
v 0.09865335 0.3587389 0.01248446
v -0.07368443 0.6156667 0.30490944
v 0.18482223 0.6682519 0.41460595
v 0.09865335 0.3587389 0.01248446
v 0.34279853 0.32380927 0.02684594
v 0.31407556 0.31407556 0.00815121
v 0.09865335 0.3587389 0.01248446
v 0.34279853 0.32380927 0.02684594
v 0.18482223 0.6682519 0.41460595
v -0.20293777 0.3120506 -0.05932295
v 0.0555689 -0.44708297 -0.5453516
v -0.57633626 -0.23166074 -0.42948803
v -0.20293777 0.3120506 -0.05932295
v 0.0555689 -0.44708297 -0.5453516
v -0.17421481 0.2997141 -0.06556337
v -0.3178296 0.33499762 0.50077486
v -0.27474517 0.32843706 0.5540316
v -0.32583788 0.32843706 0.50077486
v -0.3178296 0.33499762 0.50077486
v -0.27474517 0.32843706 0.5540316
v -0.01877022 0.57258224 0.47205186
v -0.3178296 0.33499762 0.50077486
v -0.3321911 0.33763462 0.47205186
v -0.32583788 0.32843706 0.50077486
v -0.26704004 0.2135452 0.67311263
v -0.27474517 0.22790667 0.651908
v -0.2603837 0.2135452 0.6804359
v -0.26704004 0.2135452 0.67311263
v -0.43272147 -0.03059999 0.5595415
v -0.43382162 -0.03059999 0.55822074
v -0.26704004 0.2135452 0.67311263
v -0.43272147 -0.03059999 0.5595415
v -0.2603837 0.2135452 0.6804359
v -0.26704004 0.2135452 0.67311263
v -0.27474517 0.22790667 0.651908
v -0.34352988 0.24226816 0.5438593
v 0.19918372 0.04120742 0.858863
v 0.18482223 -0.01623851 0.8715233
v -0.18857628 0.17046076 0.7272786
v 0.19918372 0.04120742 0.858863
v 0.18482223 -0.01623851 0.8715233
v 0.2997141 -0.08804592 0.91386074
v 0.01248446 0.34389323 0.6874741
v -0.2603837 0.2135452 0.6804359
v -0.18857628 0.17046076 0.7272786
v 0.01248446 0.34389323 0.6874741
v 0.11301482 0.32843706 0.7198503
v -0.18857628 0.17046076 0.7272786
v 0.24226816 0.32843706 0.720422
v 0.35716 -0.13113035 0.92177975
v 0.2997141 -0.08804592 0.91386074
v 0.24226816 0.32843706 0.720422
v 0.35716 -0.13113035 0.92177975
v 0.3670813 -0.13113035 0.9172578
v 0.09865335 0.38588297 0.67799675
v 0.11301482 0.32843706 0.7198503
v 0.24226816 0.6874741 0.47915065
v -0.44474572 -0.03059999 0.5438593
v -0.45485833 -0.03059999 0.5151363
v -0.47327754 -0.11676888 0.50077486
v -0.44474572 -0.03059999 0.5438593
v -0.47327754 -0.11676888 0.50077486
v -0.4510885 -0.17421481 0.5294978
v -0.44474572 -0.03059999 0.5438593
v -0.36790985 -0.1024074 0.6443896
v -0.43382162 -0.03059999 0.55822074
v -0.44474572 -0.03059999 0.5438593
v -0.36790985 -0.1024074 0.6443896
v -0.4510885 -0.17421481 0.5294978
v -0.44474572 -0.03059999 0.5438593
v -0.41905493 0.11301482 0.50077486
v -0.34352988 0.24226816 0.5438593
v -0.44474572 -0.03059999 0.5438593
v -0.45485833 -0.03059999 0.5151363
v -0.42870027 0.24226816 0.3715215
v -0.44474572 -0.03059999 0.5438593
v -0.41905493 0.11301482 0.50077486
v -0.42870027 0.24226816 0.3715215
v -0.44474572 -0.03059999 0.5438593
v -0.26704004 0.2135452 0.67311263
v -0.43382162 -0.03059999 0.55822074
v -0.44474572 -0.03059999 0.5438593
v -0.26704004 0.2135452 0.67311263
v -0.34352988 0.24226816 0.5438593
v -0.3962067 0.28535262 0.41460595
v -0.36091405 0.3098154 0.4576904
v -0.40399852 0.29409286 0.38588297
v -0.3962067 0.28535262 0.41460595
v -0.36091405 0.3098154 0.4576904
v -0.36091405 0.29776594 0.47205186
v -0.3962067 0.28535262 0.41460595
v -0.40399852 0.29409286 0.38588297
v -0.42870027 0.24226816 0.3715215
v -0.3962067 0.28535262 0.41460595
v -0.41905493 0.11301482 0.50077486
v -0.42870027 0.24226816 0.3715215
v 0.43330866 0.28535262 0.11301482
v 0.43124723 0.28535262 0.08429187
v 0.45283088 0.24226816 0.11301482
v 0.43330866 0.28535262 0.11301482
v 0.31407556 0.58404416 0.50077486
v 0.45283088 0.24226816 0.11301482
v 0.43330866 0.28535262 0.11301482
v 0.31407556 0.58404416 0.50077486
v 0.43124723 0.28535262 0.08429187
v 0.2621723 0.67311263 0.47205186
v 0.31407556 0.58404416 0.50077486
v 0.43124723 0.28535262 0.08429187
v 0.2621723 0.67311263 0.47205186
v 0.31407556 0.58404416 0.50077486
v 0.29068896 0.6156667 0.5151363
v 0.2621723 0.67311263 0.47205186
v 0.29068896 0.6156667 0.5151363
v 0.287024 0.6156667 0.5294978
v 0.6156667 -0.43495926 0.25662965
v 0.48641336 -0.40675873 -0.17421481
v 0.29657143 -0.6194207 0.35716
v 0.6156667 -0.43495926 0.25662965
v 0.65875113 -0.404172 0.32843706
v 0.29657143 -0.6194207 0.35716
v 0.48949698 -0.40399852 -0.17421481
v 0.6620941 -0.34655258 0.2997141
v 0.6640326 -0.38963702 0.32843706
v 0.48949698 -0.40399852 -0.17421481
v 0.6620941 -0.34655258 0.2997141
v 0.4901306 -0.38963702 -0.17421481
v 0.48949698 -0.40399852 -0.17421481
v 0.35464004 -0.40399852 -0.37527555
v 0.4901306 -0.38963702 -0.17421481
v 0.48949698 -0.40399852 -0.17421481
v 0.3003807 -0.41836 -0.43272147
v 0.35464004 -0.40399852 -0.37527555
v 0.48949698 -0.40399852 -0.17421481
v 0.3003807 -0.41836 -0.43272147
v 0.48641336 -0.40675873 -0.17421481
v 0.4199296 0.28535262 0.0555689
v 0.41460595 0.29287982 0.0555689
v 0.43124723 0.28535262 0.08429187
v 0.4199296 0.28535262 0.0555689
v 0.43124723 0.28535262 0.08429187
v 0.44498593 0.22790667 0.04120742
v 0.24226816 0.6874741 0.46382868
v 0.18482223 0.6682519 0.41460595
v 0.24226816 0.69067854 0.47205186
v 0.24226816 0.6874741 0.46382868
v 0.34279853 0.32380927 0.02684594
v 0.18482223 0.6682519 0.41460595
v 0.2997141 -0.4189187 -0.43272147
v 0.48641336 -0.40675873 -0.17421481
v 0.2997141 -0.42354405 -0.41836
v 0.2997141 -0.4189187 -0.43272147
v 0.3003807 -0.41836 -0.43272147
v 0.48641336 -0.40675873 -0.17421481
v 0.2997141 -0.4189187 -0.43272147
v 0.18482223 -0.44815943 -0.5045289
v 0.2997141 -0.42354405 -0.41836
v 0.28535262 -0.6209531 0.3715215
v 0.2892262 -0.6194207 0.3715215
v 0.29657143 -0.6194207 0.35716
v 0.28535262 -0.6209531 0.3715215
v 0.2892262 -0.6194207 0.3715215
v 0.25662965 -0.6201857 0.41460595
v 0.24226816 -0.6282294 0.38588297
v 0.22790667 -0.62773186 0.3715215
v -0.43272147 -0.507643 0.25662965
v 0.24226816 -0.6282294 0.38588297
v -0.43272147 -0.5045289 0.264541
v -0.43272147 -0.507643 0.25662965
v 0.24226816 -0.6282294 0.38588297
v -0.43272147 -0.5045289 0.264541
v 0.25662965 -0.6201857 0.41460595
v 0.24226816 -0.62816995 0.35716
v 0.06993038 -0.46307778 -0.5332518
v -0.43272147 -0.507643 0.25662965
v 0.24226816 -0.62816995 0.35716
v 0.22790667 -0.62773186 0.3715215
v -0.43272147 -0.507643 0.25662965
v 0.24226816 -0.62816995 0.35716
v 0.25662965 -0.6228842 0.32843706
v 0.06993038 -0.46307778 -0.5332518
v 0.24226816 -0.62816995 0.35716
v 0.24226816 -0.6282294 0.38588297
v 0.22790667 -0.62773186 0.3715215
v 0.06993038 -0.46144444 -0.5352316
v 0.18482223 -0.44708297 -0.50632876
v 0.06993038 -0.46307778 -0.5332518
v 0.06993038 -0.46144444 -0.5352316
v 0.0555689 -0.44708297 -0.5453516
v 0.06993038 -0.46307778 -0.5332518
v -0.6121299 -0.21729925 -0.38963702
v -0.39673242 0.40024447 0.06993038
v -0.61746246 -0.21729925 -0.37527555
v -0.6121299 -0.21729925 -0.38963702
v -0.6072146 -0.24602221 -0.43272147
v -0.61746246 -0.21729925 -0.37527555
v -0.60505927 -0.24214335 -0.43272147
v 0.0555689 -0.44708297 -0.5453516
v -0.57633626 -0.23166074 -0.42948803
v -0.60505927 -0.24214335 -0.43272147
v 0.0555689 -0.44708297 -0.5453516
v -0.60505927 -0.24602221 -0.43429813
v -0.60505927 -0.24214335 -0.43272147
v -0.6072146 -0.24602221 -0.43272147
v -0.60505927 -0.24602221 -0.43429813
v -0.60505927 -0.24214335 -0.43272147
v -0.38963702 0.40762496 0.06993038
v -0.39673242 0.40024447 0.06993038
v -0.60505927 -0.24214335 -0.43272147
v -0.6121299 -0.21729925 -0.38963702
v -0.39673242 0.40024447 0.06993038
v -0.60505927 -0.24214335 -0.43272147
v -0.6121299 -0.21729925 -0.38963702
v -0.6072146 -0.24602221 -0.43272147
v 0.3801332 -0.14549184 0.9172578
v 0.35716 -0.13113035 0.92177975
v 0.3670813 -0.13113035 0.9172578
v 0.3801332 -0.14549184 0.9172578
v 0.41460595 -0.17421481 0.9114905
v 0.41460595 -0.21729925 0.9219364
v -0.01623851 0.57258224 0.47340024
v 0.02684594 0.42935586 0.6300282
v -0.01623851 0.40667257 0.6300282
v -0.01623851 0.57258224 0.47340024
v -0.01877022 0.57258224 0.47205186
v -0.17421481 0.31407556 0.6374172
v -0.01623851 0.57258224 0.47340024
v -0.01623851 0.40667257 0.6300282
v -0.17421481 0.31407556 0.6374172
v -0.01623851 0.57258224 0.47340024
v -0.01877022 0.57258224 0.47205186
v 0.24226816 0.6874741 0.47915065
v -0.01623851 0.57258224 0.47340024
v 0.02684594 0.42935586 0.6300282
v 0.24226816 0.6874741 0.47915065
v -0.38963702 0.30376124 0.40024447
v -0.3321911 0.33763462 0.47205186
v -0.40399852 0.29409286 0.38588297
v -0.38963702 0.30376124 0.40024447
v -0.38963702 0.40762496 0.06993038
v -0.40399852 0.29409286 0.38588297
v -0.38963702 0.30376124 0.40024447
v -0.38963702 0.40762496 0.06993038
v -0.3321911 0.33763462 0.47205186
v -0.18857628 0.35716 -0.01585129
v 0.09865335 0.3587389 0.01248446
v -0.20293777 0.33199698 -0.04496147
v -0.18857628 0.35716 -0.01585129
v -0.27474517 0.3715215 -0.00228145
v -0.20293777 0.33199698 -0.04496147
v 0.04120742 0.33138043 -0.01623851
v 0.0555689 -0.44708297 -0.5453516
v 0.31407556 0.31407556 0.00815121
v 0.04120742 0.33138043 -0.01623851
v 0.0555689 -0.44708297 -0.5453516
v -0.17421481 0.2997141 -0.06556337
v -0.07368443 0.6156667 0.32320753
v -0.07805609 0.6156667 0.31407556
v -0.3321911 0.33763462 0.47205186
v -0.07368443 0.6156667 0.32320753
v -0.3178296 0.33499762 0.50077486
v -0.3321911 0.33763462 0.47205186
v -0.07368443 0.6156667 0.32320753
v -0.3178296 0.33499762 0.50077486
v -0.01877022 0.57258224 0.47205186
v -0.07368443 0.6156667 0.32320753
v -0.07805609 0.6156667 0.31407556
v -0.07368443 0.61841196 0.31407556
v -0.07368443 0.6156667 0.32320753
v -0.01877022 0.57258224 0.47205186
v -0.03059999 0.61974806 0.35716
v -0.07368443 0.6156667 0.32320753
v -0.07368443 0.61841196 0.31407556
v 0.24226816 0.69067854 0.47205186
v -0.07368443 0.6156667 0.32320753
v -0.03059999 0.61974806 0.35716
v 0.24226816 0.69067854 0.47205186
v 0.14173779 0.22790667 0.7716049
v 0.19918372 0.04120742 0.858863
v -0.18857628 0.17046076 0.7272786
v 0.14173779 0.22790667 0.7716049
v 0.24226816 0.32843706 0.720422
v 0.11301482 0.32843706 0.7198503
v 0.01248446 0.3646106 0.67311263
v 0.02684594 0.42896742 0.63037145
v -0.2603837 0.2135452 0.6804359
v 0.01248446 0.3646106 0.67311263
v 0.01248446 0.34389323 0.6874741
v -0.2603837 0.2135452 0.6804359
v 0.28535262 0.58694375 0.55389494
v 0.24226816 0.32843706 0.720422
v 0.11301482 0.32843706 0.7198503
v 0.28535262 0.58694375 0.55389494
v 0.24226816 0.32843706 0.720422
v 0.3670813 -0.13113035 0.9172578
v 0.28535262 0.58694375 0.55389494
v 0.11301482 0.32843706 0.7198503
v 0.24226816 0.6874741 0.47915065
v 0.28535262 0.58694375 0.55389494
v 0.3801332 -0.14549184 0.9172578
v 0.3670813 -0.13113035 0.9172578
v 0.28535262 0.58694375 0.55389494
v 0.3801332 -0.14549184 0.9172578
v 0.41460595 -0.17421481 0.9114905
v 0.28535262 0.58694375 0.55389494
v 0.29309106 0.58694375 0.5438593
v 0.287024 0.6156667 0.5294978
v 0.28535262 0.58694375 0.55389494
v 0.28535262 0.6167167 0.5294978
v 0.287024 0.6156667 0.5294978
v 0.28535262 0.58694375 0.55389494
v 0.28535262 0.6167167 0.5294978
v 0.24226816 0.6874741 0.47915065
v 0.28535262 0.58694375 0.55389494
v 0.41460595 -0.17421481 0.9114905
v 0.29309106 0.58694375 0.5438593
v 0.25662965 0.06691525 0.8454504
v 0.19918372 0.04120742 0.858863
v 0.2997141 -0.08804592 0.91386074
v 0.25662965 0.06691525 0.8454504
v 0.24226816 0.32843706 0.720422
v 0.2997141 -0.08804592 0.91386074
v 0.25662965 0.06691525 0.8454504
v 0.14173779 0.22790667 0.7716049
v 0.19918372 0.04120742 0.858863
v 0.25662965 0.06691525 0.8454504
v 0.14173779 0.22790667 0.7716049
v 0.24226816 0.32843706 0.720422
v 0.06993038 0.40024447 0.6629687
v 0.01248446 0.34389323 0.6874741
v 0.11301482 0.32843706 0.7198503
v 0.06993038 0.40024447 0.6629687
v 0.09865335 0.38588297 0.67799675
v 0.11301482 0.32843706 0.7198503
v 0.06993038 0.40024447 0.6629687
v 0.01248446 0.3646106 0.67311263
v 0.01248446 0.34389323 0.6874741
v 0.06993038 0.40024447 0.6629687
v 0.09865335 0.38588297 0.67799675
v 0.24226816 0.6874741 0.47915065
v 0.06993038 0.40024447 0.6629687
v 0.01248446 0.3646106 0.67311263
v 0.02684594 0.42896742 0.63037145
v 0.06993038 0.40024447 0.6629687
v 0.02684594 0.42896742 0.63037145
v 0.24226816 0.6874741 0.47915065
v 0.25067598 0.6874741 0.47205186
v 0.24226816 0.6874741 0.47915065
v 0.24226816 0.69067854 0.47205186
v 0.25067598 0.6874741 0.47205186
v 0.24226816 0.6874741 0.47915065
v 0.25662965 0.67311263 0.4881552
v 0.25067598 0.6874741 0.47205186
v 0.24226816 0.6874741 0.46382868
v 0.24226816 0.69067854 0.47205186
v 0.25067598 0.6874741 0.47205186
v 0.34279853 0.32380927 0.02684594
v 0.41460595 0.29287982 0.0555689
v 0.25067598 0.6874741 0.47205186
v 0.24226816 0.6874741 0.46382868
v 0.34279853 0.32380927 0.02684594
v 0.25780192 0.67311263 0.48641336
v 0.25662965 0.67311263 0.4881552
v 0.287024 0.6156667 0.5294978
v 0.6589961 -0.40399852 0.32843706
v 0.48949698 -0.40399852 -0.17421481
v 0.6640326 -0.38963702 0.32843706
v 0.6589961 -0.40399852 0.32843706
v 0.65875113 -0.40399852 0.32894042
v 0.65875113 -0.404172 0.32843706
v 0.6589961 -0.40399852 0.32843706
v 0.6156667 -0.43495926 0.25662965
v 0.65875113 -0.404172 0.32843706
v 0.6589961 -0.40399852 0.32843706
v 0.43448743 -0.28910667 0.90289634
v 0.6640326 -0.38963702 0.32843706
v 0.6589961 -0.40399852 0.32843706
v 0.65875113 -0.40399852 0.32894042
v 0.43448743 -0.28910667 0.90289634
v 0.61845994 -0.43272147 0.25662965
v 0.6156667 -0.43495926 0.25662965
v 0.48641336 -0.40675873 -0.17421481
v 0.61845994 -0.43272147 0.25662965
v 0.48949698 -0.40399852 -0.17421481
v 0.48641336 -0.40675873 -0.17421481
v 0.61845994 -0.43272147 0.25662965
v 0.6589961 -0.40399852 0.32843706
v 0.6156667 -0.43495926 0.25662965
v 0.61845994 -0.43272147 0.25662965
v 0.6589961 -0.40399852 0.32843706
v 0.48949698 -0.40399852 -0.17421481
v 0.41595298 0.27099112 0.02684594
v 0.41460595 0.29287982 0.0555689
v 0.41460595 0.27099112 0.02516755
v 0.41595298 0.27099112 0.02684594
v 0.4199296 0.28535262 0.0555689
v 0.41460595 0.29287982 0.0555689
v 0.41595298 0.27099112 0.02684594
v 0.4199296 0.28535262 0.0555689
v 0.44498593 0.22790667 0.04120742
v 0.41595298 0.27099112 0.02684594
v 0.42896742 0.19918372 0.00262299
v 0.44498593 0.22790667 0.04120742
v 0.41595298 0.27099112 0.02684594
v 0.41460595 0.27099112 0.02516755
v 0.42896742 0.19918372 0.00262299
v 0.18690428 -0.44708297 -0.5045289
v 0.18482223 -0.44815943 -0.5045289
v 0.18482223 -0.44708297 -0.50632876
v 0.18690428 -0.44708297 -0.5045289
v 0.2997141 -0.4189187 -0.43272147
v 0.18482223 -0.44815943 -0.5045289
v 0.18690428 -0.44708297 -0.5045289
v 0.3003807 -0.41836 -0.43272147
v 0.18482223 -0.44708297 -0.50632876
v 0.18690428 -0.44708297 -0.5045289
v 0.2997141 -0.4189187 -0.43272147
v 0.3003807 -0.41836 -0.43272147
v 0.25662965 -0.6280473 0.3715215
v 0.24226816 -0.62816995 0.35716
v 0.24226816 -0.6282294 0.38588297
v 0.25662965 -0.6280473 0.3715215
v 0.24226816 -0.62816995 0.35716
v 0.25662965 -0.6228842 0.32843706
v 0.25662965 -0.6280473 0.3715215
v 0.25662965 -0.6228842 0.32843706
v 0.29657143 -0.6194207 0.35716
v 0.25662965 -0.6280473 0.3715215
v 0.28535262 -0.6209531 0.3715215
v 0.29657143 -0.6194207 0.35716
v 0.25662965 -0.6280473 0.3715215
v 0.28535262 -0.6209531 0.3715215
v 0.25662965 -0.6201857 0.41460595
v 0.25662965 -0.6280473 0.3715215
v 0.24226816 -0.6282294 0.38588297
v 0.25662965 -0.6201857 0.41460595
v 0.06993038 -0.44708297 -0.54189855
v 0.06993038 -0.46144444 -0.5352316
v 0.18482223 -0.44708297 -0.50632876
v 0.06993038 -0.44708297 -0.54189855
v 0.06993038 -0.46144444 -0.5352316
v 0.0555689 -0.44708297 -0.5453516
v 0.06993038 -0.44708297 -0.54189855
v 0.18482223 -0.44708297 -0.50632876
v 0.31407556 0.31407556 0.00815121
v 0.06993038 -0.44708297 -0.54189855
v 0.0555689 -0.44708297 -0.5453516
v 0.31407556 0.31407556 0.00815121
v -0.28910667 0.33550724 -0.03059999
v -0.23166074 0.32843706 -0.04610746
v -0.57633626 -0.23166074 -0.42948803
v -0.28910667 0.33550724 -0.03059999
v -0.60505927 -0.24214335 -0.43272147
v -0.57633626 -0.23166074 -0.42948803
v -0.28910667 0.33550724 -0.03059999
v -0.27474517 0.3715215 -0.00228145
v -0.23166074 0.32843706 -0.04610746
v -0.28910667 0.33550724 -0.03059999
v -0.27474517 0.3715215 -0.00228145
v -0.3178296 0.38588297 0.01980172
v -0.37527555 0.40024447 0.04715288
v -0.28910667 0.33550724 -0.03059999
v -0.3178296 0.38588297 0.01980172
v -0.37527555 0.40024447 0.04715288
v -0.28910667 0.33550724 -0.03059999
v -0.60505927 -0.24214335 -0.43272147
v -0.23166074 0.3297108 -0.04496147
v -0.23166074 0.32843706 -0.04610746
v -0.20293777 0.33199698 -0.04496147
v -0.23166074 0.3297108 -0.04496147
v -0.27474517 0.3715215 -0.00228145
v -0.20293777 0.33199698 -0.04496147
v -0.23166074 0.3297108 -0.04496147
v -0.27474517 0.3715215 -0.00228145
v -0.23166074 0.32843706 -0.04610746
v -0.34655258 0.42705226 0.06993038
v -0.27474517 0.3715215 -0.00228145
v -0.3178296 0.38588297 0.01980172
v -0.34655258 0.42705226 0.06993038
v -0.27474517 0.44334853 0.08429187
v -0.07368443 0.6156667 0.30490944
v -0.34655258 0.42705226 0.06993038
v -0.07368443 0.6156667 0.30490944
v -0.07368443 0.61841196 0.31407556
v -0.34655258 0.42705226 0.06993038
v -0.38963702 0.40762496 0.06993038
v -0.07368443 0.61841196 0.31407556
v 0.3715215 -0.14549184 0.92029154
v 0.35716 -0.13113035 0.92177975
v 0.41460595 -0.21729925 0.9219364
v 0.3715215 -0.14549184 0.92029154
v 0.3801332 -0.14549184 0.9172578
v 0.41460595 -0.21729925 0.9219364
v 0.3715215 -0.14549184 0.92029154
v 0.3801332 -0.14549184 0.9172578
v 0.35716 -0.13113035 0.92177975
v 0.02684594 0.3715215 0.02083091
v 0.09865335 0.3587389 0.01248446
v -0.07368443 0.6156667 0.30490944
v 0.02684594 0.3715215 0.02083091
v -0.18857628 0.35716 -0.01585129
v -0.07368443 0.6156667 0.30490944
v 0.02684594 0.3715215 0.02083091
v -0.18857628 0.35716 -0.01585129
v 0.09865335 0.3587389 0.01248446
v -0.20293777 0.32843706 -0.04774377
v 0.04120742 0.33138043 -0.01623851
v -0.17421481 0.2997141 -0.06556337
v -0.20293777 0.32843706 -0.04774377
v -0.20293777 0.3120506 -0.05932295
v -0.17421481 0.2997141 -0.06556337
v -0.20293777 0.32843706 -0.04774377
v -0.23166074 0.32843706 -0.04610746
v -0.20293777 0.33199698 -0.04496147
v -0.20293777 0.32843706 -0.04774377
v -0.20293777 0.3120506 -0.05932295
v -0.57633626 -0.23166074 -0.42948803
v -0.20293777 0.32843706 -0.04774377
v -0.23166074 0.32843706 -0.04610746
v -0.57633626 -0.23166074 -0.42948803
v 0.09865335 0.35716 0.01074263
v 0.09865335 0.3587389 0.01248446
v -0.20293777 0.33199698 -0.04496147
v 0.09865335 0.35716 0.01074263
v -0.20293777 0.32843706 -0.04774377
v -0.20293777 0.33199698 -0.04496147
v 0.09865335 0.35716 0.01074263
v -0.20293777 0.32843706 -0.04774377
v 0.04120742 0.33138043 -0.01623851
v 0.09865335 0.35716 0.01074263
v 0.09865335 0.3587389 0.01248446
v 0.31407556 0.31407556 0.00815121
v 0.09865335 0.35716 0.01074263
v 0.04120742 0.33138043 -0.01623851
v 0.31407556 0.31407556 0.00815121
v 0.11301482 0.27099112 0.74692976
v 0.11301482 0.32843706 0.7198503
v -0.18857628 0.17046076 0.7272786
v 0.11301482 0.27099112 0.74692976
v 0.14173779 0.22790667 0.7716049
v -0.18857628 0.17046076 0.7272786
v 0.11301482 0.27099112 0.74692976
v 0.14173779 0.22790667 0.7716049
v 0.11301482 0.32843706 0.7198503
v 0.25662965 0.6807361 0.47205186
v 0.2621723 0.67311263 0.47205186
v 0.43124723 0.28535262 0.08429187
v 0.25662965 0.6807361 0.47205186
v 0.41460595 0.29287982 0.0555689
v 0.43124723 0.28535262 0.08429187
v 0.25662965 0.6807361 0.47205186
v 0.25067598 0.6874741 0.47205186
v 0.41460595 0.29287982 0.0555689
v 0.25662965 0.6807361 0.47205186
v 0.25780192 0.67311263 0.48641336
v 0.25067598 0.6874741 0.47205186
v 0.25662965 0.6807361 0.47205186
v 0.2621723 0.67311263 0.47205186
v 0.287024 0.6156667 0.5294978
v 0.25662965 0.6807361 0.47205186
v 0.25780192 0.67311263 0.48641336
v 0.287024 0.6156667 0.5294978
v 0.25662965 0.6741906 0.48641336
v 0.25067598 0.6874741 0.47205186
v 0.25662965 0.67311263 0.4881552
v 0.25662965 0.6741906 0.48641336
v 0.25780192 0.67311263 0.48641336
v 0.25662965 0.67311263 0.4881552
v 0.25662965 0.6741906 0.48641336
v 0.25780192 0.67311263 0.48641336
v 0.25067598 0.6874741 0.47205186
v -0.27474517 0.44332892 0.08426546
v -0.34655258 0.42705226 0.06993038
v -0.27474517 0.3715215 -0.00228145
v -0.27474517 0.44332892 0.08426546
v -0.34655258 0.42705226 0.06993038
v -0.27474517 0.44334853 0.08429187
v -0.27474517 0.44332892 0.08426546
v -0.18857628 0.35716 -0.01585129
v -0.27474517 0.3715215 -0.00228145
v -0.27474517 0.44332892 0.08426546
v -0.27474517 0.44334853 0.08429187
v -0.07368443 0.6156667 0.30490944
v -0.27474517 0.44332892 0.08426546
v -0.18857628 0.35716 -0.01585129
v -0.07368443 0.6156667 0.30490944
v -0.37527555 0.40952903 0.0555689
v -0.37527555 0.40024447 0.04715288
v -0.3178296 0.38588297 0.01980172
v -0.37527555 0.40952903 0.0555689
v -0.34655258 0.42705226 0.06993038
v -0.3178296 0.38588297 0.01980172
v -0.37527555 0.40952903 0.0555689
v -0.34655258 0.42705226 0.06993038
v -0.38963702 0.40762496 0.06993038
v -0.37527555 0.40952903 0.0555689
v -0.60505927 -0.24214335 -0.43272147
v -0.38963702 0.40762496 0.06993038
v -0.37527555 0.40952903 0.0555689
v -0.37527555 0.40024447 0.04715288
v -0.60505927 -0.24214335 -0.43272147
v -0.3690532 0.27099112 0.48641336
v -0.41905493 0.11301482 0.50077486
v -0.34352988 0.24226816 0.5438593
v -0.3690532 0.27099112 0.48641336
v -0.3962067 0.28535262 0.41460595
v -0.41905493 0.11301482 0.50077486
v -0.3690532 0.27099112 0.48641336
v -0.3962067 0.28535262 0.41460595
v -0.36091405 0.29776594 0.47205186
v -0.3690532 0.27099112 0.48641336
v -0.36091405 0.29776594 0.47205186
v -0.32583788 0.32843706 0.50077486
v -0.3690532 0.27099112 0.48641336
v -0.27474517 0.22790667 0.651908
v -0.32583788 0.32843706 0.50077486
v -0.3690532 0.27099112 0.48641336
v -0.27474517 0.22790667 0.651908
v -0.34352988 0.24226816 0.5438593
f 1 2 3
f 4 5 6
f 7 8 9
f 10 11 12
f 13 14 15
f 16 17 18
f 19 20 21
f 22 23 24
f 25 26 27
f 28 29 30
f 31 32 33
f 34 35 36
f 37 38 39
f 40 41 42
f 43 44 45
f 46 47 48
f 49 50 51
f 52 53 54
f 55 56 57
f 58 59 60
f 61 62 63
f 64 65 66
f 67 68 69
f 70 71 72
f 73 74 75
f 76 77 78
f 79 80 81
f 82 83 84
f 85 86 87
f 88 89 90
f 91 92 93
f 94 95 96
f 97 98 99
f 100 101 102
f 103 104 105
f 106 107 108
f 109 110 111
f 112 113 114
f 115 116 117
f 118 119 120
f 121 122 123
f 124 125 126
f 127 128 129
f 130 131 132
f 133 134 135
f 136 137 138
f 139 140 141
f 142 143 144
f 145 146 147
f 148 149 150
f 151 152 153
f 154 155 156
f 157 158 159
f 160 161 162
f 163 164 165
f 166 167 168
f 169 170 171
f 172 173 174
f 175 176 177
f 178 179 180
f 181 182 183
f 184 185 186
f 187 188 189
f 190 191 192
f 193 194 195
f 196 197 198
f 199 200 201
f 202 203 204
f 205 206 207
f 208 209 210
f 211 212 213
f 214 215 216
f 217 218 219
f 220 221 222
f 223 224 225
f 226 227 228
f 229 230 231
f 232 233 234
f 235 236 237
f 238 239 240
f 241 242 243
f 244 245 246
f 247 248 249
f 250 251 252
f 253 254 255
f 256 257 258
f 259 260 261
f 262 263 264
f 265 266 267
f 268 269 270
f 271 272 273
f 274 275 276
f 277 278 279
f 280 281 282
f 283 284 285
f 286 287 288
f 289 290 291
f 292 293 294
f 295 296 297
f 298 299 300
f 301 302 303
f 304 305 306
f 307 308 309
f 310 311 312
f 313 314 315
f 316 317 318
f 319 320 321
f 322 323 324
f 325 326 327
f 328 329 330
f 331 332 333
f 334 335 336
f 337 338 339
f 340 341 342
f 343 344 345
f 346 347 348
f 349 350 351
f 352 353 354
f 355 356 357
f 358 359 360
f 361 362 363
f 364 365 366
f 367 368 369
f 370 371 372
f 373 374 375
f 376 377 378
f 379 380 381
f 382 383 384
f 385 386 387
f 388 389 390
f 391 392 393
f 394 395 396
f 397 398 399
f 400 401 402
f 403 404 405
f 406 407 408
f 409 410 411
f 412 413 414
f 415 416 417
f 418 419 420
f 421 422 423
f 424 425 426
f 427 428 429
f 430 431 432
f 433 434 435
f 436 437 438
f 439 440 441
f 442 443 444
f 445 446 447
f 448 449 450
f 451 452 453
f 454 455 456
f 457 458 459
f 460 461 462
f 463 464 465
f 466 467 468
f 469 470 471
f 472 473 474
f 475 476 477
f 478 479 480
f 481 482 483
f 484 485 486
f 487 488 489
f 490 491 492
f 493 494 495
f 496 497 498
f 499 500 501
f 502 503 504
f 505 506 507
f 508 509 510
f 511 512 513
f 514 515 516
f 517 518 519
f 520 521 522
f 523 524 525
f 526 527 528
f 529 530 531
f 532 533 534
f 535 536 537
f 538 539 540
f 541 542 543
f 544 545 546
f 547 548 549
f 550 551 552
f 553 554 555
f 556 557 558
f 559 560 561
f 562 563 564
f 565 566 567
f 568 569 570
f 571 572 573
f 574 575 576
f 577 578 579
f 580 581 582
f 583 584 585
f 586 587 588
f 589 590 591
f 592 593 594
f 595 596 597
f 598 599 600
f 601 602 603
f 604 605 606
f 607 608 609
f 610 611 612
f 613 614 615
f 616 617 618
f 619 620 621
f 622 623 624
f 625 626 627
f 628 629 630
f 631 632 633
f 634 635 636
f 637 638 639
f 640 641 642
f 643 644 645
f 646 647 648
f 649 650 651
f 652 653 654
f 655 656 657
f 658 659 660
f 661 662 663
f 664 665 666
f 667 668 669
f 670 671 672
f 673 674 675
f 676 677 678
f 679 680 681
f 682 683 684
f 685 686 687
f 688 689 690
f 691 692 693
f 694 695 696
f 697 698 699
f 700 701 702
f 703 704 705
f 706 707 708
f 709 710 711
f 712 713 714
f 715 716 717
f 718 719 720
f 721 722 723
f 724 725 726
f 727 728 729
f 730 731 732
f 733 734 735
f 736 737 738
f 739 740 741
f 742 743 744
f 745 746 747
f 748 749 750
f 751 752 753
f 754 755 756
f 757 758 759
f 760 761 762
f 763 764 765
f 766 767 768
f 769 770 771
f 772 773 774
f 775 776 777
f 778 779 780
f 781 782 783
f 784 785 786
f 787 788 789
f 790 791 792
f 793 794 795
f 796 797 798
f 799 800 801
f 802 803 804
f 805 806 807
f 808 809 810
f 811 812 813
f 814 815 816
f 817 818 819
f 820 821 822
f 823 824 825
f 826 827 828
f 829 830 831
f 832 833 834
f 835 836 837
f 838 839 840
f 841 842 843
f 844 845 846
f 847 848 849
f 850 851 852
f 853 854 855
f 856 857 858
f 859 860 861
f 862 863 864
f 865 866 867
f 868 869 870
f 871 872 873
f 874 875 876
f 877 878 879
f 880 881 882
f 883 884 885
f 886 887 888
f 889 890 891
f 892 893 894
f 895 896 897
f 898 899 900
f 901 902 903
f 904 905 906
f 907 908 909
f 910 911 912
f 913 914 915
f 916 917 918
f 919 920 921
f 922 923 924
f 925 926 927
f 928 929 930
f 931 932 933
f 934 935 936
f 937 938 939
f 940 941 942
f 943 944 945
f 946 947 948
f 949 950 951
f 952 953 954
f 955 956 957
f 958 959 960
f 961 962 963
f 964 965 966
f 967 968 969
f 970 971 972
f 973 974 975
f 976 977 978
f 979 980 981
f 982 983 984
f 985 986 987
f 988 989 990
f 991 992 993
f 994 995 996
f 997 998 999
f 1000 1001 1002
f 1003 1004 1005
f 1006 1007 1008
f 1009 1010 1011
f 1012 1013 1014
f 1015 1016 1017
f 1018 1019 1020
f 1021 1022 1023
f 1024 1025 1026
f 1027 1028 1029
f 1030 1031 1032
f 1033 1034 1035
f 1036 1037 1038
f 1039 1040 1041
f 1042 1043 1044
f 1045 1046 1047
f 1048 1049 1050
f 1051 1052 1053
f 1054 1055 1056
f 1057 1058 1059
f 1060 1061 1062
f 1063 1064 1065
f 1066 1067 1068
f 1069 1070 1071
f 1072 1073 1074
f 1075 1076 1077
f 1078 1079 1080
f 1081 1082 1083
f 1084 1085 1086
f 1087 1088 1089
f 1090 1091 1092
f 1093 1094 1095
f 1096 1097 1098
f 1099 1100 1101
f 1102 1103 1104
f 1105 1106 1107
f 1108 1109 1110
f 1111 1112 1113
f 1114 1115 1116
f 1117 1118 1119
f 1120 1121 1122
f 1123 1124 1125
f 1126 1127 1128
f 1129 1130 1131
f 1132 1133 1134
f 1135 1136 1137
f 1138 1139 1140
