v 0.09171516 -0.02496023 0.12903515
v -0.02828484 -0.03896023 0.10683819
v 0.09971516 -0.02096023 0.13054559
v -0.11828484 0.00103977 0.0414071
v -0.11828484 0.03703976 0.04061268
v -0.02828484 -0.03896023 0.10683819
v 0.04966792 -0.10696023 0.10839473
v 0.10571516 -0.02896023 0.12472871
v 0.04971516 -0.10696023 0.10835206
v 0.04966792 -0.10696023 0.10839473
v 0.10571516 -0.02896023 0.12472871
v 0.03771516 -0.11096023 0.11354405
v 0.11771516 -0.05896023 0.05606636
v 0.11771516 -0.04896023 0.0614308
v 0.1132144 -0.04896023 0.05239473
v 0.11771516 -0.05896023 0.05606636
v 0.10971516 -0.06096023 0.04443876
v 0.1132144 -0.04896023 0.05239473
v -0.11028484 0.05798722 0.03039473
v 0.10571516 0.00703977 0.11814167
v -0.11628484 0.05303977 0.03357286
v -0.11028484 0.05798722 0.03039473
v -0.08428484 0.07413785 0.01839473
v 0.10571516 0.00703977 0.11814167
v 0.10571516 -0.01096023 0.1293604
v -0.02828484 -0.03896023 0.10683819
v 0.09971516 -0.02096023 0.13054559
v -0.02828484 -0.0374583 0.10639473
v 0.10771516 -0.00896023 0.12901741
v -0.11628484 0.05303977 0.03357286
v -0.02828484 -0.0374583 0.10639473
v -0.11828484 0.03703976 0.04061268
v -0.11628484 0.05303977 0.03357286
v -0.02828484 -0.0374583 0.10639473
v -0.11828484 0.03703976 0.04061268
v -0.02828484 -0.03896023 0.10683819
v -0.02828484 -0.0374583 0.10639473
v 0.10571516 -0.01096023 0.1293604
v -0.02828484 -0.03896023 0.10683819
v -0.02828484 -0.0374583 0.10639473
v 0.10571516 -0.01096023 0.1293604
v 0.10771516 -0.00896023 0.12901741
v 0.10571516 0.00103977 0.12219192
v 0.10571516 0.00703977 0.11814167
v -0.11628484 0.05303977 0.03357286
v 0.03171516 -0.11587234 0.11239472
v 0.04371516 -0.11196964 0.10639473
v 0.04971516 -0.10696023 0.10835206
v 0.03171516 -0.11587234 0.11239472
v 0.04966792 -0.10696023 0.10839473
v 0.04971516 -0.10696023 0.10835206
v -0.10428484 0.00503977 -0.0310685
v -0.11228484 -0.00496023 -0.02809945
v -0.04628484 0.03503977 -0.06729297
v -0.10428484 0.00503977 -0.0310685
v -0.11028484 0.0294289 -0.00960527
v -0.04628484 0.03503977 -0.06729297
v 0.02571516 -0.11496024 0.11326057
v -0.02628484 -0.04896023 0.10661065
v -0.02628484 -0.05078326 0.10639473
v 0.02571516 -0.11496024 0.11326057
v -0.02628484 -0.04896023 0.10661065
v -0.02828484 -0.03896023 0.10683819
v 0.02571516 -0.11496024 0.11326057
v 0.09171516 -0.02496023 0.12903515
v -0.02828484 -0.03896023 0.10683819
v 0.02571516 -0.11496024 0.11326057
v 0.09171516 -0.02496023 0.12903515
v 0.09971516 -0.02096023 0.13054559
v 0.02171516 -0.11496024 0.10999398
v 0.02571516 -0.11496024 0.11326057
v 0.02571516 -0.11594561 0.11239472
v -0.02690813 -0.04896023 0.10639473
v -0.11828484 0.00103977 0.0414071
v -0.02828484 -0.03896023 0.10683819
v -0.02690813 -0.04896023 0.10639473
v -0.11828484 0.00103977 0.0414071
v -0.02628484 -0.05078326 0.10639473
v -0.02690813 -0.04896023 0.10639473
v -0.02628484 -0.04896023 0.10661065
v -0.02828484 -0.03896023 0.10683819
v -0.02690813 -0.04896023 0.10639473
v -0.02628484 -0.04896023 0.10661065
v -0.02628484 -0.05078326 0.10639473
v -0.11628484 -0.00096023 0.04217639
v 0.01414444 -0.11096023 0.10639473
v -0.02628484 -0.05078326 0.10639473
v -0.11628484 -0.00096023 0.04217639
v -0.11828484 0.00103977 0.0414071
v -0.02628484 -0.05078326 0.10639473
v -0.11628484 -0.00096023 0.04217639
v 0.01414444 -0.11096023 0.10639473
v -0.03924783 -0.07496024 0.06639473
v 0.04971516 -0.10784855 0.10639473
v 0.04371516 -0.11196964 0.10639473
v 0.04971516 -0.10696023 0.10835206
v 0.04971516 -0.10784855 0.10639473
v 0.09700164 -0.08896023 0.06839473
v 0.04971516 -0.10696023 0.10835206
v 0.11682096 -0.02696023 0.10639473
v 0.11771516 -0.0575829 0.08039472
v 0.1137068 -0.01896023 0.12039472
v 0.1135397 -0.04896023 0.09639473
v 0.11771516 -0.0575829 0.08039472
v 0.1137068 -0.01896023 0.12039472
v 0.11771516 -0.06589519 0.07239473
v 0.11371516 -0.07224617 0.06639473
v 0.09700164 -0.08896023 0.06839473
v 0.11771516 -0.06589519 0.07239473
v 0.09700164 -0.08896023 0.06839473
v 0.04971516 -0.10696023 0.10835206
v 0.10571516 -0.04896023 0.04306587
v 0.10971516 -0.06096023 0.04443876
v 0.1132144 -0.04896023 0.05239473
v 0.11771516 -0.06496024 0.05721392
v 0.10971516 -0.06096023 0.04443876
v 0.11771516 -0.06696023 0.05803276
v 0.11459123 -0.04696023 0.05639473
v 0.11771516 -0.02296023 0.08036779
v 0.11771516 -0.04896023 0.0614308
v 0.11459123 -0.04696023 0.05639473
v 0.11771516 -0.04896023 0.0614308
v 0.1132144 -0.04896023 0.05239473
v 0.11459123 -0.04696023 0.05639473
v 0.11771516 -0.02296023 0.08036779
v 0.1132144 -0.04896023 0.05239473
v 0.09424337 0.01703977 0.07239473
v 0.11771516 -0.02296023 0.08036779
v 0.1132144 -0.04896023 0.05239473
v 0.11571516 0.00610394 0.10839473
v 0.09771516 0.01804093 0.10439473
v 0.06971516 0.03986897 0.07239473
v 0.11571516 0.00610394 0.10839473
v 0.11111262 0.00703977 0.11639473
v 0.09771516 0.01804093 0.10439473
v 0.09571516 0.01503977 0.10814695
v -0.08428484 0.07413785 0.01839473
v 0.10571516 0.00703977 0.11814167
v 0.09571516 0.01503977 0.10814695
v 0.09771516 0.01804093 0.10439473
v 0.10571516 0.00703977 0.11814167
v 0.09571516 0.01503977 0.10814695
v 0.09771516 0.01804093 0.10439473
v -0.08428484 0.07413785 0.01839473
v 0.00771516 0.08211571 0.01039473
v -0.02828484 0.10343178 -0.02160528
v -0.08428484 0.07413785 0.01839473
v 0.10771516 -0.00791334 0.12839472
v 0.10571516 0.00103977 0.12219192
v 0.10571516 0.00703977 0.11814167
v 0.10771516 -0.00791334 0.12839472
v 0.10771516 -0.00896023 0.12901741
v -0.11628484 0.05303977 0.03357286
v 0.10771516 -0.00791334 0.12839472
v 0.10571516 0.00103977 0.12219192
v -0.11628484 0.05303977 0.03357286
v 0.03771516 -0.11189581 0.11239472
v 0.04966792 -0.10696023 0.10839473
v 0.03771516 -0.11096023 0.11354405
v 0.03771516 -0.11189581 0.11239472
v 0.03171516 -0.11587234 0.11239472
v 0.03771516 -0.11096023 0.11354405
v 0.03771516 -0.11189581 0.11239472
v 0.03171516 -0.11587234 0.11239472
v 0.04966792 -0.10696023 0.10839473
v -0.11385378 -0.00496023 -0.02560527
v -0.11228484 -0.00496023 -0.02809945
v -0.11428484 0.00103977 -0.02207982
v -0.11385378 -0.00496023 -0.02560527
v -0.11828484 -0.01096023 -0.01961628
v -0.11428484 0.00103977 -0.02207982
v -0.11719346 -0.01896023 -0.01760528
v -0.11828484 -0.01956907 -0.01160528
v -0.11828484 -0.01896023 -0.01277634
v -0.11828484 0.04811765 0.03439473
v -0.11828484 0.03703976 0.04061268
v -0.11628484 0.05303977 0.03357286
v -0.11828484 0.00903977 -0.01017361
v -0.11828484 -0.01096023 -0.01961628
v -0.11428484 0.00103977 -0.02207982
v -0.11228484 0.02303977 -0.01176959
v -0.10428484 0.00503977 -0.0310685
v -0.11028484 0.0294289 -0.00960527
v -0.11228484 0.02303977 -0.01176959
v -0.10428484 0.00503977 -0.0310685
v -0.11228484 -0.00496023 -0.02809945
v -0.11228484 0.02303977 -0.01176959
v -0.11228484 -0.00496023 -0.02809945
v -0.11428484 0.00103977 -0.02207982
v 0.02771516 -0.07151767 0.02439473
v 0.08971516 -0.07896023 0.04330091
v 0.02971516 -0.06896023 0.02098005
v -0.00228484 -0.08162619 0.03639473
v 0.02771516 -0.07151767 0.02439473
v 0.02971516 -0.06896023 0.02098005
v -0.00228484 -0.08162619 0.03639473
v 0.02771516 -0.07151767 0.02439473
v 0.08971516 -0.07896023 0.04330091
v 0.02371516 -0.11632324 0.10239472
v -0.00228484 -0.08162619 0.03639473
v 0.08971516 -0.07896023 0.04330091
v 0.02371516 -0.11632324 0.10239472
v -0.00228484 -0.08162619 0.03639473
v -0.00628484 -0.08696023 0.04682023
v 0.02371516 -0.11632324 0.10239472
v -0.06028484 -0.06356061 0.03039473
v -0.00628484 -0.08696023 0.04682023
v 0.08571516 -0.07696023 0.04045456
v 0.08971516 -0.07896023 0.04330091
v 0.02971516 -0.06896023 0.02098005
v 0.01571516 -0.11096023 0.10770851
v 0.01414444 -0.11096023 0.10639473
v -0.02628484 -0.05078326 0.10639473
v 0.01571516 -0.11096023 0.10770851
v 0.02571516 -0.11496024 0.11326057
v -0.02628484 -0.05078326 0.10639473
v 0.01571516 -0.11096023 0.10770851
v 0.02171516 -0.11496024 0.10999398
v 0.01414444 -0.11096023 0.10639473
v 0.01571516 -0.11096023 0.10770851
v 0.02171516 -0.11496024 0.10999398
v 0.02571516 -0.11496024 0.11326057
v 0.03171516 -0.11496024 0.11328648
v 0.03171516 -0.11587234 0.11239472
v 0.02571516 -0.11594561 0.11239472
v 0.03171516 -0.11496024 0.11328648
v 0.02571516 -0.11496024 0.11326057
v 0.02571516 -0.11594561 0.11239472
v 0.03171516 -0.11496024 0.11328648
v 0.03171516 -0.11587234 0.11239472
v 0.03771516 -0.11096023 0.11354405
v 0.03171516 -0.11496024 0.11328648
v 0.02571516 -0.11496024 0.11326057
v 0.09971516 -0.02096023 0.13054559
v 0.08971516 -0.09265141 0.07239473
v 0.04971516 -0.10784855 0.10639473
v 0.04371516 -0.11196964 0.10639473
v 0.08971516 -0.09265141 0.07239473
v 0.04971516 -0.10784855 0.10639473
v 0.09700164 -0.08896023 0.06839473
v 0.08971516 -0.09265141 0.07239473
v 0.09571516 -0.08964878 0.06839473
v 0.09700164 -0.08896023 0.06839473
v 0.11571516 -0.06990023 0.05839473
v 0.11371516 -0.07224617 0.06639473
v 0.09700164 -0.08896023 0.06839473
v 0.11571516 -0.06990023 0.05839473
v 0.08971516 -0.07896023 0.04330091
v 0.10971516 -0.06096023 0.04443876
v 0.11771516 -0.03296023 0.09928908
v 0.11682096 -0.02696023 0.10639473
v 0.11771516 -0.0575829 0.08039472
v 0.10858656 -0.04496024 0.10639473
v 0.1135397 -0.04896023 0.09639473
v 0.04971516 -0.10696023 0.10835206
v 0.10858656 -0.04496024 0.10639473
v 0.10780212 -0.03096023 0.12039472
v 0.1135397 -0.04896023 0.09639473
v 0.11464546 -0.07096023 0.06639473
v 0.11771516 -0.06589519 0.07239473
v 0.11771516 -0.06656932 0.06639473
v 0.11464546 -0.07096023 0.06639473
v 0.11771516 -0.06589519 0.07239473
v 0.11371516 -0.07224617 0.06639473
v 0.11771516 -0.06496024 0.07351286
v 0.1135397 -0.04896023 0.09639473
v 0.11771516 -0.0575829 0.08039472
v 0.11771516 -0.06496024 0.07351286
v 0.1135397 -0.04896023 0.09639473
v 0.04971516 -0.10696023 0.10835206
v 0.11771516 -0.06496024 0.07351286
v 0.11771516 -0.06589519 0.07239473
v 0.04971516 -0.10696023 0.10835206
v 0.10114944 -0.02096023 0.13039473
v 0.10571516 -0.01096023 0.1293604
v 0.09971516 -0.02096023 0.13054559
v 0.10114944 -0.02096023 0.13039473
v 0.10571516 -0.01096023 0.1293604
v 0.10771516 -0.00896023 0.12901741
v 0.10114944 -0.02096023 0.13039473
v 0.03171516 -0.11496024 0.11328648
v 0.09971516 -0.02096023 0.13054559
v 0.10114944 -0.02096023 0.13039473
v 0.03171516 -0.11496024 0.11328648
v 0.03771516 -0.11096023 0.11354405
v 0.00384921 0.01903977 -0.05560527
v 0.10571516 -0.04896023 0.04306587
v 0.1132144 -0.04896023 0.05239473
v 0.00384921 0.01903977 -0.05560527
v 0.01171516 0.03503977 -0.03645873
v 0.1132144 -0.04896023 0.05239473
v 0.11771516 -0.06071841 0.05639473
v 0.11771516 -0.05896023 0.05606636
v 0.10971516 -0.06096023 0.04443876
v 0.11771516 -0.06071841 0.05639473
v 0.11771516 -0.06496024 0.05721392
v 0.10971516 -0.06096023 0.04443876
v 0.10988232 0.00903977 0.09239472
v 0.09424337 0.01703977 0.07239473
v 0.11771516 -0.02296023 0.08036779
v 0.05238624 0.04503977 0.03039473
v 0.01171516 0.03503977 -0.03645873
v 0.02771516 0.06503977 0.00976975
v 0.05238624 0.04503977 0.03039473
v 0.01171516 0.03503977 -0.03645873
v 0.1132144 -0.04896023 0.05239473
v 0.05238624 0.04503977 0.03039473
v 0.09424337 0.01703977 0.07239473
v 0.1132144 -0.04896023 0.05239473
v -0.10428484 0.06365044 0.02439473
v -0.11028484 0.05798722 0.03039473
v -0.08428484 0.07413785 0.01839473
v -0.10428484 0.06365044 0.02439473
v -0.09828484 0.06798386 0.02039473
v -0.08428484 0.07413785 0.01839473
v -0.04428484 0.097401 -0.01360527
v -0.09828484 0.06798386 0.02039473
v -0.08428484 0.07413785 0.01839473
v -0.04428484 0.097401 -0.01360527
v -0.02828484 0.10343178 -0.02160528
v -0.08428484 0.07413785 0.01839473
v -0.04428484 0.097401 -0.01360527
v -0.02828484 0.10343178 -0.02160528
v -0.02828484 0.10388033 -0.02360527
v 0.10971516 0.00784976 0.11639473
v 0.09771516 0.01804093 0.10439473
v 0.10571516 0.00703977 0.11814167
v 0.10971516 0.00784976 0.11639473
v 0.11111262 0.00703977 0.11639473
v 0.09771516 0.01804093 0.10439473
v 0.06971516 0.03903977 0.07384639
v 0.09771516 0.01804093 0.10439473
v -0.08428484 0.07413785 0.01839473
v 0.06971516 0.03903977 0.07384639
v 0.00771516 0.08211571 0.01039473
v -0.08428484 0.07413785 0.01839473
v 0.06971516 0.03903977 0.07384639
v 0.09771516 0.01804093 0.10439473
v 0.06971516 0.03986897 0.07239473
v 0.06971516 0.03903977 0.07384639
v 0.00771516 0.08211571 0.01039473
v 0.06971516 0.03986897 0.07239473
v 0.00371516 0.08576786 0.00439473
v -0.02828484 0.10343178 -0.02160528
v -0.01028484 0.09781303 -0.01560527
v 0.00371516 0.08576786 0.00439473
v 0.00771516 0.08211571 0.01039473
v -0.02828484 0.10343178 -0.02160528
v 0.00371516 0.08576786 0.00439473
v 0.00771516 0.08211571 0.01039473
v 0.06971516 0.03986897 0.07239473
v 0.11171516 0.00303977 0.11883401
v 0.11771516 -0.00296023 0.11491612
v 0.11481814 -0.00496023 0.12039472
v 0.11171516 0.00303977 0.11883401
v 0.10771516 -0.00791334 0.12839472
v 0.10771516 -0.00896023 0.12901741
v 0.11171516 -0.00896023 0.12537956
v 0.11257626 -0.00896023 0.12439472
v 0.11481814 -0.00496023 0.12039472
v 0.11656665 0.00503977 0.10839473
v 0.11571516 0.00610394 0.10839473
v 0.11771516 0.0037125 0.10439473
v 0.11656665 0.00503977 0.10839473
v 0.11571516 0.00610394 0.10839473
v 0.11111262 0.00703977 0.11639473
v -0.1173648 0.05303977 0.03239473
v -0.11828484 0.04811765 0.03439473
v -0.11628484 0.05303977 0.03357286
v 0.09371516 -0.08763319 0.06039472
v 0.02371516 -0.11632324 0.10239472
v 0.08971516 -0.07896023 0.04330091
v 0.09371516 -0.08763319 0.06039472
v 0.09571516 -0.08296023 0.05468893
v 0.08971516 -0.07896023 0.04330091
v 0.09371516 -0.08763319 0.06039472
v 0.08971516 -0.09265141 0.07239473
v 0.02371516 -0.11632324 0.10239472
v 0.09371516 -0.08763319 0.06039472
v 0.08971516 -0.09265141 0.07239473
v 0.09571516 -0.08964878 0.06839473
v 0.09371516 -0.08763319 0.06039472
v 0.09469502 -0.08696023 0.06039472
v 0.09700164 -0.08896023 0.06839473
v 0.09371516 -0.08763319 0.06039472
v 0.09571516 -0.08964878 0.06839473
v 0.09700164 -0.08896023 0.06839473
v 0.03771516 -0.11396948 0.10439473
v 0.03171516 -0.11587234 0.11239472
v 0.04371516 -0.11196964 0.10639473
v 0.03771516 -0.11396948 0.10439473
v 0.03171516 -0.11587234 0.11239472
v 0.03171516 -0.11584698 0.11039472
v 0.03771516 -0.11396948 0.10439473
v 0.08971516 -0.09265141 0.07239473
v 0.04371516 -0.11196964 0.10639473
v 0.03771516 -0.11396948 0.10439473
v 0.08971516 -0.09265141 0.07239473
v 0.02371516 -0.11632324 0.10239472
v 0.02171516 -0.11580189 0.10839473
v 0.02171516 -0.11496024 0.10999398
v 0.02571516 -0.11594561 0.11239472
v 0.02171516 -0.11580189 0.10839473
v 0.02171516 -0.11496024 0.10999398
v 0.01414444 -0.11096023 0.10639473
v 0.02171516 -0.11580189 0.10839473
v 0.02371516 -0.11632324 0.10239472
v -0.06028484 -0.06356061 0.03039473
v 0.02171516 -0.11580189 0.10839473
v -0.04028484 -0.07703565 0.05839473
v -0.06028484 -0.06356061 0.03039473
v 0.02971516 -0.11626305 0.11039472
v 0.03171516 -0.11587234 0.11239472
v 0.03171516 -0.11584698 0.11039472
v -0.04036394 -0.07696023 0.05839473
v 0.01414444 -0.11096023 0.10639473
v -0.03924783 -0.07496024 0.06639473
v -0.04036394 -0.07696023 0.05839473
v -0.04028484 -0.07703565 0.05839473
v 0.01414444 -0.11096023 0.10639473
v -0.11828484 0.00028481 0.04039473
v -0.11628484 -0.00096023 0.04217639
v -0.11828484 0.00103977 0.0414071
v -0.11828484 0.00028481 0.04039473
v -0.11628484 -0.00096023 0.04217639
v -0.03924783 -0.07496024 0.06639473
v 0.09771516 -0.08296023 0.05662129
v 0.09371516 -0.08763319 0.06039472
v 0.09469502 -0.08696023 0.06039472
v 0.09771516 -0.08296023 0.05662129
v 0.11571516 -0.06990023 0.05839473
v 0.08971516 -0.07896023 0.04330091
v 0.09771516 -0.08296023 0.05662129
v 0.09469502 -0.08696023 0.06039472
v 0.09700164 -0.08896023 0.06839473
v 0.09771516 -0.08296023 0.05662129
v 0.11571516 -0.06990023 0.05839473
v 0.09700164 -0.08896023 0.06839473
v 0.11771516 -0.06739365 0.05839473
v 0.10971516 -0.06096023 0.04443876
v 0.11771516 -0.06696023 0.05803276
v 0.11771516 -0.06739365 0.05839473
v 0.11464546 -0.07096023 0.06639473
v 0.11771516 -0.06656932 0.06639473
v 0.11771516 -0.06739365 0.05839473
v 0.11464546 -0.07096023 0.06639473
v 0.11371516 -0.07224617 0.06639473
v 0.11181866 -0.03296023 0.11239472
v 0.1135397 -0.04896023 0.09639473
v 0.1137068 -0.01896023 0.12039472
v 0.11181866 -0.03296023 0.11239472
v 0.10780212 -0.03096023 0.12039472
v 0.1137068 -0.01896023 0.12039472
v 0.11181866 -0.03296023 0.11239472
v 0.10780212 -0.03096023 0.12039472
v 0.1135397 -0.04896023 0.09639473
v 0.10603944 -0.02896023 0.12439472
v 0.10858656 -0.04496024 0.10639473
v 0.10780212 -0.03096023 0.12039472
v 0.10603944 -0.02896023 0.12439472
v 0.10780212 -0.03096023 0.12039472
v 0.1137068 -0.01896023 0.12039472
v 0.10603944 -0.02896023 0.12439472
v 0.10571516 -0.02896023 0.12472871
v 0.04971516 -0.10696023 0.10835206
v 0.10603944 -0.02896023 0.12439472
v 0.10858656 -0.04496024 0.10639473
v 0.04971516 -0.10696023 0.10835206
v 0.10571516 -0.01896023 0.12943327
v 0.10571516 -0.02096023 0.12924339
v 0.10771516 -0.00896023 0.12901741
v 0.10571516 -0.01896023 0.12943327
v 0.10114944 -0.02096023 0.13039473
v 0.10771516 -0.00896023 0.12901741
v 0.10571516 -0.01896023 0.12943327
v 0.10114944 -0.02096023 0.13039473
v 0.10571516 -0.02096023 0.12924339
v 0.10571516 -0.02296023 0.12869528
v 0.10114944 -0.02096023 0.13039473
v 0.10571516 -0.02096023 0.12924339
v 0.10571516 -0.02296023 0.12869528
v 0.10571516 -0.02896023 0.12472871
v 0.03771516 -0.11096023 0.11354405
v 0.02371516 -0.00296023 -0.03576118
v 0.02392491 -0.00296023 -0.03560527
v 0.10971516 -0.06096023 0.04443876
v 0.00371516 0.01903977 -0.05576958
v 0.10571516 -0.04896023 0.04306587
v 0.10971516 -0.06096023 0.04443876
v 0.00371516 0.01903977 -0.05576958
v 0.00384921 0.01903977 -0.05560527
v 0.10571516 -0.04896023 0.04306587
v 0.11771516 0.00303977 0.10283778
v 0.10988232 0.00903977 0.09239472
v 0.11771516 0.0037125 0.10439473
v 0.10971516 0.00925353 0.09239472
v 0.11571516 0.00610394 0.10839473
v 0.11771516 0.0037125 0.10439473
v 0.10971516 0.00925353 0.09239472
v 0.10988232 0.00903977 0.09239472
v 0.11771516 0.0037125 0.10439473
v 0.10971516 0.00925353 0.09239472
v 0.03571516 0.06562709 0.03039473
v 0.11571516 0.00610394 0.10839473
v -0.02828484 0.10303977 -0.02688041
v -0.01828484 0.10103976 -0.02503448
v -0.02628484 0.10325382 -0.02560527
v -0.03429528 0.04903977 -0.06960527
v -0.03428484 0.04903977 -0.06961442
v -0.04628484 0.03503977 -0.06729297
v -0.03429528 0.04903977 -0.06960527
v -0.11028484 0.0294289 -0.00960527
v -0.04628484 0.03503977 -0.06729297
v -0.04428484 0.08103977 -0.03564091
v -0.03429528 0.04903977 -0.06960527
v -0.03428484 0.04903977 -0.06961442
v -0.04428484 0.08103977 -0.03564091
v -0.03429528 0.04903977 -0.06960527
v -0.05883175 0.08103977 -0.02160528
v -0.10028484 0.0673965 0.01839473
v -0.04428484 0.097401 -0.01360527
v -0.09828484 0.06798386 0.02039473
v -0.04428484 0.09742705 -0.01560527
v -0.04428484 0.097401 -0.01360527
v -0.02828484 0.10388033 -0.02360527
v -0.04428484 0.09742705 -0.01560527
v -0.10028484 0.0673965 0.01839473
v -0.1009467 0.06703977 0.01839473
v -0.04428484 0.09742705 -0.01560527
v -0.10028484 0.0673965 0.01839473
v -0.04428484 0.097401 -0.01360527
v 0.10971516 0.00703977 0.1172678
v 0.10771516 -0.00791334 0.12839472
v 0.10571516 0.00703977 0.11814167
v 0.10971516 0.00703977 0.1172678
v 0.10971516 0.00784976 0.11639473
v 0.10571516 0.00703977 0.11814167
v 0.10971516 0.00703977 0.1172678
v 0.10971516 0.00784976 0.11639473
v 0.11111262 0.00703977 0.11639473
v 0.10971516 0.00703977 0.1172678
v 0.11171516 0.00303977 0.11883401
v 0.11111262 0.00703977 0.11639473
v 0.10971516 0.00703977 0.1172678
v 0.11171516 0.00303977 0.11883401
v 0.10771516 -0.00791334 0.12839472
v 0.03371516 0.06624485 0.03239473
v 0.03571516 0.06562709 0.03039473
v 0.06971516 0.03986897 0.07239473
v 0.03371516 0.06624485 0.03239473
v 0.03571516 0.06562709 0.03039473
v -0.01028484 0.09781303 -0.01560527
v 0.03371516 0.06624485 0.03239473
v 0.00371516 0.08576786 0.00439473
v 0.06971516 0.03986897 0.07239473
v 0.03371516 0.06624485 0.03239473
v 0.00371516 0.08576786 0.00439473
v -0.01028484 0.09781303 -0.01560527
v 0.07094959 0.03903977 0.07239473
v 0.11571516 0.00610394 0.10839473
v 0.06971516 0.03986897 0.07239473
v 0.07094959 0.03903977 0.07239473
v 0.03571516 0.06562709 0.03039473
v 0.06971516 0.03986897 0.07239473
v 0.07094959 0.03903977 0.07239473
v 0.03571516 0.06562709 0.03039473
v 0.11571516 0.00610394 0.10839473
v 0.1168399 -0.01296023 0.11639473
v 0.11771516 -0.03296023 0.09928908
v 0.11771516 -0.01296023 0.11277722
v 0.1168399 -0.01296023 0.11639473
v 0.11771516 -0.03296023 0.09928908
v 0.11682096 -0.02696023 0.10639473
v 0.1168399 -0.01296023 0.11639473
v 0.11682096 -0.02696023 0.10639473
v 0.1137068 -0.01896023 0.12039472
v 0.1168399 -0.01296023 0.11639473
v 0.11257626 -0.00896023 0.12439472
v 0.1137068 -0.01896023 0.12039472
v 0.10848568 -0.00896023 0.12839472
v 0.11171516 -0.00896023 0.12537956
v 0.11481814 -0.00496023 0.12039472
v 0.10848568 -0.00896023 0.12839472
v 0.11171516 0.00303977 0.11883401
v 0.10771516 -0.00896023 0.12901741
v 0.10848568 -0.00896023 0.12839472
v 0.11171516 0.00303977 0.11883401
v 0.11481814 -0.00496023 0.12039472
v -0.08828484 -0.03528619 -0.01760528
v -0.00228484 -0.08162619 0.03639473
v 0.02971516 -0.06896023 0.02098005
v -0.02428484 0.03303977 -0.07517021
v -0.03028484 0.03103977 -0.07597867
v -0.02628484 0.03903977 -0.07411959
v -0.03028484 0.03503977 -0.07518359
v -0.02628484 0.03903977 -0.07411959
v -0.03428484 0.04903977 -0.06961442
v -0.03028484 0.03503977 -0.07518359
v -0.03028484 0.03103977 -0.07597867
v -0.02628484 0.03903977 -0.07411959
v -0.03028484 0.03503977 -0.07518359
v -0.03428484 0.04903977 -0.06961442
v -0.04628484 0.03503977 -0.06729297
v -0.03028484 0.03503977 -0.07518359
v -0.03028484 0.03103977 -0.07597867
v -0.04628484 0.03503977 -0.06729297
v -0.11828484 0.04903977 0.0336661
v -0.1173648 0.05303977 0.03239473
v -0.11828484 0.04811765 0.03439473
v -0.10628484 0.0637007 0.02039473
v -0.10428484 0.06365044 0.02439473
v -0.09828484 0.06798386 0.02039473
v -0.10628484 0.0637007 0.02039473
v -0.10028484 0.0673965 0.01839473
v -0.1009467 0.06703977 0.01839473
v -0.10628484 0.0637007 0.02039473
v -0.10028484 0.0673965 0.01839473
v -0.09828484 0.06798386 0.02039473
v -0.11473214 0.02303977 -0.00760528
v -0.11828484 0.04949336 0.01839473
v -0.11828484 0.00903977 -0.01017361
v -0.11028484 0.03103977 -0.00846559
v -0.11228484 0.02303977 -0.01176959
v -0.11028484 0.0294289 -0.00960527
v -0.11028484 0.03103977 -0.00846559
v -0.11828484 0.04949336 0.01839473
v -0.11228484 0.02303977 -0.01176959
v -0.11028484 0.03103977 -0.00846559
v -0.03429528 0.04903977 -0.06960527
v -0.11028484 0.0294289 -0.00960527
v -0.11028484 0.03103977 -0.00846559
v -0.03429528 0.04903977 -0.06960527
v -0.05883175 0.08103977 -0.02160528
v 0.02571516 -0.11642172 0.11039472
v 0.02171516 -0.11580189 0.10839473
v 0.02571516 -0.11594561 0.11239472
v 0.02571516 -0.11642172 0.11039472
v 0.02171516 -0.11580189 0.10839473
v 0.02371516 -0.11632324 0.10239472
v 0.02571516 -0.11642172 0.11039472
v 0.02971516 -0.11626305 0.11039472
v 0.02371516 -0.11632324 0.10239472
v 0.02571516 -0.11642172 0.11039472
v 0.03171516 -0.11587234 0.11239472
v 0.02571516 -0.11594561 0.11239472
v 0.02571516 -0.11642172 0.11039472
v 0.02971516 -0.11626305 0.11039472
v 0.03171516 -0.11587234 0.11239472
v 0.01571516 -0.11197877 0.10639473
v -0.04028484 -0.07703565 0.05839473
v 0.01414444 -0.11096023 0.10639473
v 0.01571516 -0.11197877 0.10639473
v 0.02171516 -0.11580189 0.10839473
v 0.01414444 -0.11096023 0.10639473
v 0.01571516 -0.11197877 0.10639473
v 0.02171516 -0.11580189 0.10839473
v -0.04028484 -0.07703565 0.05839473
v 0.02971516 -0.1158961 0.10639473
v 0.03771516 -0.11396948 0.10439473
v 0.02371516 -0.11632324 0.10239472
v 0.02971516 -0.1158961 0.10639473
v 0.02971516 -0.11626305 0.11039472
v 0.02371516 -0.11632324 0.10239472
v 0.02971516 -0.1158961 0.10639473
v 0.03771516 -0.11396948 0.10439473
v 0.03171516 -0.11584698 0.11039472
v 0.02971516 -0.1158961 0.10639473
v 0.02971516 -0.11626305 0.11039472
v 0.03171516 -0.11584698 0.11039472
v -0.06067813 -0.06296023 0.04239473
v -0.04036394 -0.07696023 0.05839473
v -0.03924783 -0.07496024 0.06639473
v -0.06067813 -0.06296023 0.04239473
v -0.11828484 0.00028481 0.04039473
v -0.03924783 -0.07496024 0.06639473
v -0.06067813 -0.06296023 0.04239473
v -0.04036394 -0.07696023 0.05839473
v -0.04028484 -0.07703565 0.05839473
v 0.09748123 -0.08296023 0.05639473
v 0.09371516 -0.08763319 0.06039472
v 0.09571516 -0.08296023 0.05468893
v 0.09748123 -0.08296023 0.05639473
v 0.09771516 -0.08296023 0.05662129
v 0.09371516 -0.08763319 0.06039472
v 0.09748123 -0.08296023 0.05639473
v 0.09571516 -0.08296023 0.05468893
v 0.08971516 -0.07896023 0.04330091
v 0.09748123 -0.08296023 0.05639473
v 0.09771516 -0.08296023 0.05662129
v 0.08971516 -0.07896023 0.04330091
v 0.11648901 -0.06896023 0.05839473
v 0.11571516 -0.06990023 0.05839473
v 0.10971516 -0.06096023 0.04443876
v 0.11648901 -0.06896023 0.05839473
v 0.11771516 -0.06739365 0.05839473
v 0.10971516 -0.06096023 0.04443876
v 0.11648901 -0.06896023 0.05839473
v 0.11571516 -0.06990023 0.05839473
v 0.11371516 -0.07224617 0.06639473
v 0.11648901 -0.06896023 0.05839473
v 0.11771516 -0.06739365 0.05839473
v 0.11371516 -0.07224617 0.06639473
v 0.10971516 -0.01896023 0.12600423
v 0.11171516 -0.00896023 0.12537956
v 0.11257626 -0.00896023 0.12439472
v 0.10971516 -0.01896023 0.12600423
v 0.11257626 -0.00896023 0.12439472
v 0.1137068 -0.01896023 0.12039472
v 0.10371516 -0.02296023 0.12917127
v 0.10114944 -0.02096023 0.13039473
v 0.03771516 -0.11096023 0.11354405
v 0.10371516 -0.02296023 0.12917127
v 0.10571516 -0.02296023 0.12869528
v 0.03771516 -0.11096023 0.11354405
v 0.10371516 -0.02296023 0.12917127
v 0.10571516 -0.02296023 0.12869528
v 0.10114944 -0.02096023 0.13039473
v 0.1060876 -0.02296023 0.12839472
v 0.10603944 -0.02896023 0.12439472
v 0.10571516 -0.02896023 0.12472871
v 0.1060876 -0.02296023 0.12839472
v 0.10571516 -0.02296023 0.12869528
v 0.10571516 -0.02896023 0.12472871
v 0.1060876 -0.02296023 0.12839472
v 0.10603944 -0.02896023 0.12439472
v 0.1137068 -0.01896023 0.12039472
v 0.1060876 -0.02296023 0.12839472
v 0.10971516 -0.01896023 0.12600423
v 0.1137068 -0.01896023 0.12039472
v 0.1060876 -0.02296023 0.12839472
v 0.10571516 -0.02296023 0.12869528
v 0.10571516 -0.02096023 0.12924339
v -0.01628484 0.10123225 -0.02160528
v -0.02828484 0.10343178 -0.02160528
v -0.02828484 0.10388033 -0.02360527
v -0.01628484 0.10123225 -0.02160528
v -0.02828484 0.10343178 -0.02160528
v -0.01028484 0.09781303 -0.01560527
v -0.01028484 0.09207282 -0.02160528
v 0.01171516 0.03503977 -0.03645873
v 0.02771516 0.06503977 0.00976975
v -0.00228484 0.02103977 -0.06108606
v 0.00371516 0.01903977 -0.05576958
v 0.10971516 -0.06096023 0.04443876
v -0.01428484 0.03503977 -0.0696512
v 0.00384921 0.01903977 -0.05560527
v 0.01171516 0.03503977 -0.03645873
v -0.01428484 0.03503977 -0.0696512
v 0.00371516 0.01903977 -0.05576958
v 0.00384921 0.01903977 -0.05560527
v -0.01428484 0.03503977 -0.0696512
v -0.00228484 0.02103977 -0.06108606
v 0.00371516 0.01903977 -0.05576958
v -0.01428484 0.03503977 -0.0696512
v -0.01028484 0.09207282 -0.02160528
v 0.01171516 0.03503977 -0.03645873
v -0.01428484 0.03503977 -0.0696512
v -0.01028484 0.09207282 -0.02160528
v -0.01828484 0.10103976 -0.02503448
v -0.01428484 0.03503977 -0.0696512
v -0.02228484 0.05196636 -0.06360528
v -0.02532127 0.03903977 -0.07360528
v -0.01428484 0.03503977 -0.0696512
v -0.02532127 0.03903977 -0.07360528
v -0.02628484 0.03903977 -0.07411959
v 0.11771516 -0.00696023 0.09407597
v 0.10988232 0.00903977 0.09239472
v 0.11771516 -0.02296023 0.08036779
v 0.11771516 -0.00696023 0.09407597
v 0.11771516 0.00303977 0.10283778
v 0.10988232 0.00903977 0.09239472
v 0.09852644 0.01703977 0.08039472
v 0.10971516 0.00925353 0.09239472
v 0.10988232 0.00903977 0.09239472
v 0.09852644 0.01703977 0.08039472
v 0.10988232 0.00903977 0.09239472
v 0.09424337 0.01703977 0.07239473
v -0.02628484 0.09723984 -0.03160528
v -0.01828484 0.10103976 -0.02503448
v -0.02828484 0.0958817 -0.03360527
v -0.02628484 0.09723984 -0.03160528
v -0.02828484 0.10303977 -0.02688041
v -0.02828484 0.0958817 -0.03360527
v -0.02628484 0.09723984 -0.03160528
v -0.02828484 0.10303977 -0.02688041
v -0.01828484 0.10103976 -0.02503448
v -0.02828484 0.10368364 -0.02560527
v -0.02828484 0.10303977 -0.02688041
v -0.02628484 0.10325382 -0.02560527
v -0.02828484 0.10368364 -0.02560527
v -0.04428484 0.09742705 -0.01560527
v -0.02828484 0.10388033 -0.02360527
v -0.03428484 0.09265938 -0.03360527
v -0.02828484 0.0958817 -0.03360527
v -0.03428484 0.04903977 -0.06961442
v -0.03428484 0.09265938 -0.03360527
v -0.04428484 0.08103977 -0.03564091
v -0.03428484 0.04903977 -0.06961442
v -0.03428484 0.09265938 -0.03360527
v -0.02828484 0.10303977 -0.02688041
v -0.02828484 0.0958817 -0.03360527
v -0.08228484 0.07629247 0.00239473
v -0.10628484 0.0637007 0.02039473
v -0.1009467 0.06703977 0.01839473
v 0.11771516 -0.00496023 0.11540738
v 0.1168399 -0.01296023 0.11639473
v 0.11771516 -0.01296023 0.11277722
v 0.11771516 -0.00496023 0.11540738
v 0.11771516 -0.00296023 0.11491612
v 0.11481814 -0.00496023 0.12039472
v 0.11771516 -0.00496023 0.11540738
v 0.11257626 -0.00896023 0.12439472
v 0.11481814 -0.00496023 0.12039472
v 0.11771516 0.00303977 0.10563865
v 0.11656665 0.00503977 0.10839473
v 0.11771516 0.0037125 0.10439473
v 0.11771516 0.00303977 0.10563865
v 0.11771516 -0.00244629 0.11439473
v 0.11656665 0.00503977 0.10839473
v 0.11583931 0.00103977 0.11439473
v 0.11771516 -0.00244629 0.11439473
v 0.11771516 -0.00296023 0.11491612
v 0.11583931 0.00103977 0.11439473
v 0.11171516 0.00303977 0.11883401
v 0.11111262 0.00703977 0.11639473
v 0.11583931 0.00103977 0.11439473
v 0.11171516 0.00303977 0.11883401
v 0.11771516 -0.00296023 0.11491612
v 0.11583931 0.00103977 0.11439473
v 0.11656665 0.00503977 0.10839473
v 0.11111262 0.00703977 0.11639473
v 0.11583931 0.00103977 0.11439473
v 0.11771516 -0.00244629 0.11439473
v 0.11656665 0.00503977 0.10839473
v -0.11252551 -0.02896023 -0.01160528
v -0.11828484 0.00028481 0.04039473
v -0.11828484 -0.01896023 -0.00905055
v -0.11252551 -0.02896023 -0.01160528
v -0.06067813 -0.06296023 0.04239473
v -0.11828484 0.00028481 0.04039473
v -0.11675471 -0.01696023 -0.02160528
v -0.11456382 -0.01696023 -0.02760528
v -0.11828484 -0.01096023 -0.01961628
v -0.11675471 -0.01696023 -0.02160528
v -0.11828484 -0.01096023 -0.01961628
v -0.11828484 -0.01896023 -0.01277634
v -0.11675471 -0.01696023 -0.02160528
v -0.11719346 -0.01896023 -0.01760528
v -0.11828484 -0.01896023 -0.01277634
v -0.01428484 0.01903977 -0.06973958
v 0.02371516 -0.00296023 -0.03576118
v 0.02392491 -0.00296023 -0.03560527
v -0.01428484 0.00903977 -0.06167677
v 0.08571516 -0.07696023 0.04045456
v 0.08971516 -0.07896023 0.04330091
v -0.01428484 0.00903977 -0.06167677
v 0.08571516 -0.07696023 0.04045456
v 0.02971516 -0.06896023 0.02098005
v -0.01428484 0.00903977 -0.06167677
v -0.01628484 0.01103977 -0.06389048
v 0.02971516 -0.06896023 0.02098005
v -0.08828484 -0.03696023 -0.0153799
v -0.00228484 -0.08162619 0.03639473
v -0.00628484 -0.08696023 0.04682023
v -0.08828484 -0.03696023 -0.0153799
v -0.08828484 -0.03528619 -0.01760528
v -0.00228484 -0.08162619 0.03639473
v -0.04228484 0.00764667 -0.06160528
v -0.08828484 -0.03528619 -0.01760528
v -0.09628484 -0.02696023 -0.02645861
v -0.04228484 0.00764667 -0.06160528
v -0.01628484 0.01103977 -0.06389048
v 0.02971516 -0.06896023 0.02098005
v -0.04228484 0.00764667 -0.06160528
v -0.08828484 -0.03528619 -0.01760528
v 0.02971516 -0.06896023 0.02098005
v -0.10228484 -0.02265599 -0.02960527
v -0.04228484 0.00764667 -0.06160528
v -0.09628484 -0.02696023 -0.02645861
v -0.10228484 -0.02265599 -0.02960527
v -0.04228484 0.00764667 -0.06160528
v -0.04628484 0.01703977 -0.06835189
v -0.04428484 0.02303977 -0.06983115
v -0.04628484 0.01703977 -0.06835189
v -0.03028484 0.03103977 -0.07597867
v -0.04428484 0.02303977 -0.06983115
v -0.03028484 0.03103977 -0.07597867
v -0.04628484 0.03503977 -0.06729297
v -0.11228484 0.05801693 0.02839473
v -0.10628484 0.0637007 0.02039473
v -0.10428484 0.06365044 0.02439473
v -0.11228484 0.05801693 0.02839473
v -0.10428484 0.06365044 0.02439473
v -0.11028484 0.05798722 0.03039473
v -0.11428484 0.02303977 -0.00841204
v -0.11828484 0.00903977 -0.01017361
v -0.11428484 0.00103977 -0.02207982
v -0.11428484 0.02303977 -0.00841204
v -0.11473214 0.02303977 -0.00760528
v -0.11828484 0.00903977 -0.01017361
v -0.11428484 0.02303977 -0.00841204
v -0.11228484 0.02303977 -0.01176959
v -0.11428484 0.00103977 -0.02207982
v -0.11428484 0.02303977 -0.00841204
v -0.11828484 0.04949336 0.01839473
v -0.11228484 0.02303977 -0.01176959
v -0.11428484 0.02303977 -0.00841204
v -0.11473214 0.02303977 -0.00760528
v -0.11828484 0.04949336 0.01839473
v -0.11828484 0.04959128 0.03239473
v -0.11828484 0.04903977 0.0336661
v -0.1173648 0.05303977 0.03239473
v -0.11828484 0.04959128 0.03239473
v -0.11828484 0.05194893 0.02639473
v -0.1173648 0.05303977 0.03239473
v 0.10771516 -0.01896023 0.12800816
v 0.10848568 -0.00896023 0.12839472
v 0.11171516 -0.00896023 0.12537956
v 0.10771516 -0.01896023 0.12800816
v 0.10571516 -0.02096023 0.12924339
v 0.10771516 -0.00896023 0.12901741
v 0.10771516 -0.01896023 0.12800816
v 0.10848568 -0.00896023 0.12839472
v 0.10771516 -0.00896023 0.12901741
v 0.10771516 -0.01896023 0.12800816
v 0.1060876 -0.02296023 0.12839472
v 0.10571516 -0.02096023 0.12924339
v -0.02828484 0.05752321 -0.06360528
v -0.02628484 0.03903977 -0.07411959
v -0.03428484 0.04903977 -0.06961442
v -0.02828484 0.05752321 -0.06360528
v -0.02532127 0.03903977 -0.07360528
v -0.02628484 0.03903977 -0.07411959
v -0.02828484 0.05752321 -0.06360528
v -0.02828484 0.0958817 -0.03360527
v -0.03428484 0.04903977 -0.06961442
v -0.02828484 0.05752321 -0.06360528
v -0.02228484 0.05196636 -0.06360528
v -0.02532127 0.03903977 -0.07360528
v -0.02828484 0.05752321 -0.06360528
v -0.01828484 0.10103976 -0.02503448
v -0.02828484 0.0958817 -0.03360527
v -0.02828484 0.05752321 -0.06360528
v -0.02228484 0.05196636 -0.06360528
v -0.01828484 0.10103976 -0.02503448
v -0.01828484 0.10187143 -0.02360527
v -0.01628484 0.10123225 -0.02160528
v -0.02828484 0.10388033 -0.02360527
v -0.01828484 0.10187143 -0.02360527
v -0.02828484 0.10368364 -0.02560527
v -0.02828484 0.10388033 -0.02360527
v -0.01828484 0.10187143 -0.02360527
v -0.02828484 0.10368364 -0.02560527
v -0.02628484 0.10325382 -0.02560527
v -0.01828484 0.10187143 -0.02360527
v -0.01828484 0.10103976 -0.02503448
v -0.02628484 0.10325382 -0.02560527
v -0.01605812 0.10103976 -0.02160528
v -0.01828484 0.10187143 -0.02360527
v -0.01828484 0.10103976 -0.02503448
v -0.01605812 0.10103976 -0.02160528
v -0.01828484 0.10187143 -0.02360527
v -0.01628484 0.10123225 -0.02160528
v 0.01376649 0.00703977 -0.04560527
v 0.02392491 -0.00296023 -0.03560527
v 0.10971516 -0.06096023 0.04443876
v 0.01376649 0.00703977 -0.04560527
v -0.00228484 0.02103977 -0.06108606
v 0.10971516 -0.06096023 0.04443876
v 0.01376649 0.00703977 -0.04560527
v -0.00228484 0.02103977 -0.06108606
v 0.02392491 -0.00296023 -0.03560527
v -0.01270998 0.02303977 -0.06960527
v -0.00228484 0.02103977 -0.06108606
v 0.02392491 -0.00296023 -0.03560527
v -0.01270998 0.02303977 -0.06960527
v -0.01428484 0.01903977 -0.06973958
v 0.02392491 -0.00296023 -0.03560527
v -0.01828484 0.06168255 -0.05360528
v -0.02228484 0.05196636 -0.06360528
v -0.01828484 0.10103976 -0.02503448
v -0.01828484 0.06168255 -0.05360528
v -0.01428484 0.03503977 -0.0696512
v -0.01828484 0.10103976 -0.02503448
v -0.01828484 0.06168255 -0.05360528
v -0.01428484 0.03503977 -0.0696512
v -0.02228484 0.05196636 -0.06360528
v -0.01988016 0.03303977 -0.07360528
v -0.01428484 0.03503977 -0.0696512
v -0.02628484 0.03903977 -0.07411959
v 0.03423193 0.06103977 0.01639473
v 0.09852644 0.01703977 0.08039472
v 0.09424337 0.01703977 0.07239473
v 0.03423193 0.06103977 0.01639473
v 0.05238624 0.04503977 0.03039473
v 0.09424337 0.01703977 0.07239473
v 0.03635656 0.06503977 0.03039473
v 0.10971516 0.00925353 0.09239472
v 0.03571516 0.06562709 0.03039473
v 0.03635656 0.06503977 0.03039473
v 0.09852644 0.01703977 0.08039472
v 0.10971516 0.00925353 0.09239472
v -0.03828484 0.09868053 -0.02560527
v -0.04428484 0.08103977 -0.03564091
v -0.05883175 0.08103977 -0.02160528
v -0.03828484 0.09868053 -0.02560527
v -0.03428484 0.09265938 -0.03360527
v -0.04428484 0.08103977 -0.03564091
v -0.03828484 0.09868053 -0.02560527
v -0.03428484 0.09265938 -0.03360527
v -0.02828484 0.10303977 -0.02688041
v -0.03828484 0.09868053 -0.02560527
v -0.02828484 0.10368364 -0.02560527
v -0.02828484 0.10303977 -0.02688041
v -0.03828484 0.09868053 -0.02560527
v -0.08228484 0.07629247 0.00239473
v -0.07028484 0.0811823 -0.00760528
v -0.03828484 0.09868053 -0.02560527
v -0.02828484 0.10368364 -0.02560527
v -0.04428484 0.09742705 -0.01560527
v 0.11597467 -0.00896023 0.11839473
v 0.11771516 -0.00496023 0.11540738
v 0.11257626 -0.00896023 0.12439472
v -0.11522714 -0.02296023 -0.01760528
v -0.11675471 -0.01696023 -0.02160528
v -0.11719346 -0.01896023 -0.01760528
v -0.11522714 -0.02296023 -0.01760528
v -0.11675471 -0.01696023 -0.02160528
v -0.11456382 -0.01696023 -0.02760528
v -0.11522714 -0.02296023 -0.01760528
v -0.11719346 -0.01896023 -0.01760528
v -0.11828484 -0.01956907 -0.01160528
v -0.11522714 -0.02296023 -0.01760528
v -0.11252551 -0.02896023 -0.01160528
v -0.11828484 -0.01956907 -0.01160528
v -0.11828484 -0.01912142 -0.00960527
v -0.11252551 -0.02896023 -0.01160528
v -0.11828484 -0.01896023 -0.00905055
v -0.11828484 -0.01912142 -0.00960527
v -0.11252551 -0.02896023 -0.01160528
v -0.11828484 -0.01956907 -0.01160528
v -0.01404056 0.00903977 -0.06160528
v -0.01428484 0.00903977 -0.06167677
v 0.08971516 -0.07896023 0.04330091
v -0.11428484 -0.01696023 -0.0281988
v -0.10228484 -0.02265599 -0.02960527
v -0.04628484 0.01703977 -0.06835189
v -0.11428484 -0.01696023 -0.0281988
v -0.11385378 -0.00496023 -0.02560527
v -0.11228484 -0.00496023 -0.02809945
v -0.11428484 -0.01696023 -0.0281988
v -0.11385378 -0.00496023 -0.02560527
v -0.11828484 -0.01096023 -0.01961628
v -0.11428484 -0.01696023 -0.0281988
v -0.11456382 -0.01696023 -0.02760528
v -0.11828484 -0.01096023 -0.01961628
v -0.09628484 -0.03382453 -0.01760528
v -0.06028484 -0.06356061 0.03039473
v -0.00628484 -0.08696023 0.04682023
v -0.09628484 -0.03382453 -0.01760528
v -0.08828484 -0.03696023 -0.0153799
v -0.00628484 -0.08696023 0.04682023
v -0.11428484 0.05607907 0.02439473
v -0.11228484 0.05801693 0.02839473
v -0.10628484 0.0637007 0.02039473
v -0.11428484 0.05607907 0.02439473
v -0.11236475 0.05703976 0.01839473
v -0.10628484 0.0637007 0.02039473
v -0.11628484 0.05385144 0.03239473
v -0.11028484 0.05798722 0.03039473
v -0.11628484 0.05303977 0.03357286
v -0.11628484 0.05385144 0.03239473
v -0.11228484 0.05801693 0.02839473
v -0.11028484 0.05798722 0.03039473
v -0.11628484 0.05385144 0.03239473
v -0.1173648 0.05303977 0.03239473
v -0.11628484 0.05303977 0.03357286
v -0.11628484 0.05385144 0.03239473
v -0.11228484 0.05801693 0.02839473
v -0.1173648 0.05303977 0.03239473
v -0.11628484 0.05304324 0.02039473
v -0.11828484 0.05194893 0.02639473
v -0.11828484 0.04949336 0.01839473
v -0.11628484 0.05304324 0.02039473
v -0.11236475 0.05703976 0.01839473
v -0.11828484 0.04949336 0.01839473
v 0.10934864 -0.01896023 0.12639473
v 0.10971516 -0.01896023 0.12600423
v 0.11171516 -0.00896023 0.12537956
v 0.10934864 -0.01896023 0.12639473
v 0.10771516 -0.01896023 0.12800816
v 0.11171516 -0.00896023 0.12537956
v 0.10934864 -0.01896023 0.12639473
v 0.1060876 -0.02296023 0.12839472
v 0.10971516 -0.01896023 0.12600423
v 0.10934864 -0.01896023 0.12639473
v 0.10771516 -0.01896023 0.12800816
v 0.1060876 -0.02296023 0.12839472
v -0.00915065 0.09703977 -0.01560527
v -0.01605812 0.10103976 -0.02160528
v -0.01828484 0.10103976 -0.02503448
v -0.00915065 0.09703977 -0.01560527
v -0.01028484 0.09207282 -0.02160528
v 0.02771516 0.06503977 0.00976975
v -0.00915065 0.09703977 -0.01560527
v -0.01028484 0.09207282 -0.02160528
v -0.01828484 0.10103976 -0.02503448
v -0.00915065 0.09703977 -0.01560527
v -0.01628484 0.10123225 -0.02160528
v -0.01028484 0.09781303 -0.01560527
v -0.00915065 0.09703977 -0.01560527
v -0.01605812 0.10103976 -0.02160528
v -0.01628484 0.10123225 -0.02160528
v -0.00915065 0.09703977 -0.01560527
v 0.03423193 0.06103977 0.01639473
v 0.09852644 0.01703977 0.08039472
v -0.00915065 0.09703977 -0.01560527
v 0.03635656 0.06503977 0.03039473
v 0.09852644 0.01703977 0.08039472
v -0.00915065 0.09703977 -0.01560527
v 0.03571516 0.06562709 0.03039473
v -0.01028484 0.09781303 -0.01560527
v -0.00915065 0.09703977 -0.01560527
v 0.03635656 0.06503977 0.03039473
v 0.03571516 0.06562709 0.03039473
v -0.01800997 0.02703977 -0.07360528
v -0.01428484 0.01903977 -0.06973958
v -0.01828484 0.02703977 -0.07373036
v -0.01800997 0.02703977 -0.07360528
v -0.01270998 0.02303977 -0.06960527
v -0.01428484 0.01903977 -0.06973958
v -0.01828484 0.02903977 -0.07410434
v -0.01428484 0.03503977 -0.0696512
v -0.00228484 0.02103977 -0.06108606
v -0.01828484 0.02903977 -0.07410434
v -0.01270998 0.02303977 -0.06960527
v -0.00228484 0.02103977 -0.06108606
v -0.01828484 0.02903977 -0.07410434
v -0.01800997 0.02703977 -0.07360528
v -0.01270998 0.02303977 -0.06960527
v -0.01828484 0.02903977 -0.07410434
v -0.01988016 0.03303977 -0.07360528
v -0.01428484 0.03503977 -0.0696512
v -0.01828484 0.02903977 -0.07410434
v -0.01800997 0.02703977 -0.07360528
v -0.01828484 0.02703977 -0.07373036
v 0.03371516 0.06103977 0.01552774
v 0.03423193 0.06103977 0.01639473
v 0.05238624 0.04503977 0.03039473
v -0.04490322 0.09703977 -0.01560527
v -0.03828484 0.09868053 -0.02560527
v -0.04428484 0.09742705 -0.01560527
v -0.04490322 0.09703977 -0.01560527
v -0.03828484 0.09868053 -0.02560527
v -0.08228484 0.07629247 0.00239473
v -0.04490322 0.09703977 -0.01560527
v -0.04428484 0.09742705 -0.01560527
v -0.1009467 0.06703977 0.01839473
v -0.04490322 0.09703977 -0.01560527
v -0.08228484 0.07629247 0.00239473
v -0.1009467 0.06703977 0.01839473
v -0.11327102 0.05303977 0.01439473
v -0.11028484 0.03103977 -0.00846559
v -0.11828484 0.04949336 0.01839473
v -0.11327102 0.05303977 0.01439473
v -0.11228484 0.05303977 0.01302137
v -0.11028484 0.03103977 -0.00846559
v -0.11327102 0.05303977 0.01439473
v -0.11236475 0.05703976 0.01839473
v -0.11828484 0.04949336 0.01839473
v -0.09628484 0.06319899 0.00239473
v -0.03828484 0.09868053 -0.02560527
v -0.05883175 0.08103977 -0.02160528
v -0.09628484 0.06319899 0.00239473
v -0.03828484 0.09868053 -0.02560527
v -0.07028484 0.0811823 -0.00760528
v -0.09628484 0.06319899 0.00239473
v -0.11028484 0.03103977 -0.00846559
v -0.05883175 0.08103977 -0.02160528
v -0.09628484 0.06319899 0.00239473
v -0.11228484 0.05303977 0.01302137
v -0.11028484 0.03103977 -0.00846559
v 0.11698582 -0.01096023 0.11639473
v 0.11771516 -0.00496023 0.11540738
v 0.1168399 -0.01296023 0.11639473
v 0.11698582 -0.01096023 0.11639473
v 0.11597467 -0.00896023 0.11839473
v 0.11771516 -0.00496023 0.11540738
v 0.11698582 -0.01096023 0.11639473
v 0.1168399 -0.01296023 0.11639473
v 0.11257626 -0.00896023 0.12439472
v 0.11698582 -0.01096023 0.11639473
v 0.11597467 -0.00896023 0.11839473
v 0.11257626 -0.00896023 0.12439472
v -0.07428484 0.00703977 -0.0523113
v -0.11428484 -0.01696023 -0.0281988
v -0.04628484 0.01703977 -0.06835189
v -0.07428484 0.00703977 -0.0523113
v -0.11228484 -0.00496023 -0.02809945
v -0.04628484 0.03503977 -0.06729297
v -0.07428484 0.00703977 -0.0523113
v -0.11428484 -0.01696023 -0.0281988
v -0.11228484 -0.00496023 -0.02809945
v -0.11228484 -0.02296023 -0.025302
v -0.11428484 -0.01696023 -0.0281988
v -0.10228484 -0.02265599 -0.02960527
v -0.11228484 -0.02296023 -0.025302
v -0.11522714 -0.02296023 -0.01760528
v -0.11252551 -0.02896023 -0.01160528
v -0.11228484 -0.02296023 -0.025302
v -0.11522714 -0.02296023 -0.01760528
v -0.11456382 -0.01696023 -0.02760528
v -0.11228484 -0.02296023 -0.025302
v -0.11428484 -0.01696023 -0.0281988
v -0.11456382 -0.01696023 -0.02760528
v -0.11744863 0.05303977 0.03039473
v -0.11228484 0.05801693 0.02839473
v -0.1173648 0.05303977 0.03239473
v -0.11744863 0.05303977 0.03039473
v -0.11428484 0.05607907 0.02439473
v -0.11228484 0.05801693 0.02839473
v -0.11744863 0.05303977 0.03039473
v -0.11828484 0.05194893 0.02639473
v -0.1173648 0.05303977 0.03239473
v -0.11744863 0.05303977 0.03039473
v -0.11428484 0.05607907 0.02439473
v -0.11828484 0.05194893 0.02639473
v -0.11458375 0.05503977 0.02039473
v -0.11428484 0.05607907 0.02439473
v -0.11236475 0.05703976 0.01839473
v -0.11458375 0.05503977 0.02039473
v -0.11628484 0.05304324 0.02039473
v -0.11236475 0.05703976 0.01839473
v -0.11458375 0.05503977 0.02039473
v -0.11428484 0.05607907 0.02439473
v -0.11828484 0.05194893 0.02639473
v -0.11458375 0.05503977 0.02039473
v -0.11628484 0.05304324 0.02039473
v -0.11828484 0.05194893 0.02639473
v 0.02971516 0.06438373 0.01239473
v -0.00915065 0.09703977 -0.01560527
v 0.02771516 0.06503977 0.00976975
v 0.02971516 0.06438373 0.01239473
v -0.00915065 0.09703977 -0.01560527
v 0.03423193 0.06103977 0.01639473
v 0.02971516 0.06438373 0.01239473
v 0.03371516 0.06103977 0.01552774
v 0.02771516 0.06503977 0.00976975
v 0.02971516 0.06438373 0.01239473
v 0.03371516 0.06103977 0.01552774
v 0.03423193 0.06103977 0.01639473
v -0.02028484 0.03303977 -0.07380234
v -0.01828484 0.02903977 -0.07410434
v -0.02428484 0.03303977 -0.07517021
v -0.02028484 0.03303977 -0.07380234
v -0.01828484 0.02903977 -0.07410434
v -0.01988016 0.03303977 -0.07360528
v -0.02028484 0.03303977 -0.07380234
v -0.02428484 0.03303977 -0.07517021
v -0.02628484 0.03903977 -0.07411959
v -0.02028484 0.03303977 -0.07380234
v -0.01988016 0.03303977 -0.07360528
v -0.02628484 0.03903977 -0.07411959
v 0.03055025 0.06303977 0.01239473
v 0.05238624 0.04503977 0.03039473
v 0.02771516 0.06503977 0.00976975
v 0.03055025 0.06303977 0.01239473
v 0.03371516 0.06103977 0.01552774
v 0.02771516 0.06503977 0.00976975
v 0.03055025 0.06303977 0.01239473
v 0.03371516 0.06103977 0.01552774
v 0.05238624 0.04503977 0.03039473
v -0.11228484 0.05703976 0.0182545
v -0.11327102 0.05303977 0.01439473
v -0.11236475 0.05703976 0.01839473
v -0.11228484 0.05703976 0.0182545
v -0.09743323 0.06703977 0.01039473
v -0.11236475 0.05703976 0.01839473
v -0.02828484 0.02041863 -0.07160528
v -0.04228484 0.00764667 -0.06160528
v -0.04628484 0.01703977 -0.06835189
v -0.02828484 0.02041863 -0.07160528
v -0.04228484 0.00764667 -0.06160528
v -0.01628484 0.01103977 -0.06389048
v -0.02828484 0.02041863 -0.07160528
v -0.02228484 0.02303977 -0.07338377
v -0.01628484 0.01103977 -0.06389048
v -0.01428484 0.01855937 -0.06960527
v -0.01428484 0.01903977 -0.06973958
v -0.01828484 0.02703977 -0.07373036
v -0.01428484 0.01855937 -0.06960527
v -0.02228484 0.02303977 -0.07338377
v -0.01828484 0.02703977 -0.07373036
v -0.01428484 0.01855937 -0.06960527
v -0.02228484 0.02303977 -0.07338377
v -0.01628484 0.01103977 -0.06389048
v -0.01428484 0.01855937 -0.06960527
v -0.01428484 0.00903977 -0.06167677
v -0.01628484 0.01103977 -0.06389048
v -0.01428484 0.01855937 -0.06960527
v -0.01404056 0.00903977 -0.06160528
v -0.01428484 0.00903977 -0.06167677
v -0.01428484 0.01855937 -0.06960527
v -0.01404056 0.00903977 -0.06160528
v 0.08971516 -0.07896023 0.04330091
v -0.01428484 0.01855937 -0.06960527
v 0.08971516 -0.07896023 0.04330091
v 0.10971516 -0.06096023 0.04443876
v -0.01428484 0.01855937 -0.06960527
v 0.02371516 -0.00296023 -0.03576118
v 0.10971516 -0.06096023 0.04443876
v -0.01428484 0.01855937 -0.06960527
v -0.01428484 0.01903977 -0.06973958
v 0.02371516 -0.00296023 -0.03576118
v -0.02228484 0.02703977 -0.07467683
v -0.02228484 0.02303977 -0.07338377
v -0.01828484 0.02703977 -0.07373036
v -0.02228484 0.02703977 -0.07467683
v -0.01828484 0.02903977 -0.07410434
v -0.01828484 0.02703977 -0.07373036
v -0.02228484 0.02703977 -0.07467683
v -0.02228484 0.02303977 -0.07338377
v -0.03028484 0.03103977 -0.07597867
v -0.02228484 0.02703977 -0.07467683
v -0.02428484 0.03303977 -0.07517021
v -0.03028484 0.03103977 -0.07597867
v -0.02228484 0.02703977 -0.07467683
v -0.01828484 0.02903977 -0.07410434
v -0.02428484 0.03303977 -0.07517021
v -0.05428484 0.01703977 -0.06407879
v -0.04428484 0.02303977 -0.06983115
v -0.04628484 0.01703977 -0.06835189
v -0.05428484 0.01703977 -0.06407879
v -0.07428484 0.00703977 -0.0523113
v -0.04628484 0.01703977 -0.06835189
v -0.05428484 0.01703977 -0.06407879
v -0.04428484 0.02303977 -0.06983115
v -0.04628484 0.03503977 -0.06729297
v -0.05428484 0.01703977 -0.06407879
v -0.07428484 0.00703977 -0.0523113
v -0.04628484 0.03503977 -0.06729297
v -0.11228484 -0.02917248 -0.01160528
v -0.11228484 -0.02296023 -0.025302
v -0.11252551 -0.02896023 -0.01160528
v -0.11228484 -0.02917248 -0.01160528
v -0.11228484 -0.02296023 -0.025302
v -0.09628484 -0.03382453 -0.01760528
v -0.11228484 -0.02917248 -0.01160528
v -0.09628484 -0.03382453 -0.01760528
v -0.06028484 -0.06356061 0.03039473
v -0.11228484 -0.02917248 -0.01160528
v -0.04028484 -0.07703565 0.05839473
v -0.06028484 -0.06356061 0.03039473
v -0.11228484 -0.02917248 -0.01160528
v -0.06067813 -0.06296023 0.04239473
v -0.04028484 -0.07703565 0.05839473
v -0.11228484 -0.02917248 -0.01160528
v -0.11252551 -0.02896023 -0.01160528
v -0.06067813 -0.06296023 0.04239473
v -0.10428484 -0.02590333 -0.02560527
v -0.10228484 -0.02265599 -0.02960527
v -0.09628484 -0.02696023 -0.02645861
v -0.10428484 -0.02590333 -0.02560527
v -0.11228484 -0.02296023 -0.025302
v -0.10228484 -0.02265599 -0.02960527
v -0.10428484 -0.02590333 -0.02560527
v -0.11228484 -0.02296023 -0.025302
v -0.09628484 -0.03382453 -0.01760528
v -0.08628484 0.07392067 0.00439473
v -0.08228484 0.07629247 0.00239473
v -0.07028484 0.0811823 -0.00760528
v -0.08628484 0.07392067 0.00439473
v -0.09628484 0.06319899 0.00239473
v -0.07028484 0.0811823 -0.00760528
v -0.08628484 0.07392067 0.00439473
v -0.08228484 0.07629247 0.00239473
v -0.10628484 0.0637007 0.02039473
v -0.09828484 0.06703977 0.01193229
v -0.11236475 0.05703976 0.01839473
v -0.10628484 0.0637007 0.02039473
v -0.09828484 0.06703977 0.01193229
v -0.09743323 0.06703977 0.01039473
v -0.11236475 0.05703976 0.01839473
v -0.09828484 0.06703977 0.01193229
v -0.08628484 0.07392067 0.00439473
v -0.09743323 0.06703977 0.01039473
v -0.10247 0.06103977 0.00839473
v -0.11228484 0.05703976 0.0182545
v -0.09743323 0.06703977 0.01039473
v -0.10247 0.06103977 0.00839473
v -0.08628484 0.07392067 0.00439473
v -0.09628484 0.06319899 0.00239473
v -0.10247 0.06103977 0.00839473
v -0.08628484 0.07392067 0.00439473
v -0.09743323 0.06703977 0.01039473
v -0.02828484 0.02103977 -0.07204614
v -0.02828484 0.02041863 -0.07160528
v -0.04628484 0.01703977 -0.06835189
v -0.02828484 0.02103977 -0.07204614
v -0.02828484 0.02041863 -0.07160528
v -0.02228484 0.02303977 -0.07338377
v -0.02828484 0.02103977 -0.07204614
v -0.04628484 0.01703977 -0.06835189
v -0.03028484 0.03103977 -0.07597867
v -0.02828484 0.02103977 -0.07204614
v -0.02228484 0.02303977 -0.07338377
v -0.03028484 0.03103977 -0.07597867
v -0.09628484 -0.03088179 -0.02160528
v -0.10428484 -0.02590333 -0.02560527
v -0.09628484 -0.02696023 -0.02645861
v -0.09628484 -0.03088179 -0.02160528
v -0.10428484 -0.02590333 -0.02560527
v -0.09628484 -0.03382453 -0.01760528
v -0.09628484 -0.03088179 -0.02160528
v -0.08828484 -0.03528619 -0.01760528
v -0.09628484 -0.02696023 -0.02645861
v -0.09628484 -0.03088179 -0.02160528
v -0.08828484 -0.03696023 -0.0153799
v -0.08828484 -0.03528619 -0.01760528
v -0.09628484 -0.03088179 -0.02160528
v -0.09628484 -0.03382453 -0.01760528
v -0.08828484 -0.03696023 -0.0153799
v -0.09828484 0.0672298 0.01239473
v -0.08628484 0.07392067 0.00439473
v -0.10628484 0.0637007 0.02039473
v -0.09828484 0.0672298 0.01239473
v -0.09828484 0.06703977 0.01193229
v -0.10628484 0.0637007 0.02039473
v -0.09828484 0.0672298 0.01239473
v -0.09828484 0.06703977 0.01193229
v -0.08628484 0.07392067 0.00439473
v -0.10558753 0.05903976 0.01039473
v -0.11228484 0.05703976 0.0182545
v -0.11327102 0.05303977 0.01439473
v -0.10558753 0.05903976 0.01039473
v -0.10247 0.06103977 0.00839473
v -0.11228484 0.05703976 0.0182545
v -0.10558753 0.05903976 0.01039473
v -0.11327102 0.05303977 0.01439473
v -0.11228484 0.05303977 0.01302137
v -0.10558753 0.05903976 0.01039473
v -0.09628484 0.06319899 0.00239473
v -0.11228484 0.05303977 0.01302137
v -0.10558753 0.05903976 0.01039473
v -0.10247 0.06103977 0.00839473
v -0.09628484 0.06319899 0.00239473
v 0.11771516 0.00303977 0.10563865
v 0.11771516 -0.06496024 0.05721392
v 0.11771516 -0.06696023 0.05803276
v 0.11771516 0.00303977 0.10563865
v 0.11771516 0.00303977 0.10283778
v 0.11771516 0.0037125 0.10439473
v 0.11771516 0.00303977 0.10563865
v 0.11771516 -0.06589519 0.07239473
v 0.11771516 -0.06656932 0.06639473
v 0.11771516 0.00303977 0.10563865
v 0.11771516 -0.06071841 0.05639473
v 0.11771516 -0.05896023 0.05606636
v 0.11771516 0.00303977 0.10563865
v 0.11771516 -0.06739365 0.05839473
v 0.11771516 -0.06696023 0.05803276
v 0.11771516 0.00303977 0.10563865
v 0.11771516 -0.05896023 0.05606636
v 0.11771516 -0.04896023 0.0614308
v 0.11771516 0.00303977 0.10563865
v 0.11771516 -0.02296023 0.08036779
v 0.11771516 -0.04896023 0.0614308
v 0.11771516 0.00303977 0.10563865
v 0.11771516 -0.03296023 0.09928908
v 0.11771516 -0.01296023 0.11277722
v 0.11771516 0.00303977 0.10563865
v 0.11771516 -0.06496024 0.07351286
v 0.11771516 -0.0575829 0.08039472
v 0.11771516 0.00303977 0.10563865
v 0.11771516 -0.00696023 0.09407597
v 0.11771516 -0.02296023 0.08036779
v 0.11771516 0.00303977 0.10563865
v 0.11771516 -0.03296023 0.09928908
v 0.11771516 -0.0575829 0.08039472
v 0.11771516 0.00303977 0.10563865
v 0.11771516 -0.06496024 0.07351286
v 0.11771516 -0.06589519 0.07239473
v 0.11771516 0.00303977 0.10563865
v 0.11771516 -0.06071841 0.05639473
v 0.11771516 -0.06496024 0.05721392
v 0.11771516 0.00303977 0.10563865
v 0.11771516 -0.06739365 0.05839473
v 0.11771516 -0.06656932 0.06639473
v 0.11771516 0.00303977 0.10563865
v 0.11771516 -0.00496023 0.11540738
v 0.11771516 -0.01296023 0.11277722
v 0.11771516 0.00303977 0.10563865
v 0.11771516 -0.00244629 0.11439473
v 0.11771516 -0.00296023 0.11491612
v 0.11771516 0.00303977 0.10563865
v 0.11771516 -0.00696023 0.09407597
v 0.11771516 0.00303977 0.10283778
v 0.11771516 0.00303977 0.10563865
v 0.11771516 -0.00496023 0.11540738
v 0.11771516 -0.00296023 0.11491612
v -0.11828484 -0.01912142 -0.00960527
v -0.11828484 -0.01096023 -0.01961628
v -0.11828484 -0.01896023 -0.01277634
v -0.11828484 -0.01912142 -0.00960527
v -0.11828484 0.05194893 0.02639473
v -0.11828484 0.04949336 0.01839473
v -0.11828484 -0.01912142 -0.00960527
v -0.11828484 0.00103977 0.0414071
v -0.11828484 0.03703976 0.04061268
v -0.11828484 -0.01912142 -0.00960527
v -0.11828484 -0.01956907 -0.01160528
v -0.11828484 -0.01896023 -0.01277634
v -0.11828484 -0.01912142 -0.00960527
v -0.11828484 0.00903977 -0.01017361
v -0.11828484 -0.01096023 -0.01961628
v -0.11828484 -0.01912142 -0.00960527
v -0.11828484 0.04811765 0.03439473
v -0.11828484 0.03703976 0.04061268
v -0.11828484 -0.01912142 -0.00960527
v -0.11828484 0.04959128 0.03239473
v -0.11828484 0.04903977 0.0336661
v -0.11828484 -0.01912142 -0.00960527
v -0.11828484 0.00028481 0.04039473
v -0.11828484 -0.01896023 -0.00905055
v -0.11828484 -0.01912142 -0.00960527
v -0.11828484 0.00028481 0.04039473
v -0.11828484 0.00103977 0.0414071
v -0.11828484 -0.01912142 -0.00960527
v -0.11828484 0.04949336 0.01839473
v -0.11828484 0.00903977 -0.01017361
v -0.11828484 -0.01912142 -0.00960527
v -0.11828484 0.04903977 0.0336661
v -0.11828484 0.04811765 0.03439473
v -0.11828484 -0.01912142 -0.00960527
v -0.11828484 0.04959128 0.03239473
v -0.11828484 0.05194893 0.02639473
f 1 2 3
f 4 5 6
f 7 8 9
f 10 11 12
f 13 14 15
f 16 17 18
f 19 20 21
f 22 23 24
f 25 26 27
f 28 29 30
f 31 32 33
f 34 35 36
f 37 38 39
f 40 41 42
f 43 44 45
f 46 47 48
f 49 50 51
f 52 53 54
f 55 56 57
f 58 59 60
f 61 62 63
f 64 65 66
f 67 68 69
f 70 71 72
f 73 74 75
f 76 77 78
f 79 80 81
f 82 83 84
f 85 86 87
f 88 89 90
f 91 92 93
f 94 95 96
f 97 98 99
f 100 101 102
f 103 104 105
f 106 107 108
f 109 110 111
f 112 113 114
f 115 116 117
f 118 119 120
f 121 122 123
f 124 125 126
f 127 128 129
f 130 131 132
f 133 134 135
f 136 137 138
f 139 140 141
f 142 143 144
f 145 146 147
f 148 149 150
f 151 152 153
f 154 155 156
f 157 158 159
f 160 161 162
f 163 164 165
f 166 167 168
f 169 170 171
f 172 173 174
f 175 176 177
f 178 179 180
f 181 182 183
f 184 185 186
f 187 188 189
f 190 191 192
f 193 194 195
f 196 197 198
f 199 200 201
f 202 203 204
f 205 206 207
f 208 209 210
f 211 212 213
f 214 215 216
f 217 218 219
f 220 221 222
f 223 224 225
f 226 227 228
f 229 230 231
f 232 233 234
f 235 236 237
f 238 239 240
f 241 242 243
f 244 245 246
f 247 248 249
f 250 251 252
f 253 254 255
f 256 257 258
f 259 260 261
f 262 263 264
f 265 266 267
f 268 269 270
f 271 272 273
f 274 275 276
f 277 278 279
f 280 281 282
f 283 284 285
f 286 287 288
f 289 290 291
f 292 293 294
f 295 296 297
f 298 299 300
f 301 302 303
f 304 305 306
f 307 308 309
f 310 311 312
f 313 314 315
f 316 317 318
f 319 320 321
f 322 323 324
f 325 326 327
f 328 329 330
f 331 332 333
f 334 335 336
f 337 338 339
f 340 341 342
f 343 344 345
f 346 347 348
f 349 350 351
f 352 353 354
f 355 356 357
f 358 359 360
f 361 362 363
f 364 365 366
f 367 368 369
f 370 371 372
f 373 374 375
f 376 377 378
f 379 380 381
f 382 383 384
f 385 386 387
f 388 389 390
f 391 392 393
f 394 395 396
f 397 398 399
f 400 401 402
f 403 404 405
f 406 407 408
f 409 410 411
f 412 413 414
f 415 416 417
f 418 419 420
f 421 422 423
f 424 425 426
f 427 428 429
f 430 431 432
f 433 434 435
f 436 437 438
f 439 440 441
f 442 443 444
f 445 446 447
f 448 449 450
f 451 452 453
f 454 455 456
f 457 458 459
f 460 461 462
f 463 464 465
f 466 467 468
f 469 470 471
f 472 473 474
f 475 476 477
f 478 479 480
f 481 482 483
f 484 485 486
f 487 488 489
f 490 491 492
f 493 494 495
f 496 497 498
f 499 500 501
f 502 503 504
f 505 506 507
f 508 509 510
f 511 512 513
f 514 515 516
f 517 518 519
f 520 521 522
f 523 524 525
f 526 527 528
f 529 530 531
f 532 533 534
f 535 536 537
f 538 539 540
f 541 542 543
f 544 545 546
f 547 548 549
f 550 551 552
f 553 554 555
f 556 557 558
f 559 560 561
f 562 563 564
f 565 566 567
f 568 569 570
f 571 572 573
f 574 575 576
f 577 578 579
f 580 581 582
f 583 584 585
f 586 587 588
f 589 590 591
f 592 593 594
f 595 596 597
f 598 599 600
f 601 602 603
f 604 605 606
f 607 608 609
f 610 611 612
f 613 614 615
f 616 617 618
f 619 620 621
f 622 623 624
f 625 626 627
f 628 629 630
f 631 632 633
f 634 635 636
f 637 638 639
f 640 641 642
f 643 644 645
f 646 647 648
f 649 650 651
f 652 653 654
f 655 656 657
f 658 659 660
f 661 662 663
f 664 665 666
f 667 668 669
f 670 671 672
f 673 674 675
f 676 677 678
f 679 680 681
f 682 683 684
f 685 686 687
f 688 689 690
f 691 692 693
f 694 695 696
f 697 698 699
f 700 701 702
f 703 704 705
f 706 707 708
f 709 710 711
f 712 713 714
f 715 716 717
f 718 719 720
f 721 722 723
f 724 725 726
f 727 728 729
f 730 731 732
f 733 734 735
f 736 737 738
f 739 740 741
f 742 743 744
f 745 746 747
f 748 749 750
f 751 752 753
f 754 755 756
f 757 758 759
f 760 761 762
f 763 764 765
f 766 767 768
f 769 770 771
f 772 773 774
f 775 776 777
f 778 779 780
f 781 782 783
f 784 785 786
f 787 788 789
f 790 791 792
f 793 794 795
f 796 797 798
f 799 800 801
f 802 803 804
f 805 806 807
f 808 809 810
f 811 812 813
f 814 815 816
f 817 818 819
f 820 821 822
f 823 824 825
f 826 827 828
f 829 830 831
f 832 833 834
f 835 836 837
f 838 839 840
f 841 842 843
f 844 845 846
f 847 848 849
f 850 851 852
f 853 854 855
f 856 857 858
f 859 860 861
f 862 863 864
f 865 866 867
f 868 869 870
f 871 872 873
f 874 875 876
f 877 878 879
f 880 881 882
f 883 884 885
f 886 887 888
f 889 890 891
f 892 893 894
f 895 896 897
f 898 899 900
f 901 902 903
f 904 905 906
f 907 908 909
f 910 911 912
f 913 914 915
f 916 917 918
f 919 920 921
f 922 923 924
f 925 926 927
f 928 929 930
f 931 932 933
f 934 935 936
f 937 938 939
f 940 941 942
f 943 944 945
f 946 947 948
f 949 950 951
f 952 953 954
f 955 956 957
f 958 959 960
f 961 962 963
f 964 965 966
f 967 968 969
f 970 971 972
f 973 974 975
f 976 977 978
f 979 980 981
f 982 983 984
f 985 986 987
f 988 989 990
f 991 992 993
f 994 995 996
f 997 998 999
f 1000 1001 1002
f 1003 1004 1005
f 1006 1007 1008
f 1009 1010 1011
f 1012 1013 1014
f 1015 1016 1017
f 1018 1019 1020
f 1021 1022 1023
f 1024 1025 1026
f 1027 1028 1029
f 1030 1031 1032
f 1033 1034 1035
f 1036 1037 1038
f 1039 1040 1041
f 1042 1043 1044
f 1045 1046 1047
f 1048 1049 1050
f 1051 1052 1053
f 1054 1055 1056
f 1057 1058 1059
f 1060 1061 1062
f 1063 1064 1065
f 1066 1067 1068
f 1069 1070 1071
f 1072 1073 1074
f 1075 1076 1077
f 1078 1079 1080
f 1081 1082 1083
f 1084 1085 1086
f 1087 1088 1089
f 1090 1091 1092
f 1093 1094 1095
f 1096 1097 1098
f 1099 1100 1101
f 1102 1103 1104
f 1105 1106 1107
f 1108 1109 1110
f 1111 1112 1113
f 1114 1115 1116
f 1117 1118 1119
f 1120 1121 1122
f 1123 1124 1125
f 1126 1127 1128
f 1129 1130 1131
f 1132 1133 1134
f 1135 1136 1137
f 1138 1139 1140
f 1141 1142 1143
f 1144 1145 1146
f 1147 1148 1149
f 1150 1151 1152
f 1153 1154 1155
f 1156 1157 1158
f 1159 1160 1161
f 1162 1163 1164
f 1165 1166 1167
f 1168 1169 1170
f 1171 1172 1173
f 1174 1175 1176
f 1177 1178 1179
f 1180 1181 1182
f 1183 1184 1185
f 1186 1187 1188
f 1189 1190 1191
f 1192 1193 1194
f 1195 1196 1197
f 1198 1199 1200
f 1201 1202 1203
f 1204 1205 1206
f 1207 1208 1209
f 1210 1211 1212
f 1213 1214 1215
f 1216 1217 1218
f 1219 1220 1221
f 1222 1223 1224
f 1225 1226 1227
f 1228 1229 1230
f 1231 1232 1233
f 1234 1235 1236
f 1237 1238 1239
f 1240 1241 1242
f 1243 1244 1245
f 1246 1247 1248
f 1249 1250 1251
f 1252 1253 1254
f 1255 1256 1257
f 1258 1259 1260
f 1261 1262 1263
f 1264 1265 1266
f 1267 1268 1269
f 1270 1271 1272
f 1273 1274 1275
f 1276 1277 1278
f 1279 1280 1281
f 1282 1283 1284
f 1285 1286 1287
f 1288 1289 1290
f 1291 1292 1293
f 1294 1295 1296
f 1297 1298 1299
f 1300 1301 1302
f 1303 1304 1305
f 1306 1307 1308
f 1309 1310 1311
f 1312 1313 1314
f 1315 1316 1317
f 1318 1319 1320
f 1321 1322 1323
f 1324 1325 1326
f 1327 1328 1329
f 1330 1331 1332
f 1333 1334 1335
f 1336 1337 1338
f 1339 1340 1341
f 1342 1343 1344
f 1345 1346 1347
f 1348 1349 1350
f 1351 1352 1353
f 1354 1355 1356
f 1357 1358 1359
f 1360 1361 1362
f 1363 1364 1365
f 1366 1367 1368
f 1369 1370 1371
f 1372 1373 1374
f 1375 1376 1377
f 1378 1379 1380
f 1381 1382 1383
f 1384 1385 1386
f 1387 1388 1389
f 1390 1391 1392
f 1393 1394 1395
f 1396 1397 1398
f 1399 1400 1401
f 1402 1403 1404
f 1405 1406 1407
f 1408 1409 1410
f 1411 1412 1413
f 1414 1415 1416
f 1417 1418 1419
f 1420 1421 1422
f 1423 1424 1425
f 1426 1427 1428
f 1429 1430 1431
f 1432 1433 1434
f 1435 1436 1437
f 1438 1439 1440
f 1441 1442 1443
f 1444 1445 1446
f 1447 1448 1449
f 1450 1451 1452
f 1453 1454 1455
f 1456 1457 1458
f 1459 1460 1461
f 1462 1463 1464
f 1465 1466 1467
f 1468 1469 1470
f 1471 1472 1473
f 1474 1475 1476
f 1477 1478 1479
f 1480 1481 1482
f 1483 1484 1485
f 1486 1487 1488
f 1489 1490 1491
f 1492 1493 1494
f 1495 1496 1497
f 1498 1499 1500
f 1501 1502 1503
f 1504 1505 1506
f 1507 1508 1509
f 1510 1511 1512
f 1513 1514 1515
f 1516 1517 1518
f 1519 1520 1521
f 1522 1523 1524
f 1525 1526 1527
f 1528 1529 1530
f 1531 1532 1533
f 1534 1535 1536
