v -0.031558117241379316 0.07661408390804599 -0.0026507206896551725
v -0.041698258620689654 -0.0007634632183908047 -0.046057639080459775
v -0.05720205747126437 -0.049832151724137935 0.03509442298850575
v 0.05396699770114943 -0.03629270344827586 -0.04039586666666667
v -0.04228312413793104 -0.02347294827586207 -0.034734091954022994
v 0.05207974022988506 -0.046057639080459775 -0.023953832183908046
v 0.04706325862068966 -0.07059197701149425 0.04075619540229885
v 0.06171656781609195 0.008672822988505748 0.08416311494252875
v 0.04645695977011494 -0.07247924137931035 0.04264345402298851
v 0.04706325862068966 -0.07059197701149425 0.04075619540229885
v 0.05976779310344828 -0.038508609195402305 -0.021523294252873564
v 0.04645695977011494 -0.07247924137931035 0.04264345402298851
v 0.04706325862068966 -0.07059197701149425 0.04075619540229885
v 0.05976779310344828 -0.038508609195402305 -0.021523294252873564
v 0.06171656781609195 0.008672822988505748 0.08416311494252875
v -0.037510885057471265 0.038868939080459776 0.07661408390804599
v -0.02718506551724138 0.07000361379310345 0.019996366666666668
v -0.030959580459770118 0.07706130344827587 -0.0026507206896551725
v -0.04255368735632184 -0.006425235632183908 -0.044170381609195404
v -0.041698258620689654 -0.0007634632183908047 -0.046057639080459775
v -0.05720205747126437 -0.049832151724137935 0.03509442298850575
v -0.04255368735632184 -0.006425235632183908 -0.044170381609195404
v -0.05695547126436783 -0.055493925287356326 0.03131991149425288
v -0.05720205747126437 -0.049832151724137935 0.03509442298850575
v -0.025297808045977012 0.025658137931034487 0.08876094252873565
v -0.02718506551724138 0.02377088045977012 0.08917708045977012
v 0.05396699770114943 0.004898308045977012 0.09574181609195402
v -0.025297808045977012 0.025658137931034487 0.08876094252873565
v -0.02718506551724138 0.02377088045977012 0.08917708045977012
v -0.038508609195402305 0.03131991149425288 0.08653622298850576
v 0.06529054367816092 0.010560080459770116 -0.02308186666666667
v 0.0558542551724138 -0.02718506551724138 -0.04467195172413793
v 0.07095231379310345 0.0501924827586207 -0.0014308402298850577
v 0.038868939080459776 -0.07877885057471265 0.04264345402298851
v 0.027545395402298854 -0.0766410459770115 0.038868939080459776
v 0.038868939080459776 -0.07881035057471265 0.04075619540229885
v 0.04264345402298851 -0.07095112643678161 0.02377088045977012
v -0.04228312413793104 -0.02347294827586207 -0.034734091954022994
v 0.05207974022988506 -0.046057639080459775 -0.023953832183908046
v 0.04264345402298851 -0.07095112643678161 0.02377088045977012
v 0.027545395402298854 -0.0766410459770115 0.038868939080459776
v -0.049832151724137935 -0.05926844022988506 0.03220116321839081
v 0.04264345402298851 -0.07095112643678161 0.02377088045977012
v -0.04228312413793104 -0.02347294827586207 -0.034734091954022994
v -0.049832151724137935 -0.05926844022988506 0.03220116321839081
v 0.04264345402298851 -0.07095112643678161 0.02377088045977012
v 0.027545395402298854 -0.0766410459770115 0.038868939080459776
v 0.038868939080459776 -0.07881035057471265 0.04075619540229885
v -0.05360666666666667 -0.05299795632183908 0.02377088045977012
v -0.05325299195402299 -0.046057639080459775 0.012447336781609197
v -0.05695547126436783 -0.055493925287356326 0.03131991149425288
v -0.05360666666666667 -0.05299795632183908 0.02377088045977012
v -0.04228312413793104 -0.02347294827586207 -0.034734091954022994
v -0.049832151724137935 -0.05926844022988506 0.03220116321839081
v -0.05360666666666667 -0.05299795632183908 0.02377088045977012
v -0.051719409195402306 -0.05738118390804598 0.03019831264367816
v -0.049832151724137935 -0.05926844022988506 0.03220116321839081
v 0.03509442298850575 -0.07657590804597701 0.048305224137931035
v 0.038868939080459776 -0.07877885057471265 0.04264345402298851
v 0.03131991149425288 -0.07661078160919542 0.04641796551724138
v -0.03662135057471265 0.03929135057471265 0.07661408390804599
v -0.037510885057471265 0.038868939080459776 0.07661408390804599
v -0.02718506551724138 0.07000361379310345 0.019996366666666668
v -0.03662135057471265 0.03929135057471265 0.07661408390804599
v 0.025658137931034487 0.0181091091954023 0.09035001494252874
v 0.0558542551724138 0.013630617241379312 0.08982488505747127
v 0.019996366666666668 0.0181091091954023 0.09070500000000001
v 0.025658137931034487 0.0181091091954023 0.09035001494252874
v -0.038508609195402305 0.03131991149425288 0.08653622298850576
v 0.019996366666666668 0.0181091091954023 0.09070500000000001
v -0.025297808045977012 0.025658137931034487 0.08876094252873565
v 0.05396699770114943 0.004898308045977012 0.09574181609195402
v 0.019996366666666668 0.0181091091954023 0.09070500000000001
v -0.025297808045977012 0.025658137931034487 0.08876094252873565
v -0.038508609195402305 0.03131991149425288 0.08653622298850576
v 0.04264345402298851 0.01305821379310345 0.0917121459770115
v 0.0558542551724138 0.013630617241379312 0.08982488505747127
v 0.05396699770114943 0.004898308045977012 0.09574181609195402
v 0.04264345402298851 0.01305821379310345 0.0917121459770115
v 0.025658137931034487 0.0181091091954023 0.09035001494252874
v 0.05396699770114943 0.004898308045977012 0.09574181609195402
v 0.04264345402298851 0.01305821379310345 0.0917121459770115
v 0.025658137931034487 0.0181091091954023 0.09035001494252874
v 0.0558542551724138 0.013630617241379312 0.08982488505747127
v 0.05962877011494253 0.016154610344827586 0.08416311494252875
v 0.06581119540229885 0.029432655172413797 0.05774151264367817
v 0.07561978965517242 0.05396699770114943 0.010560080459770116
v 0.0626830195402299 0.014334594252873565 0.07850134482758621
v 0.06171656781609195 0.008672822988505748 0.08416311494252875
v 0.07561978965517242 0.05396699770114943 0.010560080459770116
v 0.07283956896551724 0.05680191494252874 0.008672822988505748
v 0.05962877011494253 0.016154610344827586 0.08416311494252875
v 0.07561978965517242 0.05396699770114943 0.010560080459770116
v -0.04269022413793104 -0.01586152183908046 -0.04228312413793104
v -0.05325299195402299 -0.046057639080459775 0.012447336781609197
v -0.05695547126436783 -0.055493925287356326 0.03131991149425288
v -0.04269022413793104 -0.01586152183908046 -0.04228312413793104
v -0.04255368735632184 -0.006425235632183908 -0.044170381609195404
v -0.05695547126436783 -0.055493925287356326 0.03131991149425288
v 0.07509185057471265 0.048305224137931035 0.004898308045977012
v 0.05976779310344828 -0.038508609195402305 -0.021523294252873564
v 0.06171656781609195 0.008672822988505748 0.08416311494252875
v 0.05207974022988506 -0.030959580459770118 -0.04585874137931035
v 0.03698168160919541 -0.02718506551724138 -0.04730664137931035
v 0.0558542551724138 -0.02718506551724138 -0.04467195172413793
v -0.029072321839080463 -0.010199749425287357 -0.05075463563218391
v -0.03284683908045977 0.004898308045977012 -0.04413694252873564
v 0.0558542551724138 -0.02718506551724138 -0.04467195172413793
v -0.038508609195402305 -0.006425235632183908 -0.0503413735632184
v -0.041698258620689654 -0.0007634632183908047 -0.046057639080459775
v -0.038508609195402305 -0.010199749425287357 -0.05207953448275863
v 0.05700005517241379 -0.02718506551724138 -0.044170381609195404
v 0.0558542551724138 -0.02718506551724138 -0.04467195172413793
v 0.05962877011494253 -0.030959580459770118 -0.0442226183908046
v -0.049832151724137935 -0.05962654022988506 0.03320716551724138
v 0.027545395402298854 -0.0766410459770115 0.038868939080459776
v -0.049832151724137935 -0.05926844022988506 0.03220116321839081
v -0.049832151724137935 -0.05962654022988506 0.03320716551724138
v -0.05360666666666667 -0.05994178735632184 0.03698168160919541
v -0.049832151724137935 -0.05926844022988506 0.03220116321839081
v -0.049832151724137935 -0.05962654022988506 0.03320716551724138
v -0.05360666666666667 -0.05994178735632184 0.03698168160919541
v 0.027545395402298854 -0.0766410459770115 0.038868939080459776
v -0.05619311494252874 -0.05360666666666667 0.04641796551724138
v -0.05695547126436783 -0.055493925287356326 0.03131991149425288
v -0.05720205747126437 -0.049832151724137935 0.03509442298850575
v -0.056139864367816095 -0.05738118390804598 0.03509442298850575
v -0.055493925287356326 -0.05738118390804598 0.033449396551724145
v -0.05695547126436783 -0.055493925287356326 0.03131991149425288
v -0.056139864367816095 -0.05738118390804598 0.03509442298850575
v -0.05360666666666667 -0.05994178735632184 0.03698168160919541
v -0.055493925287356326 -0.05738118390804598 0.033449396551724145
v -0.056139864367816095 -0.05738118390804598 0.03509442298850575
v -0.05619311494252874 -0.05360666666666667 0.04641796551724138
v -0.05695547126436783 -0.055493925287356326 0.03131991149425288
v -0.055493925287356326 -0.05648622988505747 0.03131991149425288
v -0.055493925287356326 -0.05738118390804598 0.033449396551724145
v -0.05695547126436783 -0.055493925287356326 0.03131991149425288
v -0.055493925287356326 -0.05648622988505747 0.03131991149425288
v -0.05360666666666667 -0.05299795632183908 0.02377088045977012
v -0.05695547126436783 -0.055493925287356326 0.03131991149425288
v -0.055493925287356326 -0.05648622988505747 0.03131991149425288
v -0.05360666666666667 -0.05299795632183908 0.02377088045977012
v -0.051719409195402306 -0.05738118390804598 0.03019831264367816
v -0.055493925287356326 -0.05648622988505747 0.03131991149425288
v -0.051719409195402306 -0.05738118390804598 0.03019831264367816
v -0.049832151724137935 -0.05926844022988506 0.03220116321839081
v -0.055493925287356326 -0.05648622988505747 0.03131991149425288
v -0.05360666666666667 -0.05994178735632184 0.03698168160919541
v -0.049832151724137935 -0.05926844022988506 0.03220116321839081
v -0.055493925287356326 -0.05648622988505747 0.03131991149425288
v -0.05360666666666667 -0.05994178735632184 0.03698168160919541
v -0.055493925287356326 -0.05738118390804598 0.033449396551724145
v -0.02718506551724138 -0.01774877816091954 -0.047595701149425296
v 0.05396699770114943 -0.03629270344827586 -0.04039586666666667
v -0.04228312413793104 -0.02347294827586207 -0.034734091954022994
v 0.03509442298850575 -0.07625375862068967 0.048782797701149426
v 0.03509442298850575 -0.07657590804597701 0.048305224137931035
v 0.04075619540229885 -0.07625375862068967 0.04904440804597701
v 0.03509442298850575 -0.07625375862068967 0.048782797701149426
v 0.03509442298850575 -0.07657590804597701 0.048305224137931035
v 0.027545395402298854 -0.07436649425287356 0.04948700689655173
v 0.05396699770114943 0.00037880804597701154 0.09359940229885058
v -0.055493925287356326 -0.05360666666666667 0.04735510344827586
v 0.027545395402298854 -0.07436649425287356 0.04948700689655173
v -0.04039586666666667 -0.06174003908045978 0.044530712643678166
v -0.049832151724137935 -0.05926844022988506 0.04261752298850575
v -0.05360666666666667 -0.05994178735632184 0.03698168160919541
v -0.008312493103448277 -0.06681747126436782 0.04775385747126437
v -0.055493925287356326 -0.05360666666666667 0.04735510344827586
v 0.027545395402298854 -0.07436649425287356 0.04948700689655173
v -0.008312493103448277 -0.06681747126436782 0.04775385747126437
v 0.0030110505747126437 -0.07059197701149425 0.04715284367816092
v 0.027545395402298854 -0.07436649425287356 0.04948700689655173
v -0.008312493103448277 -0.06681747126436782 0.04775385747126437
v -0.04039586666666667 -0.06174003908045978 0.044530712643678166
v -0.055493925287356326 -0.05360666666666667 0.04735510344827586
v -0.008312493103448277 -0.06681747126436782 0.04775385747126437
v -0.04039586666666667 -0.06174003908045978 0.044530712643678166
v 0.0030110505747126437 -0.07059197701149425 0.04715284367816092
v -0.038508609195402305 0.03182073793103448 0.08605036781609196
v -0.04119087931034483 0.03131991149425288 0.08416311494252875
v -0.038508609195402305 0.03131991149425288 0.08653622298850576
v -0.038508609195402305 0.03182073793103448 0.08605036781609196
v 0.025658137931034487 0.0181091091954023 0.09035001494252874
v -0.038508609195402305 0.03131991149425288 0.08653622298850576
v -0.038508609195402305 0.03182073793103448 0.08605036781609196
v -0.03662135057471265 0.03929135057471265 0.07661408390804599
v 0.025658137931034487 0.0181091091954023 0.09035001494252874
v 0.029432655172413797 0.015167828735632185 0.0917121459770115
v 0.025658137931034487 0.0181091091954023 0.09035001494252874
v 0.05396699770114943 0.004898308045977012 0.09574181609195402
v 0.029432655172413797 0.015167828735632185 0.0917121459770115
v 0.019996366666666668 0.0181091091954023 0.09070500000000001
v 0.05396699770114943 0.004898308045977012 0.09574181609195402
v 0.029432655172413797 0.015167828735632185 0.0917121459770115
v 0.019996366666666668 0.0181091091954023 0.09070500000000001
v 0.025658137931034487 0.0181091091954023 0.09035001494252874
v 0.05962877011494253 0.012276008045977014 0.08793763218390806
v 0.05962877011494253 0.016154610344827586 0.08416311494252875
v 0.0558542551724138 0.013630617241379312 0.08982488505747127
v 0.06065760919540231 0.008672822988505748 0.08793763218390806
v 0.0626830195402299 0.014334594252873565 0.07850134482758621
v 0.06171656781609195 0.008672822988505748 0.08416311494252875
v 0.06065760919540231 0.008672822988505748 0.08793763218390806
v 0.0626830195402299 0.014334594252873565 0.07850134482758621
v 0.06042651034482759 0.010560080459770116 0.08793763218390806
v 0.0558542551724138 0.004898308045977012 0.09519842528735632
v 0.05396699770114943 0.00037880804597701154 0.09359940229885058
v 0.05484904367816092 0.0011237931034482759 0.09359940229885058
v 0.061004559770114944 0.014334594252873565 0.08416311494252875
v 0.05962877011494253 0.016154610344827586 0.08416311494252875
v 0.06581119540229885 0.029432655172413797 0.05774151264367817
v 0.061004559770114944 0.014334594252873565 0.08416311494252875
v 0.06581119540229885 0.029432655172413797 0.05774151264367817
v 0.07561978965517242 0.05396699770114943 0.010560080459770116
v 0.061004559770114944 0.014334594252873565 0.08416311494252875
v 0.05962877011494253 0.012276008045977014 0.08793763218390806
v 0.06042651034482759 0.010560080459770116 0.08793763218390806
v 0.061004559770114944 0.014334594252873565 0.08416311494252875
v 0.05962877011494253 0.012276008045977014 0.08793763218390806
v 0.05962877011494253 0.016154610344827586 0.08416311494252875
v 0.061004559770114944 0.014334594252873565 0.08416311494252875
v 0.0626830195402299 0.014334594252873565 0.07850134482758621
v 0.07561978965517242 0.05396699770114943 0.010560080459770116
v 0.061004559770114944 0.014334594252873565 0.08416311494252875
v 0.0626830195402299 0.014334594252873565 0.07850134482758621
v 0.06042651034482759 0.010560080459770116 0.08793763218390806
v -0.030959580459770118 0.056682808045977015 0.044530712643678166
v -0.03662135057471265 0.03929135057471265 0.07661408390804599
v -0.02718506551724138 0.07000361379310345 0.019996366666666668
v 0.07386696551724138 0.0558542551724138 0.006785565517241379
v 0.07342888045977013 0.0558542551724138 0.004898308045977012
v 0.07561978965517242 0.05396699770114943 0.010560080459770116
v 0.07386696551724138 0.0558542551724138 0.006785565517241379
v 0.07283956896551724 0.05680191494252874 0.008672822988505748
v 0.07561978965517242 0.05396699770114943 0.010560080459770116
v 0.07386696551724138 0.0558542551724138 0.006785565517241379
v 0.07283956896551724 0.056301290804597705 0.004898308045977012
v 0.07342888045977013 0.0558542551724138 0.004898308045977012
v -0.04141256781609196 -0.012087008045977012 -0.04794489425287357
v -0.04269022413793104 -0.01586152183908046 -0.04228312413793104
v -0.04255368735632184 -0.006425235632183908 -0.044170381609195404
v -0.04141256781609196 -0.012087008045977012 -0.04794489425287357
v -0.04255368735632184 -0.006425235632183908 -0.044170381609195404
v -0.041698258620689654 -0.0007634632183908047 -0.046057639080459775
v -0.03662135057471265 0.025658137931034487 0.08729101609195403
v -0.02718506551724138 0.02377088045977012 0.08917708045977012
v -0.038508609195402305 0.03131991149425288 0.08653622298850576
v -0.03662135057471265 0.025658137931034487 0.08729101609195403
v -0.04039586666666667 0.019996366666666668 0.08487129310344828
v -0.02718506551724138 0.02377088045977012 0.08917708045977012
v -0.046057639080459775 -0.010199749425287357 0.07004172413793104
v -0.04039586666666667 0.019996366666666668 0.08487129310344828
v -0.02718506551724138 0.02377088045977012 0.08917708045977012
v -0.046057639080459775 -0.010199749425287357 0.07004172413793104
v -0.02718506551724138 0.02377088045977012 0.08917708045977012
v 0.05396699770114943 0.004898308045977012 0.09574181609195402
v -0.046057639080459775 -0.010199749425287357 0.07004172413793104
v 0.05396699770114943 0.00037880804597701154 0.09359940229885058
v 0.05396699770114943 0.004898308045977012 0.09574181609195402
v -0.046057639080459775 -0.010199749425287357 0.07004172413793104
v 0.05396699770114943 0.00037880804597701154 0.09359940229885058
v -0.055493925287356326 -0.05360666666666667 0.04735510344827586
v -0.04228312413793104 0.02377088045977012 0.08499435977011495
v -0.03662135057471265 0.025658137931034487 0.08729101609195403
v -0.04039586666666667 0.019996366666666668 0.08487129310344828
v -0.04228312413793104 0.02377088045977012 0.08499435977011495
v -0.046057639080459775 -0.010199749425287357 0.07004172413793104
v -0.055493925287356326 -0.05360666666666667 0.04735510344827586
v -0.04228312413793104 0.02377088045977012 0.08499435977011495
v -0.046057639080459775 -0.010199749425287357 0.07004172413793104
v -0.04039586666666667 0.019996366666666668 0.08487129310344828
v 0.07275160919540231 0.0501924827586207 -0.0007634632183908047
v 0.07283956896551724 0.0501924827586207 -0.0006085275862068966
v 0.07104124137931035 0.03131991149425288 -0.010199749425287357
v 0.07275160919540231 0.0501924827586207 -0.0007634632183908047
v 0.06529054367816092 0.010560080459770116 -0.02308186666666667
v 0.07095231379310345 0.0501924827586207 -0.0014308402298850577
v 0.07275160919540231 0.0501924827586207 -0.0007634632183908047
v 0.07283956896551724 0.056301290804597705 0.004898308045977012
v 0.07342888045977013 0.0558542551724138 0.004898308045977012
v 0.0749393367816092 0.048305224137931035 0.006785565517241379
v 0.06171656781609195 0.008672822988505748 0.08416311494252875
v 0.07561978965517242 0.05396699770114943 0.010560080459770116
v 0.0749393367816092 0.048305224137931035 0.006785565517241379
v 0.07509185057471265 0.048305224137931035 0.004898308045977012
v 0.07561978965517242 0.05396699770114943 0.010560080459770116
v 0.0749393367816092 0.048305224137931035 0.006785565517241379
v 0.07509185057471265 0.048305224137931035 0.004898308045977012
v 0.06171656781609195 0.008672822988505748 0.08416311494252875
v 0.07257405747126437 0.03320716551724138 -0.0045379781609195405
v 0.07509185057471265 0.048305224137931035 0.004898308045977012
v 0.05976779310344828 -0.038508609195402305 -0.021523294252873564
v 0.06162947586206897 -0.02718506551724138 -0.04039586666666667
v 0.07257405747126437 0.03320716551724138 -0.0045379781609195405
v 0.062473464367816096 -0.021523294252873564 -0.038508609195402305
v 0.0558542551724138 -0.030959580459770118 -0.045275790804597704
v 0.0558542551724138 -0.02718506551724138 -0.04467195172413793
v 0.05962877011494253 -0.030959580459770118 -0.0442226183908046
v 0.0558542551724138 -0.030959580459770118 -0.045275790804597704
v 0.05207974022988506 -0.030959580459770118 -0.04585874137931035
v 0.0558542551724138 -0.02718506551724138 -0.04467195172413793
v 0.0558542551724138 -0.03284683908045977 -0.04479647701149425
v 0.05704106321839081 -0.03284683908045977 -0.044170381609195404
v 0.05396699770114943 -0.03629270344827586 -0.04039586666666667
v 0.0558542551724138 -0.03284683908045977 -0.04479647701149425
v 0.0558542551724138 -0.030959580459770118 -0.045275790804597704
v 0.05207974022988506 -0.030959580459770118 -0.04585874137931035
v 0.0558542551724138 -0.03284683908045977 -0.04479647701149425
v 0.05704106321839081 -0.03284683908045977 -0.044170381609195404
v 0.05962877011494253 -0.030959580459770118 -0.0442226183908046
v 0.0558542551724138 -0.03284683908045977 -0.04479647701149425
v 0.0558542551724138 -0.030959580459770118 -0.045275790804597704
v 0.05962877011494253 -0.030959580459770118 -0.0442226183908046
v -0.030959580459770118 -0.012087008045977012 -0.05192838505747127
v -0.029072321839080463 -0.010199749425287357 -0.05075463563218391
v 0.0558542551724138 -0.02718506551724138 -0.04467195172413793
v -0.030959580459770118 -0.012087008045977012 -0.05192838505747127
v 0.03698168160919541 -0.02718506551724138 -0.04730664137931035
v 0.0558542551724138 -0.02718506551724138 -0.04467195172413793
v -0.030959580459770118 -0.012087008045977012 -0.05192838505747127
v -0.038508609195402305 -0.006425235632183908 -0.0503413735632184
v -0.038508609195402305 -0.010199749425287357 -0.05207953448275863
v -0.030959580459770118 -0.012087008045977012 -0.05192838505747127
v -0.029262664367816098 -0.013974264367816094 -0.051719409195402306
v 0.03698168160919541 -0.02718506551724138 -0.04730664137931035
v -0.030959580459770118 -0.012087008045977012 -0.05192838505747127
v -0.029072321839080463 -0.010199749425287357 -0.05075463563218391
v -0.03284683908045977 0.004898308045977012 -0.04413694252873564
v -0.030959580459770118 -0.012087008045977012 -0.05192838505747127
v -0.038508609195402305 -0.006425235632183908 -0.0503413735632184
v -0.03284683908045977 0.004898308045977012 -0.04413694252873564
v -0.05054717471264368 -0.008312493103448277 0.06151602873563218
v -0.05619311494252874 -0.05360666666666667 0.04641796551724138
v -0.05720205747126437 -0.049832151724137935 0.03509442298850575
v -0.05054717471264368 -0.008312493103448277 0.06151602873563218
v -0.031558117241379316 0.07661408390804599 -0.0026507206896551725
v -0.05720205747126437 -0.049832151724137935 0.03509442298850575
v -0.0543000367816092 -0.05926844022988506 0.03698168160919541
v -0.056139864367816095 -0.05738118390804598 0.03509442298850575
v -0.05360666666666667 -0.05994178735632184 0.03698168160919541
v -0.0543000367816092 -0.05926844022988506 0.03698168160919541
v -0.056139864367816095 -0.05738118390804598 0.03509442298850575
v -0.05619311494252874 -0.05360666666666667 0.04641796551724138
v -0.055493925287356326 -0.05455382988505748 0.04641796551724138
v -0.049832151724137935 -0.05926844022988506 0.04261752298850575
v -0.05360666666666667 -0.05994178735632184 0.03698168160919541
v -0.055493925287356326 -0.05455382988505748 0.04641796551724138
v -0.05619311494252874 -0.05360666666666667 0.04641796551724138
v -0.055493925287356326 -0.05360666666666667 0.04735510344827586
v -0.055493925287356326 -0.05455382988505748 0.04641796551724138
v -0.04039586666666667 -0.06174003908045978 0.044530712643678166
v -0.055493925287356326 -0.05360666666666667 0.04735510344827586
v -0.055493925287356326 -0.05455382988505748 0.04641796551724138
v -0.04039586666666667 -0.06174003908045978 0.044530712643678166
v -0.049832151724137935 -0.05926844022988506 0.04261752298850575
v -0.055493925287356326 -0.05455382988505748 0.04641796551724138
v -0.0543000367816092 -0.05926844022988506 0.03698168160919541
v -0.05360666666666667 -0.05994178735632184 0.03698168160919541
v -0.055493925287356326 -0.05455382988505748 0.04641796551724138
v -0.0543000367816092 -0.05926844022988506 0.03698168160919541
v -0.05619311494252874 -0.05360666666666667 0.04641796551724138
v 0.04075619540229885 -0.07874783448275863 0.04075619540229885
v 0.04264345402298851 -0.07095112643678161 0.02377088045977012
v 0.038868939080459776 -0.07881035057471265 0.04075619540229885
v 0.04075619540229885 -0.07874783448275863 0.04075619540229885
v 0.038868939080459776 -0.07877885057471265 0.04264345402298851
v 0.038868939080459776 -0.07881035057471265 0.04075619540229885
v 0.04075619540229885 -0.07874783448275863 0.04075619540229885
v 0.048305224137931035 -0.06681747126436782 0.018692154022988506
v 0.04264345402298851 -0.07095112643678161 0.02377088045977012
v 0.04075619540229885 -0.07823075862068966 0.044530712643678166
v 0.03509442298850575 -0.07657590804597701 0.048305224137931035
v 0.038868939080459776 -0.07877885057471265 0.04264345402298851
v 0.04075619540229885 -0.07823075862068966 0.044530712643678166
v 0.04075619540229885 -0.07874783448275863 0.04075619540229885
v 0.038868939080459776 -0.07877885057471265 0.04264345402298851
v 0.04075619540229885 -0.07823075862068966 0.044530712643678166
v 0.04264345402298851 -0.07725058620689655 0.044530712643678166
v 0.04075619540229885 -0.07874783448275863 0.04075619540229885
v 0.049237333333333334 -0.06681747126436782 0.021883624137931035
v 0.05976779310344828 -0.038508609195402305 -0.021523294252873564
v 0.04645695977011494 -0.07247924137931035 0.04264345402298851
v 0.049237333333333334 -0.06681747126436782 0.021883624137931035
v 0.0561074551724138 -0.04794489425287357 -0.010199749425287357
v 0.05976779310344828 -0.038508609195402305 -0.021523294252873564
v -0.03662135057471265 -0.014202122988505749 -0.049832151724137935
v -0.02718506551724138 -0.01774877816091954 -0.047595701149425296
v -0.04228312413793104 -0.02347294827586207 -0.034734091954022994
v -0.03662135057471265 -0.014202122988505749 -0.049832151724137935
v -0.02718506551724138 -0.01774877816091954 -0.047595701149425296
v -0.030959580459770118 -0.014053398850574715 -0.051719409195402306
v -0.030959580459770118 -0.013974264367816094 -0.05180952528735633
v -0.029262664367816098 -0.013974264367816094 -0.051719409195402306
v 0.03698168160919541 -0.02718506551724138 -0.04730664137931035
v -0.030959580459770118 -0.013974264367816094 -0.05180952528735633
v 0.05207974022988506 -0.030959580459770118 -0.04585874137931035
v 0.03698168160919541 -0.02718506551724138 -0.04730664137931035
v -0.030959580459770118 -0.013974264367816094 -0.05180952528735633
v -0.030959580459770118 -0.012087008045977012 -0.05192838505747127
v -0.029262664367816098 -0.013974264367816094 -0.051719409195402306
v -0.030959580459770118 -0.013974264367816094 -0.05180952528735633
v 0.0558542551724138 -0.03284683908045977 -0.04479647701149425
v 0.05207974022988506 -0.030959580459770118 -0.04585874137931035
v -0.030959580459770118 -0.013974264367816094 -0.05180952528735633
v -0.030959580459770118 -0.012087008045977012 -0.05192838505747127
v -0.038508609195402305 -0.010199749425287357 -0.05207953448275863
v -0.030959580459770118 -0.013974264367816094 -0.05180952528735633
v -0.038508609195402305 -0.012230028735632186 -0.051719409195402306
v -0.030959580459770118 -0.014053398850574715 -0.051719409195402306
v 0.047752574712643686 -0.061155694252873566 0.0558542551724138
v 0.05744923448275863 -0.010199749425287357 0.08038859770114944
v 0.058052229885057476 -0.0026507206896551725 0.08605036781609196
v 0.047752574712643686 -0.061155694252873566 0.0558542551724138
v 0.06171656781609195 0.008672822988505748 0.08416311494252875
v 0.04645695977011494 -0.07247924137931035 0.04264345402298851
v 0.047752574712643686 -0.061155694252873566 0.0558542551724138
v 0.05744923448275863 -0.010199749425287357 0.08038859770114944
v 0.06171656781609195 0.008672822988505748 0.08416311494252875
v 0.0030110505747126437 -0.07111914597701151 0.04641796551724138
v -0.04039586666666667 -0.06174003908045978 0.044530712643678166
v 0.0030110505747126437 -0.07059197701149425 0.04715284367816092
v 0.0030110505747126437 -0.07111914597701151 0.04641796551724138
v 0.0030110505747126437 -0.07059197701149425 0.04715284367816092
v 0.027545395402298854 -0.07436649425287356 0.04948700689655173
v -0.038508609195402305 0.03509442298850575 0.08135791494252874
v -0.04119087931034483 0.03131991149425288 0.08416311494252875
v -0.037510885057471265 0.038868939080459776 0.07661408390804599
v -0.038508609195402305 0.03509442298850575 0.08135791494252874
v -0.038508609195402305 0.03182073793103448 0.08605036781609196
v -0.04119087931034483 0.03131991149425288 0.08416311494252875
v -0.038508609195402305 0.03509442298850575 0.08135791494252874
v -0.03662135057471265 0.03929135057471265 0.07661408390804599
v -0.037510885057471265 0.038868939080459776 0.07661408390804599
v -0.038508609195402305 0.03509442298850575 0.08135791494252874
v -0.038508609195402305 0.03182073793103448 0.08605036781609196
v -0.03662135057471265 0.03929135057471265 0.07661408390804599
v -0.040357290804597705 0.03698168160919541 0.0747268275862069
v -0.04119087931034483 0.03131991149425288 0.08416311494252875
v -0.037510885057471265 0.038868939080459776 0.07661408390804599
v -0.041088173563218394 0.04075619540229885 0.06529054367816092
v -0.05054717471264368 -0.008312493103448277 0.06151602873563218
v -0.04276690459770115 0.027545395402298854 0.08038859770114944
v -0.041088173563218394 0.04075619540229885 0.06529054367816092
v -0.05054717471264368 -0.008312493103448277 0.06151602873563218
v -0.031558117241379316 0.07661408390804599 -0.0026507206896551725
v 0.05706542528735633 0.012447336781609197 0.08982488505747127
v 0.05962877011494253 0.012276008045977014 0.08793763218390806
v 0.0558542551724138 0.013630617241379312 0.08982488505747127
v 0.05706542528735633 0.012447336781609197 0.08982488505747127
v 0.05962877011494253 0.012276008045977014 0.08793763218390806
v 0.05774151264367817 0.008413214942528736 0.0917121459770115
v 0.05706542528735633 0.012447336781609197 0.08982488505747127
v 0.0558542551724138 0.004898308045977012 0.09519842528735632
v 0.0558542551724138 0.013630617241379312 0.08982488505747127
v 0.05706542528735633 0.012447336781609197 0.08982488505747127
v 0.0558542551724138 0.004898308045977012 0.09519842528735632
v 0.05774151264367817 0.008413214942528736 0.0917121459770115
v 0.05878561494252874 0.006785565517241379 0.0917121459770115
v 0.05962877011494253 0.012276008045977014 0.08793763218390806
v 0.05774151264367817 0.008413214942528736 0.0917121459770115
v 0.05878561494252874 0.006785565517241379 0.0917121459770115
v 0.0558542551724138 0.004898308045977012 0.09519842528735632
v 0.05774151264367817 0.008413214942528736 0.0917121459770115
v 0.05878561494252874 0.006785565517241379 0.0917121459770115
v 0.05962877011494253 0.006785565517241379 0.09062108620689656
v 0.06042651034482759 0.010560080459770116 0.08793763218390806
v 0.05878561494252874 0.006785565517241379 0.0917121459770115
v 0.05962877011494253 0.012276008045977014 0.08793763218390806
v 0.06042651034482759 0.010560080459770116 0.08793763218390806
v 0.060114360919540234 0.006785565517241379 0.08982488505747127
v 0.05744923448275863 -0.010199749425287357 0.08038859770114944
v 0.058052229885057476 -0.0026507206896551725 0.08605036781609196
v 0.060114360919540234 0.006785565517241379 0.08982488505747127
v 0.05744923448275863 -0.010199749425287357 0.08038859770114944
v 0.06171656781609195 0.008672822988505748 0.08416311494252875
v 0.060114360919540234 0.006785565517241379 0.08982488505747127
v 0.06065760919540231 0.008672822988505748 0.08793763218390806
v 0.06171656781609195 0.008672822988505748 0.08416311494252875
v 0.060114360919540234 0.006785565517241379 0.08982488505747127
v 0.05962877011494253 0.006785565517241379 0.09062108620689656
v 0.06042651034482759 0.010560080459770116 0.08793763218390806
v 0.060114360919540234 0.006785565517241379 0.08982488505747127
v 0.06065760919540231 0.008672822988505748 0.08793763218390806
v 0.06042651034482759 0.010560080459770116 0.08793763218390806
v 0.05517340229885058 0.004898308045977012 0.09548665517241381
v 0.05396699770114943 0.00037880804597701154 0.09359940229885058
v 0.05396699770114943 0.004898308045977012 0.09574181609195402
v 0.05517340229885058 0.004898308045977012 0.09548665517241381
v 0.0558542551724138 0.004898308045977012 0.09519842528735632
v 0.05396699770114943 0.00037880804597701154 0.09359940229885058
v 0.05517340229885058 0.004898308045977012 0.09548665517241381
v 0.0558542551724138 0.013630617241379312 0.08982488505747127
v 0.05396699770114943 0.004898308045977012 0.09574181609195402
v 0.05517340229885058 0.004898308045977012 0.09548665517241381
v 0.0558542551724138 0.004898308045977012 0.09519842528735632
v 0.0558542551724138 0.013630617241379312 0.08982488505747127
v 0.0634032827586207 0.02956507586206897 0.05962877011494253
v 0.07283956896551724 0.05680191494252874 0.008672822988505748
v 0.05962877011494253 0.016154610344827586 0.08416311494252875
v -0.023410551724137932 0.07623921839080461 0.0030110505747126437
v -0.02718506551724138 0.07000361379310345 0.019996366666666668
v -0.030959580459770118 0.07706130344827587 -0.0026507206896551725
v -0.023410551724137932 0.07623921839080461 0.0030110505747126437
v -0.01774877816091954 0.07700742528735632 0.0030110505747126437
v -0.030959580459770118 0.07706130344827587 -0.0026507206896551725
v -0.023410551724137932 0.07623921839080461 0.0030110505747126437
v -0.01774877816091954 0.07700742528735632 0.0030110505747126437
v -0.02718506551724138 0.07000361379310345 0.019996366666666668
v -0.04049943448275862 -0.010199749425287357 -0.049832151724137935
v -0.041698258620689654 -0.0007634632183908047 -0.046057639080459775
v -0.038508609195402305 -0.010199749425287357 -0.05207953448275863
v -0.04049943448275862 -0.010199749425287357 -0.049832151724137935
v -0.04141256781609196 -0.012087008045977012 -0.04794489425287357
v -0.041698258620689654 -0.0007634632183908047 -0.046057639080459775
v -0.04039586666666667 0.027545395402298854 0.08587364367816092
v -0.04119087931034483 0.03131991149425288 0.08416311494252875
v -0.038508609195402305 0.03131991149425288 0.08653622298850576
v -0.04039586666666667 0.027545395402298854 0.08587364367816092
v -0.04228312413793104 0.02377088045977012 0.08499435977011495
v -0.04119087931034483 0.03131991149425288 0.08416311494252875
v -0.04039586666666667 0.027545395402298854 0.08587364367816092
v -0.03662135057471265 0.025658137931034487 0.08729101609195403
v -0.038508609195402305 0.03131991149425288 0.08653622298850576
v -0.04039586666666667 0.027545395402298854 0.08587364367816092
v -0.04228312413793104 0.02377088045977012 0.08499435977011495
v -0.03662135057471265 0.025658137931034487 0.08729101609195403
v 0.07095231379310345 0.05774151264367817 0.006188087356321839
v 0.07283956896551724 0.056301290804597705 0.004898308045977012
v 0.07095231379310345 0.05727599080459771 0.004898308045977012
v 0.07095231379310345 0.05774151264367817 0.006188087356321839
v 0.07095231379310345 0.057848770114942535 0.006785565517241379
v 0.07283956896551724 0.056301290804597705 0.004898308045977012
v 0.07283956896551724 0.05657618735632184 0.006785565517241379
v 0.07386696551724138 0.0558542551724138 0.006785565517241379
v 0.07283956896551724 0.056301290804597705 0.004898308045977012
v 0.07283956896551724 0.05657618735632184 0.006785565517241379
v 0.07095231379310345 0.057848770114942535 0.006785565517241379
v 0.07283956896551724 0.056301290804597705 0.004898308045977012
v 0.07283956896551724 0.05657618735632184 0.006785565517241379
v 0.07386696551724138 0.0558542551724138 0.006785565517241379
v 0.07283956896551724 0.05680191494252874 0.008672822988505748
v 0.07283956896551724 0.05657618735632184 0.006785565517241379
v 0.07095231379310345 0.057848770114942535 0.006785565517241379
v 0.07283956896551724 0.05680191494252874 0.008672822988505748
v 0.07095231379310345 0.03131991149425288 -0.010281217241379311
v 0.07275160919540231 0.0501924827586207 -0.0007634632183908047
v 0.07104124137931035 0.03131991149425288 -0.010199749425287357
v 0.07095231379310345 0.0558542551724138 0.003542345977011495
v 0.06717779885057472 0.056751954022988514 0.0030110505747126437
v 0.07095231379310345 0.05727599080459771 0.004898308045977012
v 0.07095231379310345 0.0558542551724138 0.003542345977011495
v 0.07283956896551724 0.056301290804597705 0.004898308045977012
v 0.07095231379310345 0.05727599080459771 0.004898308045977012
v 0.07095231379310345 0.0558542551724138 0.003542345977011495
v 0.07275160919540231 0.0501924827586207 -0.0007634632183908047
v 0.07283956896551724 0.056301290804597705 0.004898308045977012
v 0.07095231379310345 0.0558542551724138 0.003542345977011495
v 0.07275160919540231 0.0501924827586207 -0.0007634632183908047
v 0.07095231379310345 0.0501924827586207 -0.0014308402298850577
v 0.0743604367816092 0.05207974022988506 0.0030110505747126437
v 0.07275160919540231 0.0501924827586207 -0.0007634632183908047
v 0.07342888045977013 0.0558542551724138 0.004898308045977012
v 0.0743604367816092 0.05207974022988506 0.0030110505747126437
v 0.0747268275862069 0.05207974022988506 0.0037393839080459776
v 0.07342888045977013 0.0558542551724138 0.004898308045977012
v 0.0743604367816092 0.05207974022988506 0.0030110505747126437
v 0.07275160919540231 0.0501924827586207 -0.0007634632183908047
v 0.07283956896551724 0.0501924827586207 -0.0006085275862068966
v 0.07525308045977012 0.05207974022988506 0.006785565517241379
v 0.07509185057471265 0.048305224137931035 0.004898308045977012
v 0.07561978965517242 0.05396699770114943 0.010560080459770116
v 0.07458810804597701 0.0501924827586207 0.0030110505747126437
v 0.07257405747126437 0.03320716551724138 -0.0045379781609195405
v 0.07509185057471265 0.048305224137931035 0.004898308045977012
v 0.07054352183908047 0.027545395402298854 -0.012087008045977012
v 0.07257405747126437 0.03320716551724138 -0.0045379781609195405
v 0.062473464367816096 -0.021523294252873564 -0.038508609195402305
v 0.07054352183908047 0.027545395402298854 -0.012087008045977012
v 0.07458810804597701 0.0501924827586207 0.0030110505747126437
v 0.07104124137931035 0.03131991149425288 -0.010199749425287357
v 0.07054352183908047 0.027545395402298854 -0.012087008045977012
v 0.07458810804597701 0.0501924827586207 0.0030110505747126437
v 0.07257405747126437 0.03320716551724138 -0.0045379781609195405
v 0.06151602873563218 -0.021523294252873564 -0.03972042528735632
v 0.062473464367816096 -0.021523294252873564 -0.038508609195402305
v 0.05962877011494253 -0.030959580459770118 -0.0442226183908046
v 0.06151602873563218 -0.021523294252873564 -0.03972042528735632
v 0.05700005517241379 -0.02718506551724138 -0.044170381609195404
v 0.05962877011494253 -0.030959580459770118 -0.0442226183908046
v 0.06151602873563218 -0.021523294252873564 -0.03972042528735632
v 0.07054352183908047 0.027545395402298854 -0.012087008045977012
v 0.07104124137931035 0.03131991149425288 -0.010199749425287357
v 0.06151602873563218 -0.021523294252873564 -0.03972042528735632
v 0.07054352183908047 0.027545395402298854 -0.012087008045977012
v 0.062473464367816096 -0.021523294252873564 -0.038508609195402305
v 0.06151602873563218 -0.021523294252873564 -0.03972042528735632
v 0.07095231379310345 0.03131991149425288 -0.010281217241379311
v 0.07104124137931035 0.03131991149425288 -0.010199749425287357
v 0.06151602873563218 -0.021523294252873564 -0.03972042528735632
v 0.06529054367816092 0.010560080459770116 -0.02308186666666667
v 0.0558542551724138 -0.02718506551724138 -0.04467195172413793
v 0.06151602873563218 -0.021523294252873564 -0.03972042528735632
v 0.05700005517241379 -0.02718506551724138 -0.044170381609195404
v 0.0558542551724138 -0.02718506551724138 -0.04467195172413793
v 0.06151602873563218 -0.021523294252873564 -0.03972042528735632
v 0.07275160919540231 0.0501924827586207 -0.0007634632183908047
v 0.06529054367816092 0.010560080459770116 -0.02308186666666667
v 0.06151602873563218 -0.021523294252873564 -0.03972042528735632
v 0.07095231379310345 0.03131991149425288 -0.010281217241379311
v 0.07275160919540231 0.0501924827586207 -0.0007634632183908047
v 0.06151602873563218 -0.02718506551724138 -0.040750095402298854
v 0.062473464367816096 -0.021523294252873564 -0.038508609195402305
v 0.05962877011494253 -0.030959580459770118 -0.0442226183908046
v 0.06151602873563218 -0.02718506551724138 -0.040750095402298854
v 0.06162947586206897 -0.02718506551724138 -0.04039586666666667
v 0.05962877011494253 -0.030959580459770118 -0.0442226183908046
v 0.06151602873563218 -0.02718506551724138 -0.040750095402298854
v 0.06162947586206897 -0.02718506551724138 -0.04039586666666667
v 0.062473464367816096 -0.021523294252873564 -0.038508609195402305
v 0.06187082068965518 -0.02718506551724138 -0.03662135057471265
v 0.06162947586206897 -0.02718506551724138 -0.04039586666666667
v 0.05976779310344828 -0.038508609195402305 -0.021523294252873564
v 0.014334594252873565 -0.025297808045977012 -0.04689796206896552
v -0.030959580459770118 -0.013974264367816094 -0.05180952528735633
v -0.030959580459770118 -0.014053398850574715 -0.051719409195402306
v 0.014334594252873565 -0.025297808045977012 -0.04689796206896552
v -0.02718506551724138 -0.01774877816091954 -0.047595701149425296
v 0.05396699770114943 -0.03629270344827586 -0.04039586666666667
v 0.014334594252873565 -0.025297808045977012 -0.04689796206896552
v -0.02718506551724138 -0.01774877816091954 -0.047595701149425296
v -0.030959580459770118 -0.014053398850574715 -0.051719409195402306
v -0.01963603563218391 0.07772422988505748 -0.0007634632183908047
v -0.01774877816091954 0.07700742528735632 0.0030110505747126437
v -0.030959580459770118 0.07706130344827587 -0.0026507206896551725
v 0.025658137931034487 0.06753411494252874 0.0011237931034482759
v 0.07095231379310345 0.05774151264367817 0.006188087356321839
v 0.07095231379310345 0.05727599080459771 0.004898308045977012
v 0.025658137931034487 0.06753411494252874 0.0011237931034482759
v 0.07095231379310345 0.05774151264367817 0.006188087356321839
v 0.07095231379310345 0.057848770114942535 0.006785565517241379
v 0.025658137931034487 0.06753411494252874 0.0011237931034482759
v -0.01963603563218391 0.07772422988505748 -0.0007634632183908047
v 0.07095231379310345 0.057848770114942535 0.006785565517241379
v -0.04303997241379311 0.02377088045977012 0.08416311494252875
v -0.05054717471264368 -0.008312493103448277 0.06151602873563218
v -0.04276690459770115 0.027545395402298854 0.08038859770114944
v -0.04303997241379311 0.02377088045977012 0.08416311494252875
v -0.04119087931034483 0.03131991149425288 0.08416311494252875
v -0.04276690459770115 0.027545395402298854 0.08038859770114944
v -0.04303997241379311 0.02377088045977012 0.08416311494252875
v -0.04228312413793104 0.02377088045977012 0.08499435977011495
v -0.04119087931034483 0.03131991149425288 0.08416311494252875
v -0.04303997241379311 0.02377088045977012 0.08416311494252875
v -0.05619311494252874 -0.05360666666666667 0.04641796551724138
v -0.055493925287356326 -0.05360666666666667 0.04735510344827586
v -0.04303997241379311 0.02377088045977012 0.08416311494252875
v -0.04228312413793104 0.02377088045977012 0.08499435977011495
v -0.055493925287356326 -0.05360666666666667 0.04735510344827586
v 0.04177995402298851 -0.07814101149425287 0.04075619540229885
v 0.04075619540229885 -0.07874783448275863 0.04075619540229885
v 0.048305224137931035 -0.06681747126436782 0.018692154022988506
v 0.04177995402298851 -0.07814101149425287 0.04075619540229885
v 0.04264345402298851 -0.07725058620689655 0.044530712643678166
v 0.044530712643678166 -0.07628039080459771 0.04264345402298851
v 0.04177995402298851 -0.07814101149425287 0.04075619540229885
v 0.04264345402298851 -0.07725058620689655 0.044530712643678166
v 0.04075619540229885 -0.07874783448275863 0.04075619540229885
v 0.038868939080459776 -0.07741609195402299 0.04641796551724138
v 0.04075619540229885 -0.07823075862068966 0.044530712643678166
v 0.03509442298850575 -0.07657590804597701 0.048305224137931035
v 0.04075619540229885 -0.07662886896551725 0.048305224137931035
v 0.04264345402298851 -0.07725058620689655 0.044530712643678166
v 0.04075619540229885 -0.07625375862068967 0.04904440804597701
v 0.04075619540229885 -0.07662886896551725 0.048305224137931035
v 0.04075619540229885 -0.07823075862068966 0.044530712643678166
v 0.04264345402298851 -0.07725058620689655 0.044530712643678166
v 0.04075619540229885 -0.07662886896551725 0.048305224137931035
v 0.038868939080459776 -0.07741609195402299 0.04641796551724138
v 0.04075619540229885 -0.07823075862068966 0.044530712643678166
v 0.04075619540229885 -0.07662886896551725 0.048305224137931035
v 0.03509442298850575 -0.07657590804597701 0.048305224137931035
v 0.04075619540229885 -0.07625375862068967 0.04904440804597701
v 0.04075619540229885 -0.07662886896551725 0.048305224137931035
v 0.038868939080459776 -0.07741609195402299 0.04641796551724138
v 0.03509442298850575 -0.07657590804597701 0.048305224137931035
v 0.04870311494252874 -0.06681747126436782 0.019996366666666668
v 0.05396699770114943 -0.05172287356321839 -0.008312493103448277
v 0.048305224137931035 -0.06681747126436782 0.018692154022988506
v 0.05962877011494253 -0.03299757011494253 -0.04228312413793104
v 0.0561074551724138 -0.04794489425287357 -0.010199749425287357
v 0.05976779310344828 -0.038508609195402305 -0.021523294252873564
v 0.05262167586206897 -0.046057639080459775 -0.023410551724137932
v 0.05396699770114943 -0.05172287356321839 -0.008312493103448277
v 0.048305224137931035 -0.06681747126436782 0.018692154022988506
v 0.05262167586206897 -0.046057639080459775 -0.023410551724137932
v 0.05962877011494253 -0.03299757011494253 -0.04228312413793104
v 0.05396699770114943 -0.05172287356321839 -0.008312493103448277
v -0.04228312413793104 -0.023410551724137932 -0.03482329425287357
v -0.03662135057471265 -0.014202122988505749 -0.049832151724137935
v -0.04228312413793104 -0.02347294827586207 -0.034734091954022994
v -0.04228312413793104 -0.023410551724137932 -0.03482329425287357
v -0.03662135057471265 -0.014202122988505749 -0.049832151724137935
v -0.038508609195402305 -0.012230028735632186 -0.051719409195402306
v -0.04228312413793104 -0.023410551724137932 -0.03482329425287357
v -0.04039586666666667 -0.013974264367816094 -0.04842073563218391
v -0.038508609195402305 -0.012230028735632186 -0.051719409195402306
v -0.03662135057471265 -0.013974264367816094 -0.05013559770114943
v -0.038508609195402305 -0.012230028735632186 -0.051719409195402306
v -0.030959580459770118 -0.014053398850574715 -0.051719409195402306
v -0.03662135057471265 -0.013974264367816094 -0.05013559770114943
v -0.03662135057471265 -0.014202122988505749 -0.049832151724137935
v -0.030959580459770118 -0.014053398850574715 -0.051719409195402306
v -0.03662135057471265 -0.013974264367816094 -0.05013559770114943
v -0.03662135057471265 -0.014202122988505749 -0.049832151724137935
v -0.038508609195402305 -0.012230028735632186 -0.051719409195402306
v -0.04166705517241379 -0.013974264367816094 -0.046057639080459775
v -0.04039586666666667 -0.013974264367816094 -0.04842073563218391
v -0.04141256781609196 -0.012087008045977012 -0.04794489425287357
v -0.04039586666666667 -0.012087008045977012 -0.049784522988505754
v -0.04039586666666667 -0.013974264367816094 -0.04842073563218391
v -0.04141256781609196 -0.012087008045977012 -0.04794489425287357
v 0.044530712643678166 -0.07485128045977012 0.04641796551724138
v 0.04264345402298851 -0.07725058620689655 0.044530712643678166
v 0.04075619540229885 -0.07625375862068967 0.04904440804597701
v 0.04264345402298851 -0.06493020689655173 0.05632071264367816
v 0.047752574712643686 -0.061155694252873566 0.0558542551724138
v 0.04075619540229885 -0.07625375862068967 0.04904440804597701
v 0.04264345402298851 -0.06493020689655173 0.05632071264367816
v 0.03509442298850575 -0.07625375862068967 0.048782797701149426
v 0.04075619540229885 -0.07625375862068967 0.04904440804597701
v 0.04264345402298851 -0.06493020689655173 0.05632071264367816
v 0.05396699770114943 0.00037880804597701154 0.09359940229885058
v 0.027545395402298854 -0.07436649425287356 0.04948700689655173
v 0.04264345402298851 -0.06493020689655173 0.05632071264367816
v 0.03509442298850575 -0.07625375862068967 0.048782797701149426
v 0.027545395402298854 -0.07436649425287356 0.04948700689655173
v 0.0573442827586207 0.004898308045977012 0.09359940229885058
v 0.0558542551724138 0.004898308045977012 0.09519842528735632
v 0.05484904367816092 0.0011237931034482759 0.09359940229885058
v 0.0573442827586207 0.004898308045977012 0.09359940229885058
v 0.047752574712643686 -0.061155694252873566 0.0558542551724138
v 0.05484904367816092 0.0011237931034482759 0.09359940229885058
v 0.0573442827586207 0.004898308045977012 0.09359940229885058
v 0.05878561494252874 0.006785565517241379 0.0917121459770115
v 0.05962877011494253 0.006785565517241379 0.09062108620689656
v 0.0573442827586207 0.004898308045977012 0.09359940229885058
v 0.05878561494252874 0.006785565517241379 0.0917121459770115
v 0.0558542551724138 0.004898308045977012 0.09519842528735632
v 0.0573442827586207 0.004898308045977012 0.09359940229885058
v 0.060114360919540234 0.006785565517241379 0.08982488505747127
v 0.05962877011494253 0.006785565517241379 0.09062108620689656
v 0.0573442827586207 0.004898308045977012 0.09359940229885058
v 0.060114360919540234 0.006785565517241379 0.08982488505747127
v 0.058052229885057476 -0.0026507206896551725 0.08605036781609196
v -0.008312493103448277 -0.06899312643678161 0.044530712643678166
v -0.04039586666666667 -0.06174003908045978 0.044530712643678166
v -0.05360666666666667 -0.05994178735632184 0.03698168160919541
v -0.008312493103448277 -0.06899312643678161 0.044530712643678166
v 0.0030110505747126437 -0.07111914597701151 0.04641796551724138
v -0.04039586666666667 -0.06174003908045978 0.044530712643678166
v 0.014334594252873565 -0.07346437586206897 0.04641796551724138
v 0.03509442298850575 -0.07657590804597701 0.048305224137931035
v 0.027545395402298854 -0.07436649425287356 0.04948700689655173
v 0.014334594252873565 -0.07346437586206897 0.04641796551724138
v 0.0030110505747126437 -0.07111914597701151 0.04641796551724138
v 0.027545395402298854 -0.07436649425287356 0.04948700689655173
v 0.014334594252873565 -0.07346437586206897 0.04641796551724138
v 0.03509442298850575 -0.07657590804597701 0.048305224137931035
v 0.03131991149425288 -0.07661078160919542 0.04641796551724138
v 0.014334594252873565 -0.07346437586206897 0.04641796551724138
v 0.038868939080459776 -0.07877885057471265 0.04264345402298851
v 0.03131991149425288 -0.07661078160919542 0.04641796551724138
v 0.014334594252873565 -0.07346437586206897 0.04641796551724138
v 0.016221850574712645 -0.07406634482758621 0.044530712643678166
v 0.038868939080459776 -0.07877885057471265 0.04264345402298851
v -0.04126711494252874 0.03509442298850575 0.07661408390804599
v -0.04119087931034483 0.03131991149425288 0.08416311494252875
v -0.04276690459770115 0.027545395402298854 0.08038859770114944
v -0.04126711494252874 0.03509442298850575 0.07661408390804599
v -0.041088173563218394 0.04075619540229885 0.06529054367816092
v -0.04276690459770115 0.027545395402298854 0.08038859770114944
v -0.04126711494252874 0.03509442298850575 0.07661408390804599
v -0.040357290804597705 0.03698168160919541 0.0747268275862069
v -0.04119087931034483 0.03131991149425288 0.08416311494252875
v -0.04126711494252874 0.03509442298850575 0.07661408390804599
v -0.041088173563218394 0.04075619540229885 0.06529054367816092
v -0.040357290804597705 0.03698168160919541 0.0747268275862069
v -0.04039586666666667 0.041475997701149424 0.06529054367816092
v -0.041088173563218394 0.04075619540229885 0.06529054367816092
v -0.031558117241379316 0.07661408390804599 -0.0026507206896551725
v -0.04039586666666667 0.041475997701149424 0.06529054367816092
v -0.031558117241379316 0.07661408390804599 -0.0026507206896551725
v -0.030959580459770118 0.07706130344827587 -0.0026507206896551725
v -0.04039586666666667 0.041475997701149424 0.06529054367816092
v -0.037510885057471265 0.038868939080459776 0.07661408390804599
v -0.030959580459770118 0.07706130344827587 -0.0026507206896551725
v -0.04039586666666667 0.041475997701149424 0.06529054367816092
v -0.040357290804597705 0.03698168160919541 0.0747268275862069
v -0.037510885057471265 0.038868939080459776 0.07661408390804599
v -0.04039586666666667 0.041475997701149424 0.06529054367816092
v -0.041088173563218394 0.04075619540229885 0.06529054367816092
v -0.040357290804597705 0.03698168160919541 0.0747268275862069
v 0.07404324137931034 0.048305224137931035 0.0011237931034482759
v 0.0743604367816092 0.05207974022988506 0.0030110505747126437
v 0.0747268275862069 0.05207974022988506 0.0037393839080459776
v 0.07404324137931034 0.048305224137931035 0.0011237931034482759
v 0.07458810804597701 0.0501924827586207 0.0030110505747126437
v 0.07104124137931035 0.03131991149425288 -0.010199749425287357
v 0.07404324137931034 0.048305224137931035 0.0011237931034482759
v 0.07458810804597701 0.0501924827586207 0.0030110505747126437
v 0.0747268275862069 0.05207974022988506 0.0037393839080459776
v 0.07404324137931034 0.048305224137931035 0.0011237931034482759
v 0.07283956896551724 0.0501924827586207 -0.0006085275862068966
v 0.07104124137931035 0.03131991149425288 -0.010199749425287357
v 0.07404324137931034 0.048305224137931035 0.0011237931034482759
v 0.0743604367816092 0.05207974022988506 0.0030110505747126437
v 0.07283956896551724 0.0501924827586207 -0.0006085275862068966
v 0.07505414942528736 0.05207974022988506 0.004898308045977012
v 0.07458810804597701 0.0501924827586207 0.0030110505747126437
v 0.07509185057471265 0.048305224137931035 0.004898308045977012
v 0.07505414942528736 0.05207974022988506 0.004898308045977012
v 0.07458810804597701 0.0501924827586207 0.0030110505747126437
v 0.0747268275862069 0.05207974022988506 0.0037393839080459776
v 0.07505414942528736 0.05207974022988506 0.004898308045977012
v 0.07525308045977012 0.05207974022988506 0.006785565517241379
v 0.07509185057471265 0.048305224137931035 0.004898308045977012
v 0.07505414942528736 0.05207974022988506 0.004898308045977012
v 0.07525308045977012 0.05207974022988506 0.006785565517241379
v 0.07561978965517242 0.05396699770114943 0.010560080459770116
v 0.07505414942528736 0.05207974022988506 0.004898308045977012
v 0.07342888045977013 0.0558542551724138 0.004898308045977012
v 0.07561978965517242 0.05396699770114943 0.010560080459770116
v 0.07505414942528736 0.05207974022988506 0.004898308045977012
v 0.0747268275862069 0.05207974022988506 0.0037393839080459776
v 0.07342888045977013 0.0558542551724138 0.004898308045977012
v 0.06391195402298852 -0.01586152183908046 -0.030959580459770118
v 0.06162947586206897 -0.02718506551724138 -0.04039586666666667
v 0.07257405747126437 0.03320716551724138 -0.0045379781609195405
v 0.06391195402298852 -0.01586152183908046 -0.030959580459770118
v 0.06187082068965518 -0.02718506551724138 -0.03662135057471265
v 0.06162947586206897 -0.02718506551724138 -0.04039586666666667
v 0.06391195402298852 -0.01586152183908046 -0.030959580459770118
v 0.07257405747126437 0.03320716551724138 -0.0045379781609195405
v 0.05976779310344828 -0.038508609195402305 -0.021523294252873564
v 0.06391195402298852 -0.01586152183908046 -0.030959580459770118
v 0.06187082068965518 -0.02718506551724138 -0.03662135057471265
v 0.05976779310344828 -0.038508609195402305 -0.021523294252873564
v 0.0501924827586207 -0.03262937931034483 -0.044170381609195404
v 0.0558542551724138 -0.03284683908045977 -0.04479647701149425
v 0.05396699770114943 -0.03629270344827586 -0.04039586666666667
v 0.0501924827586207 -0.03262937931034483 -0.044170381609195404
v 0.014334594252873565 -0.025297808045977012 -0.04689796206896552
v 0.05396699770114943 -0.03629270344827586 -0.04039586666666667
v 0.0501924827586207 -0.03262937931034483 -0.044170381609195404
v 0.014334594252873565 -0.025297808045977012 -0.04689796206896552
v 0.0558542551724138 -0.03284683908045977 -0.04479647701149425
v 0.008672822988505748 -0.023410551724137932 -0.04801057471264368
v -0.030959580459770118 -0.013974264367816094 -0.05180952528735633
v 0.0558542551724138 -0.03284683908045977 -0.04479647701149425
v 0.008672822988505748 -0.023410551724137932 -0.04801057471264368
v 0.014334594252873565 -0.025297808045977012 -0.04689796206896552
v 0.0558542551724138 -0.03284683908045977 -0.04479647701149425
v 0.008672822988505748 -0.023410551724137932 -0.04801057471264368
v 0.014334594252873565 -0.025297808045977012 -0.04689796206896552
v -0.030959580459770118 -0.013974264367816094 -0.05180952528735633
v 0.0634032827586207 0.05396699770114943 -0.0008207850574712644
v -0.023410551724137932 0.07661408390804599 -0.004882587356321839
v 0.07095231379310345 0.0501924827586207 -0.0014308402298850577
v 0.0634032827586207 0.05396699770114943 -0.0008207850574712644
v 0.07095231379310345 0.0558542551724138 0.003542345977011495
v 0.07095231379310345 0.0501924827586207 -0.0014308402298850577
v 0.0634032827586207 0.05396699770114943 -0.0008207850574712644
v 0.07095231379310345 0.0558542551724138 0.003542345977011495
v 0.06717779885057472 0.056751954022988514 0.0030110505747126437
v -0.01774877816091954 0.07661735172413794 -0.0026507206896551725
v 0.025658137931034487 0.06753411494252874 0.0011237931034482759
v -0.01963603563218391 0.07772422988505748 -0.0007634632183908047
v -0.04890558045977012 -0.008312493103448277 0.06717779885057472
v -0.05054717471264368 -0.008312493103448277 0.06151602873563218
v -0.05619311494252874 -0.05360666666666667 0.04641796551724138
v -0.04890558045977012 -0.008312493103448277 0.06717779885057472
v -0.04303997241379311 0.02377088045977012 0.08416311494252875
v -0.05619311494252874 -0.05360666666666667 0.04641796551724138
v -0.04890558045977012 -0.008312493103448277 0.06717779885057472
v -0.04303997241379311 0.02377088045977012 0.08416311494252875
v -0.05054717471264368 -0.008312493103448277 0.06151602873563218
v 0.045761129885057476 -0.07436649425287356 0.038868939080459776
v 0.04177995402298851 -0.07814101149425287 0.04075619540229885
v 0.048305224137931035 -0.06681747126436782 0.018692154022988506
v 0.045761129885057476 -0.07436649425287356 0.038868939080459776
v 0.04870311494252874 -0.06681747126436782 0.019996366666666668
v 0.048305224137931035 -0.06681747126436782 0.018692154022988506
v 0.045761129885057476 -0.07436649425287356 0.038868939080459776
v 0.04177995402298851 -0.07814101149425287 0.04075619540229885
v 0.044530712643678166 -0.07628039080459771 0.04264345402298851
v 0.045761129885057476 -0.07436649425287356 0.038868939080459776
v 0.04870311494252874 -0.06681747126436782 0.019996366666666668
v 0.049237333333333334 -0.06681747126436782 0.021883624137931035
v 0.045761129885057476 -0.07436649425287356 0.038868939080459776
v 0.04641796551724138 -0.07256154022988506 0.04264345402298851
v 0.04645695977011494 -0.07247924137931035 0.04264345402298851
v 0.045761129885057476 -0.07436649425287356 0.038868939080459776
v 0.049237333333333334 -0.06681747126436782 0.021883624137931035
v 0.04645695977011494 -0.07247924137931035 0.04264345402298851
v 0.05962877011494253 -0.03284683908045977 -0.04247026896551725
v 0.05704106321839081 -0.03284683908045977 -0.044170381609195404
v 0.05962877011494253 -0.030959580459770118 -0.0442226183908046
v 0.05962877011494253 -0.03284683908045977 -0.04247026896551725
v 0.05962877011494253 -0.03299757011494253 -0.04228312413793104
v 0.05704106321839081 -0.03284683908045977 -0.044170381609195404
v 0.05397012183908046 -0.051719409195402306 -0.008312493103448277
v 0.05962877011494253 -0.03299757011494253 -0.04228312413793104
v 0.0561074551724138 -0.04794489425287357 -0.010199749425287357
v 0.05397012183908046 -0.051719409195402306 -0.008312493103448277
v 0.05962877011494253 -0.03299757011494253 -0.04228312413793104
v 0.05396699770114943 -0.05172287356321839 -0.008312493103448277
v 0.05397012183908046 -0.051719409195402306 -0.008312493103448277
v 0.049237333333333334 -0.06681747126436782 0.021883624137931035
v 0.0561074551724138 -0.04794489425287357 -0.010199749425287357
v 0.05397012183908046 -0.051719409195402306 -0.008312493103448277
v 0.04870311494252874 -0.06681747126436782 0.019996366666666668
v 0.049237333333333334 -0.06681747126436782 0.021883624137931035
v 0.05397012183908046 -0.051719409195402306 -0.008312493103448277
v 0.04870311494252874 -0.06681747126436782 0.019996366666666668
v 0.05396699770114943 -0.05172287356321839 -0.008312493103448277
v 0.05968957471264368 -0.03284683908045977 -0.04228312413793104
v 0.06162947586206897 -0.02718506551724138 -0.04039586666666667
v 0.05976779310344828 -0.038508609195402305 -0.021523294252873564
v 0.05968957471264368 -0.03284683908045977 -0.04228312413793104
v 0.05962877011494253 -0.03299757011494253 -0.04228312413793104
v 0.05976779310344828 -0.038508609195402305 -0.021523294252873564
v 0.05968957471264368 -0.03284683908045977 -0.04228312413793104
v 0.05962877011494253 -0.03284683908045977 -0.04247026896551725
v 0.05962877011494253 -0.03299757011494253 -0.04228312413793104
v 0.05968957471264368 -0.03284683908045977 -0.04228312413793104
v 0.06162947586206897 -0.02718506551724138 -0.04039586666666667
v 0.05962877011494253 -0.030959580459770118 -0.0442226183908046
v 0.05968957471264368 -0.03284683908045977 -0.04228312413793104
v 0.05962877011494253 -0.03284683908045977 -0.04247026896551725
v 0.05962877011494253 -0.030959580459770118 -0.0442226183908046
v 0.05207974022988506 -0.04635122643678161 -0.023410551724137932
v 0.05262167586206897 -0.046057639080459775 -0.023410551724137932
v 0.048305224137931035 -0.06681747126436782 0.018692154022988506
v 0.05207974022988506 -0.04635122643678161 -0.023410551724137932
v 0.04264345402298851 -0.07095112643678161 0.02377088045977012
v 0.05207974022988506 -0.046057639080459775 -0.023953832183908046
v 0.05207974022988506 -0.04635122643678161 -0.023410551724137932
v 0.048305224137931035 -0.06681747126436782 0.018692154022988506
v 0.04264345402298851 -0.07095112643678161 0.02377088045977012
v -0.04228312413793104 -0.01586152183908046 -0.043376303448275866
v -0.04166705517241379 -0.013974264367816094 -0.046057639080459775
v -0.04039586666666667 -0.013974264367816094 -0.04842073563218391
v -0.04228312413793104 -0.01586152183908046 -0.043376303448275866
v -0.04141256781609196 -0.012087008045977012 -0.04794489425287357
v -0.04269022413793104 -0.01586152183908046 -0.04228312413793104
v -0.04228312413793104 -0.01586152183908046 -0.043376303448275866
v -0.04166705517241379 -0.013974264367816094 -0.046057639080459775
v -0.04141256781609196 -0.012087008045977012 -0.04794489425287357
v -0.04228312413793104 -0.01586152183908046 -0.043376303448275866
v -0.04269022413793104 -0.01586152183908046 -0.04228312413793104
v -0.05325299195402299 -0.046057639080459775 0.012447336781609197
v -0.038508609195402305 -0.012087008045977012 -0.05185588735632184
v -0.04039586666666667 -0.013974264367816094 -0.04842073563218391
v -0.038508609195402305 -0.012230028735632186 -0.051719409195402306
v -0.038508609195402305 -0.012087008045977012 -0.05185588735632184
v -0.030959580459770118 -0.013974264367816094 -0.05180952528735633
v -0.038508609195402305 -0.010199749425287357 -0.05207953448275863
v -0.038508609195402305 -0.012087008045977012 -0.05185588735632184
v -0.030959580459770118 -0.013974264367816094 -0.05180952528735633
v -0.038508609195402305 -0.012230028735632186 -0.051719409195402306
v -0.04039586666666667 -0.011779316091954024 -0.049832151724137935
v -0.04049943448275862 -0.010199749425287357 -0.049832151724137935
v -0.04141256781609196 -0.012087008045977012 -0.04794489425287357
v -0.04039586666666667 -0.011779316091954024 -0.049832151724137935
v -0.04039586666666667 -0.012087008045977012 -0.049784522988505754
v -0.04141256781609196 -0.012087008045977012 -0.04794489425287357
v -0.04039586666666667 -0.011779316091954024 -0.049832151724137935
v -0.04049943448275862 -0.010199749425287357 -0.049832151724137935
v -0.038508609195402305 -0.010199749425287357 -0.05207953448275863
v -0.04039586666666667 -0.011779316091954024 -0.049832151724137935
v -0.038508609195402305 -0.012087008045977012 -0.05185588735632184
v -0.038508609195402305 -0.010199749425287357 -0.05207953448275863
v 0.044530712643678166 -0.07436649425287356 0.046947680459770116
v 0.047752574712643686 -0.061155694252873566 0.0558542551724138
v 0.04075619540229885 -0.07625375862068967 0.04904440804597701
v 0.044530712643678166 -0.07436649425287356 0.046947680459770116
v 0.044530712643678166 -0.07485128045977012 0.04641796551724138
v 0.04075619540229885 -0.07625375862068967 0.04904440804597701
v 0.04381525747126437 -0.07625375862068967 0.044530712643678166
v 0.04264345402298851 -0.07725058620689655 0.044530712643678166
v 0.044530712643678166 -0.07628039080459771 0.04264345402298851
v 0.04381525747126437 -0.07625375862068967 0.044530712643678166
v 0.044530712643678166 -0.07485128045977012 0.04641796551724138
v 0.044530712643678166 -0.07628039080459771 0.04264345402298851
v 0.04381525747126437 -0.07625375862068967 0.044530712643678166
v 0.044530712643678166 -0.07485128045977012 0.04641796551724138
v 0.04264345402298851 -0.07725058620689655 0.044530712643678166
v 0.04454818965517241 -0.07625375862068967 0.04264345402298851
v 0.044530712643678166 -0.07485128045977012 0.04641796551724138
v 0.044530712643678166 -0.07628039080459771 0.04264345402298851
v 0.04454818965517241 -0.07625375862068967 0.04264345402298851
v 0.045761129885057476 -0.07436649425287356 0.038868939080459776
v 0.044530712643678166 -0.07628039080459771 0.04264345402298851
v 0.04454818965517241 -0.07625375862068967 0.04264345402298851
v 0.045761129885057476 -0.07436649425287356 0.038868939080459776
v 0.04641796551724138 -0.07256154022988506 0.04264345402298851
v 0.044840931034482764 -0.07436649425287356 0.04641796551724138
v 0.047752574712643686 -0.061155694252873566 0.0558542551724138
v 0.04645695977011494 -0.07247924137931035 0.04264345402298851
v 0.044840931034482764 -0.07436649425287356 0.04641796551724138
v 0.04641796551724138 -0.07256154022988506 0.04264345402298851
v 0.04645695977011494 -0.07247924137931035 0.04264345402298851
v 0.044840931034482764 -0.07436649425287356 0.04641796551724138
v 0.044530712643678166 -0.07436649425287356 0.046947680459770116
v 0.047752574712643686 -0.061155694252873566 0.0558542551724138
v 0.044840931034482764 -0.07436649425287356 0.04641796551724138
v 0.044530712643678166 -0.07436649425287356 0.046947680459770116
v 0.044530712643678166 -0.07485128045977012 0.04641796551724138
v 0.044840931034482764 -0.07436649425287356 0.04641796551724138
v 0.04454818965517241 -0.07625375862068967 0.04264345402298851
v 0.04641796551724138 -0.07256154022988506 0.04264345402298851
v 0.044840931034482764 -0.07436649425287356 0.04641796551724138
v 0.04454818965517241 -0.07625375862068967 0.04264345402298851
v 0.044530712643678166 -0.07485128045977012 0.04641796551724138
v 0.05064402528735633 -0.030959580459770118 0.0747268275862069
v 0.05396699770114943 0.00037880804597701154 0.09359940229885058
v 0.05484904367816092 0.0011237931034482759 0.09359940229885058
v 0.05064402528735633 -0.030959580459770118 0.0747268275862069
v 0.04264345402298851 -0.06493020689655173 0.05632071264367816
v 0.05396699770114943 0.00037880804597701154 0.09359940229885058
v 0.05064402528735633 -0.030959580459770118 0.0747268275862069
v 0.047752574712643686 -0.061155694252873566 0.0558542551724138
v 0.05484904367816092 0.0011237931034482759 0.09359940229885058
v 0.05774151264367817 -0.0026507206896551725 0.08661425287356322
v 0.047752574712643686 -0.061155694252873566 0.0558542551724138
v 0.058052229885057476 -0.0026507206896551725 0.08605036781609196
v 0.05774151264367817 -0.0026507206896551725 0.08661425287356322
v 0.0573442827586207 0.004898308045977012 0.09359940229885058
v 0.058052229885057476 -0.0026507206896551725 0.08605036781609196
v 0.05774151264367817 -0.0026507206896551725 0.08661425287356322
v 0.0573442827586207 0.004898308045977012 0.09359940229885058
v 0.047752574712643686 -0.061155694252873566 0.0558542551724138
v 0.0030110505747126437 -0.07138296091954024 0.044530712643678166
v -0.008312493103448277 -0.06899312643678161 0.044530712643678166
v 0.0030110505747126437 -0.07111914597701151 0.04641796551724138
v 0.0030110505747126437 -0.07138296091954024 0.044530712643678166
v 0.014334594252873565 -0.07346437586206897 0.04641796551724138
v 0.0030110505747126437 -0.07111914597701151 0.04641796551724138
v 0.0030110505747126437 -0.07138296091954024 0.044530712643678166
v 0.014334594252873565 -0.07346437586206897 0.04641796551724138
v 0.016221850574712645 -0.07406634482758621 0.044530712643678166
v 0.0030110505747126437 -0.07138296091954024 0.044530712643678166
v -0.008312493103448277 -0.06899312643678161 0.044530712643678166
v -0.05360666666666667 -0.05994178735632184 0.03698168160919541
v 0.0030110505747126437 -0.07138296091954024 0.044530712643678166
v -0.05360666666666667 -0.05994178735632184 0.03698168160919541
v 0.027545395402298854 -0.0766410459770115 0.038868939080459776
v 0.0030110505747126437 -0.07138296091954024 0.044530712643678166
v 0.038868939080459776 -0.07877885057471265 0.04264345402298851
v 0.027545395402298854 -0.0766410459770115 0.038868939080459776
v 0.0030110505747126437 -0.07138296091954024 0.044530712643678166
v 0.016221850574712645 -0.07406634482758621 0.044530712643678166
v 0.038868939080459776 -0.07877885057471265 0.04264345402298851
v 0.0558542551724138 0.060979662068965525 0.008672822988505748
v 0.07095231379310345 0.057848770114942535 0.006785565517241379
v 0.07283956896551724 0.05680191494252874 0.008672822988505748
v 0.0558542551724138 0.060979662068965525 0.008672822988505748
v -0.01774877816091954 0.07700742528735632 0.0030110505747126437
v -0.02718506551724138 0.07000361379310345 0.019996366666666668
v 0.0558542551724138 0.060979662068965525 0.008672822988505748
v -0.030959580459770118 0.056682808045977015 0.044530712643678166
v -0.02718506551724138 0.07000361379310345 0.019996366666666668
v 0.0558542551724138 0.060979662068965525 0.008672822988505748
v 0.0634032827586207 0.02956507586206897 0.05962877011494253
v 0.07283956896551724 0.05680191494252874 0.008672822988505748
v 0.0558542551724138 0.060979662068965525 0.008672822988505748
v -0.03662135057471265 0.03929135057471265 0.07661408390804599
v 0.0558542551724138 0.013630617241379312 0.08982488505747127
v 0.0558542551724138 0.060979662068965525 0.008672822988505748
v -0.030959580459770118 0.056682808045977015 0.044530712643678166
v -0.03662135057471265 0.03929135057471265 0.07661408390804599
v 0.0558542551724138 0.060979662068965525 0.008672822988505748
v 0.05962877011494253 0.016154610344827586 0.08416311494252875
v 0.0558542551724138 0.013630617241379312 0.08982488505747127
v 0.0558542551724138 0.060979662068965525 0.008672822988505748
v 0.0634032827586207 0.02956507586206897 0.05962877011494253
v 0.05962877011494253 0.016154610344827586 0.08416311494252875
v -0.02718506551724138 0.05396699770114943 -0.017450108045977013
v -0.029072321839080463 0.0558542551724138 -0.01647031724137931
v -0.023410551724137932 0.07661408390804599 -0.004882587356321839
v -0.02718506551724138 0.05396699770114943 -0.017450108045977013
v -0.023410551724137932 0.07661408390804599 -0.004882587356321839
v 0.07095231379310345 0.0501924827586207 -0.0014308402298850577
v -0.02718506551724138 0.05396699770114943 -0.017450108045977013
v 0.0558542551724138 -0.02718506551724138 -0.04467195172413793
v 0.07095231379310345 0.0501924827586207 -0.0014308402298850577
v -0.02718506551724138 0.05396699770114943 -0.017450108045977013
v -0.03284683908045977 0.004898308045977012 -0.04413694252873564
v 0.0558542551724138 -0.02718506551724138 -0.04467195172413793
v -0.038508609195402305 0.0018063321839080462 -0.046057639080459775
v -0.038508609195402305 -0.006425235632183908 -0.0503413735632184
v -0.03284683908045977 0.004898308045977012 -0.04413694252873564
v -0.038508609195402305 0.0018063321839080462 -0.046057639080459775
v -0.02718506551724138 0.05396699770114943 -0.017450108045977013
v -0.03284683908045977 0.004898308045977012 -0.04413694252873564
v -0.038508609195402305 0.0018063321839080462 -0.046057639080459775
v -0.02718506551724138 0.05396699770114943 -0.017450108045977013
v -0.029072321839080463 0.0558542551724138 -0.01647031724137931
v -0.038508609195402305 0.0018063321839080462 -0.046057639080459775
v -0.038508609195402305 -0.006425235632183908 -0.0503413735632184
v -0.041698258620689654 -0.0007634632183908047 -0.046057639080459775
v -0.030959580459770118 0.07661408390804599 -0.003588302298850575
v -0.029072321839080463 0.0558542551724138 -0.01647031724137931
v -0.023410551724137932 0.07661408390804599 -0.004882587356321839
v -0.030959580459770118 0.07661408390804599 -0.003588302298850575
v -0.038508609195402305 0.0018063321839080462 -0.046057639080459775
v -0.029072321839080463 0.0558542551724138 -0.01647031724137931
v -0.030959580459770118 0.07661408390804599 -0.003588302298850575
v -0.031558117241379316 0.07661408390804599 -0.0026507206896551725
v -0.030959580459770118 0.07706130344827587 -0.0026507206896551725
v -0.030959580459770118 0.07661408390804599 -0.003588302298850575
v -0.031558117241379316 0.07661408390804599 -0.0026507206896551725
v -0.041698258620689654 -0.0007634632183908047 -0.046057639080459775
v -0.030959580459770118 0.07661408390804599 -0.003588302298850575
v -0.038508609195402305 0.0018063321839080462 -0.046057639080459775
v -0.041698258620689654 -0.0007634632183908047 -0.046057639080459775
v 0.04075619540229885 0.06348958620689656 0.0011237931034482759
v 0.025658137931034487 0.06753411494252874 0.0011237931034482759
v 0.07095231379310345 0.05727599080459771 0.004898308045977012
v 0.04075619540229885 0.06348958620689656 0.0011237931034482759
v 0.0634032827586207 0.05396699770114943 -0.0008207850574712644
v 0.06717779885057472 0.056751954022988514 0.0030110505747126437
v 0.04075619540229885 0.06348958620689656 0.0011237931034482759
v 0.06717779885057472 0.056751954022988514 0.0030110505747126437
v 0.07095231379310345 0.05727599080459771 0.004898308045977012
v 0.05828180459770115 -0.034734091954022994 -0.04039586666666667
v 0.05262167586206897 -0.046057639080459775 -0.023410551724137932
v 0.05962877011494253 -0.03299757011494253 -0.04228312413793104
v 0.05828180459770115 -0.034734091954022994 -0.04039586666666667
v 0.05207974022988506 -0.04635122643678161 -0.023410551724137932
v 0.05262167586206897 -0.046057639080459775 -0.023410551724137932
v 0.05828180459770115 -0.034734091954022994 -0.04039586666666667
v 0.05962877011494253 -0.03299757011494253 -0.04228312413793104
v 0.05704106321839081 -0.03284683908045977 -0.044170381609195404
v 0.05828180459770115 -0.034734091954022994 -0.04039586666666667
v 0.05207974022988506 -0.04635122643678161 -0.023410551724137932
v 0.05207974022988506 -0.046057639080459775 -0.023953832183908046
v 0.05828180459770115 -0.034734091954022994 -0.04039586666666667
v 0.05704106321839081 -0.03284683908045977 -0.044170381609195404
v 0.05396699770114943 -0.03629270344827586 -0.04039586666666667
v 0.05828180459770115 -0.034734091954022994 -0.04039586666666667
v 0.05396699770114943 -0.03629270344827586 -0.04039586666666667
v 0.05207974022988506 -0.046057639080459775 -0.023953832183908046
v -0.04240634137931035 -0.023410551724137932 -0.034734091954022994
v -0.04228312413793104 -0.023410551724137932 -0.03482329425287357
v -0.04039586666666667 -0.013974264367816094 -0.04842073563218391
v -0.04240634137931035 -0.023410551724137932 -0.034734091954022994
v -0.04228312413793104 -0.023410551724137932 -0.03482329425287357
v -0.04228312413793104 -0.02347294827586207 -0.034734091954022994
v -0.04240634137931035 -0.023410551724137932 -0.034734091954022994
v -0.05360666666666667 -0.05299795632183908 0.02377088045977012
v -0.05325299195402299 -0.046057639080459775 0.012447336781609197
v -0.04240634137931035 -0.023410551724137932 -0.034734091954022994
v -0.05360666666666667 -0.05299795632183908 0.02377088045977012
v -0.04228312413793104 -0.02347294827586207 -0.034734091954022994
v -0.04035556321839081 -0.012087008045977012 -0.049832151724137935
v -0.04039586666666667 -0.012087008045977012 -0.049784522988505754
v -0.04039586666666667 -0.013974264367816094 -0.04842073563218391
v -0.04035556321839081 -0.012087008045977012 -0.049832151724137935
v -0.038508609195402305 -0.012087008045977012 -0.05185588735632184
v -0.04039586666666667 -0.013974264367816094 -0.04842073563218391
v -0.04035556321839081 -0.012087008045977012 -0.049832151724137935
v -0.04039586666666667 -0.011779316091954024 -0.049832151724137935
v -0.04039586666666667 -0.012087008045977012 -0.049784522988505754
v -0.04035556321839081 -0.012087008045977012 -0.049832151724137935
v -0.04039586666666667 -0.011779316091954024 -0.049832151724137935
v -0.038508609195402305 -0.012087008045977012 -0.05185588735632184
v 0.04641796551724138 -0.055493925287356326 0.06070538505747127
v 0.04264345402298851 -0.06493020689655173 0.05632071264367816
v 0.047752574712643686 -0.061155694252873566 0.0558542551724138
v 0.04641796551724138 -0.055493925287356326 0.06070538505747127
v 0.05064402528735633 -0.030959580459770118 0.0747268275862069
v 0.047752574712643686 -0.061155694252873566 0.0558542551724138
v 0.04641796551724138 -0.055493925287356326 0.06070538505747127
v 0.05064402528735633 -0.030959580459770118 0.0747268275862069
v 0.04264345402298851 -0.06493020689655173 0.05632071264367816
v 0.0181091091954023 0.06955287931034483 0.004898308045977012
v -0.01963603563218391 0.07772422988505748 -0.0007634632183908047
v 0.07095231379310345 0.057848770114942535 0.006785565517241379
v 0.0181091091954023 0.06955287931034483 0.004898308045977012
v 0.0558542551724138 0.060979662068965525 0.008672822988505748
v 0.07095231379310345 0.057848770114942535 0.006785565517241379
v 0.0181091091954023 0.06955287931034483 0.004898308045977012
v -0.01963603563218391 0.07772422988505748 -0.0007634632183908047
v -0.01774877816091954 0.07700742528735632 0.0030110505747126437
v 0.0181091091954023 0.06955287931034483 0.004898308045977012
v 0.0558542551724138 0.060979662068965525 0.008672822988505748
v -0.01774877816091954 0.07700742528735632 0.0030110505747126437
v -0.023410551724137932 0.07707353333333335 -0.0045379781609195405
v 0.0634032827586207 0.05396699770114943 -0.0008207850574712644
v -0.023410551724137932 0.07661408390804599 -0.004882587356321839
v -0.023410551724137932 0.07707353333333335 -0.0045379781609195405
v 0.04075619540229885 0.06348958620689656 0.0011237931034482759
v 0.0634032827586207 0.05396699770114943 -0.0008207850574712644
v -0.023410551724137932 0.07707353333333335 -0.0045379781609195405
v -0.01774877816091954 0.07661735172413794 -0.0026507206896551725
v -0.01963603563218391 0.07772422988505748 -0.0007634632183908047
v -0.023410551724137932 0.07707353333333335 -0.0045379781609195405
v -0.01774877816091954 0.07661735172413794 -0.0026507206896551725
v 0.025658137931034487 0.06753411494252874 0.0011237931034482759
v -0.023410551724137932 0.07707353333333335 -0.0045379781609195405
v 0.04075619540229885 0.06348958620689656 0.0011237931034482759
v 0.025658137931034487 0.06753411494252874 0.0011237931034482759
v -0.023410551724137932 0.07707353333333335 -0.0045379781609195405
v -0.01963603563218391 0.07772422988505748 -0.0007634632183908047
v -0.030959580459770118 0.07706130344827587 -0.0026507206896551725
v -0.023410551724137932 0.07707353333333335 -0.0045379781609195405
v -0.030959580459770118 0.07661408390804599 -0.003588302298850575
v -0.030959580459770118 0.07706130344827587 -0.0026507206896551725
v -0.023410551724137932 0.07707353333333335 -0.0045379781609195405
v -0.030959580459770118 0.07661408390804599 -0.003588302298850575
v -0.023410551724137932 0.07661408390804599 -0.004882587356321839
v -0.04228312413793104 -0.018546793103448277 -0.04039586666666667
v -0.04228312413793104 -0.01586152183908046 -0.043376303448275866
v -0.04039586666666667 -0.013974264367816094 -0.04842073563218391
v -0.04228312413793104 -0.018546793103448277 -0.04039586666666667
v -0.04240634137931035 -0.023410551724137932 -0.034734091954022994
v -0.04039586666666667 -0.013974264367816094 -0.04842073563218391
v -0.04274958850574713 -0.01774877816091954 -0.04039586666666667
v -0.04240634137931035 -0.023410551724137932 -0.034734091954022994
v -0.05325299195402299 -0.046057639080459775 0.012447336781609197
v -0.04274958850574713 -0.01774877816091954 -0.04039586666666667
v -0.04228312413793104 -0.018546793103448277 -0.04039586666666667
v -0.04240634137931035 -0.023410551724137932 -0.034734091954022994
v -0.04274958850574713 -0.01774877816091954 -0.04039586666666667
v -0.04228312413793104 -0.01586152183908046 -0.043376303448275866
v -0.05325299195402299 -0.046057639080459775 0.012447336781609197
v -0.04274958850574713 -0.01774877816091954 -0.04039586666666667
v -0.04228312413793104 -0.018546793103448277 -0.04039586666666667
v -0.04228312413793104 -0.01586152183908046 -0.043376303448275866
f 1 2 3
f 4 5 6
f 7 8 9
f 10 11 12
f 13 14 15
f 16 17 18
f 19 20 21
f 22 23 24
f 25 26 27
f 28 29 30
f 31 32 33
f 34 35 36
f 37 38 39
f 40 41 42
f 43 44 45
f 46 47 48
f 49 50 51
f 52 53 54
f 55 56 57
f 58 59 60
f 61 62 63
f 64 65 66
f 67 68 69
f 70 71 72
f 73 74 75
f 76 77 78
f 79 80 81
f 82 83 84
f 85 86 87
f 88 89 90
f 91 92 93
f 94 95 96
f 97 98 99
f 100 101 102
f 103 104 105
f 106 107 108
f 109 110 111
f 112 113 114
f 115 116 117
f 118 119 120
f 121 122 123
f 124 125 126
f 127 128 129
f 130 131 132
f 133 134 135
f 136 137 138
f 139 140 141
f 142 143 144
f 145 146 147
f 148 149 150
f 151 152 153
f 154 155 156
f 157 158 159
f 160 161 162
f 163 164 165
f 166 167 168
f 169 170 171
f 172 173 174
f 175 176 177
f 178 179 180
f 181 182 183
f 184 185 186
f 187 188 189
f 190 191 192
f 193 194 195
f 196 197 198
f 199 200 201
f 202 203 204
f 205 206 207
f 208 209 210
f 211 212 213
f 214 215 216
f 217 218 219
f 220 221 222
f 223 224 225
f 226 227 228
f 229 230 231
f 232 233 234
f 235 236 237
f 238 239 240
f 241 242 243
f 244 245 246
f 247 248 249
f 250 251 252
f 253 254 255
f 256 257 258
f 259 260 261
f 262 263 264
f 265 266 267
f 268 269 270
f 271 272 273
f 274 275 276
f 277 278 279
f 280 281 282
f 283 284 285
f 286 287 288
f 289 290 291
f 292 293 294
f 295 296 297
f 298 299 300
f 301 302 303
f 304 305 306
f 307 308 309
f 310 311 312
f 313 314 315
f 316 317 318
f 319 320 321
f 322 323 324
f 325 326 327
f 328 329 330
f 331 332 333
f 334 335 336
f 337 338 339
f 340 341 342
f 343 344 345
f 346 347 348
f 349 350 351
f 352 353 354
f 355 356 357
f 358 359 360
f 361 362 363
f 364 365 366
f 367 368 369
f 370 371 372
f 373 374 375
f 376 377 378
f 379 380 381
f 382 383 384
f 385 386 387
f 388 389 390
f 391 392 393
f 394 395 396
f 397 398 399
f 400 401 402
f 403 404 405
f 406 407 408
f 409 410 411
f 412 413 414
f 415 416 417
f 418 419 420
f 421 422 423
f 424 425 426
f 427 428 429
f 430 431 432
f 433 434 435
f 436 437 438
f 439 440 441
f 442 443 444
f 445 446 447
f 448 449 450
f 451 452 453
f 454 455 456
f 457 458 459
f 460 461 462
f 463 464 465
f 466 467 468
f 469 470 471
f 472 473 474
f 475 476 477
f 478 479 480
f 481 482 483
f 484 485 486
f 487 488 489
f 490 491 492
f 493 494 495
f 496 497 498
f 499 500 501
f 502 503 504
f 505 506 507
f 508 509 510
f 511 512 513
f 514 515 516
f 517 518 519
f 520 521 522
f 523 524 525
f 526 527 528
f 529 530 531
f 532 533 534
f 535 536 537
f 538 539 540
f 541 542 543
f 544 545 546
f 547 548 549
f 550 551 552
f 553 554 555
f 556 557 558
f 559 560 561
f 562 563 564
f 565 566 567
f 568 569 570
f 571 572 573
f 574 575 576
f 577 578 579
f 580 581 582
f 583 584 585
f 586 587 588
f 589 590 591
f 592 593 594
f 595 596 597
f 598 599 600
f 601 602 603
f 604 605 606
f 607 608 609
f 610 611 612
f 613 614 615
f 616 617 618
f 619 620 621
f 622 623 624
f 625 626 627
f 628 629 630
f 631 632 633
f 634 635 636
f 637 638 639
f 640 641 642
f 643 644 645
f 646 647 648
f 649 650 651
f 652 653 654
f 655 656 657
f 658 659 660
f 661 662 663
f 664 665 666
f 667 668 669
f 670 671 672
f 673 674 675
f 676 677 678
f 679 680 681
f 682 683 684
f 685 686 687
f 688 689 690
f 691 692 693
f 694 695 696
f 697 698 699
f 700 701 702
f 703 704 705
f 706 707 708
f 709 710 711
f 712 713 714
f 715 716 717
f 718 719 720
f 721 722 723
f 724 725 726
f 727 728 729
f 730 731 732
f 733 734 735
f 736 737 738
f 739 740 741
f 742 743 744
f 745 746 747
f 748 749 750
f 751 752 753
f 754 755 756
f 757 758 759
f 760 761 762
f 763 764 765
f 766 767 768
f 769 770 771
f 772 773 774
f 775 776 777
f 778 779 780
f 781 782 783
f 784 785 786
f 787 788 789
f 790 791 792
f 793 794 795
f 796 797 798
f 799 800 801
f 802 803 804
f 805 806 807
f 808 809 810
f 811 812 813
f 814 815 816
f 817 818 819
f 820 821 822
f 823 824 825
f 826 827 828
f 829 830 831
f 832 833 834
f 835 836 837
f 838 839 840
f 841 842 843
f 844 845 846
f 847 848 849
f 850 851 852
f 853 854 855
f 856 857 858
f 859 860 861
f 862 863 864
f 865 866 867
f 868 869 870
f 871 872 873
f 874 875 876
f 877 878 879
f 880 881 882
f 883 884 885
f 886 887 888
f 889 890 891
f 892 893 894
f 895 896 897
f 898 899 900
f 901 902 903
f 904 905 906
f 907 908 909
f 910 911 912
f 913 914 915
f 916 917 918
f 919 920 921
f 922 923 924
f 925 926 927
f 928 929 930
f 931 932 933
f 934 935 936
f 937 938 939
f 940 941 942
f 943 944 945
f 946 947 948
f 949 950 951
f 952 953 954
f 955 956 957
f 958 959 960
f 961 962 963
f 964 965 966
f 967 968 969
f 970 971 972
f 973 974 975
f 976 977 978
f 979 980 981
f 982 983 984
f 985 986 987
f 988 989 990
f 991 992 993
f 994 995 996
f 997 998 999
f 1000 1001 1002
f 1003 1004 1005
f 1006 1007 1008
f 1009 1010 1011
f 1012 1013 1014
f 1015 1016 1017
f 1018 1019 1020
f 1021 1022 1023
f 1024 1025 1026
f 1027 1028 1029
f 1030 1031 1032
f 1033 1034 1035
f 1036 1037 1038
f 1039 1040 1041
f 1042 1043 1044
f 1045 1046 1047
f 1048 1049 1050
f 1051 1052 1053
f 1054 1055 1056
f 1057 1058 1059
f 1060 1061 1062
f 1063 1064 1065
f 1066 1067 1068
f 1069 1070 1071
f 1072 1073 1074
f 1075 1076 1077
f 1078 1079 1080
f 1081 1082 1083
f 1084 1085 1086
f 1087 1088 1089
f 1090 1091 1092
f 1093 1094 1095
f 1096 1097 1098
f 1099 1100 1101
f 1102 1103 1104
f 1105 1106 1107
f 1108 1109 1110
f 1111 1112 1113
f 1114 1115 1116
f 1117 1118 1119
f 1120 1121 1122
f 1123 1124 1125
f 1126 1127 1128
f 1129 1130 1131
f 1132 1133 1134
f 1135 1136 1137
f 1138 1139 1140
f 1141 1142 1143
f 1144 1145 1146
f 1147 1148 1149
f 1150 1151 1152
f 1153 1154 1155
f 1156 1157 1158
f 1159 1160 1161
f 1162 1163 1164
f 1165 1166 1167
f 1168 1169 1170
f 1171 1172 1173
f 1174 1175 1176
f 1177 1178 1179
f 1180 1181 1182
f 1183 1184 1185
f 1186 1187 1188
f 1189 1190 1191
f 1192 1193 1194
f 1195 1196 1197
f 1198 1199 1200
f 1201 1202 1203
f 1204 1205 1206
f 1207 1208 1209
f 1210 1211 1212
f 1213 1214 1215
f 1216 1217 1218
f 1219 1220 1221
f 1222 1223 1224
f 1225 1226 1227
f 1228 1229 1230
f 1231 1232 1233
f 1234 1235 1236
f 1237 1238 1239
f 1240 1241 1242
