v -0.27455562 0.66654253 -0.02306127
v -0.36277485 -0.00664213 -0.40070146
v -0.4976579 -0.43353972 0.30532148
v 0.46951288 -0.31574652 -0.35144404
v -0.36786318 -0.20421465 -0.3021866
v 0.45309374 -0.40070146 -0.20839834
v 0.40945035 -0.6141502 0.3545789
v 0.53693414 0.07545356 0.7322191
v 0.40417555 -0.6305694 0.37099805
v 0.40945035 -0.6141502 0.3545789
v 0.5199798 -0.3350249 -0.18725266
v 0.40417555 -0.6305694 0.37099805
v 0.40945035 -0.6141502 0.3545789
v 0.5199798 -0.3350249 -0.18725266
v 0.53693414 0.07545356 0.7322191
v -0.3263447 0.33815977 0.66654253
v -0.23651007 0.60903144 0.17396839
v -0.26934835 0.67043334 -0.02306127
v -0.37021708 -0.05589955 -0.38428232
v -0.36277485 -0.00664213 -0.40070146
v -0.4976579 -0.43353972 0.30532148
v -0.37021708 -0.05589955 -0.38428232
v -0.4955126 -0.48279715 0.27248323
v -0.4976579 -0.43353972 0.30532148
v -0.22009093 0.2232258 0.7722202
v -0.23651007 0.20680666 0.7758406
v 0.46951288 0.04261528 0.8329538
v -0.22009093 0.2232258 0.7722202
v -0.23651007 0.20680666 0.7758406
v -0.3350249 0.27248323 0.75286514
v 0.56802773 0.0918727 -0.20081224
v 0.48593202 -0.23651007 -0.38864598
v 0.61728513 0.4366746 -0.01244831
v 0.33815977 -0.685376 0.37099805
v 0.23964494 -0.6667771 0.33815977
v 0.33815977 -0.68565005 0.3545789
v 0.37099805 -0.6172748 0.20680666
v -0.36786318 -0.20421465 -0.3021866
v 0.45309374 -0.40070146 -0.20839834
v 0.37099805 -0.6172748 0.20680666
v 0.23964494 -0.6667771 0.33815977
v -0.43353972 -0.51563543 0.28015012
v 0.37099805 -0.6172748 0.20680666
v -0.36786318 -0.20421465 -0.3021866
v -0.43353972 -0.51563543 0.28015012
v 0.37099805 -0.6172748 0.20680666
v 0.23964494 -0.6667771 0.33815977
v 0.33815977 -0.68565005 0.3545789
v -0.466378 -0.46108222 0.20680666
v -0.46330103 -0.40070146 0.10829183
v -0.4955126 -0.48279715 0.27248323
v -0.466378 -0.46108222 0.20680666
v -0.36786318 -0.20421465 -0.3021866
v -0.43353972 -0.51563543 0.28015012
v -0.466378 -0.46108222 0.20680666
v -0.44995886 -0.4992163 0.26272532
v -0.43353972 -0.51563543 0.28015012
v 0.30532148 -0.6662104 0.42025545
v 0.33815977 -0.685376 0.37099805
v 0.27248323 -0.6665138 0.4038363
v -0.31860575 0.34183475 0.66654253
v -0.3263447 0.33815977 0.66654253
v -0.23651007 0.60903144 0.17396839
v -0.31860575 0.34183475 0.66654253
v 0.2232258 0.15754925 0.78604513
v 0.48593202 0.11858637 0.7814765
v 0.17396839 0.15754925 0.7891335
v 0.2232258 0.15754925 0.78604513
v -0.3350249 0.27248323 0.75286514
v 0.17396839 0.15754925 0.7891335
v -0.22009093 0.2232258 0.7722202
v 0.46951288 0.04261528 0.8329538
v 0.17396839 0.15754925 0.7891335
v -0.22009093 0.2232258 0.7722202
v -0.3350249 0.27248323 0.75286514
v 0.37099805 0.11360646 0.79789567
v 0.48593202 0.11858637 0.7814765
v 0.46951288 0.04261528 0.8329538
v 0.37099805 0.11360646 0.79789567
v 0.2232258 0.15754925 0.78604513
v 0.46951288 0.04261528 0.8329538
v 0.37099805 0.11360646 0.79789567
v 0.2232258 0.15754925 0.78604513
v 0.48593202 0.11858637 0.7814765
v 0.5187703 0.14054511 0.7322191
v 0.5725574 0.2560641 0.50235116
v 0.65789217 0.46951288 0.0918727
v 0.54534227 0.12471097 0.6829617
v 0.53693414 0.07545356 0.7322191
v 0.65789217 0.46951288 0.0918727
v 0.63370425 0.49417666 0.07545356
v 0.5187703 0.14054511 0.7322191
v 0.65789217 0.46951288 0.0918727
v -0.37140495 -0.13799524 -0.36786318
v -0.46330103 -0.40070146 0.10829183
v -0.4955126 -0.48279715 0.27248323
v -0.37140495 -0.13799524 -0.36786318
v -0.37021708 -0.05589955 -0.38428232
v -0.4955126 -0.48279715 0.27248323
v 0.6532991 0.42025545 0.04261528
v 0.5199798 -0.3350249 -0.18725266
v 0.53693414 0.07545356 0.7322191
v 0.45309374 -0.26934835 -0.39897105
v 0.32174063 -0.23651007 -0.41156778
v 0.48593202 -0.23651007 -0.38864598
v -0.2529292 -0.08873782 -0.44156533
v -0.2857675 0.04261528 -0.3839914
v 0.48593202 -0.23651007 -0.38864598
v -0.3350249 -0.05589955 -0.43796995
v -0.36277485 -0.00664213 -0.40070146
v -0.3350249 -0.08873782 -0.45309195
v 0.49590048 -0.23651007 -0.38428232
v 0.48593202 -0.23651007 -0.38864598
v 0.5187703 -0.26934835 -0.38473678
v -0.43353972 -0.5187509 0.28890234
v 0.23964494 -0.6667771 0.33815977
v -0.43353972 -0.51563543 0.28015012
v -0.43353972 -0.5187509 0.28890234
v -0.466378 -0.52149355 0.32174063
v -0.43353972 -0.51563543 0.28015012
v -0.43353972 -0.5187509 0.28890234
v -0.466378 -0.52149355 0.32174063
v 0.23964494 -0.6667771 0.33815977
v -0.4888801 -0.466378 0.4038363
v -0.4955126 -0.48279715 0.27248323
v -0.4976579 -0.43353972 0.30532148
v -0.48841682 -0.4992163 0.30532148
v -0.48279715 -0.4992163 0.29100975
v -0.4955126 -0.48279715 0.27248323
v -0.48841682 -0.4992163 0.30532148
v -0.466378 -0.52149355 0.32174063
v -0.48279715 -0.4992163 0.29100975
v -0.48841682 -0.4992163 0.30532148
v -0.4888801 -0.466378 0.4038363
v -0.4955126 -0.48279715 0.27248323
v -0.48279715 -0.4914302 0.27248323
v -0.48279715 -0.4992163 0.29100975
v -0.4955126 -0.48279715 0.27248323
v -0.48279715 -0.4914302 0.27248323
v -0.466378 -0.46108222 0.20680666
v -0.4955126 -0.48279715 0.27248323
v -0.48279715 -0.4914302 0.27248323
v -0.466378 -0.46108222 0.20680666
v -0.44995886 -0.4992163 0.26272532
v -0.48279715 -0.4914302 0.27248323
v -0.44995886 -0.4992163 0.26272532
v -0.43353972 -0.51563543 0.28015012
v -0.48279715 -0.4914302 0.27248323
v -0.466378 -0.52149355 0.32174063
v -0.43353972 -0.51563543 0.28015012
v -0.48279715 -0.4914302 0.27248323
v -0.466378 -0.52149355 0.32174063
v -0.48279715 -0.4992163 0.29100975
v -0.23651007 -0.15441437 -0.4140826
v 0.46951288 -0.31574652 -0.35144404
v -0.36786318 -0.20421465 -0.3021866
v 0.30532148 -0.6634077 0.42441034
v 0.30532148 -0.6662104 0.42025545
v 0.3545789 -0.6634077 0.42668635
v 0.30532148 -0.6634077 0.42441034
v 0.30532148 -0.6662104 0.42025545
v 0.23964494 -0.6469885 0.43053696
v 0.46951288 0.00329563 0.8143148
v -0.48279715 -0.466378 0.4119894
v 0.23964494 -0.6469885 0.43053696
v -0.35144404 -0.53713834 0.3874172
v -0.43353972 -0.51563543 0.37077245
v -0.466378 -0.52149355 0.32174063
v -0.07231869 -0.581312 0.41545856
v -0.48279715 -0.466378 0.4119894
v 0.23964494 -0.6469885 0.43053696
v -0.07231869 -0.581312 0.41545856
v 0.02619614 -0.6141502 0.41022974
v 0.23964494 -0.6469885 0.43053696
v -0.07231869 -0.581312 0.41545856
v -0.35144404 -0.53713834 0.3874172
v -0.48279715 -0.466378 0.4119894
v -0.07231869 -0.581312 0.41545856
v -0.35144404 -0.53713834 0.3874172
v 0.02619614 -0.6141502 0.41022974
v -0.3350249 0.27684042 0.7486382
v -0.35836065 0.27248323 0.7322191
v -0.3350249 0.27248323 0.75286514
v -0.3350249 0.27684042 0.7486382
v 0.2232258 0.15754925 0.78604513
v -0.3350249 0.27248323 0.75286514
v -0.3350249 0.27684042 0.7486382
v -0.31860575 0.34183475 0.66654253
v 0.2232258 0.15754925 0.78604513
v 0.2560641 0.13196011 0.79789567
v 0.2232258 0.15754925 0.78604513
v 0.46951288 0.04261528 0.8329538
v 0.2560641 0.13196011 0.79789567
v 0.17396839 0.15754925 0.7891335
v 0.46951288 0.04261528 0.8329538
v 0.2560641 0.13196011 0.79789567
v 0.17396839 0.15754925 0.7891335
v 0.2232258 0.15754925 0.78604513
v 0.5187703 0.10680127 0.7650574
v 0.5187703 0.14054511 0.7322191
v 0.48593202 0.11858637 0.7814765
v 0.5277212 0.07545356 0.7650574
v 0.54534227 0.12471097 0.6829617
v 0.53693414 0.07545356 0.7322191
v 0.5277212 0.07545356 0.7650574
v 0.54534227 0.12471097 0.6829617
v 0.52571064 0.0918727 0.7650574
v 0.48593202 0.04261528 0.8282263
v 0.46951288 0.00329563 0.8143148
v 0.47718668 0.009777 0.8143148
v 0.53073967 0.12471097 0.7322191
v 0.5187703 0.14054511 0.7322191
v 0.5725574 0.2560641 0.50235116
v 0.53073967 0.12471097 0.7322191
v 0.5725574 0.2560641 0.50235116
v 0.65789217 0.46951288 0.0918727
v 0.53073967 0.12471097 0.7322191
v 0.5187703 0.10680127 0.7650574
v 0.52571064 0.0918727 0.7650574
v 0.53073967 0.12471097 0.7322191
v 0.5187703 0.10680127 0.7650574
v 0.5187703 0.14054511 0.7322191
v 0.53073967 0.12471097 0.7322191
v 0.54534227 0.12471097 0.6829617
v 0.65789217 0.46951288 0.0918727
v 0.53073967 0.12471097 0.7322191
v 0.54534227 0.12471097 0.6829617
v 0.52571064 0.0918727 0.7650574
v -0.26934835 0.49314043 0.3874172
v -0.31860575 0.34183475 0.66654253
v -0.23651007 0.60903144 0.17396839
v 0.6426426 0.48593202 0.05903442
v 0.63883126 0.48593202 0.04261528
v 0.65789217 0.46951288 0.0918727
v 0.6426426 0.48593202 0.05903442
v 0.63370425 0.49417666 0.07545356
v 0.65789217 0.46951288 0.0918727
v 0.6426426 0.48593202 0.05903442
v 0.63370425 0.48982123 0.04261528
v 0.63883126 0.48593202 0.04261528
v -0.36028934 -0.10515697 -0.41712058
v -0.37140495 -0.13799524 -0.36786318
v -0.37021708 -0.05589955 -0.38428232
v -0.36028934 -0.10515697 -0.41712058
v -0.37021708 -0.05589955 -0.38428232
v -0.36277485 -0.00664213 -0.40070146
v -0.31860575 0.2232258 0.75943184
v -0.23651007 0.20680666 0.7758406
v -0.3350249 0.27248323 0.75286514
v -0.31860575 0.2232258 0.75943184
v -0.35144404 0.17396839 0.73838025
v -0.23651007 0.20680666 0.7758406
v -0.40070146 -0.08873782 0.609363
v -0.35144404 0.17396839 0.73838025
v -0.23651007 0.20680666 0.7758406
v -0.40070146 -0.08873782 0.609363
v -0.23651007 0.20680666 0.7758406
v 0.46951288 0.04261528 0.8329538
v -0.40070146 -0.08873782 0.609363
v 0.46951288 0.00329563 0.8143148
v 0.46951288 0.04261528 0.8329538
v -0.40070146 -0.08873782 0.609363
v 0.46951288 0.00329563 0.8143148
v -0.48279715 -0.466378 0.4119894
v -0.36786318 0.20680666 0.73945093
v -0.31860575 0.2232258 0.75943184
v -0.35144404 0.17396839 0.73838025
v -0.36786318 0.20680666 0.73945093
v -0.40070146 -0.08873782 0.609363
v -0.48279715 -0.466378 0.4119894
v -0.36786318 0.20680666 0.73945093
v -0.40070146 -0.08873782 0.609363
v -0.35144404 0.17396839 0.73838025
v 0.632939 0.4366746 -0.00664213
v 0.63370425 0.4366746 -0.00529419
v 0.6180588 0.27248323 -0.08873782
v 0.632939 0.4366746 -0.00664213
v 0.56802773 0.0918727 -0.20081224
v 0.61728513 0.4366746 -0.01244831
v 0.632939 0.4366746 -0.00664213
v 0.63370425 0.48982123 0.04261528
v 0.63883126 0.48593202 0.04261528
v 0.65197223 0.42025545 0.05903442
v 0.53693414 0.07545356 0.7322191
v 0.65789217 0.46951288 0.0918727
v 0.65197223 0.42025545 0.05903442
v 0.6532991 0.42025545 0.04261528
v 0.65789217 0.46951288 0.0918727
v 0.65197223 0.42025545 0.05903442
v 0.6532991 0.42025545 0.04261528
v 0.53693414 0.07545356 0.7322191
v 0.6313943 0.28890234 -0.03948041
v 0.6532991 0.42025545 0.04261528
v 0.5199798 -0.3350249 -0.18725266
v 0.53617644 -0.23651007 -0.35144404
v 0.6313943 0.28890234 -0.03948041
v 0.54351914 -0.18725266 -0.3350249
v 0.48593202 -0.26934835 -0.39389938
v 0.48593202 -0.23651007 -0.38864598
v 0.5187703 -0.26934835 -0.38473678
v 0.48593202 -0.26934835 -0.39389938
v 0.45309374 -0.26934835 -0.39897105
v 0.48593202 -0.23651007 -0.38864598
v 0.48593202 -0.2857675 -0.38972935
v 0.49625725 -0.2857675 -0.38428232
v 0.46951288 -0.31574652 -0.35144404
v 0.48593202 -0.2857675 -0.38972935
v 0.48593202 -0.26934835 -0.39389938
v 0.45309374 -0.26934835 -0.39897105
v 0.48593202 -0.2857675 -0.38972935
v 0.49625725 -0.2857675 -0.38428232
v 0.5187703 -0.26934835 -0.38473678
v 0.48593202 -0.2857675 -0.38972935
v 0.48593202 -0.26934835 -0.39389938
v 0.5187703 -0.26934835 -0.38473678
v -0.26934835 -0.10515697 -0.45177695
v -0.2529292 -0.08873782 -0.44156533
v 0.48593202 -0.23651007 -0.38864598
v -0.26934835 -0.10515697 -0.45177695
v 0.32174063 -0.23651007 -0.41156778
v 0.48593202 -0.23651007 -0.38864598
v -0.26934835 -0.10515697 -0.45177695
v -0.3350249 -0.05589955 -0.43796995
v -0.3350249 -0.08873782 -0.45309195
v -0.26934835 -0.10515697 -0.45177695
v -0.25458518 -0.1215761 -0.44995886
v 0.32174063 -0.23651007 -0.41156778
v -0.26934835 -0.10515697 -0.45177695
v -0.2529292 -0.08873782 -0.44156533
v -0.2857675 0.04261528 -0.3839914
v -0.26934835 -0.10515697 -0.45177695
v -0.3350249 -0.05589955 -0.43796995
v -0.2857675 0.04261528 -0.3839914
v -0.43976042 -0.07231869 0.53518945
v -0.4888801 -0.466378 0.4038363
v -0.4976579 -0.43353972 0.30532148
v -0.43976042 -0.07231869 0.53518945
v -0.27455562 0.66654253 -0.02306127
v -0.4976579 -0.43353972 0.30532148
v -0.47241032 -0.51563543 0.32174063
v -0.48841682 -0.4992163 0.30532148
v -0.466378 -0.52149355 0.32174063
v -0.47241032 -0.51563543 0.32174063
v -0.48841682 -0.4992163 0.30532148
v -0.4888801 -0.466378 0.4038363
v -0.48279715 -0.47461832 0.4038363
v -0.43353972 -0.51563543 0.37077245
v -0.466378 -0.52149355 0.32174063
v -0.48279715 -0.47461832 0.4038363
v -0.4888801 -0.466378 0.4038363
v -0.48279715 -0.466378 0.4119894
v -0.48279715 -0.47461832 0.4038363
v -0.35144404 -0.53713834 0.3874172
v -0.48279715 -0.466378 0.4119894
v -0.48279715 -0.47461832 0.4038363
v -0.35144404 -0.53713834 0.3874172
v -0.43353972 -0.51563543 0.37077245
v -0.48279715 -0.47461832 0.4038363
v -0.47241032 -0.51563543 0.32174063
v -0.466378 -0.52149355 0.32174063
v -0.48279715 -0.47461832 0.4038363
v -0.47241032 -0.51563543 0.32174063
v -0.4888801 -0.466378 0.4038363
v 0.3545789 -0.68510616 0.3545789
v 0.37099805 -0.6172748 0.20680666
v 0.33815977 -0.68565005 0.3545789
v 0.3545789 -0.68510616 0.3545789
v 0.33815977 -0.685376 0.37099805
v 0.33815977 -0.68565005 0.3545789
v 0.3545789 -0.68510616 0.3545789
v 0.42025545 -0.581312 0.16262174
v 0.37099805 -0.6172748 0.20680666
v 0.3545789 -0.6806076 0.3874172
v 0.30532148 -0.6662104 0.42025545
v 0.33815977 -0.685376 0.37099805
v 0.3545789 -0.6806076 0.3874172
v 0.3545789 -0.68510616 0.3545789
v 0.33815977 -0.685376 0.37099805
v 0.3545789 -0.6806076 0.3874172
v 0.37099805 -0.6720801 0.3874172
v 0.3545789 -0.68510616 0.3545789
v 0.4283648 -0.581312 0.19038753
v 0.5199798 -0.3350249 -0.18725266
v 0.40417555 -0.6305694 0.37099805
v 0.4283648 -0.581312 0.19038753
v 0.48813486 -0.41712058 -0.08873782
v 0.5199798 -0.3350249 -0.18725266
v -0.31860575 -0.12355847 -0.43353972
v -0.23651007 -0.15441437 -0.4140826
v -0.36786318 -0.20421465 -0.3021866
v -0.31860575 -0.12355847 -0.43353972
v -0.23651007 -0.15441437 -0.4140826
v -0.26934835 -0.12226457 -0.44995886
v -0.26934835 -0.1215761 -0.45074287
v -0.25458518 -0.1215761 -0.44995886
v 0.32174063 -0.23651007 -0.41156778
v -0.26934835 -0.1215761 -0.45074287
v 0.45309374 -0.26934835 -0.39897105
v 0.32174063 -0.23651007 -0.41156778
v -0.26934835 -0.1215761 -0.45074287
v -0.26934835 -0.10515697 -0.45177695
v -0.25458518 -0.1215761 -0.44995886
v -0.26934835 -0.1215761 -0.45074287
v 0.48593202 -0.2857675 -0.38972935
v 0.45309374 -0.26934835 -0.39897105
v -0.26934835 -0.1215761 -0.45074287
v -0.26934835 -0.10515697 -0.45177695
v -0.3350249 -0.08873782 -0.45309195
v -0.26934835 -0.1215761 -0.45074287
v -0.3350249 -0.10640125 -0.44995886
v -0.26934835 -0.12226457 -0.44995886
v 0.4154474 -0.53205454 0.48593202
v 0.49980834 -0.08873782 0.6993808
v 0.5050544 -0.02306127 0.7486382
v 0.4154474 -0.53205454 0.48593202
v 0.53693414 0.07545356 0.7322191
v 0.40417555 -0.6305694 0.37099805
v 0.4154474 -0.53205454 0.48593202
v 0.49980834 -0.08873782 0.6993808
v 0.53693414 0.07545356 0.7322191
v 0.02619614 -0.61873657 0.4038363
v -0.35144404 -0.53713834 0.3874172
v 0.02619614 -0.6141502 0.41022974
v 0.02619614 -0.61873657 0.4038363
v 0.02619614 -0.6141502 0.41022974
v 0.23964494 -0.6469885 0.43053696
v -0.3350249 0.30532148 0.70781386
v -0.35836065 0.27248323 0.7322191
v -0.3263447 0.33815977 0.66654253
v -0.3350249 0.30532148 0.70781386
v -0.3350249 0.27684042 0.7486382
v -0.35836065 0.27248323 0.7322191
v -0.3350249 0.30532148 0.70781386
v -0.31860575 0.34183475 0.66654253
v -0.3263447 0.33815977 0.66654253
v -0.3350249 0.30532148 0.70781386
v -0.3350249 0.27684042 0.7486382
v -0.31860575 0.34183475 0.66654253
v -0.35110843 0.32174063 0.6501234
v -0.35836065 0.27248323 0.7322191
v -0.3263447 0.33815977 0.66654253
v -0.35746711 0.3545789 0.56802773
v -0.43976042 -0.07231869 0.53518945
v -0.37207207 0.23964494 0.6993808
v -0.35746711 0.3545789 0.56802773
v -0.43976042 -0.07231869 0.53518945
v -0.27455562 0.66654253 -0.02306127
v 0.4964692 0.10829183 0.7814765
v 0.5187703 0.10680127 0.7650574
v 0.48593202 0.11858637 0.7814765
v 0.4964692 0.10829183 0.7814765
v 0.5187703 0.10680127 0.7650574
v 0.50235116 0.07319497 0.79789567
v 0.4964692 0.10829183 0.7814765
v 0.48593202 0.04261528 0.8282263
v 0.48593202 0.11858637 0.7814765
v 0.4964692 0.10829183 0.7814765
v 0.48593202 0.04261528 0.8282263
v 0.50235116 0.07319497 0.79789567
v 0.51143485 0.05903442 0.79789567
v 0.5187703 0.10680127 0.7650574
v 0.50235116 0.07319497 0.79789567
v 0.51143485 0.05903442 0.79789567
v 0.48593202 0.04261528 0.8282263
v 0.50235116 0.07319497 0.79789567
v 0.51143485 0.05903442 0.79789567
v 0.5187703 0.05903442 0.78840345
v 0.52571064 0.0918727 0.7650574
v 0.51143485 0.05903442 0.79789567
v 0.5187703 0.10680127 0.7650574
v 0.52571064 0.0918727 0.7650574
v 0.52299494 0.05903442 0.7814765
v 0.49980834 -0.08873782 0.6993808
v 0.5050544 -0.02306127 0.7486382
v 0.52299494 0.05903442 0.7814765
v 0.49980834 -0.08873782 0.6993808
v 0.53693414 0.07545356 0.7322191
v 0.52299494 0.05903442 0.7814765
v 0.5277212 0.07545356 0.7650574
v 0.53693414 0.07545356 0.7322191
v 0.52299494 0.05903442 0.7814765
v 0.5187703 0.05903442 0.78840345
v 0.52571064 0.0918727 0.7650574
v 0.52299494 0.05903442 0.7814765
v 0.5277212 0.07545356 0.7650574
v 0.52571064 0.0918727 0.7650574
v 0.4800086 0.04261528 0.8307339
v 0.46951288 0.00329563 0.8143148
v 0.46951288 0.04261528 0.8329538
v 0.4800086 0.04261528 0.8307339
v 0.48593202 0.04261528 0.8282263
v 0.46951288 0.00329563 0.8143148
v 0.4800086 0.04261528 0.8307339
v 0.48593202 0.11858637 0.7814765
v 0.46951288 0.04261528 0.8329538
v 0.4800086 0.04261528 0.8307339
v 0.48593202 0.04261528 0.8282263
v 0.48593202 0.11858637 0.7814765
v 0.55160856 0.25721616 0.5187703
v 0.63370425 0.49417666 0.07545356
v 0.5187703 0.14054511 0.7322191
v -0.2036718 0.6632812 0.02619614
v -0.23651007 0.60903144 0.17396839
v -0.26934835 0.67043334 -0.02306127
v -0.2036718 0.6632812 0.02619614
v -0.15441437 0.6699646 0.02619614
v -0.26934835 0.67043334 -0.02306127
v -0.2036718 0.6632812 0.02619614
v -0.15441437 0.6699646 0.02619614
v -0.23651007 0.60903144 0.17396839
v -0.35234508 -0.08873782 -0.43353972
v -0.36277485 -0.00664213 -0.40070146
v -0.3350249 -0.08873782 -0.45309195
v -0.35234508 -0.08873782 -0.43353972
v -0.36028934 -0.10515697 -0.41712058
v -0.36277485 -0.00664213 -0.40070146
v -0.35144404 0.23964494 0.7471007
v -0.35836065 0.27248323 0.7322191
v -0.3350249 0.27248323 0.75286514
v -0.35144404 0.23964494 0.7471007
v -0.36786318 0.20680666 0.73945093
v -0.35836065 0.27248323 0.7322191
v -0.35144404 0.23964494 0.7471007
v -0.31860575 0.2232258 0.75943184
v -0.3350249 0.27248323 0.75286514
v -0.35144404 0.23964494 0.7471007
v -0.36786318 0.20680666 0.73945093
v -0.31860575 0.2232258 0.75943184
v 0.61728513 0.50235116 0.05383636
v 0.63370425 0.48982123 0.04261528
v 0.61728513 0.49830112 0.04261528
v 0.61728513 0.50235116 0.05383636
v 0.61728513 0.5032843 0.05903442
v 0.63370425 0.48982123 0.04261528
v 0.63370425 0.49221283 0.05903442
v 0.6426426 0.48593202 0.05903442
v 0.63370425 0.48982123 0.04261528
v 0.63370425 0.49221283 0.05903442
v 0.61728513 0.5032843 0.05903442
v 0.63370425 0.48982123 0.04261528
v 0.63370425 0.49221283 0.05903442
v 0.6426426 0.48593202 0.05903442
v 0.63370425 0.49417666 0.07545356
v 0.63370425 0.49221283 0.05903442
v 0.61728513 0.5032843 0.05903442
v 0.63370425 0.49417666 0.07545356
v 0.61728513 0.27248323 -0.08944659
v 0.632939 0.4366746 -0.00664213
v 0.6180588 0.27248323 -0.08873782
v 0.61728513 0.48593202 0.03081841
v 0.58444685 0.493742 0.02619614
v 0.61728513 0.49830112 0.04261528
v 0.61728513 0.48593202 0.03081841
v 0.63370425 0.48982123 0.04261528
v 0.61728513 0.49830112 0.04261528
v 0.61728513 0.48593202 0.03081841
v 0.632939 0.4366746 -0.00664213
v 0.63370425 0.48982123 0.04261528
v 0.61728513 0.48593202 0.03081841
v 0.632939 0.4366746 -0.00664213
v 0.61728513 0.4366746 -0.01244831
v 0.6469358 0.45309374 0.02619614
v 0.632939 0.4366746 -0.00664213
v 0.63883126 0.48593202 0.04261528
v 0.6469358 0.45309374 0.02619614
v 0.6501234 0.45309374 0.03253264
v 0.63883126 0.48593202 0.04261528
v 0.6469358 0.45309374 0.02619614
v 0.632939 0.4366746 -0.00664213
v 0.63370425 0.4366746 -0.00529419
v 0.6547018 0.45309374 0.05903442
v 0.6532991 0.42025545 0.04261528
v 0.65789217 0.46951288 0.0918727
v 0.64891654 0.4366746 0.02619614
v 0.6313943 0.28890234 -0.03948041
v 0.6532991 0.42025545 0.04261528
v 0.61372864 0.23964494 -0.10515697
v 0.6313943 0.28890234 -0.03948041
v 0.54351914 -0.18725266 -0.3350249
v 0.61372864 0.23964494 -0.10515697
v 0.64891654 0.4366746 0.02619614
v 0.6180588 0.27248323 -0.08873782
v 0.61372864 0.23964494 -0.10515697
v 0.64891654 0.4366746 0.02619614
v 0.6313943 0.28890234 -0.03948041
v 0.53518945 -0.18725266 -0.3455677
v 0.54351914 -0.18725266 -0.3350249
v 0.5187703 -0.26934835 -0.38473678
v 0.53518945 -0.18725266 -0.3455677
v 0.49590048 -0.23651007 -0.38428232
v 0.5187703 -0.26934835 -0.38473678
v 0.53518945 -0.18725266 -0.3455677
v 0.61372864 0.23964494 -0.10515697
v 0.6180588 0.27248323 -0.08873782
v 0.53518945 -0.18725266 -0.3455677
v 0.61372864 0.23964494 -0.10515697
v 0.54351914 -0.18725266 -0.3350249
v 0.53518945 -0.18725266 -0.3455677
v 0.61728513 0.27248323 -0.08944659
v 0.6180588 0.27248323 -0.08873782
v 0.53518945 -0.18725266 -0.3455677
v 0.56802773 0.0918727 -0.20081224
v 0.48593202 -0.23651007 -0.38864598
v 0.53518945 -0.18725266 -0.3455677
v 0.49590048 -0.23651007 -0.38428232
v 0.48593202 -0.23651007 -0.38864598
v 0.53518945 -0.18725266 -0.3455677
v 0.632939 0.4366746 -0.00664213
v 0.56802773 0.0918727 -0.20081224
v 0.53518945 -0.18725266 -0.3455677
v 0.61728513 0.27248323 -0.08944659
v 0.632939 0.4366746 -0.00664213
v 0.53518945 -0.23651007 -0.35452583
v 0.54351914 -0.18725266 -0.3350249
v 0.5187703 -0.26934835 -0.38473678
v 0.53518945 -0.23651007 -0.35452583
v 0.53617644 -0.23651007 -0.35144404
v 0.5187703 -0.26934835 -0.38473678
v 0.53518945 -0.23651007 -0.35452583
v 0.53617644 -0.23651007 -0.35144404
v 0.54351914 -0.18725266 -0.3350249
v 0.53827614 -0.23651007 -0.31860575
v 0.53617644 -0.23651007 -0.35144404
v 0.5199798 -0.3350249 -0.18725266
v 0.12471097 -0.22009093 -0.40801227
v -0.26934835 -0.1215761 -0.45074287
v -0.26934835 -0.12226457 -0.44995886
v 0.12471097 -0.22009093 -0.40801227
v -0.23651007 -0.15441437 -0.4140826
v 0.46951288 -0.31574652 -0.35144404
v 0.12471097 -0.22009093 -0.40801227
v -0.23651007 -0.15441437 -0.4140826
v -0.26934835 -0.12226457 -0.44995886
v -0.17083351 0.6762008 -0.00664213
v -0.15441437 0.6699646 0.02619614
v -0.26934835 0.67043334 -0.02306127
v 0.2232258 0.5875468 0.009777
v 0.61728513 0.50235116 0.05383636
v 0.61728513 0.49830112 0.04261528
v 0.2232258 0.5875468 0.009777
v 0.61728513 0.50235116 0.05383636
v 0.61728513 0.5032843 0.05903442
v 0.2232258 0.5875468 0.009777
v -0.17083351 0.6762008 -0.00664213
v 0.61728513 0.5032843 0.05903442
v -0.37444776 0.20680666 0.7322191
v -0.43976042 -0.07231869 0.53518945
v -0.37207207 0.23964494 0.6993808
v -0.37444776 0.20680666 0.7322191
v -0.35836065 0.27248323 0.7322191
v -0.37207207 0.23964494 0.6993808
v -0.37444776 0.20680666 0.7322191
v -0.36786318 0.20680666 0.73945093
v -0.35836065 0.27248323 0.7322191
v -0.37444776 0.20680666 0.7322191
v -0.4888801 -0.466378 0.4038363
v -0.48279715 -0.466378 0.4119894
v -0.37444776 0.20680666 0.7322191
v -0.36786318 0.20680666 0.73945093
v -0.48279715 -0.466378 0.4119894
v 0.3634856 -0.6798268 0.3545789
v 0.3545789 -0.68510616 0.3545789
v 0.42025545 -0.581312 0.16262174
v 0.3634856 -0.6798268 0.3545789
v 0.37099805 -0.6720801 0.3874172
v 0.3874172 -0.6636394 0.37099805
v 0.3634856 -0.6798268 0.3545789
v 0.37099805 -0.6720801 0.3874172
v 0.3545789 -0.68510616 0.3545789
v 0.33815977 -0.67352 0.4038363
v 0.3545789 -0.6806076 0.3874172
v 0.30532148 -0.6662104 0.42025545
v 0.3545789 -0.66667116 0.42025545
v 0.37099805 -0.6720801 0.3874172
v 0.3545789 -0.6634077 0.42668635
v 0.3545789 -0.66667116 0.42025545
v 0.3545789 -0.6806076 0.3874172
v 0.37099805 -0.6720801 0.3874172
v 0.3545789 -0.66667116 0.42025545
v 0.33815977 -0.67352 0.4038363
v 0.3545789 -0.6806076 0.3874172
v 0.3545789 -0.66667116 0.42025545
v 0.30532148 -0.6662104 0.42025545
v 0.3545789 -0.6634077 0.42668635
v 0.3545789 -0.66667116 0.42025545
v 0.33815977 -0.67352 0.4038363
v 0.30532148 -0.6662104 0.42025545
v 0.4237171 -0.581312 0.17396839
v 0.46951288 -0.449989 -0.07231869
v 0.42025545 -0.581312 0.16262174
v 0.5187703 -0.28707886 -0.36786318
v 0.48813486 -0.41712058 -0.08873782
v 0.5199798 -0.3350249 -0.18725266
v 0.45780858 -0.40070146 -0.2036718
v 0.46951288 -0.449989 -0.07231869
v 0.42025545 -0.581312 0.16262174
v 0.45780858 -0.40070146 -0.2036718
v 0.5187703 -0.28707886 -0.36786318
v 0.46951288 -0.449989 -0.07231869
v -0.36786318 -0.2036718 -0.30296266
v -0.31860575 -0.12355847 -0.43353972
v -0.36786318 -0.20421465 -0.3021866
v -0.36786318 -0.2036718 -0.30296266
v -0.31860575 -0.12355847 -0.43353972
v -0.3350249 -0.10640125 -0.44995886
v -0.36786318 -0.2036718 -0.30296266
v -0.35144404 -0.1215761 -0.4212604
v -0.3350249 -0.10640125 -0.44995886
v -0.31860575 -0.1215761 -0.4361797
v -0.3350249 -0.10640125 -0.44995886
v -0.26934835 -0.12226457 -0.44995886
v -0.31860575 -0.1215761 -0.4361797
v -0.31860575 -0.12355847 -0.43353972
v -0.26934835 -0.12226457 -0.44995886
v -0.31860575 -0.1215761 -0.4361797
v -0.31860575 -0.12355847 -0.43353972
v -0.3350249 -0.10640125 -0.44995886
v -0.36250338 -0.1215761 -0.40070146
v -0.35144404 -0.1215761 -0.4212604
v -0.36028934 -0.10515697 -0.41712058
v -0.35144404 -0.10515697 -0.43312535
v -0.35144404 -0.1215761 -0.4212604
v -0.36028934 -0.10515697 -0.41712058
v 0.3874172 -0.65120614 0.4038363
v 0.37099805 -0.6720801 0.3874172
v 0.3545789 -0.6634077 0.42668635
v 0.37099805 -0.5648928 0.4899902
v 0.4154474 -0.53205454 0.48593202
v 0.3545789 -0.6634077 0.42668635
v 0.37099805 -0.5648928 0.4899902
v 0.30532148 -0.6634077 0.42441034
v 0.3545789 -0.6634077 0.42668635
v 0.37099805 -0.5648928 0.4899902
v 0.46951288 0.00329563 0.8143148
v 0.23964494 -0.6469885 0.43053696
v 0.37099805 -0.5648928 0.4899902
v 0.30532148 -0.6634077 0.42441034
v 0.23964494 -0.6469885 0.43053696
v 0.49889526 0.04261528 0.8143148
v 0.48593202 0.04261528 0.8282263
v 0.47718668 0.009777 0.8143148
v 0.49889526 0.04261528 0.8143148
v 0.4154474 -0.53205454 0.48593202
v 0.47718668 0.009777 0.8143148
v 0.49889526 0.04261528 0.8143148
v 0.51143485 0.05903442 0.79789567
v 0.5187703 0.05903442 0.78840345
v 0.49889526 0.04261528 0.8143148
v 0.51143485 0.05903442 0.79789567
v 0.48593202 0.04261528 0.8282263
v 0.49889526 0.04261528 0.8143148
v 0.52299494 0.05903442 0.7814765
v 0.5187703 0.05903442 0.78840345
v 0.49889526 0.04261528 0.8143148
v 0.52299494 0.05903442 0.7814765
v 0.5050544 -0.02306127 0.7486382
v -0.07231869 -0.6002402 0.3874172
v -0.35144404 -0.53713834 0.3874172
v -0.466378 -0.52149355 0.32174063
v -0.07231869 -0.6002402 0.3874172
v 0.02619614 -0.61873657 0.4038363
v -0.35144404 -0.53713834 0.3874172
v 0.12471097 -0.63914007 0.4038363
v 0.30532148 -0.6662104 0.42025545
v 0.23964494 -0.6469885 0.43053696
v 0.12471097 -0.63914007 0.4038363
v 0.02619614 -0.61873657 0.4038363
v 0.23964494 -0.6469885 0.43053696
v 0.12471097 -0.63914007 0.4038363
v 0.30532148 -0.6662104 0.42025545
v 0.27248323 -0.6665138 0.4038363
v 0.12471097 -0.63914007 0.4038363
v 0.33815977 -0.685376 0.37099805
v 0.27248323 -0.6665138 0.4038363
v 0.12471097 -0.63914007 0.4038363
v 0.1411301 -0.6443772 0.3874172
v 0.33815977 -0.685376 0.37099805
v -0.3590239 0.30532148 0.66654253
v -0.35836065 0.27248323 0.7322191
v -0.37207207 0.23964494 0.6993808
v -0.3590239 0.30532148 0.66654253
v -0.35746711 0.3545789 0.56802773
v -0.37207207 0.23964494 0.6993808
v -0.3590239 0.30532148 0.66654253
v -0.35110843 0.32174063 0.6501234
v -0.35836065 0.27248323 0.7322191
v -0.3590239 0.30532148 0.66654253
v -0.35746711 0.3545789 0.56802773
v -0.35110843 0.32174063 0.6501234
v -0.35144404 0.36084118 0.56802773
v -0.35746711 0.3545789 0.56802773
v -0.27455562 0.66654253 -0.02306127
v -0.35144404 0.36084118 0.56802773
v -0.27455562 0.66654253 -0.02306127
v -0.26934835 0.67043334 -0.02306127
v -0.35144404 0.36084118 0.56802773
v -0.3263447 0.33815977 0.66654253
v -0.26934835 0.67043334 -0.02306127
v -0.35144404 0.36084118 0.56802773
v -0.35110843 0.32174063 0.6501234
v -0.3263447 0.33815977 0.66654253
v -0.35144404 0.36084118 0.56802773
v -0.35746711 0.3545789 0.56802773
v -0.35110843 0.32174063 0.6501234
v 0.6441762 0.42025545 0.009777
v 0.6469358 0.45309374 0.02619614
v 0.6501234 0.45309374 0.03253264
v 0.6441762 0.42025545 0.009777
v 0.64891654 0.4366746 0.02619614
v 0.6180588 0.27248323 -0.08873782
v 0.6441762 0.42025545 0.009777
v 0.64891654 0.4366746 0.02619614
v 0.6501234 0.45309374 0.03253264
v 0.6441762 0.42025545 0.009777
v 0.63370425 0.4366746 -0.00529419
v 0.6180588 0.27248323 -0.08873782
v 0.6441762 0.42025545 0.009777
v 0.6469358 0.45309374 0.02619614
v 0.63370425 0.4366746 -0.00529419
v 0.6529711 0.45309374 0.04261528
v 0.64891654 0.4366746 0.02619614
v 0.6532991 0.42025545 0.04261528
v 0.6529711 0.45309374 0.04261528
v 0.64891654 0.4366746 0.02619614
v 0.6501234 0.45309374 0.03253264
v 0.6529711 0.45309374 0.04261528
v 0.6547018 0.45309374 0.05903442
v 0.6532991 0.42025545 0.04261528
v 0.6529711 0.45309374 0.04261528
v 0.6547018 0.45309374 0.05903442
v 0.65789217 0.46951288 0.0918727
v 0.6529711 0.45309374 0.04261528
v 0.63883126 0.48593202 0.04261528
v 0.65789217 0.46951288 0.0918727
v 0.6529711 0.45309374 0.04261528
v 0.6501234 0.45309374 0.03253264
v 0.63883126 0.48593202 0.04261528
v 0.556034 -0.13799524 -0.26934835
v 0.53617644 -0.23651007 -0.35144404
v 0.6313943 0.28890234 -0.03948041
v 0.556034 -0.13799524 -0.26934835
v 0.53827614 -0.23651007 -0.31860575
v 0.53617644 -0.23651007 -0.35144404
v 0.556034 -0.13799524 -0.26934835
v 0.6313943 0.28890234 -0.03948041
v 0.5199798 -0.3350249 -0.18725266
v 0.556034 -0.13799524 -0.26934835
v 0.53827614 -0.23651007 -0.31860575
v 0.5199798 -0.3350249 -0.18725266
v 0.4366746 -0.2838756 -0.38428232
v 0.48593202 -0.2857675 -0.38972935
v 0.46951288 -0.31574652 -0.35144404
v 0.4366746 -0.2838756 -0.38428232
v 0.12471097 -0.22009093 -0.40801227
v 0.46951288 -0.31574652 -0.35144404
v 0.4366746 -0.2838756 -0.38428232
v 0.12471097 -0.22009093 -0.40801227
v 0.48593202 -0.2857675 -0.38972935
v 0.07545356 -0.2036718 -0.417692
v -0.26934835 -0.1215761 -0.45074287
v 0.48593202 -0.2857675 -0.38972935
v 0.07545356 -0.2036718 -0.417692
v 0.12471097 -0.22009093 -0.40801227
v 0.48593202 -0.2857675 -0.38972935
v 0.07545356 -0.2036718 -0.417692
v 0.12471097 -0.22009093 -0.40801227
v -0.26934835 -0.1215761 -0.45074287
v 0.55160856 0.46951288 -0.00714083
v -0.2036718 0.66654253 -0.04247851
v 0.61728513 0.4366746 -0.01244831
v 0.55160856 0.46951288 -0.00714083
v 0.61728513 0.48593202 0.03081841
v 0.61728513 0.4366746 -0.01244831
v 0.55160856 0.46951288 -0.00714083
v 0.61728513 0.48593202 0.03081841
v 0.58444685 0.493742 0.02619614
v -0.15441437 0.66657096 -0.02306127
v 0.2232258 0.5875468 0.009777
v -0.17083351 0.6762008 -0.00664213
v -0.42547855 -0.07231869 0.58444685
v -0.43976042 -0.07231869 0.53518945
v -0.4888801 -0.466378 0.4038363
v -0.42547855 -0.07231869 0.58444685
v -0.37444776 0.20680666 0.7322191
v -0.4888801 -0.466378 0.4038363
v -0.42547855 -0.07231869 0.58444685
v -0.37444776 0.20680666 0.7322191
v -0.43976042 -0.07231869 0.53518945
v 0.39812183 -0.6469885 0.33815977
v 0.3634856 -0.6798268 0.3545789
v 0.42025545 -0.581312 0.16262174
v 0.39812183 -0.6469885 0.33815977
v 0.4237171 -0.581312 0.17396839
v 0.42025545 -0.581312 0.16262174
v 0.39812183 -0.6469885 0.33815977
v 0.3634856 -0.6798268 0.3545789
v 0.3874172 -0.6636394 0.37099805
v 0.39812183 -0.6469885 0.33815977
v 0.4237171 -0.581312 0.17396839
v 0.4283648 -0.581312 0.19038753
v 0.39812183 -0.6469885 0.33815977
v 0.4038363 -0.6312854 0.37099805
v 0.40417555 -0.6305694 0.37099805
v 0.39812183 -0.6469885 0.33815977
v 0.4283648 -0.581312 0.19038753
v 0.40417555 -0.6305694 0.37099805
v 0.5187703 -0.2857675 -0.36949134
v 0.49625725 -0.2857675 -0.38428232
v 0.5187703 -0.26934835 -0.38473678
v 0.5187703 -0.2857675 -0.36949134
v 0.5187703 -0.28707886 -0.36786318
v 0.49625725 -0.2857675 -0.38428232
v 0.46954006 -0.44995886 -0.07231869
v 0.5187703 -0.28707886 -0.36786318
v 0.48813486 -0.41712058 -0.08873782
v 0.46954006 -0.44995886 -0.07231869
v 0.5187703 -0.28707886 -0.36786318
v 0.46951288 -0.449989 -0.07231869
v 0.46954006 -0.44995886 -0.07231869
v 0.4283648 -0.581312 0.19038753
v 0.48813486 -0.41712058 -0.08873782
v 0.46954006 -0.44995886 -0.07231869
v 0.4237171 -0.581312 0.17396839
v 0.4283648 -0.581312 0.19038753
v 0.46954006 -0.44995886 -0.07231869
v 0.4237171 -0.581312 0.17396839
v 0.46951288 -0.449989 -0.07231869
v 0.5192993 -0.2857675 -0.36786318
v 0.53617644 -0.23651007 -0.35144404
v 0.5199798 -0.3350249 -0.18725266
v 0.5192993 -0.2857675 -0.36786318
v 0.5187703 -0.28707886 -0.36786318
v 0.5199798 -0.3350249 -0.18725266
v 0.5192993 -0.2857675 -0.36786318
v 0.5187703 -0.2857675 -0.36949134
v 0.5187703 -0.28707886 -0.36786318
v 0.5192993 -0.2857675 -0.36786318
v 0.53617644 -0.23651007 -0.35144404
v 0.5187703 -0.26934835 -0.38473678
v 0.5192993 -0.2857675 -0.36786318
v 0.5187703 -0.2857675 -0.36949134
v 0.5187703 -0.26934835 -0.38473678
v 0.45309374 -0.40325567 -0.2036718
v 0.45780858 -0.40070146 -0.2036718
v 0.42025545 -0.581312 0.16262174
v 0.45309374 -0.40325567 -0.2036718
v 0.37099805 -0.6172748 0.20680666
v 0.45309374 -0.40070146 -0.20839834
v 0.45309374 -0.40325567 -0.2036718
v 0.42025545 -0.581312 0.16262174
v 0.37099805 -0.6172748 0.20680666
v -0.36786318 -0.13799524 -0.37737384
v -0.36250338 -0.1215761 -0.40070146
v -0.35144404 -0.1215761 -0.4212604
v -0.36786318 -0.13799524 -0.37737384
v -0.36028934 -0.10515697 -0.41712058
v -0.37140495 -0.13799524 -0.36786318
v -0.36786318 -0.13799524 -0.37737384
v -0.36250338 -0.1215761 -0.40070146
v -0.36028934 -0.10515697 -0.41712058
v -0.36786318 -0.13799524 -0.37737384
v -0.37140495 -0.13799524 -0.36786318
v -0.46330103 -0.40070146 0.10829183
v -0.3350249 -0.10515697 -0.45114622
v -0.35144404 -0.1215761 -0.4212604
v -0.3350249 -0.10640125 -0.44995886
v -0.3350249 -0.10515697 -0.45114622
v -0.26934835 -0.1215761 -0.45074287
v -0.3350249 -0.08873782 -0.45309195
v -0.3350249 -0.10515697 -0.45114622
v -0.26934835 -0.1215761 -0.45074287
v -0.3350249 -0.10640125 -0.44995886
v -0.35144404 -0.10248005 -0.43353972
v -0.35234508 -0.08873782 -0.43353972
v -0.36028934 -0.10515697 -0.41712058
v -0.35144404 -0.10248005 -0.43353972
v -0.35144404 -0.10515697 -0.43312535
v -0.36028934 -0.10515697 -0.41712058
v -0.35144404 -0.10248005 -0.43353972
v -0.35234508 -0.08873782 -0.43353972
v -0.3350249 -0.08873782 -0.45309195
v -0.35144404 -0.10248005 -0.43353972
v -0.3350249 -0.10515697 -0.45114622
v -0.3350249 -0.08873782 -0.45309195
v 0.3874172 -0.6469885 0.40844482
v 0.4154474 -0.53205454 0.48593202
v 0.3545789 -0.6634077 0.42668635
v 0.3874172 -0.6469885 0.40844482
v 0.3874172 -0.65120614 0.4038363
v 0.3545789 -0.6634077 0.42668635
v 0.38119274 -0.6634077 0.3874172
v 0.37099805 -0.6720801 0.3874172
v 0.3874172 -0.6636394 0.37099805
v 0.38119274 -0.6634077 0.3874172
v 0.3874172 -0.65120614 0.4038363
v 0.3874172 -0.6636394 0.37099805
v 0.38119274 -0.6634077 0.3874172
v 0.3874172 -0.65120614 0.4038363
v 0.37099805 -0.6720801 0.3874172
v 0.38756925 -0.6634077 0.37099805
v 0.3874172 -0.65120614 0.4038363
v 0.3874172 -0.6636394 0.37099805
v 0.38756925 -0.6634077 0.37099805
v 0.39812183 -0.6469885 0.33815977
v 0.3874172 -0.6636394 0.37099805
v 0.38756925 -0.6634077 0.37099805
v 0.39812183 -0.6469885 0.33815977
v 0.4038363 -0.6312854 0.37099805
v 0.3901161 -0.6469885 0.4038363
v 0.4154474 -0.53205454 0.48593202
v 0.40417555 -0.6305694 0.37099805
v 0.3901161 -0.6469885 0.4038363
v 0.4038363 -0.6312854 0.37099805
v 0.40417555 -0.6305694 0.37099805
v 0.3901161 -0.6469885 0.4038363
v 0.3874172 -0.6469885 0.40844482
v 0.4154474 -0.53205454 0.48593202
v 0.3901161 -0.6469885 0.4038363
v 0.3874172 -0.6469885 0.40844482
v 0.3874172 -0.65120614 0.4038363
v 0.3901161 -0.6469885 0.4038363
v 0.38756925 -0.6634077 0.37099805
v 0.4038363 -0.6312854 0.37099805
v 0.3901161 -0.6469885 0.4038363
v 0.38756925 -0.6634077 0.37099805
v 0.3874172 -0.65120614 0.4038363
v 0.44060302 -0.26934835 0.6501234
v 0.46951288 0.00329563 0.8143148
v 0.47718668 0.009777 0.8143148
v 0.44060302 -0.26934835 0.6501234
v 0.37099805 -0.5648928 0.4899902
v 0.46951288 0.00329563 0.8143148
v 0.44060302 -0.26934835 0.6501234
v 0.4154474 -0.53205454 0.48593202
v 0.47718668 0.009777 0.8143148
v 0.50235116 -0.02306127 0.753544
v 0.4154474 -0.53205454 0.48593202
v 0.5050544 -0.02306127 0.7486382
v 0.50235116 -0.02306127 0.753544
v 0.49889526 0.04261528 0.8143148
v 0.5050544 -0.02306127 0.7486382
v 0.50235116 -0.02306127 0.753544
v 0.49889526 0.04261528 0.8143148
v 0.4154474 -0.53205454 0.48593202
v 0.02619614 -0.62103176 0.3874172
v -0.07231869 -0.6002402 0.3874172
v 0.02619614 -0.61873657 0.4038363
v 0.02619614 -0.62103176 0.3874172
v 0.12471097 -0.63914007 0.4038363
v 0.02619614 -0.61873657 0.4038363
v 0.02619614 -0.62103176 0.3874172
v 0.12471097 -0.63914007 0.4038363
v 0.1411301 -0.6443772 0.3874172
v 0.02619614 -0.62103176 0.3874172
v -0.07231869 -0.6002402 0.3874172
v -0.466378 -0.52149355 0.32174063
v 0.02619614 -0.62103176 0.3874172
v -0.466378 -0.52149355 0.32174063
v 0.23964494 -0.6667771 0.33815977
v 0.02619614 -0.62103176 0.3874172
v 0.33815977 -0.685376 0.37099805
v 0.23964494 -0.6667771 0.33815977
v 0.02619614 -0.62103176 0.3874172
v 0.1411301 -0.6443772 0.3874172
v 0.33815977 -0.685376 0.37099805
v 0.48593202 0.53052306 0.07545356
v 0.61728513 0.5032843 0.05903442
v 0.63370425 0.49417666 0.07545356
v 0.48593202 0.53052306 0.07545356
v -0.15441437 0.6699646 0.02619614
v -0.23651007 0.60903144 0.17396839
v 0.48593202 0.53052306 0.07545356
v -0.26934835 0.49314043 0.3874172
v -0.23651007 0.60903144 0.17396839
v 0.48593202 0.53052306 0.07545356
v 0.55160856 0.25721616 0.5187703
v 0.63370425 0.49417666 0.07545356
v 0.48593202 0.53052306 0.07545356
v -0.31860575 0.34183475 0.66654253
v 0.48593202 0.11858637 0.7814765
v 0.48593202 0.53052306 0.07545356
v -0.26934835 0.49314043 0.3874172
v -0.31860575 0.34183475 0.66654253
v 0.48593202 0.53052306 0.07545356
v 0.5187703 0.14054511 0.7322191
v 0.48593202 0.11858637 0.7814765
v 0.48593202 0.53052306 0.07545356
v 0.55160856 0.25721616 0.5187703
v 0.5187703 0.14054511 0.7322191
v -0.23651007 0.46951288 -0.15181594
v -0.2529292 0.48593202 -0.14329176
v -0.2036718 0.66654253 -0.04247851
v -0.23651007 0.46951288 -0.15181594
v -0.2036718 0.66654253 -0.04247851
v 0.61728513 0.4366746 -0.01244831
v -0.23651007 0.46951288 -0.15181594
v 0.48593202 -0.23651007 -0.38864598
v 0.61728513 0.4366746 -0.01244831
v -0.23651007 0.46951288 -0.15181594
v -0.2857675 0.04261528 -0.3839914
v 0.48593202 -0.23651007 -0.38864598
v -0.3350249 0.01571509 -0.40070146
v -0.3350249 -0.05589955 -0.43796995
v -0.2857675 0.04261528 -0.3839914
v -0.3350249 0.01571509 -0.40070146
v -0.23651007 0.46951288 -0.15181594
v -0.2857675 0.04261528 -0.3839914
v -0.3350249 0.01571509 -0.40070146
v -0.23651007 0.46951288 -0.15181594
v -0.2529292 0.48593202 -0.14329176
v -0.3350249 0.01571509 -0.40070146
v -0.3350249 -0.05589955 -0.43796995
v -0.36277485 -0.00664213 -0.40070146
v -0.26934835 0.66654253 -0.03121823
v -0.2529292 0.48593202 -0.14329176
v -0.2036718 0.66654253 -0.04247851
v -0.26934835 0.66654253 -0.03121823
v -0.3350249 0.01571509 -0.40070146
v -0.2529292 0.48593202 -0.14329176
v -0.26934835 0.66654253 -0.03121823
v -0.27455562 0.66654253 -0.02306127
v -0.26934835 0.67043334 -0.02306127
v -0.26934835 0.66654253 -0.03121823
v -0.27455562 0.66654253 -0.02306127
v -0.36277485 -0.00664213 -0.40070146
v -0.26934835 0.66654253 -0.03121823
v -0.3350249 0.01571509 -0.40070146
v -0.36277485 -0.00664213 -0.40070146
v 0.3545789 0.5523594 0.009777
v 0.2232258 0.5875468 0.009777
v 0.61728513 0.49830112 0.04261528
v 0.3545789 0.5523594 0.009777
v 0.55160856 0.46951288 -0.00714083
v 0.58444685 0.493742 0.02619614
v 0.3545789 0.5523594 0.009777
v 0.58444685 0.493742 0.02619614
v 0.61728513 0.49830112 0.04261528
v 0.5070517 -0.3021866 -0.35144404
v 0.45780858 -0.40070146 -0.2036718
v 0.5187703 -0.28707886 -0.36786318
v 0.5070517 -0.3021866 -0.35144404
v 0.45309374 -0.40325567 -0.2036718
v 0.45780858 -0.40070146 -0.2036718
v 0.5070517 -0.3021866 -0.35144404
v 0.5187703 -0.28707886 -0.36786318
v 0.49625725 -0.2857675 -0.38428232
v 0.5070517 -0.3021866 -0.35144404
v 0.45309374 -0.40325567 -0.2036718
v 0.45309374 -0.40070146 -0.20839834
v 0.5070517 -0.3021866 -0.35144404
v 0.49625725 -0.2857675 -0.38428232
v 0.46951288 -0.31574652 -0.35144404
v 0.5070517 -0.3021866 -0.35144404
v 0.46951288 -0.31574652 -0.35144404
v 0.45309374 -0.40070146 -0.20839834
v -0.36893517 -0.2036718 -0.3021866
v -0.36786318 -0.2036718 -0.30296266
v -0.35144404 -0.1215761 -0.4212604
v -0.36893517 -0.2036718 -0.3021866
v -0.36786318 -0.2036718 -0.30296266
v -0.36786318 -0.20421465 -0.3021866
v -0.36893517 -0.2036718 -0.3021866
v -0.466378 -0.46108222 0.20680666
v -0.46330103 -0.40070146 0.10829183
v -0.36893517 -0.2036718 -0.3021866
v -0.466378 -0.46108222 0.20680666
v -0.36786318 -0.20421465 -0.3021866
v -0.3510934 -0.10515697 -0.43353972
v -0.35144404 -0.10515697 -0.43312535
v -0.35144404 -0.1215761 -0.4212604
v -0.3510934 -0.10515697 -0.43353972
v -0.3350249 -0.10515697 -0.45114622
v -0.35144404 -0.1215761 -0.4212604
v -0.3510934 -0.10515697 -0.43353972
v -0.35144404 -0.10248005 -0.43353972
v -0.35144404 -0.10515697 -0.43312535
v -0.3510934 -0.10515697 -0.43353972
v -0.35144404 -0.10248005 -0.43353972
v -0.3350249 -0.10515697 -0.45114622
v 0.4038363 -0.48279715 0.52813685
v 0.37099805 -0.5648928 0.4899902
v 0.4154474 -0.53205454 0.48593202
v 0.4038363 -0.48279715 0.52813685
v 0.44060302 -0.26934835 0.6501234
v 0.4154474 -0.53205454 0.48593202
v 0.4038363 -0.48279715 0.52813685
v 0.44060302 -0.26934835 0.6501234
v 0.37099805 -0.5648928 0.4899902
v 0.15754925 0.60511005 0.04261528
v -0.17083351 0.6762008 -0.00664213
v 0.61728513 0.5032843 0.05903442
v 0.15754925 0.60511005 0.04261528
v 0.48593202 0.53052306 0.07545356
v 0.61728513 0.5032843 0.05903442
v 0.15754925 0.60511005 0.04261528
v -0.17083351 0.6762008 -0.00664213
v -0.15441437 0.6699646 0.02619614
v 0.15754925 0.60511005 0.04261528
v 0.48593202 0.53052306 0.07545356
v -0.15441437 0.6699646 0.02619614
v -0.2036718 0.67053974 -0.03948041
v 0.55160856 0.46951288 -0.00714083
v -0.2036718 0.66654253 -0.04247851
v -0.2036718 0.67053974 -0.03948041
v 0.3545789 0.5523594 0.009777
v 0.55160856 0.46951288 -0.00714083
v -0.2036718 0.67053974 -0.03948041
v -0.15441437 0.66657096 -0.02306127
v -0.17083351 0.6762008 -0.00664213
v -0.2036718 0.67053974 -0.03948041
v -0.15441437 0.66657096 -0.02306127
v 0.2232258 0.5875468 0.009777
v -0.2036718 0.67053974 -0.03948041
v 0.3545789 0.5523594 0.009777
v 0.2232258 0.5875468 0.009777
v -0.2036718 0.67053974 -0.03948041
v -0.17083351 0.6762008 -0.00664213
v -0.26934835 0.67043334 -0.02306127
v -0.2036718 0.67053974 -0.03948041
v -0.26934835 0.66654253 -0.03121823
v -0.26934835 0.67043334 -0.02306127
v -0.2036718 0.67053974 -0.03948041
v -0.26934835 0.66654253 -0.03121823
v -0.2036718 0.66654253 -0.04247851
v -0.36786318 -0.1613571 -0.35144404
v -0.36786318 -0.13799524 -0.37737384
v -0.35144404 -0.1215761 -0.4212604
v -0.36786318 -0.1613571 -0.35144404
v -0.36893517 -0.2036718 -0.3021866
v -0.35144404 -0.1215761 -0.4212604
v -0.37192142 -0.15441437 -0.35144404
v -0.36893517 -0.2036718 -0.3021866
v -0.46330103 -0.40070146 0.10829183
v -0.37192142 -0.15441437 -0.35144404
v -0.36786318 -0.1613571 -0.35144404
v -0.36893517 -0.2036718 -0.3021866
v -0.37192142 -0.15441437 -0.35144404
v -0.36786318 -0.13799524 -0.37737384
v -0.46330103 -0.40070146 0.10829183
v -0.37192142 -0.15441437 -0.35144404
v -0.36786318 -0.1613571 -0.35144404
v -0.36786318 -0.13799524 -0.37737384
f 1 2 3
f 4 5 6
f 7 8 9
f 10 11 12
f 13 14 15
f 16 17 18
f 19 20 21
f 22 23 24
f 25 26 27
f 28 29 30
f 31 32 33
f 34 35 36
f 37 38 39
f 40 41 42
f 43 44 45
f 46 47 48
f 49 50 51
f 52 53 54
f 55 56 57
f 58 59 60
f 61 62 63
f 64 65 66
f 67 68 69
f 70 71 72
f 73 74 75
f 76 77 78
f 79 80 81
f 82 83 84
f 85 86 87
f 88 89 90
f 91 92 93
f 94 95 96
f 97 98 99
f 100 101 102
f 103 104 105
f 106 107 108
f 109 110 111
f 112 113 114
f 115 116 117
f 118 119 120
f 121 122 123
f 124 125 126
f 127 128 129
f 130 131 132
f 133 134 135
f 136 137 138
f 139 140 141
f 142 143 144
f 145 146 147
f 148 149 150
f 151 152 153
f 154 155 156
f 157 158 159
f 160 161 162
f 163 164 165
f 166 167 168
f 169 170 171
f 172 173 174
f 175 176 177
f 178 179 180
f 181 182 183
f 184 185 186
f 187 188 189
f 190 191 192
f 193 194 195
f 196 197 198
f 199 200 201
f 202 203 204
f 205 206 207
f 208 209 210
f 211 212 213
f 214 215 216
f 217 218 219
f 220 221 222
f 223 224 225
f 226 227 228
f 229 230 231
f 232 233 234
f 235 236 237
f 238 239 240
f 241 242 243
f 244 245 246
f 247 248 249
f 250 251 252
f 253 254 255
f 256 257 258
f 259 260 261
f 262 263 264
f 265 266 267
f 268 269 270
f 271 272 273
f 274 275 276
f 277 278 279
f 280 281 282
f 283 284 285
f 286 287 288
f 289 290 291
f 292 293 294
f 295 296 297
f 298 299 300
f 301 302 303
f 304 305 306
f 307 308 309
f 310 311 312
f 313 314 315
f 316 317 318
f 319 320 321
f 322 323 324
f 325 326 327
f 328 329 330
f 331 332 333
f 334 335 336
f 337 338 339
f 340 341 342
f 343 344 345
f 346 347 348
f 349 350 351
f 352 353 354
f 355 356 357
f 358 359 360
f 361 362 363
f 364 365 366
f 367 368 369
f 370 371 372
f 373 374 375
f 376 377 378
f 379 380 381
f 382 383 384
f 385 386 387
f 388 389 390
f 391 392 393
f 394 395 396
f 397 398 399
f 400 401 402
f 403 404 405
f 406 407 408
f 409 410 411
f 412 413 414
f 415 416 417
f 418 419 420
f 421 422 423
f 424 425 426
f 427 428 429
f 430 431 432
f 433 434 435
f 436 437 438
f 439 440 441
f 442 443 444
f 445 446 447
f 448 449 450
f 451 452 453
f 454 455 456
f 457 458 459
f 460 461 462
f 463 464 465
f 466 467 468
f 469 470 471
f 472 473 474
f 475 476 477
f 478 479 480
f 481 482 483
f 484 485 486
f 487 488 489
f 490 491 492
f 493 494 495
f 496 497 498
f 499 500 501
f 502 503 504
f 505 506 507
f 508 509 510
f 511 512 513
f 514 515 516
f 517 518 519
f 520 521 522
f 523 524 525
f 526 527 528
f 529 530 531
f 532 533 534
f 535 536 537
f 538 539 540
f 541 542 543
f 544 545 546
f 547 548 549
f 550 551 552
f 553 554 555
f 556 557 558
f 559 560 561
f 562 563 564
f 565 566 567
f 568 569 570
f 571 572 573
f 574 575 576
f 577 578 579
f 580 581 582
f 583 584 585
f 586 587 588
f 589 590 591
f 592 593 594
f 595 596 597
f 598 599 600
f 601 602 603
f 604 605 606
f 607 608 609
f 610 611 612
f 613 614 615
f 616 617 618
f 619 620 621
f 622 623 624
f 625 626 627
f 628 629 630
f 631 632 633
f 634 635 636
f 637 638 639
f 640 641 642
f 643 644 645
f 646 647 648
f 649 650 651
f 652 653 654
f 655 656 657
f 658 659 660
f 661 662 663
f 664 665 666
f 667 668 669
f 670 671 672
f 673 674 675
f 676 677 678
f 679 680 681
f 682 683 684
f 685 686 687
f 688 689 690
f 691 692 693
f 694 695 696
f 697 698 699
f 700 701 702
f 703 704 705
f 706 707 708
f 709 710 711
f 712 713 714
f 715 716 717
f 718 719 720
f 721 722 723
f 724 725 726
f 727 728 729
f 730 731 732
f 733 734 735
f 736 737 738
f 739 740 741
f 742 743 744
f 745 746 747
f 748 749 750
f 751 752 753
f 754 755 756
f 757 758 759
f 760 761 762
f 763 764 765
f 766 767 768
f 769 770 771
f 772 773 774
f 775 776 777
f 778 779 780
f 781 782 783
f 784 785 786
f 787 788 789
f 790 791 792
f 793 794 795
f 796 797 798
f 799 800 801
f 802 803 804
f 805 806 807
f 808 809 810
f 811 812 813
f 814 815 816
f 817 818 819
f 820 821 822
f 823 824 825
f 826 827 828
f 829 830 831
f 832 833 834
f 835 836 837
f 838 839 840
f 841 842 843
f 844 845 846
f 847 848 849
f 850 851 852
f 853 854 855
f 856 857 858
f 859 860 861
f 862 863 864
f 865 866 867
f 868 869 870
f 871 872 873
f 874 875 876
f 877 878 879
f 880 881 882
f 883 884 885
f 886 887 888
f 889 890 891
f 892 893 894
f 895 896 897
f 898 899 900
f 901 902 903
f 904 905 906
f 907 908 909
f 910 911 912
f 913 914 915
f 916 917 918
f 919 920 921
f 922 923 924
f 925 926 927
f 928 929 930
f 931 932 933
f 934 935 936
f 937 938 939
f 940 941 942
f 943 944 945
f 946 947 948
f 949 950 951
f 952 953 954
f 955 956 957
f 958 959 960
f 961 962 963
f 964 965 966
f 967 968 969
f 970 971 972
f 973 974 975
f 976 977 978
f 979 980 981
f 982 983 984
f 985 986 987
f 988 989 990
f 991 992 993
f 994 995 996
f 997 998 999
f 1000 1001 1002
f 1003 1004 1005
f 1006 1007 1008
f 1009 1010 1011
f 1012 1013 1014
f 1015 1016 1017
f 1018 1019 1020
f 1021 1022 1023
f 1024 1025 1026
f 1027 1028 1029
f 1030 1031 1032
f 1033 1034 1035
f 1036 1037 1038
f 1039 1040 1041
f 1042 1043 1044
f 1045 1046 1047
f 1048 1049 1050
f 1051 1052 1053
f 1054 1055 1056
f 1057 1058 1059
f 1060 1061 1062
f 1063 1064 1065
f 1066 1067 1068
f 1069 1070 1071
f 1072 1073 1074
f 1075 1076 1077
f 1078 1079 1080
f 1081 1082 1083
f 1084 1085 1086
f 1087 1088 1089
f 1090 1091 1092
f 1093 1094 1095
f 1096 1097 1098
f 1099 1100 1101
f 1102 1103 1104
f 1105 1106 1107
f 1108 1109 1110
f 1111 1112 1113
f 1114 1115 1116
f 1117 1118 1119
f 1120 1121 1122
f 1123 1124 1125
f 1126 1127 1128
f 1129 1130 1131
f 1132 1133 1134
f 1135 1136 1137
f 1138 1139 1140
f 1141 1142 1143
f 1144 1145 1146
f 1147 1148 1149
f 1150 1151 1152
f 1153 1154 1155
f 1156 1157 1158
f 1159 1160 1161
f 1162 1163 1164
f 1165 1166 1167
f 1168 1169 1170
f 1171 1172 1173
f 1174 1175 1176
f 1177 1178 1179
f 1180 1181 1182
f 1183 1184 1185
f 1186 1187 1188
f 1189 1190 1191
f 1192 1193 1194
f 1195 1196 1197
f 1198 1199 1200
f 1201 1202 1203
f 1204 1205 1206
f 1207 1208 1209
f 1210 1211 1212
f 1213 1214 1215
f 1216 1217 1218
f 1219 1220 1221
f 1222 1223 1224
f 1225 1226 1227
f 1228 1229 1230
f 1231 1232 1233
f 1234 1235 1236
f 1237 1238 1239
f 1240 1241 1242
