# https://github.com/mikedh/trimesh
v -0.06016015 -0.03238794 0.09110945
v -0.01884320 -0.01778582 0.07481129
v -0.06238273 -0.07261052 0.02711027
v 0.06192839 -0.00541490 0.01252952
v 0.03720755 -0.02349074 0.07858259
v 0.07977899 -0.03341946 0.04908391
v 0.06375235 -0.01373499 -0.00068510
v -0.01968519 -0.00045730 0.02502475
v -0.06548878 0.02879550 0.00730073
v -0.00657691 0.06404027 0.04339575
v -0.07642757 0.05390266 0.02535919
v -0.05149739 0.03633513 0.02183437
v 0.07976395 0.04160751 0.06634506
v 0.04189631 0.01836715 0.09753746
v 0.08362663 0.00925010 0.04542925
v -0.04360398 0.08583001 -0.08223264
v -0.05025794 0.02779982 -0.08871177
v -0.05802385 0.04624943 -0.00530400
v -0.03280302 0.04388323 -0.05959905
v 0.03180520 0.04022182 -0.08541790
v 0.06557753 0.04777995 -0.01035745
v 0.04341620 0.00491368 -0.06943553
v 0.04792225 0.03134959 -0.04367523
v 0.05711006 0.02190486 -0.01129230
v -0.05052653 -0.07073429 -0.06212580
v -0.06265872 -0.08519934 -0.09548213
v -0.04216143 0.00011916 -0.07887530
v -0.08634081 -0.08505276 -0.01006781
v 0.00589113 -0.05249387 -0.08641780
v 0.03599671 -0.04200692 -0.03080338
v 0.04415512 -0.07844156 -0.02769250
v 0.05486366 -0.02222795 -0.02894443
vn 0.35833825 -0.90011142 0.24777639
vn -0.48317239 0.83822272 0.25283812
vn -0.84335500 0.50441970 0.18523797
vn 0.34321189 -0.89958407 0.27010016
vn 0.94444050 -0.32563327 0.04466677
vn -0.21364474 0.21899131 -0.95204975
vn -0.92435401 0.03749139 0.37968942
vn -0.84335500 0.50441970 0.18523797
vn 0.97928444 -0.12164468 0.16187821
vn -0.14639132 0.37361050 0.91596112
vn 0.01535474 0.99388710 -0.10932828
vn -0.24712320 -0.96603149 0.07558631
vn -0.50728457 0.79469713 -0.33334492
vn -0.24712320 -0.96603149 0.07558631
vn -0.92435401 0.03749139 0.37968942
vn 0.97928444 -0.12164468 0.16187821
vn -0.10066989 0.42673485 0.89875633
vn -0.16308596 0.07087452 -0.98406289
vn 0.01535474 0.99388710 -0.10932828
vn -0.10066989 0.42673485 0.89875633
vn 0.01535474 0.99388710 -0.10932828
vn -0.24712320 -0.96603149 0.07558631
vn -0.92435401 0.03749139 0.37968942
vn 0.94444050 -0.32563327 0.04466677
vn 0.01666648 -0.76479926 0.64405304
vn 0.97928444 -0.12164468 0.16187821
vn -0.84335500 0.50441970 0.18523797
vn -0.16308596 0.07087452 -0.98406289
vn -0.38199524 0.89959316 -0.21168792
vn 0.94444050 -0.32563327 0.04466677
vn -0.10066989 0.42673485 0.89875633
vn -0.16308596 0.07087452 -0.98406289
f 25//25 4//4 1//1
f 8//8 27//27 3//3
f 30//30 24//24 5//5
f 29//29 25//25 4//4
f 15//15 23//23 7//7
f 14//14 12//12 22//22
f 13//13 6//6 2//2
f 13//13 10//10 2//2
f 19//19 11//11 21//21
f 16//16 9//9 26//26
f 17//17 31//31 20//20
f 18//18 32//32 28//28