# https://github.com/mikedh/trimesh
v -0.04557443 -0.01367370 -0.05385718
v 0.05174799 -0.02995074 -0.04764512
v -0.02279684 -0.02297394 -0.04350374
v 0.06003074 -0.01244339 -0.04170325
v 0.00205143 0.07659626 -0.00455492
v -0.03522098 -0.01244339 -0.05647728
v -0.05415733 -0.02279684 -0.02900891
v -0.06326821 -0.06006925 0.03932385
v -0.04971580 -0.01891168 -0.04392556
v -0.04907170 0.00205143 -0.04143305
v -0.04902815 -0.00830201 -0.04971580
v -0.05101980 0.00412212 -0.01865546
v -0.00623133 -0.07327525 0.04553591
v 0.04139454 -0.07796651 0.04346522
v 0.04139454 -0.08018537 0.04967729
v -0.06213994 -0.06320556 0.04967729
v -0.04764512 -0.00830201 -0.05264995
v -0.04557443 -0.01037270 -0.05530778
v -0.04393184 0.04967729 -0.01658477
v -0.04764512 -0.02417907 -0.03522098
v -0.05799857 -0.06178486 0.03725316
v 0.07038420 0.06831350 0.00263684
v 0.07677445 0.06210143 0.00373738
v 0.05174799 0.04139454 -0.01491318
v 0.07245488 0.05174799 -0.00450354
v -0.06256254 -0.05385718 0.03311178
v -0.06331129 -0.06213994 0.04967729
v -0.06213994 -0.06213994 0.05075857
v -0.06006925 -0.06313934 0.04346522
v -0.06213994 -0.06130995 0.03932385
v -0.03936236 0.02897040 0.10722648
v 0.05588936 -0.00040524 0.10784071
v 0.03311178 0.01447557 0.11093585
v 0.05675933 -0.01244339 0.09109109
v 0.06160717 0.02275833 0.09523246
v 0.07714079 0.06624282 0.01033419
v 0.05875979 0.01240488 0.10558591
v 0.05796005 0.01240488 0.10714430
v 0.05637918 -0.00001926 0.10765660
v 0.07038420 0.07020044 0.01033419
v 0.07124568 0.05588936 0.03725316
v 0.07038420 0.05615259 0.03725316
v 0.04553591 -0.06006925 0.07453811
v -0.02900891 0.08513421 0.00681087
v -0.02072615 0.08531109 0.00412212
v 0.00619281 0.08132831 -0.00001926
v -0.02900891 -0.06421063 0.03422065
v 0.05796005 -0.03475097 -0.03936236
v 0.06210143 -0.03076384 -0.04453908
v -0.04143305 0.00633003 -0.04764512
v -0.03522098 0.07659626 -0.01005236
v 0.05588936 -0.02693822 -0.04822226
v 0.06417212 -0.01347874 -0.03947080
v -0.06355283 -0.05799857 0.04657126
v 0.05588936 0.00205143 0.10827803
v 0.03932385 0.02068764 0.10431871
v 0.02482902 0.02689971 0.10028082
v -0.03522098 0.06727443 0.04139454
v -0.02900891 0.08280833 0.01148712
v 0.05174799 0.01654626 0.10604247
v 0.04760660 0.07335317 0.01033419
v 0.07659626 0.06738426 0.01033419
v 0.06831350 0.07050851 0.00412212
v 0.06647960 -0.02072615 -0.03936236
v 0.06494094 -0.02900891 -0.04143305
v 0.06281328 -0.02900891 -0.04620049
v 0.06307329 -0.03729167 -0.02279684
v 0.04864195 -0.07343979 0.03828850
v 0.05174799 -0.06428310 0.01861695
v 0.06018815 -0.03729167 -0.03347089
v 0.04490145 -0.07663477 0.06003074
v 0.04553591 -0.07914581 0.05174799
v 0.04139454 -0.07939915 0.05796005
v 0.03932385 -0.07663477 0.06053697
v -0.03910517 0.08280833 -0.00416064
v -0.03315029 0.08548933 -0.00001926
v -0.04010172 0.08073764 0.00205143
v -0.04143305 -0.01244339 -0.05646664
v 0.02275833 -0.02279684 -0.05186922
v 0.04760660 -0.02486753 -0.04910977
v 0.06003074 0.02397234 0.09523246
v 0.05174799 0.02548550 0.09621453
v 0.00826350 0.02972490 0.09937384
v -0.03522098 0.07743775 0.02275833
v 0.07509716 0.04760660 -0.00001926
v 0.05210411 -0.07249339 0.04346522
v 0.07038420 0.01654626 -0.02150432
v -0.04350374 0.01745471 -0.04143305
v -0.02176150 0.08374695 -0.00340630
v -0.03315029 0.08487901 -0.00423475
v -0.04843735 -0.01244339 -0.05178649
v -0.05385718 0.00826350 0.08488551
v -0.05697989 0.01033419 0.08073764
v -0.05404499 0.03518247 0.09109109
v -0.04862337 0.05588936 0.04967729
v -0.02900891 0.08707939 -0.00088225
v 0.00205143 0.08286240 0.00205143
v 0.05076918 -0.07456408 0.04760660
v -0.05182436 0.03518247 0.09523246
v -0.05222175 0.04346522 0.07245488
v -0.04350374 0.03999880 0.09109109
v -0.04557443 0.05673609 0.05588936
v -0.04764512 0.04290822 0.08487901
f 1 2 3
f 4 5 6
f 7 8 9
f 7 10 11
f 7 10 12
f 13 2 3
f 13 2 14
f 13 14 15
f 19 10 12
f 9 20 21
f 9 20 3
f 24 22 5
f 24 4 5
f 25 23 22
f 25 4 22
f 26 7 8
f 27 16 28
f 29 30 21
f 29 13 21
f 29 13 16
f 27 30 8
f 32 31 33
f 34 35 36
f 37 38 39
f 37 34 39
f 37 34 35
f 40 41 42
f 43 31 28
f 46 22 5
f 47 20 21
f 47 13 21
f 47 20 3
f 47 13 3
f 48 2 14
f 48 49 2
f 50 5 6
f 50 51 5
f 1 9 3
f 30 9 21
f 22 24 4
f 53 25 4
f 53 25 23
f 54 26 8
f 27 8 54
f 16 27 30
f 16 29 30
f 55 38 39
f 55 32 39
f 55 38 33
f 55 32 33
f 56 31 33
f 56 57 31
f 58 42 59
f 60 56 33
f 61 42 59
f 61 40 42
f 61 44 59
f 61 40 45
f 61 44 45
f 62 41 36
f 62 40 41
f 62 63 40
f 62 23 36
f 62 23 22
f 65 64 66
f 65 64 67
f 68 14 15
f 68 69 14
f 69 48 14
f 69 48 70
f 43 71 39
f 32 43 39
f 31 32 43
f 72 73 71
f 74 16 28
f 74 43 28
f 66 49 2
f 49 48 70
f 49 65 66
f 75 17 11
f 75 10 11
f 75 19 10
f 76 75 77
f 78 79 6
f 78 2 79
f 78 50 6
f 78 18 50
f 1 17 18
f 80 52 79
f 80 79 6
f 80 52 4
f 80 4 6
f 66 52 4
f 81 82 42
f 81 41 42
f 83 58 42
f 83 82 42
f 84 44 59
f 84 58 59
f 35 41 81
f 35 41 36
f 33 60 38
f 81 38 60
f 46 63 22
f 22 62 63
f 85 64 67
f 85 23 64
f 85 23 36
f 86 65 67
f 86 85 67
f 53 64 66
f 53 66 4
f 87 64 23
f 87 53 64
f 87 53 23
f 72 68 15
f 73 74 16
f 73 13 16
f 73 13 15
f 73 72 15
f 88 75 17
f 88 50 51
f 88 18 17
f 51 89 90
f 51 89 5
f 78 1 2
f 1 78 18
f 91 1 17
f 91 7 9
f 91 7 11
f 91 17 11
f 2 66 52
f 2 52 79
f 31 92 27
f 31 27 28
f 93 92 27
f 93 54 27
f 93 26 54
f 95 19 12
f 82 60 81
f 83 57 31
f 57 83 82
f 76 84 77
f 76 84 44
f 38 81 35
f 38 35 37
f 89 96 46
f 89 46 5
f 90 96 75
f 97 96 46
f 96 97 45
f 96 44 45
f 96 76 44
f 96 76 75
f 97 45 40
f 70 86 65
f 70 49 65
f 70 69 86
f 98 72 68
f 71 74 43
f 71 73 74
f 88 18 50
f 9 30 8
f 9 91 1
f 99 93 94
f 99 93 92
f 100 26 7
f 100 93 26
f 100 7 12
f 100 95 12
f 100 95 94
f 77 75 19
f 77 95 19
f 56 82 60
f 56 82 57
f 101 84 58
f 101 83 58
f 101 83 31
f 89 96 90
f 97 63 46
f 40 63 97
f 86 98 68
f 75 88 51
f 75 90 51
f 99 31 92
f 94 100 93
f 102 94 95
f 102 103 84
f 102 94 103
f 101 103 84
f 99 101 31
f 99 101 103
f 69 86 68
f 86 34 36
f 86 34 39
f 86 85 36
f 102 77 95
f 99 94 103
f 98 86 39
f 98 71 39
f 98 72 71
f 102 84 77