# File units = meters
mtllib triad_pink.mtl
g Part 1
v -0.000324357 0.06 -0.00298241 
v -0.000644911 0.06 -0.00292986 
v -0.000957905 0.06 -0.00284296 
v -0.00125967 0.06 -0.00272273 
v -0.00154666 0.06 -0.00257057 
v -0.00181552 0.06 -0.00238828 
v -0.0020631 0.06 -0.00217799 
v -0.00228649 0.06 -0.00194216 
v -0.00248307 0.06 -0.00168356 
v -0.00265054 0.06 -0.00140523 
v -0.00278693 0.06 -0.00111041 
v -0.00289065 0.06 -0.000802585 
v -0.00296048 0.06 -0.000485346 
v -0.0029956 0.06 -0.000162417 
v -0.0029956 0.06 0.000162417 
v -0.00296048 0.06 0.000485346 
v -0.00289065 0.06 0.000802585 
v -0.00278693 0.06 0.00111041 
v -0.00265054 0.06 0.00140523 
v -0.00248307 0.06 0.00168356 
v -0.00228649 0.06 0.00194216 
v -0.0020631 0.06 0.00217799 
v -0.00181552 0.06 0.00238828 
v -0.00154666 0.06 0.00257057 
v -0.00125967 0.06 0.00272273 
v -0.000957905 0.06 0.00284296 
v -0.000644911 0.06 0.00292986 
v -0.000324357 0.06 0.00298241 
v 3.67394e-19 0.06 0.003 
v 0.000324357 0.06 0.00298241 
v 0.000644911 0.06 0.00292986 
v 0.000957905 0.06 0.00284296 
v 0.00125967 0.06 0.00272273 
v 0.00154666 0.06 0.00257057 
v 0.00181552 0.06 0.00238828 
v 0.0020631 0.06 0.00217799 
v 0.00228649 0.06 0.00194216 
v 0.00248307 0.06 0.00168356 
v 0.00265054 0.06 0.00140523 
v 0.00278693 0.06 0.00111041 
v 0.00289065 0.06 0.000802585 
v 0.00296048 0.06 0.000485346 
v 0.0029956 0.06 0.000162417 
v 0.0029956 0.06 -0.000162417 
v 0.00296048 0.06 -0.000485346 
v 0.00289065 0.06 -0.000802585 
v 0.00278693 0.06 -0.00111041 
v 0.00265054 0.06 -0.00140523 
v 0.00248307 0.06 -0.00168356 
v 0.00228649 0.06 -0.00194216 
v 0.0020631 0.06 -0.00217799 
v 0.00181552 0.06 -0.00238828 
v 0.00154666 0.06 -0.00257057 
v 0.00125967 0.06 -0.00272273 
v 0.000957905 0.06 -0.00284296 
v 0.000644911 0.06 -0.00292986 
v 0.000324357 0.06 -0.00298241 
v -7.34788e-19 0.06 -0.003 
v 0 0.06 1.83697e-19 
v -0.0029956 0 -0.000162417 
v -0.00296048 0 -0.000485346 
v -0.00289065 0 -0.000802585 
v -0.00278693 0 -0.00111041 
v -0.00265054 0 -0.00140523 
v -0.00248307 0 -0.00168356 
v -0.00228649 0 -0.00194216 
v -0.0020631 0 -0.00217799 
v -0.00181552 0 -0.00238828 
v -0.00154666 0 -0.00257057 
v -0.00125967 0 -0.00272273 
v -0.000957905 0 -0.00284296 
v -0.000644911 0 -0.00292986 
v -0.000324357 0 -0.00298241 
v 0.00228649 0.00228649 0.00194216 
v 0.00238828 0.00238828 0.00181552 
v 0.00248307 0.00248307 0.00168356 
v 0.00257057 0.00257057 0.00154666 
v 0.00265054 0.00265054 0.00140523 
v 0.00272273 0.00272273 0.00125967 
v 0.00278693 0.00278693 0.00111041 
v 0.00284296 0.00284296 0.000957905 
v 0.00289065 0.00289065 0.000802585 
v 0.00292986 0.00292986 0.000644911 
v 0.00296048 0.00296048 0.000485346 
v 0.00298241 0.00298241 0.000324357 
v 0.0029956 0.0029956 0.000162417 
v 0.003 0.003 -6.66134e-19 
v 0.0029956 0.0029956 -0.000162417 
v 0.00298241 0.00298241 -0.000324357 
v 0.00296048 0.00296048 -0.000485346 
v 0.00292986 0.00292986 -0.000644911 
v 0.00289065 0.00289065 -0.000802585 
v 0.00284296 0.00284296 -0.000957905 
v 0.00278693 0.00278693 -0.00111041 
v 0.00272273 0.00272273 -0.00125967 
v 0.00265054 0.00265054 -0.00140523 
v 0.00257057 0.00257057 -0.00154666 
v 0.00248307 0.00248307 -0.00168356 
v 0.00238828 0.00238828 -0.00181552 
v 0.00228649 0.00228649 -0.00194216 
v 0.0020631 0.0020631 -0.00217799 
v 0.00181552 0.00181552 -0.00238828 
v 0.00154666 0.00154666 -0.00257057 
v 0.00125967 0.00125967 -0.00272273 
v 0.000957905 0.000957905 -0.00284296 
v 0.000644911 0.000644911 -0.00292986 
v 0.000324357 0.000324357 -0.00298241 
v -0.0029956 0.000162417 0.000162417 
v -0.003 0 0 
v -0.00297804 0.000323881 0.000323881 
v -0.00296048 0.000485346 0.000485346 
v -0.00292556 0.000643966 0.000643966 
v -0.00289065 0.000802585 0.000802585 
v -0.00283879 0.0009565 0.0009565 
v -0.00278693 0.00111041 0.00111041 
v -0.00271873 0.00125782 0.00125782 
v -0.00265054 0.00140523 0.00140523 
v -0.0025668 0.00154439 0.00154439 
v -0.00248307 0.00168356 0.00168356 
v -0.00238478 0.00181286 0.00181286 
v -0.00228649 0.00194216 0.00194216 
v -0.00217479 0.00206007 0.00206007 
v -0.0020631 0.00217799 0.00217799 
v -0.00193931 0.00228313 0.00228313 
v -0.00181552 0.00238828 0.00238828 
v -0.00168356 0.00248307 0.00248307 
v -0.00154666 0.00257057 0.00257057 
v -0.00140523 0.00265054 0.00265054 
v -0.00125967 0.00272273 0.00272273 
v -0.00111041 0.00278693 0.00278693 
v -0.000957905 0.00284296 0.00284296 
v -0.000802585 0.00289065 0.00289065 
v -0.000644911 0.00292986 0.00292986 
v -0.000485346 0.00296048 0.00296048 
v -0.000324357 0.00298241 0.00298241 
v -0.000162417 0.0029956 0.0029956 
v 4.82437e-19 0.003 0.003 
v 0.000162417 0.0029956 0.0029956 
v 0.000324357 0.00298241 0.00298241 
v 0.000485346 0.00296048 0.00296048 
v 0.000644911 0.00292986 0.00292986 
v 0.000802585 0.00289065 0.00289065 
v 0.000957905 0.00284296 0.00284296 
v 0.00111041 0.00278693 0.00278693 
v 0.00125967 0.00272273 0.00272273 
v 0.00140523 0.00265054 0.00265054 
v 0.00154666 0.00257057 0.00257057 
v 0.00168356 0.00248307 0.00248307 
v 0.00181552 0.00238828 0.00238828 
v 0.00194216 0.00228649 0.00228649 
v 0.0020616 0.00217637 0.00217637 
v 0.00212132 0.00212132 0.00212132 
v 0 0 -0.003 
v -0.000162417 -0.0029956 0 
v -0.000162417 -0.0029956 0.07 
v -0.000485346 -0.00296048 0.07 
v -0.000485346 -0.00296048 0 
v -0.000802585 -0.00289065 0.07 
v -0.000802585 -0.00289065 0 
v -0.00111041 -0.00278693 0.07 
v -0.00111041 -0.00278693 0 
v -0.00140523 -0.00265054 0.07 
v -0.00140523 -0.00265054 0 
v -0.00168356 -0.00248307 0.07 
v -0.00168356 -0.00248307 0 
v -0.00194216 -0.00228649 0.07 
v -0.00194216 -0.00228649 0 
v -0.00217799 -0.0020631 0.07 
v -0.00217799 -0.0020631 0 
v -0.00238828 -0.00181552 0.07 
v -0.00238828 -0.00181552 0 
v -0.00257057 -0.00154666 0.07 
v -0.00257057 -0.00154666 0 
v -0.00272273 -0.00125967 0.07 
v -0.00272273 -0.00125967 0 
v -0.00284296 -0.000957905 0.07 
v -0.00284296 -0.000957905 0 
v -0.00292986 -0.000644911 0.07 
v -0.00292986 -0.000644911 0 
v -0.00298241 -0.000324357 0.07 
v -0.00298241 -0.000324357 0 
v -0.003 -9.18485e-19 0.07 
v 0 -0.003 0 
v 0.000162417 -0.0029956 0.000162417 
v 0.000162417 -0.0029956 0.07 
v 0.000485346 -0.00296048 0.000485346 
v 0.000485346 -0.00296048 0.07 
v 0.000802585 -0.00289065 0.000802585 
v 0.000802585 -0.00289065 0.07 
v 0.00111041 -0.00278693 0.00111041 
v 0.00111041 -0.00278693 0.07 
v 0.00140523 -0.00265054 0.00140523 
v 0.00140523 -0.00265054 0.07 
v 0.00168356 -0.00248307 0.00168356 
v 0.00168356 -0.00248307 0.07 
v 0.00194216 -0.00228649 0.00194216 
v 0.00194216 -0.00228649 0.07 
v 0.00217799 -0.0020631 0.00217799 
v 0.00217799 -0.0020631 0.07 
v 0.00238828 -0.00181552 0.00238828 
v 0.00238828 -0.00181552 0.07 
v 0.00248307 -0.00168356 0.00248307 
v 0.00257057 -0.00154666 0.07 
v 0.00257057 -0.00154666 0.00257057 
v 0.00265054 -0.00140523 0.00265054 
v 0.00272273 -0.00125967 0.07 
v 0.00272273 -0.00125967 0.00272273 
v 0.00278693 -0.00111041 0.00278693 
v 0.00284296 -0.000957905 0.07 
v 0.00284296 -0.000957905 0.00284296 
v 0.00289065 -0.000802585 0.00289065 
v 0.00292986 -0.000644911 0.07 
v 0.00292986 -0.000644911 0.00292986 
v 0.00296048 -0.000485346 0.00296048 
v 0.00298241 -0.000324357 0.07 
v 0.00298241 -0.000324357 0.00298241 
v 0.0029956 -0.000162417 0.0029956 
v 0.003 9.18485e-19 0.07 
v 0.003 2.75546e-19 0.003 
v 0.00298241 0.000324357 0.07 
v 0.0029956 0.000162417 0.0029956 
v 0.00292986 0.000644911 0.07 
v 0.00298241 0.000324357 0.00298241 
v 0.00296048 0.000485346 0.00296048 
v 0.00284296 0.000957905 0.07 
v 0.00292986 0.000644911 0.00292986 
v 0.00289065 0.000802585 0.00289065 
v 0.00272273 0.00125967 0.07 
v 0.00284296 0.000957905 0.00284296 
v 0.00278693 0.00111041 0.00278693 
v 0.00257057 0.00154666 0.07 
v 0.00272273 0.00125967 0.00272273 
v 0.00265054 0.00140523 0.00265054 
v 0.00238828 0.00181552 0.07 
v 0.00257057 0.00154666 0.00257057 
v 0.00248307 0.00168356 0.00248307 
v 0.00217799 0.0020631 0.07 
v 0.00238828 0.00181552 0.00238828 
v 0.00217799 0.0020631 0.00217799 
v 0.00194216 0.00228649 0.07 
v 0.00168356 0.00248307 0.07 
v 0.00140523 0.00265054 0.07 
v 0.00111041 0.00278693 0.07 
v 0.000802585 0.00289065 0.07 
v 0.000485346 0.00296048 0.07 
v 0.000162417 0.0029956 0.07 
v -0.000162417 0.0029956 0.07 
v -0.000485346 0.00296048 0.07 
v -0.000802585 0.00289065 0.07 
v -0.00111041 0.00278693 0.07 
v -0.00140523 0.00265054 0.07 
v -0.00168356 0.00248307 0.07 
v -0.00194216 0.00228649 0.07 
v -0.00217799 0.0020631 0.07 
v -0.00238828 0.00181552 0.07 
v -0.00257057 0.00154666 0.07 
v -0.00272273 0.00125967 0.07 
v -0.00284296 0.000957905 0.07 
v -0.00292986 0.000644911 0.07 
v -0.00298241 0.000324357 0.07 
v 0 -1.83697e-19 0.07 
v 0 0 0 
v 0 -0.0020631 -0.00217799 
v 0 -0.00228649 -0.00194216 
v 0 -0.00248307 -0.00168356 
v 0 -0.00181552 -0.00238828 
v 0 -0.00154666 -0.00257057 
v 0 -0.00125967 -0.00272273 
v 0 -0.000644911 -0.00292986 
v 0 -0.000957905 -0.00284296 
v 0 -0.00289065 -0.000802585 
v 0 -0.00296048 -0.000485346 
v 0 -0.00265054 -0.00140523 
v 0 -0.00278693 -0.00111041 
v 0 -0.000324357 -0.00298241 
v 0 -0.0029956 -0.000162417 
v 0.07 1.10218e-18 -0.003 
v 0.07 -0.000324357 -0.00298241 
v 0.07 -0.000644911 -0.00292986 
v 0.07 -0.000957905 -0.00284296 
v 0.07 -0.00125967 -0.00272273 
v 0.07 -0.00154666 -0.00257057 
v 0.07 -0.00181552 -0.00238828 
v 0.07 -0.0020631 -0.00217799 
v 0.07 -0.00228649 -0.00194216 
v 0.07 -0.00248307 -0.00168356 
v 0.07 -0.00265054 -0.00140523 
v 0.07 -0.00278693 -0.00111041 
v 0.07 -0.00289065 -0.000802585 
v 0.07 -0.00296048 -0.000485346 
v 0.07 -0.0029956 -0.000162417 
v 0.07 0.000324357 -0.00298241 
v 0.07 0.000644911 -0.00292986 
v 0.07 0.000957905 -0.00284296 
v 0.07 0.00125967 -0.00272273 
v 0.07 0.00154666 -0.00257057 
v 0.07 0.00181552 -0.00238828 
v 0.07 0.0020631 -0.00217799 
v 0.07 0.00228649 -0.00194216 
v 0.07 0.00248307 -0.00168356 
v 0.07 0.00265054 -0.00140523 
v 0.07 0.00278693 -0.00111041 
v 0.07 0.00289065 -0.000802585 
v 0.07 0.00296048 -0.000485346 
v 0.07 0.0029956 -0.000162417 
v 0.07 0.0029956 0.000162417 
v 0.07 0.00296048 0.000485346 
v 0.07 0.00289065 0.000802585 
v 0.07 0.00278693 0.00111041 
v 0.07 0.00265054 0.00140523 
v 0.07 0.00248307 0.00168356 
v 0.07 0.00228649 0.00194216 
v 0.07 0.0020631 0.00217799 
v 0.07 0.00181552 0.00238828 
v 0.07 0.00154666 0.00257057 
v 0.07 0.00125967 0.00272273 
v 0.07 0.000957905 0.00284296 
v 0.07 0.000644911 0.00292986 
v 0.07 0.000324357 0.00298241 
v 0.07 -7.34788e-19 0.003 
v 0.07 -0.000324357 0.00298241 
v 0.07 -0.000644911 0.00292986 
v 0.07 -0.000957905 0.00284296 
v 0.07 -0.00125967 0.00272273 
v 0.07 -0.00154666 0.00257057 
v 0.07 -0.00181552 0.00238828 
v 0.07 -0.0020631 0.00217799 
v 0.07 -0.00228649 0.00194216 
v 0.07 -0.00248307 0.00168356 
v 0.07 -0.00265054 0.00140523 
v 0.07 -0.00278693 0.00111041 
v 0.07 -0.00289065 0.000802585 
v 0.07 -0.00296048 0.000485346 
v 0.07 -0.0029956 0.000162417 
v 0.07 0 -1.83697e-19 
vn 0 1 0 
vn -0.998533 0 -0.0541389 
vn -0.986827 0 -0.161782 
vn -0.96355 0 -0.267528 
vn -0.928977 0 -0.370138 
vn -0.883512 0 -0.468408 
vn -0.827689 0 -0.561187 
vn -0.762162 0 -0.647386 
vn -0.687699 0 -0.725995 
vn -0.605174 0 -0.796093 
vn -0.515554 0 -0.856857 
vn -0.419889 0 -0.907575 
vn -0.319302 0 -0.947653 
vn -0.21497 0 -0.976621 
vn -0.108119 0 -0.994138 
vn 0 0 -1 
vn 0.762162 0 0.647386 
vn 0.796093 0 0.605174 
vn 0.827689 0 0.561187 
vn 0.856857 0 0.515554 
vn 0.883512 0 0.468408 
vn 0.907575 0 0.419889 
vn 0.928977 0 0.370138 
vn 0.947653 0 0.319302 
vn 0.96355 0 0.267528 
vn 0.976621 0 0.21497 
vn 0.986827 0 0.161782 
vn 0.994138 0 0.108119 
vn 0.998533 0 0.0541389 
vn 1 0 -2.83277e-16 
vn 0.998533 0 -0.0541389 
vn 0.986827 0 -0.161782 
vn 0.994138 0 -0.108119 
vn 0.96355 0 -0.267528 
vn 0.986827 0 -0.161782 
vn 0.976621 0 -0.21497 
vn 0.928977 0 -0.370138 
vn 0.96355 0 -0.267528 
vn 0.947653 0 -0.319302 
vn 0.883512 0 -0.468408 
vn 0.928977 0 -0.370138 
vn 0.907575 0 -0.419889 
vn 0.827689 0 -0.561187 
vn 0.883512 0 -0.468408 
vn 0.856857 0 -0.515554 
vn 0.762162 0 -0.647386 
vn 0.827689 0 -0.561187 
vn 0.796093 0 -0.605174 
vn 0.687699 0 -0.725995 
vn 0.762162 0 -0.647386 
vn 0.605174 0 -0.796093 
vn 0.687699 0 -0.725995 
vn 0.515554 0 -0.856857 
vn 0.605174 0 -0.796093 
vn 0.419889 0 -0.907575 
vn 0.515554 0 -0.856857 
vn 0.319302 0 -0.947653 
vn 0.419889 0 -0.907575 
vn 0.21497 0 -0.976621 
vn 0.319302 0 -0.947653 
vn 0.108119 0 -0.994138 
vn 0.21497 0 -0.976621 
vn -0.998533 0 0.0541389 
vn -1 0 1.83697e-16 
vn -0.994138 0 0.108119 
vn -0.986827 0 0.161782 
vn -0.976621 0 0.21497 
vn -0.96355 0 0.267528 
vn -0.947653 0 0.319302 
vn -0.928977 0 0.370138 
vn -0.907575 0 0.419889 
vn -0.883512 0 0.468408 
vn -0.856857 0 0.515554 
vn -0.827689 0 0.561187 
vn -0.796093 0 0.605174 
vn -0.762162 0 0.647386 
vn -0.725995 0 0.687699 
vn -0.687699 0 0.725995 
vn -0.647386 0 0.762162 
vn -0.605174 0 0.796093 
vn -0.561187 0 0.827689 
vn -0.515554 0 0.856857 
vn -0.468408 0 0.883512 
vn -0.419889 0 0.907575 
vn -0.370138 0 0.928977 
vn -0.319302 0 0.947653 
vn -0.267528 0 0.96355 
vn -0.21497 0 0.976621 
vn -0.161782 0 0.986827 
vn -0.108119 0 0.994138 
vn -0.0541389 0 0.998533 
vn 1.22465e-16 0 1 
vn 0.108119 0 0.994138 
vn 0.0541389 0 0.998533 
vn 0.21497 0 0.976621 
vn 0.108119 0 0.994138 
vn 0.161782 0 0.986827 
vn 0.319302 0 0.947653 
vn 0.21497 0 0.976621 
vn 0.267528 0 0.96355 
vn 0.419889 0 0.907575 
vn 0.319302 0 0.947653 
vn 0.370138 0 0.928977 
vn 0.515554 0 0.856857 
vn 0.419889 0 0.907575 
vn 0.468408 0 0.883512 
vn 0.605174 0 0.796093 
vn 0.515554 0 0.856857 
vn 0.561187 0 0.827689 
vn 0.687699 0 0.725995 
vn 0.605174 0 0.796093 
vn 0.647386 0 0.762162 
vn 0.687706 0 0.725989 
vn 0.707107 0 0.707107 
vn 0 0 -1 
vn -0.0541389 -0.998533 0 
vn -0.161782 -0.986827 0 
vn -0.267528 -0.96355 0 
vn -0.370138 -0.928977 0 
vn -0.468408 -0.883512 0 
vn -0.561187 -0.827689 0 
vn -0.647386 -0.762162 0 
vn -0.725995 -0.687699 0 
vn -0.796093 -0.605174 0 
vn -0.856857 -0.515554 0 
vn -0.907575 -0.419889 0 
vn -0.947653 -0.319302 0 
vn -0.976621 -0.21497 0 
vn -0.994138 -0.108119 0 
vn -1 0 0 
vn 1.83697e-16 -1 0 
vn 0.0541389 -0.998533 0 
vn 0.161782 -0.986827 0 
vn 0.267528 -0.96355 0 
vn 0.370138 -0.928977 0 
vn 0.468408 -0.883512 0 
vn 0.561187 -0.827689 0 
vn 0.647386 -0.762162 0 
vn 0.725995 -0.687699 0 
vn 0.796093 -0.605174 0 
vn 0.827689 -0.561187 0 
vn 0.856857 -0.515554 0 
vn 0.883512 -0.468408 0 
vn 0.907575 -0.419889 0 
vn 0.928977 -0.370138 0 
vn 0.947653 -0.319302 0 
vn 0.96355 -0.267528 0 
vn 0.976621 -0.21497 0 
vn 0.986827 -0.161782 0 
vn 0.994138 -0.108119 0 
vn 0.998533 -0.0541389 0 
vn 1 1.22465e-16 0 
vn 0.994138 0.108119 0 
vn 0.998533 0.0541389 0 
vn 0.976621 0.21497 0 
vn 0.994138 0.108119 0 
vn 0.986827 0.161782 0 
vn 0.947653 0.319302 0 
vn 0.976621 0.21497 0 
vn 0.96355 0.267528 0 
vn 0.907575 0.419889 0 
vn 0.947653 0.319302 0 
vn 0.928977 0.370138 0 
vn 0.856857 0.515554 0 
vn 0.907575 0.419889 0 
vn 0.883512 0.468408 0 
vn 0.796093 0.605174 0 
vn 0.856857 0.515554 0 
vn 0.827689 0.561187 0 
vn 0.725995 0.687699 0 
vn 0.796093 0.605174 0 
vn 0.687706 0.725989 0 
vn 0.647386 0.762162 0 
vn 0.725995 0.687699 0 
vn 0.707107 0.707107 0 
vn 0.647386 0.762162 0 
vn 0.605174 0.796093 0 
vn 0.561187 0.827689 0 
vn 0.515554 0.856857 0 
vn 0.468408 0.883512 0 
vn 0.419889 0.907575 0 
vn 0.370138 0.928977 0 
vn 0.319302 0.947653 0 
vn 0.267528 0.96355 0 
vn 0.21497 0.976621 0 
vn 0.161782 0.986827 0 
vn 0.108119 0.994138 0 
vn 0.0541389 0.998533 0 
vn 1.60812e-16 1 0 
vn -0.0541389 0.998533 0 
vn -0.161782 0.986827 0 
vn -0.108119 0.994138 0 
vn -0.267528 0.96355 0 
vn -0.161782 0.986827 0 
vn -0.21497 0.976621 0 
vn -0.370138 0.928977 0 
vn -0.267528 0.96355 0 
vn -0.319302 0.947653 0 
vn -0.468408 0.883512 0 
vn -0.370138 0.928977 0 
vn -0.419889 0.907575 0 
vn -0.561187 0.827689 0 
vn -0.468408 0.883512 0 
vn -0.515554 0.856857 0 
vn -0.647386 0.762162 0 
vn -0.561187 0.827689 0 
vn -0.605174 0.796093 0 
vn -0.725995 0.687699 0 
vn -0.647386 0.762162 0 
vn -0.687699 0.725995 0 
vn -0.796093 0.605174 0 
vn -0.725995 0.687699 0 
vn -0.762162 0.647386 0 
vn -0.856857 0.515554 0 
vn -0.796093 0.605174 0 
vn -0.827689 0.561187 0 
vn -0.907575 0.419889 0 
vn -0.856857 0.515554 0 
vn -0.883512 0.468408 0 
vn -0.947653 0.319302 0 
vn -0.907575 0.419889 0 
vn -0.928977 0.370138 0 
vn -0.976621 0.21497 0 
vn -0.947653 0.319302 0 
vn -0.96355 0.267528 0 
vn -0.994138 0.108119 0 
vn -0.976621 0.21497 0 
vn -0.986827 0.161782 0 
vn -0.994138 0.108119 0 
vn -0.998533 0.0541389 0 
vn -1 0 0 
vn 0 0 1 
vn 0 -1 0 
vn 0 0 -1 
vn -1 0 0 
vn 0 -0.108119 -0.994138 
vn 0 -0.21497 -0.976621 
vn 0 -0.319302 -0.947653 
vn 0 -0.419889 -0.907575 
vn 0 -0.515554 -0.856857 
vn 0 -0.605174 -0.796093 
vn 0 -0.687699 -0.725995 
vn 0 -0.762162 -0.647386 
vn 0 -0.827689 -0.561187 
vn 0 -0.883512 -0.468408 
vn 0 -0.928977 -0.370138 
vn 0 -0.96355 -0.267528 
vn 0 -0.986827 -0.161782 
vn 0 -0.998533 -0.0541389 
vn 0 0.108119 -0.994138 
vn 0 0.21497 -0.976621 
vn 0 0.319302 -0.947653 
vn 0 0.419889 -0.907575 
vn 0 0.515554 -0.856857 
vn 0 0.605174 -0.796093 
vn 0 0.687699 -0.725995 
vn 0 0.762162 -0.647386 
vn 0 0.796093 -0.605174 
vn 0 0.827689 -0.561187 
vn 0 0.856857 -0.515554 
vn 0 0.883512 -0.468408 
vn 0 0.907575 -0.419889 
vn 0 0.928977 -0.370138 
vn 0 0.947653 -0.319302 
vn 0 0.96355 -0.267528 
vn 0 0.976621 -0.21497 
vn 0 0.986827 -0.161782 
vn 0 0.994138 -0.108119 
vn 0 0.998533 -0.0541389 
vn 0 1 -1.60812e-16 
vn 0 0.998533 0.0541389 
vn 0 0.986827 0.161782 
vn 0 0.994138 0.108119 
vn 0 0.96355 0.267528 
vn 0 0.986827 0.161782 
vn 0 0.976621 0.21497 
vn 0 0.928977 0.370138 
vn 0 0.96355 0.267528 
vn 0 0.947653 0.319302 
vn 0 0.883512 0.468408 
vn 0 0.928977 0.370138 
vn 0 0.907575 0.419889 
vn 0 0.827689 0.561187 
vn 0 0.883512 0.468408 
vn 0 0.856857 0.515554 
vn 0 0.762162 0.647386 
vn 0 0.827689 0.561187 
vn 0 0.796093 0.605174 
vn 0 0.687699 0.725995 
vn 0 0.762162 0.647386 
vn 0 0.707107 0.707107 
vn 0 0.687699 0.725995 
vn 0 0.605174 0.796093 
vn 0 0.561187 0.827689 
vn 0 0.515554 0.856857 
vn 0 0.468408 0.883512 
vn 0 0.419889 0.907575 
vn 0 0.370138 0.928977 
vn 0 0.319302 0.947653 
vn 0 0.267528 0.96355 
vn 0 0.21497 0.976621 
vn 0 0.161782 0.986827 
vn 0 0.108119 0.994138 
vn 0 0.0541389 0.998533 
vn 0 0 1 
vn 0 -0.108119 0.994138 
vn 0 -0.0541389 0.998533 
vn 0 -0.21497 0.976621 
vn 0 -0.108119 0.994138 
vn 0 -0.161782 0.986827 
vn 0 -0.319302 0.947653 
vn 0 -0.21497 0.976621 
vn 0 -0.267528 0.96355 
vn 0 -0.419889 0.907575 
vn 0 -0.319302 0.947653 
vn 0 -0.370138 0.928977 
vn 0 -0.515554 0.856857 
vn 0 -0.419889 0.907575 
vn 0 -0.468408 0.883512 
vn 0 -0.605174 0.796093 
vn 0 -0.515554 0.856857 
vn 0 -0.561187 0.827689 
vn 0 -0.687699 0.725995 
vn 0 -0.605174 0.796093 
vn 0 -0.762162 0.647386 
vn 0 -0.687699 0.725995 
vn 0 -0.827689 0.561187 
vn 0 -0.762162 0.647386 
vn 0 -0.883512 0.468408 
vn 0 -0.827689 0.561187 
vn 0 -0.928977 0.370138 
vn 0 -0.883512 0.468408 
vn 0 -0.96355 0.267528 
vn 0 -0.928977 0.370138 
vn 0 -0.986827 0.161782 
vn 0 -0.96355 0.267528 
vn 0 -0.998533 0.0541389 
vn 0 -0.986827 0.161782 
vn 0 -1 -1.83697e-16 
vn 0 -0.998533 -0.0541389 
vn 1 0 0 
usemtl 1.000000_0.501961_0.835294_0.000000_0.000000
o mesh0
f 59//1 1//1 2//1 
f 2//1 3//1 59//1 
f 3//1 4//1 59//1 
f 4//1 5//1 59//1 
f 5//1 6//1 59//1 
f 6//1 7//1 59//1 
f 7//1 8//1 59//1 
f 8//1 9//1 59//1 
f 9//1 10//1 59//1 
f 10//1 11//1 59//1 
f 11//1 12//1 59//1 
f 12//1 13//1 59//1 
f 13//1 14//1 59//1 
f 14//1 15//1 59//1 
f 15//1 16//1 59//1 
f 16//1 17//1 59//1 
f 17//1 18//1 59//1 
f 18//1 19//1 59//1 
f 19//1 20//1 59//1 
f 20//1 21//1 59//1 
f 21//1 22//1 59//1 
f 22//1 23//1 59//1 
f 23//1 24//1 59//1 
f 24//1 25//1 59//1 
f 25//1 26//1 59//1 
f 26//1 27//1 59//1 
f 27//1 28//1 59//1 
f 28//1 29//1 59//1 
f 29//1 30//1 59//1 
f 30//1 31//1 59//1 
f 31//1 32//1 59//1 
f 32//1 33//1 59//1 
f 33//1 34//1 59//1 
f 34//1 35//1 59//1 
f 35//1 36//1 59//1 
f 36//1 37//1 59//1 
f 37//1 38//1 59//1 
f 38//1 39//1 59//1 
f 39//1 40//1 59//1 
f 40//1 41//1 59//1 
f 41//1 42//1 59//1 
f 42//1 43//1 59//1 
f 43//1 44//1 59//1 
f 44//1 45//1 59//1 
f 45//1 46//1 59//1 
f 46//1 47//1 59//1 
f 47//1 48//1 59//1 
f 48//1 49//1 59//1 
f 49//1 50//1 59//1 
f 50//1 51//1 59//1 
f 51//1 52//1 59//1 
f 52//1 53//1 59//1 
f 53//1 54//1 59//1 
f 54//1 55//1 59//1 
f 55//1 56//1 59//1 
f 56//1 57//1 59//1 
f 57//1 58//1 59//1 
f 58//1 1//1 59//1 
o mesh1
f 60//2 14//2 13//3 
f 61//3 13//3 12//4 
f 62//4 12//4 11//5 
f 63//5 11//5 10//6 
f 64//6 10//6 9//7 
f 65//7 9//7 8//8 
f 66//8 8//8 7//9 
f 67//9 7//9 6//10 
f 68//10 6//10 5//11 
f 69//11 5//11 4//12 
f 70//12 4//12 3//13 
f 71//13 3//13 2//14 
f 72//14 2//14 1//15 
f 73//15 1//15 58//16 
f 37//17 74//17 75//18 
f 75//18 38//19 37//17 
f 75//18 76//19 38//19 
f 38//19 76//19 77//20 
f 77//20 39//21 38//19 
f 77//20 78//21 39//21 
f 39//21 78//21 79//22 
f 79//22 40//23 39//21 
f 79//22 80//23 40//23 
f 40//23 80//23 81//24 
f 81//24 41//25 40//23 
f 81//24 82//25 41//25 
f 41//25 82//25 83//26 
f 83//26 42//27 41//25 
f 83//26 84//27 42//27 
f 42//27 84//27 85//28 
f 85//28 43//29 42//27 
f 85//28 86//29 43//29 
f 43//29 86//29 87//30 
f 87//30 44//31 43//29 
f 87//30 88//31 44//31 
f 45//32 44//31 88//31 
f 88//31 89//33 45//32 
f 46//34 45//32 90//35 
f 90//35 91//36 46//34 
f 47//37 46//34 92//38 
f 92//38 93//39 47//37 
f 48//40 47//37 94//41 
f 94//41 95//42 48//40 
f 49//43 48//40 96//44 
f 96//44 97//45 49//43 
f 50//46 49//43 98//47 
f 98//47 99//48 50//46 
f 51//49 50//46 100//50 
f 52//51 51//49 101//52 
f 53//53 52//51 102//54 
f 54//55 53//53 103//56 
f 55//57 54//55 104//58 
f 56//59 55//57 105//60 
f 57//61 56//59 106//62 
f 58//16 57//61 107//61 
f 14//2 60//2 108//63 
f 60//2 109//64 108//63 
f 15//63 108//63 110//65 
f 110//65 16//66 15//63 
f 110//65 111//66 16//66 
f 16//66 111//66 112//67 
f 112//67 17//68 16//66 
f 112//67 113//68 17//68 
f 17//68 113//68 114//69 
f 114//69 18//70 17//68 
f 114//69 115//70 18//70 
f 18//70 115//70 116//71 
f 116//71 19//72 18//70 
f 116//71 117//72 19//72 
f 19//72 117//72 118//73 
f 118//73 20//74 19//72 
f 118//73 119//74 20//74 
f 20//74 119//74 120//75 
f 120//75 21//76 20//74 
f 120//75 121//76 21//76 
f 21//76 121//76 122//77 
f 122//77 22//78 21//76 
f 122//77 123//78 22//78 
f 22//78 123//78 124//79 
f 124//79 23//80 22//78 
f 124//79 125//80 23//80 
f 23//80 125//80 126//81 
f 126//81 24//82 23//80 
f 126//81 127//82 24//82 
f 24//82 127//82 128//83 
f 128//83 25//84 24//82 
f 128//83 129//84 25//84 
f 25//84 129//84 130//85 
f 130//85 26//86 25//84 
f 130//85 131//86 26//86 
f 26//86 131//86 132//87 
f 132//87 27//88 26//86 
f 132//87 133//88 27//88 
f 27//88 133//88 134//89 
f 134//89 28//90 27//88 
f 134//89 135//90 28//90 
f 28//90 135//90 136//91 
f 136//91 29//92 28//90 
f 136//91 137//92 29//92 
f 30//93 29//92 137//92 
f 137//92 138//94 30//93 
f 31//95 30//93 139//96 
f 139//96 140//97 31//95 
f 32//98 31//95 141//99 
f 141//99 142//100 32//98 
f 33//101 32//98 143//102 
f 143//102 144//103 33//101 
f 34//104 33//101 145//105 
f 145//105 146//106 34//104 
f 35//107 34//104 147//108 
f 147//108 148//109 35//107 
f 36//110 35//107 149//111 
f 149//111 150//112 36//110 
f 36//110 151//113 74//17 
f 74//17 37//17 36//110 
f 151//113 152//114 74//17 
f 150//112 151//113 36//110 
f 148//109 149//111 35//107 
f 146//106 147//108 34//104 
f 144//103 145//105 33//101 
f 142//100 143//102 32//98 
f 140//97 141//99 31//95 
f 138//94 139//96 30//93 
f 108//63 15//63 14//2 
f 107//61 153//115 58//16 
f 106//62 107//61 57//61 
f 105//60 106//62 56//59 
f 104//58 105//60 55//57 
f 103//56 104//58 54//55 
f 102//54 103//56 53//53 
f 101//52 102//54 52//51 
f 100//50 101//52 51//49 
f 99//48 100//50 50//46 
f 97//45 98//47 49//43 
f 95//42 96//44 48//40 
f 93//39 94//41 47//37 
f 91//36 92//38 46//34 
f 89//33 90//35 45//32 
f 58//16 153//115 73//15 
f 1//15 73//15 72//14 
f 2//14 72//14 71//13 
f 3//13 71//13 70//12 
f 4//12 70//12 69//11 
f 5//11 69//11 68//10 
f 6//10 68//10 67//9 
f 7//9 67//9 66//8 
f 8//8 66//8 65//7 
f 9//7 65//7 64//6 
f 10//6 64//6 63//5 
f 11//5 63//5 62//4 
f 12//4 62//4 61//3 
f 13//3 61//3 60//2 
o mesh2
f 154//116 155//116 156//117 
f 157//117 156//117 158//118 
f 159//118 158//118 160//119 
f 161//119 160//119 162//120 
f 163//120 162//120 164//121 
f 165//121 164//121 166//122 
f 167//122 166//122 168//123 
f 169//123 168//123 170//124 
f 171//124 170//124 172//125 
f 173//125 172//125 174//126 
f 175//126 174//126 176//127 
f 177//127 176//127 178//128 
f 179//128 178//128 180//129 
f 181//129 180//129 182//130 
f 155//116 183//131 184//132 
f 155//116 154//116 183//131 
f 185//132 184//132 186//133 
f 187//133 186//133 188//134 
f 189//134 188//134 190//135 
f 191//135 190//135 192//136 
f 193//136 192//136 194//137 
f 195//137 194//137 196//138 
f 197//138 196//138 198//139 
f 199//139 198//139 200//140 
f 201//140 200//140 202//141 
f 202//141 203//142 201//140 
f 202//141 204//142 203//142 
f 203//142 204//142 205//143 
f 205//143 206//144 203//142 
f 205//143 207//144 206//144 
f 206//144 207//144 208//145 
f 208//145 209//146 206//144 
f 208//145 210//146 209//146 
f 209//146 210//146 211//147 
f 211//147 212//148 209//146 
f 211//147 213//148 212//148 
f 212//148 213//148 214//149 
f 214//149 215//150 212//148 
f 214//149 216//150 215//150 
f 215//150 216//150 217//151 
f 217//151 218//152 215//150 
f 217//151 219//152 218//152 
f 220//153 218//152 219//152 
f 219//152 221//154 220//153 
f 222//155 220//153 223//156 
f 223//156 224//157 222//155 
f 225//158 222//155 226//159 
f 226//159 227//160 225//158 
f 228//161 225//158 229//162 
f 229//162 230//163 228//161 
f 231//164 228//161 232//165 
f 232//165 233//166 231//164 
f 234//167 231//164 235//168 
f 235//168 236//169 234//167 
f 237//170 234//167 238//171 
f 237//170 151//172 150//173 
f 237//170 239//174 151//172 
f 239//174 152//175 151//172 
f 150//173 240//176 237//170 
f 240//176 150//173 149//177 
f 149//177 241//178 240//176 
f 149//177 148//178 241//178 
f 241//178 148//178 147//179 
f 147//179 242//180 241//178 
f 147//179 146//180 242//180 
f 242//180 146//180 145//181 
f 145//181 243//182 242//180 
f 145//181 144//182 243//182 
f 243//182 144//182 143//183 
f 143//183 244//184 243//182 
f 143//183 142//184 244//184 
f 244//184 142//184 141//185 
f 141//185 245//186 244//184 
f 141//185 140//186 245//186 
f 245//186 140//186 139//187 
f 139//187 246//188 245//186 
f 139//187 138//188 246//188 
f 246//188 138//188 137//189 
f 137//189 247//190 246//188 
f 137//189 136//190 247//190 
f 248//191 247//190 136//190 
f 136//190 135//192 248//191 
f 249//193 248//191 134//194 
f 134//194 133//195 249//193 
f 250//196 249//193 132//197 
f 132//197 131//198 250//196 
f 251//199 250//196 130//200 
f 130//200 129//201 251//199 
f 252//202 251//199 128//203 
f 128//203 127//204 252//202 
f 253//205 252//202 126//206 
f 126//206 125//207 253//205 
f 254//208 253//205 124//209 
f 124//209 123//210 254//208 
f 255//211 254//208 122//212 
f 122//212 121//213 255//211 
f 256//214 255//211 120//215 
f 120//215 119//216 256//214 
f 257//217 256//214 118//218 
f 118//218 117//219 257//217 
f 258//220 257//217 116//221 
f 116//221 115//222 258//220 
f 259//223 258//220 114//224 
f 114//224 113//225 259//223 
f 260//226 259//223 112//227 
f 112//227 111//228 260//226 
f 182//130 260//226 110//229 
f 110//229 108//230 182//130 
f 108//230 109//231 182//130 
f 111//228 110//229 260//226 
f 113//225 112//227 259//223 
f 115//222 114//224 258//220 
f 117//219 116//221 257//217 
f 119//216 118//218 256//214 
f 121//213 120//215 255//211 
f 123//210 122//212 254//208 
f 125//207 124//209 253//205 
f 127//204 126//206 252//202 
f 129//201 128//203 251//199 
f 131//198 130//200 250//196 
f 133//195 132//197 249//193 
f 135//192 134//194 248//191 
f 238//171 239//174 237//170 
f 236//169 238//171 234//167 
f 233//166 235//168 231//164 
f 230//163 232//165 228//161 
f 227//160 229//162 225//158 
f 224//157 226//159 222//155 
f 221//154 223//156 220//153 
f 200//140 201//140 199//139 
f 198//139 199//139 197//138 
f 196//138 197//138 195//137 
f 194//137 195//137 193//136 
f 192//136 193//136 191//135 
f 190//135 191//135 189//134 
f 188//134 189//134 187//133 
f 186//133 187//133 185//132 
f 184//132 185//132 155//116 
f 182//130 109//231 181//129 
f 180//129 181//129 179//128 
f 178//128 179//128 177//127 
f 176//127 177//127 175//126 
f 174//126 175//126 173//125 
f 172//125 173//125 171//124 
f 170//124 171//124 169//123 
f 168//123 169//123 167//122 
f 166//122 167//122 165//121 
f 164//121 165//121 163//120 
f 162//120 163//120 161//119 
f 160//119 161//119 159//118 
f 158//118 159//118 157//117 
f 156//117 157//117 154//116 
o mesh3
f 261//232 220//232 222//232 
f 222//232 225//232 261//232 
f 225//232 228//232 261//232 
f 228//232 231//232 261//232 
f 231//232 234//232 261//232 
f 234//232 237//232 261//232 
f 237//232 240//232 261//232 
f 240//232 241//232 261//232 
f 241//232 242//232 261//232 
f 242//232 243//232 261//232 
f 243//232 244//232 261//232 
f 244//232 245//232 261//232 
f 245//232 246//232 261//232 
f 246//232 247//232 261//232 
f 247//232 248//232 261//232 
f 248//232 249//232 261//232 
f 249//232 250//232 261//232 
f 250//232 251//232 261//232 
f 251//232 252//232 261//232 
f 252//232 253//232 261//232 
f 253//232 254//232 261//232 
f 254//232 255//232 261//232 
f 255//232 256//232 261//232 
f 256//232 257//232 261//232 
f 257//232 258//232 261//232 
f 258//232 259//232 261//232 
f 259//232 260//232 261//232 
f 260//232 182//232 261//232 
f 182//232 180//232 261//232 
f 180//232 178//232 261//232 
f 178//232 176//232 261//232 
f 176//232 174//232 261//232 
f 174//232 172//232 261//232 
f 172//232 170//232 261//232 
f 170//232 168//232 261//232 
f 168//232 166//232 261//232 
f 166//232 164//232 261//232 
f 164//232 162//232 261//232 
f 162//232 160//232 261//232 
f 160//232 158//232 261//232 
f 158//232 156//232 261//232 
f 156//232 155//232 261//232 
f 155//232 185//232 261//232 
f 185//232 187//232 261//232 
f 187//232 189//232 261//232 
f 189//232 191//232 261//232 
f 191//232 193//232 261//232 
f 193//232 195//232 261//232 
f 195//232 197//232 261//232 
f 197//232 199//232 261//232 
f 199//232 201//232 261//232 
f 201//232 203//232 261//232 
f 203//232 206//232 261//232 
f 206//232 209//232 261//232 
f 209//232 212//232 261//232 
f 212//232 215//232 261//232 
f 215//232 218//232 261//232 
f 218//232 220//232 261//232 
o mesh4
f 262//233 63//233 64//233 
f 262//233 68//233 69//233 
f 64//233 65//233 262//233 
f 262//233 71//233 72//233 
f 69//233 70//233 262//233 
f 262//233 66//233 67//233 
f 262//233 62//233 63//233 
f 72//233 73//233 262//233 
f 67//233 68//233 262//233 
f 262//233 61//233 62//233 
f 70//233 71//233 262//233 
f 262//233 60//233 61//233 
f 65//233 66//233 262//233 
f 262//233 109//233 60//233 
f 73//233 153//233 262//233 
o mesh5
f 262//234 161//234 163//234 
f 262//234 171//234 173//234 
f 163//234 165//234 262//234 
f 262//234 169//234 171//234 
f 262//234 159//234 161//234 
f 262//234 167//234 169//234 
f 262//234 157//234 159//234 
f 262//234 177//234 179//234 
f 173//234 175//234 262//234 
f 262//234 154//234 157//234 
f 179//234 181//234 262//234 
f 165//234 167//234 262//234 
f 175//234 177//234 262//234 
f 262//234 183//234 154//234 
f 181//234 109//234 262//234 
o mesh6
f 262//235 263//235 264//235 
f 264//235 265//235 262//235 
f 262//235 266//235 263//235 
f 262//235 267//235 266//235 
f 262//235 268//235 267//235 
f 262//235 269//235 270//235 
f 262//235 271//235 272//235 
f 262//235 273//235 274//235 
f 270//235 268//235 262//235 
f 262//235 153//235 275//235 
f 274//235 271//235 262//235 
f 275//235 269//235 262//235 
f 265//235 273//235 262//235 
f 272//235 276//235 262//235 
f 276//235 183//235 262//235 
o mesh7
f 153//234 277//234 278//236 
f 275//236 278//236 279//237 
f 269//237 279//237 280//238 
f 270//238 280//238 281//239 
f 268//239 281//239 282//240 
f 267//240 282//240 283//241 
f 266//241 283//241 284//242 
f 263//242 284//242 285//243 
f 264//243 285//243 286//244 
f 265//244 286//244 287//245 
f 273//245 287//245 288//246 
f 274//246 288//246 289//247 
f 271//247 289//247 290//248 
f 272//248 290//248 291//249 
f 277//234 153//234 107//250 
f 292//250 107//250 106//251 
f 293//251 106//251 105//252 
f 294//252 105//252 104//253 
f 295//253 104//253 103//254 
f 296//254 103//254 102//255 
f 297//255 102//255 101//256 
f 298//256 101//256 100//257 
f 299//257 100//257 99//258 
f 99//258 300//259 299//257 
f 99//258 98//259 300//259 
f 300//259 98//259 97//260 
f 97//260 301//261 300//259 
f 97//260 96//261 301//261 
f 301//261 96//261 95//262 
f 95//262 302//263 301//261 
f 95//262 94//263 302//263 
f 302//263 94//263 93//264 
f 93//264 303//265 302//263 
f 93//264 92//265 303//265 
f 303//265 92//265 91//266 
f 91//266 304//267 303//265 
f 91//266 90//267 304//267 
f 304//267 90//267 89//268 
f 89//268 305//269 304//267 
f 89//268 88//269 305//269 
f 305//269 88//269 87//270 
f 87//270 306//271 305//269 
f 87//270 86//271 306//271 
f 307//272 306//271 86//271 
f 86//271 85//273 307//272 
f 308//274 307//272 84//275 
f 84//275 83//276 308//274 
f 309//277 308//274 82//278 
f 82//278 81//279 309//277 
f 310//280 309//277 80//281 
f 80//281 79//282 310//280 
f 311//283 310//280 78//284 
f 78//284 77//285 311//283 
f 312//286 311//283 76//287 
f 76//287 75//288 312//286 
f 313//289 312//286 74//290 
f 74//290 152//291 239//292 
f 313//289 239//292 238//293 
f 314//293 238//293 236//294 
f 236//294 315//295 314//293 
f 236//294 235//295 315//295 
f 315//295 235//295 233//296 
f 233//296 316//297 315//295 
f 233//296 232//297 316//297 
f 316//297 232//297 230//298 
f 230//298 317//299 316//297 
f 230//298 229//299 317//299 
f 317//299 229//299 227//300 
f 227//300 318//301 317//299 
f 227//300 226//301 318//301 
f 318//301 226//301 224//302 
f 224//302 319//303 318//301 
f 224//302 223//303 319//303 
f 319//303 223//303 221//304 
f 221//304 320//305 319//303 
f 221//304 219//305 320//305 
f 321//306 320//305 219//305 
f 219//305 217//307 321//306 
f 322//308 321//306 216//309 
f 216//309 214//310 322//308 
f 323//311 322//308 213//312 
f 213//312 211//313 323//311 
f 324//314 323//311 210//315 
f 210//315 208//316 324//314 
f 325//317 324//314 207//318 
f 207//318 205//319 325//317 
f 326//320 325//317 204//321 
f 204//321 202//322 326//320 
f 327//323 326//320 200//324 
f 328//325 327//323 198//326 
f 329//327 328//325 196//328 
f 330//329 329//327 194//330 
f 331//331 330//329 192//332 
f 332//333 331//331 190//334 
f 333//335 332//333 188//336 
f 334//337 333//335 186//338 
f 291//249 334//337 184//337 
f 184//337 183//339 291//249 
f 183//339 276//340 291//249 
f 186//338 184//337 334//337 
f 188//336 186//338 333//335 
f 190//334 188//336 332//333 
f 192//332 190//334 331//331 
f 194//330 192//332 330//329 
f 196//328 194//330 329//327 
f 198//326 196//328 328//325 
f 200//324 198//326 327//323 
f 202//322 200//324 326//320 
f 205//319 204//321 325//317 
f 208//316 207//318 324//314 
f 211//313 210//315 323//311 
f 214//310 213//312 322//308 
f 217//307 216//309 321//306 
f 238//293 314//293 313//289 
f 74//290 239//292 313//289 
f 75//288 74//290 312//286 
f 77//285 76//287 311//283 
f 79//282 78//284 310//280 
f 81//279 80//281 309//277 
f 83//276 82//278 308//274 
f 85//273 84//275 307//272 
f 100//257 299//257 298//256 
f 101//256 298//256 297//255 
f 102//255 297//255 296//254 
f 103//254 296//254 295//253 
f 104//253 295//253 294//252 
f 105//252 294//252 293//251 
f 106//251 293//251 292//250 
f 107//250 292//250 277//234 
f 291//249 276//340 272//248 
f 290//248 272//248 271//247 
f 289//247 271//247 274//246 
f 288//246 274//246 273//245 
f 287//245 273//245 265//244 
f 286//244 265//244 264//243 
f 285//243 264//243 263//242 
f 284//242 263//242 266//241 
f 283//241 266//241 267//240 
f 282//240 267//240 268//239 
f 281//239 268//239 270//238 
f 280//238 270//238 269//237 
f 279//237 269//237 275//236 
f 278//236 275//236 153//234 
o mesh8
f 335//341 292//341 293//341 
f 293//341 294//341 335//341 
f 294//341 295//341 335//341 
f 295//341 296//341 335//341 
f 296//341 297//341 335//341 
f 297//341 298//341 335//341 
f 298//341 299//341 335//341 
f 299//341 300//341 335//341 
f 300//341 301//341 335//341 
f 301//341 302//341 335//341 
f 302//341 303//341 335//341 
f 303//341 304//341 335//341 
f 304//341 305//341 335//341 
f 305//341 306//341 335//341 
f 306//341 307//341 335//341 
f 307//341 308//341 335//341 
f 308//341 309//341 335//341 
f 309//341 310//341 335//341 
f 310//341 311//341 335//341 
f 311//341 312//341 335//341 
f 312//341 313//341 335//341 
f 313//341 314//341 335//341 
f 314//341 315//341 335//341 
f 315//341 316//341 335//341 
f 316//341 317//341 335//341 
f 317//341 318//341 335//341 
f 318//341 319//341 335//341 
f 319//341 320//341 335//341 
f 320//341 321//341 335//341 
f 321//341 322//341 335//341 
f 322//341 323//341 335//341 
f 323//341 324//341 335//341 
f 324//341 325//341 335//341 
f 325//341 326//341 335//341 
f 326//341 327//341 335//341 
f 327//341 328//341 335//341 
f 328//341 329//341 335//341 
f 329//341 330//341 335//341 
f 330//341 331//341 335//341 
f 331//341 332//341 335//341 
f 332//341 333//341 335//341 
f 333//341 334//341 335//341 
f 334//341 291//341 335//341 
f 291//341 290//341 335//341 
f 290//341 289//341 335//341 
f 289//341 288//341 335//341 
f 288//341 287//341 335//341 
f 287//341 286//341 335//341 
f 286//341 285//341 335//341 
f 285//341 284//341 335//341 
f 284//341 283//341 335//341 
f 283//341 282//341 335//341 
f 282//341 281//341 335//341 
f 281//341 280//341 335//341 
f 280//341 279//341 335//341 
f 279//341 278//341 335//341 
f 278//341 277//341 335//341 
f 277//341 292//341 335//341 
