v -0.34511194 -0.15149286 0.421029
v -0.32583877 -0.31094387 0.3724176
v -0.34563205 -0.15149286 0.417975
v -0.32233322 -0.11732478 0.5696937
v -0.34511194 -0.15149286 0.421029
v -0.32583877 -0.31094387 0.3724176
v -0.32233322 -0.11732478 0.5696937
v -0.34511194 -0.15149286 0.421029
v -0.34563205 -0.15149286 0.417975
v -0.19377491 0.19018787 0.5546473
v -0.31094387 0.20157723 0.4459055
v 0.04212622 0.40486115 0.08768365
v -0.19377491 0.19018787 0.5546473
v -0.31094387 0.20157723 0.4459055
v -0.19705029 0.18430498 0.56603664
v 0.30408144 -0.3736626 0.11046237
v 0.3382495 -0.34084392 0.07629429
v 0.2357453 -0.26538643 -0.05081671
v -0.09454607 -0.44326812 0.39519632
v -0.03759928 -0.42483744 0.4453911
v -0.02620993 -0.43572786 0.44075373
v -0.09454607 -0.44326812 0.39519632
v -0.03759928 -0.42483744 0.4453911
v -0.2995545 -0.18348093 0.5318686
v -0.34538105 -0.15149286 0.40658566
v -0.34444728 0.14463043 0.42936438
v -0.34563205 -0.15149286 0.417975
v -0.34538105 -0.15149286 0.40658566
v -0.33212835 -0.2767758 0.2357453
v -0.34444728 0.14463043 0.42936438
v -0.3337226 0.08768365 0.5268932
v -0.34444728 0.14463043 0.42936438
v -0.34563205 -0.15149286 0.417975
v -0.3337226 0.08768365 0.5268932
v -0.32233322 -0.11732478 0.5696937
v -0.34563205 -0.15149286 0.417975
v 0.40869302 0.32686016 0.42936438
v 0.40933368 0.3382495 0.40658566
v 0.49171215 0.14463043 0.30408144
v 0.0193475 0.40200454 0.04212622
v -0.00090025 0.39519632 0.03073686
v 0.04212622 0.40486115 0.08768365
v 0.00795815 0.38738993 -0.01482057
v -0.00090025 0.39519632 0.03073686
v 0.00795815 0.38380694 -0.02442148
v 0.04212622 0.4075196 0.0193475
v 0.14463043 0.4027718 0.08768365
v 0.04212622 0.4071219 -0.01482057
v 0.04212622 0.4075196 0.0193475
v 0.14463043 0.4027718 0.08768365
v 0.04212622 0.40486115 0.08768365
v 0.04212622 0.4075196 0.0193475
v 0.0193475 0.40200454 0.04212622
v 0.04212622 0.4071219 -0.01482057
v 0.04212622 0.4075196 0.0193475
v 0.0193475 0.40200454 0.04212622
v 0.04212622 0.40486115 0.08768365
v 0.258524 0.3883314 0.2357453
v 0.14463043 0.4027718 0.08768365
v 0.04212622 0.40486115 0.08768365
v 0.38380694 0.3382495 0.42799607
v -0.19705029 0.18430498 0.56603664
v 0.39519632 0.3458676 0.417975
v 0.38380694 0.3382495 0.42799607
v 0.09907301 0.08253606 0.72548765
v -0.19705029 0.18430498 0.56603664
v 0.11046237 0.07629429 0.72746676
v 0.09907301 0.08253606 0.72548765
v 0.09907301 0.05351558 0.7452713
v 0.11046237 0.07629429 0.72746676
v 0.09907301 0.08253606 0.72548765
v 0.40658566 0.2855051 0.4749218
v -0.32233322 0.19018787 0.46224502
v -0.31094387 0.20157723 0.4459055
v -0.19705029 0.18430498 0.56603664
v -0.31094387 0.2083314 0.417975
v -0.00090025 0.39519632 0.03073686
v 0.04212622 0.40486115 0.08768365
v 0.38380694 0.34424996 0.417975
v -0.19705029 0.18430498 0.56603664
v 0.39519632 0.3458676 0.417975
v 0.38380694 0.34424996 0.417975
v -0.19377491 0.19018787 0.5546473
v 0.04212622 0.40486115 0.08768365
v 0.38380694 0.34424996 0.417975
v 0.258524 0.3883314 0.2357453
v 0.39519632 0.3458676 0.417975
v 0.38380694 0.34424996 0.417975
v 0.258524 0.3883314 0.2357453
v 0.04212622 0.40486115 0.08768365
v -0.1401035 -0.28816515 -0.00462435
v -0.2767758 -0.32829696 0.13324107
v -0.2493499 -0.2995545 0.08768365
v 0.36648405 -0.36789066 0.21296658
v 0.44075373 -0.2909534 0.11046237
v 0.47920167 -0.24260773 0.13324107
v 0.36102822 -0.32233322 0.06321771
v 0.3382495 -0.34084392 0.07629429
v 0.2357453 -0.26538643 -0.05081671
v 0.12185172 0.07314517 0.72548765
v 0.11046237 0.07629429 0.72746676
v 0.09907301 0.05351558 0.7452713
v 0.12185172 0.07314517 0.72548765
v 0.11046237 0.07629429 0.72746676
v 0.40658566 0.2855051 0.4749218
v 0.39519632 0.258524 0.4946827
v 0.12185172 0.07314517 0.72548765
v 0.40658566 0.2855051 0.4749218
v 0.42936438 -0.28816515 0.05069179
v 0.42936438 -0.26889157 0.03073686
v 0.4335218 -0.28816515 0.05351558
v 0.42936438 -0.28816515 0.05069179
v 0.42936438 -0.26889157 0.03073686
v 0.2357453 -0.26538643 -0.05081671
v 0.42936438 -0.28816515 0.05069179
v 0.36102822 -0.32233322 0.06321771
v 0.2357453 -0.26538643 -0.05081671
v 0.42936438 -0.28816515 0.05069179
v 0.36102822 -0.32233322 0.06321771
v 0.3382495 -0.34084392 0.07629429
v 0.24025545 -0.26538643 -0.04898864
v 0.42936438 -0.26889157 0.03073686
v 0.2357453 -0.26538643 -0.05081671
v 0.24025545 -0.26538643 -0.04898864
v 0.42936438 -0.26889157 0.03073686
v 0.42936438 -0.26538643 0.02831661
v 0.44022125 -0.2767758 0.05351558
v 0.46666306 -0.2539971 0.07629429
v 0.4335218 -0.28816515 0.05351558
v -0.31094387 -0.31094387 0.400452
v -0.09454607 -0.44326812 0.39519632
v -0.2995545 -0.18348093 0.5318686
v -0.31094387 -0.31094387 0.400452
v -0.31800804 -0.1401035 0.5546473
v -0.2995545 -0.18348093 0.5318686
v -0.31094387 -0.31094387 0.400452
v -0.32233322 -0.11732478 0.5696937
v -0.32583877 -0.31094387 0.3724176
v -0.31094387 -0.31094387 0.400452
v -0.31800804 -0.1401035 0.5546473
v -0.32233322 -0.11732478 0.5696937
v -0.00343121 -0.48178422 0.38129824
v -0.09454607 -0.44326812 0.39519632
v -0.00343121 -0.48534045 0.3724176
v -0.00343121 -0.48178422 0.38129824
v -0.09454607 -0.44326812 0.39519632
v -0.02620993 -0.43572786 0.44075373
v -0.33537048 -0.2767758 0.2926921
v -0.32583877 -0.31094387 0.3724176
v -0.34563205 -0.15149286 0.417975
v -0.33537048 -0.2767758 0.2926921
v -0.34538105 -0.15149286 0.40658566
v -0.34563205 -0.15149286 0.417975
v -0.3282847 -0.31094387 0.21296658
v -0.33018345 -0.31094387 0.2357453
v -0.33212835 -0.2767758 0.2357453
v -0.32899338 -0.31094387 0.2926921
v -0.32233322 -0.33834574 0.2357453
v -0.32583877 -0.31094387 0.3724176
v -0.32899338 -0.31094387 0.2926921
v -0.33018345 -0.31094387 0.2357453
v -0.32233322 -0.33834574 0.2357453
v -0.32899338 -0.31094387 0.2926921
v -0.32583877 -0.31094387 0.3724176
v -0.33085373 -0.2995545 0.30408144
v -0.3337226 0.11046237 0.51141953
v -0.3337226 0.08768365 0.5268932
v -0.34444728 0.14463043 0.42936438
v -0.2074899 0.17879851 0.56603664
v -0.32233322 0.19018787 0.46224502
v -0.19705029 0.18430498 0.56603664
v 0.06490494 0.04112763 0.736877
v -0.2995545 -0.11732478 0.58148396
v -0.03759928 -0.42483744 0.4453911
v 0.06490494 0.04112763 0.736877
v -0.03759928 -0.42483744 0.4453911
v -0.02620993 -0.43572786 0.44075373
v -0.28816515 -0.16288222 0.5563322
v -0.03759928 -0.42483744 0.4453911
v -0.2995545 -0.18348093 0.5318686
v -0.28816515 -0.16288222 0.5563322
v -0.2995545 -0.11732478 0.58148396
v -0.03759928 -0.42483744 0.4453911
v -0.28816515 -0.16288222 0.5563322
v -0.2995545 -0.11732478 0.58148396
v -0.32233322 -0.11732478 0.5696937
v -0.28816515 -0.16288222 0.5563322
v -0.31800804 -0.1401035 0.5546473
v -0.2995545 -0.18348093 0.5318686
v -0.28816515 -0.16288222 0.5563322
v -0.31800804 -0.1401035 0.5546473
v -0.32233322 -0.11732478 0.5696937
v -0.3337226 0.19400468 0.44075373
v -0.31094387 0.20157723 0.4459055
v -0.3337226 0.19018787 0.45114616
v 0.46271285 -0.11732478 0.09907301
v 0.45873556 -0.24260773 0.06490494
v 0.46666306 -0.2539971 0.07629429
v 0.40658566 0.34431002 0.40658566
v 0.40869302 0.32686016 0.42936438
v 0.40933368 0.3382495 0.40658566
v 0.4107604 0.30408144 0.4521431
v 0.40869302 0.32686016 0.42936438
v 0.49171215 0.14463043 0.30408144
v 0.00795815 0.3982686 0.03073686
v -0.00090025 0.39519632 0.03073686
v 0.04212622 0.4071219 -0.01482057
v 0.00795815 0.3982686 0.03073686
v 0.0193475 0.40200454 0.04212622
v 0.04212622 0.4071219 -0.01482057
v 0.00795815 0.3982686 0.03073686
v 0.0193475 0.40200454 0.04212622
v -0.00090025 0.39519632 0.03073686
v 0.34963888 0.36670867 0.2926921
v 0.40658566 0.34431002 0.40658566
v 0.35657683 0.36102822 0.2926921
v 0.32686016 0.38020432 0.26991338
v 0.258524 0.3883314 0.2357453
v 0.14463043 0.4027718 0.08768365
v 0.32686016 0.38020432 0.26991338
v 0.16740915 0.39340854 0.07629429
v 0.3154708 0.37522966 0.24713466
v 0.32686016 0.38020432 0.26991338
v 0.3330483 0.3724176 0.26991338
v 0.3154708 0.37522966 0.24713466
v 0.32686016 0.38020432 0.26991338
v 0.258524 0.3883314 0.2357453
v 0.39519632 0.3458676 0.417975
v 0.32686016 0.38020432 0.26991338
v 0.40658566 0.34431002 0.40658566
v 0.39519632 0.3458676 0.417975
v 0.32686016 0.38020432 0.26991338
v 0.34963888 0.36670867 0.2926921
v 0.40658566 0.34431002 0.40658566
v 0.32686016 0.38020432 0.26991338
v 0.3330483 0.3724176 0.26991338
v 0.35657683 0.36102822 0.2926921
v 0.32686016 0.38020432 0.26991338
v 0.34963888 0.36670867 0.2926921
v 0.35657683 0.36102822 0.2926921
v 0.40658566 0.31319645 0.4521431
v 0.09907301 0.08253606 0.72548765
v 0.40658566 0.2855051 0.4749218
v 0.40658566 0.31319645 0.4521431
v 0.4107604 0.30408144 0.4521431
v 0.40869302 0.32686016 0.42936438
v -0.33274776 0.19018787 0.4521431
v -0.31094387 0.20157723 0.4459055
v -0.3337226 0.19018787 0.45114616
v -0.33274776 0.19018787 0.4521431
v -0.32233322 0.19018787 0.46224502
v -0.31094387 0.20157723 0.4459055
v -0.31094387 0.20623127 0.42936438
v -0.31094387 0.20157723 0.4459055
v 0.04212622 0.40486115 0.08768365
v -0.31094387 0.20623127 0.42936438
v -0.31094387 0.2083314 0.417975
v 0.04212622 0.40486115 0.08768365
v -0.31094387 0.20623127 0.42936438
v -0.3337226 0.19400468 0.44075373
v -0.31094387 0.20157723 0.4459055
v -0.31094387 0.20623127 0.42936438
v -0.3337226 0.19400468 0.44075373
v -0.31094387 0.2083314 0.417975
v -0.18566093 0.19018787 0.5574806
v -0.19377491 0.19018787 0.5546473
v -0.19705029 0.18430498 0.56603664
v -0.18566093 0.19018787 0.5574806
v 0.38380694 0.34424996 0.417975
v -0.19705029 0.18430498 0.56603664
v -0.18566093 0.19018787 0.5574806
v 0.38380694 0.34424996 0.417975
v -0.19377491 0.19018787 0.5546473
v -0.00343121 -0.48445788 0.36102822
v 0.08768365 -0.47751614 0.3724176
v -0.00343121 -0.48534045 0.3724176
v -0.00343121 -0.48445788 0.36102822
v 0.08768365 -0.47751614 0.3724176
v 0.11046237 -0.47375244 0.36102822
v -0.02620993 -0.39066938 0.15734258
v 0.30408144 -0.3736626 0.11046237
v -0.08315671 -0.27839935 -0.04898864
v -0.23121837 -0.3337226 0.10956571
v -0.1401035 -0.28816515 -0.00462435
v -0.2767758 -0.32829696 0.13324107
v -0.23121837 -0.3337226 0.10956571
v -0.24260773 -0.3931235 0.20157723
v -0.08315671 -0.27839935 -0.04898864
v -0.23121837 -0.3337226 0.10956571
v -0.1401035 -0.28816515 -0.00462435
v -0.08315671 -0.27839935 -0.04898864
v -0.01482057 -0.22972248 -0.12871414
v 0.30408144 -0.3736626 0.11046237
v -0.08315671 -0.27839935 -0.04898864
v -0.2942794 -0.36789066 0.21296658
v -0.32233322 -0.33834574 0.2357453
v -0.32204702 -0.3337226 0.20157723
v -0.2767758 -0.32233322 0.12948161
v -0.2767758 -0.32829696 0.13324107
v -0.2493499 -0.2995545 0.08768365
v 0.44288412 -0.28816515 0.08768365
v 0.46666306 -0.2539971 0.07629429
v 0.47920167 -0.24260773 0.13324107
v 0.3724176 -0.33775797 0.08768365
v 0.30408144 -0.3736626 0.11046237
v 0.3382495 -0.34084392 0.07629429
v 0.3724176 -0.33775797 0.08768365
v 0.42936438 -0.28816515 0.05069179
v 0.3382495 -0.34084392 0.07629429
v 0.3724176 -0.33775797 0.08768365
v 0.42936438 -0.28816515 0.05069179
v 0.4335218 -0.28816515 0.05351558
v 0.36102822 -0.37406817 0.21296658
v 0.36648405 -0.36789066 0.21296658
v 0.44075373 -0.2909534 0.11046237
v 0.36102822 -0.37406817 0.21296658
v 0.44288412 -0.28816515 0.08768365
v 0.44075373 -0.2909534 0.11046237
v 0.2926921 -0.40956467 0.24713466
v 0.30408144 -0.3736626 0.11046237
v 0.11046237 -0.47375244 0.36102822
v 0.2926921 -0.40956467 0.24713466
v 0.2926921 -0.41094598 0.258524
v 0.11046237 -0.47375244 0.36102822
v 0.43383116 -0.26538643 0.03073686
v 0.45873556 -0.24260773 0.06490494
v 0.46666306 -0.2539971 0.07629429
v 0.43383116 -0.26538643 0.03073686
v 0.42936438 -0.26889157 0.03073686
v 0.42936438 -0.26538643 0.02831661
v 0.43383116 -0.26538643 0.03073686
v 0.44075373 -0.21982901 0.0478235
v 0.45873556 -0.24260773 0.06490494
v 0.43383116 -0.26538643 0.03073686
v 0.44022125 -0.2767758 0.05351558
v 0.46666306 -0.2539971 0.07629429
v 0.43383116 -0.26538643 0.03073686
v 0.44075373 -0.21982901 0.0478235
v 0.44075373 -0.1401035 0.06650639
v 0.43383116 -0.26538643 0.03073686
v 0.42936438 -0.26889157 0.03073686
v 0.4335218 -0.28816515 0.05351558
v 0.43383116 -0.26538643 0.03073686
v 0.44022125 -0.2767758 0.05351558
v 0.4335218 -0.28816515 0.05351558
v 0.32866815 -0.3337226 0.5318686
v 0.36648405 -0.36789066 0.21296658
v 0.47920167 -0.24260773 0.13324107
v 0.32866815 -0.3337226 0.5318686
v 0.47920167 -0.24260773 0.13324107
v 0.49171215 0.14463043 0.30408144
v 0.32866815 -0.3337226 0.5318686
v 0.36102822 -0.37406817 0.21296658
v 0.36648405 -0.36789066 0.21296658
v 0.38636744 0.12185172 0.56603664
v 0.39519632 0.258524 0.4946827
v 0.40658566 0.2855051 0.4749218
v 0.38636744 0.12185172 0.56603664
v 0.4118251 0.26991338 0.4749218
v 0.49171215 0.14463043 0.30408144
v 0.38636744 0.12185172 0.56603664
v 0.32866815 -0.3337226 0.5318686
v 0.49171215 0.14463043 0.30408144
v 0.38636744 0.12185172 0.56603664
v 0.32866815 -0.3337226 0.5318686
v 0.32686016 -0.3337226 0.5363014
v 0.09907301 -0.47455463 0.3724176
v 0.08768365 -0.47751614 0.3724176
v 0.11046237 -0.47375244 0.36102822
v 0.04212622 0.38544324 -0.04898864
v 0.05351558 0.3724176 -0.06404205
v 0.00795815 0.38380694 -0.02442148
v 0.05351558 -0.47444904 0.39519632
v 0.08768365 -0.47751614 0.3724176
v -0.00343121 -0.48534045 0.3724176
v 0.05351558 -0.47444904 0.39519632
v -0.00343121 -0.48178422 0.38129824
v -0.00343121 -0.48534045 0.3724176
v 0.05351558 -0.47444904 0.39519632
v -0.00343121 -0.48178422 0.38129824
v -0.02620993 -0.43572786 0.44075373
v -0.334885 -0.26538643 0.26991338
v -0.33018345 -0.31094387 0.2357453
v -0.33212835 -0.2767758 0.2357453
v -0.334885 -0.26538643 0.26991338
v -0.33537048 -0.2767758 0.2926921
v -0.33018345 -0.31094387 0.2357453
v -0.334885 -0.26538643 0.26991338
v -0.34538105 -0.15149286 0.40658566
v -0.33212835 -0.2767758 0.2357453
v -0.334885 -0.26538643 0.26991338
v -0.33537048 -0.2767758 0.2926921
v -0.34538105 -0.15149286 0.40658566
v -0.32656178 -0.32233322 0.21296658
v -0.3282847 -0.31094387 0.21296658
v -0.32204702 -0.3337226 0.20157723
v -0.32656178 -0.32233322 0.21296658
v -0.3282847 -0.31094387 0.21296658
v -0.33018345 -0.31094387 0.2357453
v -0.32656178 -0.32233322 0.21296658
v -0.32233322 -0.33834574 0.2357453
v -0.32204702 -0.3337226 0.20157723
v -0.32656178 -0.32233322 0.21296658
v -0.33018345 -0.31094387 0.2357453
v -0.32233322 -0.33834574 0.2357453
v -0.324734 -0.24260773 0.20157723
v -0.33212835 -0.2767758 0.2357453
v -0.34444728 0.14463043 0.42936438
v -0.324734 -0.24260773 0.20157723
v -0.3407132 0.14463043 0.417975
v -0.34444728 0.14463043 0.42936438
v -0.33390835 -0.28816515 0.28130272
v -0.33537048 -0.2767758 0.2926921
v -0.33018345 -0.31094387 0.2357453
v -0.33390835 -0.28816515 0.28130272
v -0.32899338 -0.31094387 0.2926921
v -0.33018345 -0.31094387 0.2357453
v -0.33390835 -0.28816515 0.28130272
v -0.32899338 -0.31094387 0.2926921
v -0.33085373 -0.2995545 0.30408144
v -0.33390835 -0.28816515 0.28130272
v -0.32583877 -0.31094387 0.3724176
v -0.33085373 -0.2995545 0.30408144
v -0.33390835 -0.28816515 0.28130272
v -0.33537048 -0.2767758 0.2926921
v -0.32583877 -0.31094387 0.3724176
v -0.32233322 0.12185172 0.5338887
v -0.3337226 0.08768365 0.5268932
v -0.32233322 -0.11732478 0.5696937
v -0.32233322 0.12185172 0.5338887
v -0.2995545 -0.11732478 0.58148396
v -0.32233322 -0.11732478 0.5696937
v -0.33779082 0.17879851 0.44075373
v -0.3337226 0.19400468 0.44075373
v -0.3337226 0.19018787 0.45114616
v -0.33779082 0.17879851 0.44075373
v -0.3337226 0.11046237 0.51141953
v -0.3337226 0.19018787 0.45114616
v -0.33779082 0.17879851 0.44075373
v -0.3337226 0.11046237 0.51141953
v -0.34444728 0.14463043 0.42936438
v -0.32411152 0.20157723 0.417975
v -0.00090025 0.39519632 0.03073686
v 0.00795815 0.38380694 -0.02442148
v 0.05351558 0.40497065 -0.01482057
v 0.14463043 0.4027718 0.08768365
v 0.04212622 0.4071219 -0.01482057
v 0.05351558 0.37748393 -0.060378
v 0.05351558 0.3724176 -0.06404205
v 0.06490494 0.3724176 -0.05301869
v 0.05351558 0.37748393 -0.060378
v 0.04212622 0.38544324 -0.04898864
v 0.05351558 0.3724176 -0.06404205
v 0.40658566 0.3291969 0.42936438
v 0.40658566 0.34431002 0.40658566
v 0.40869302 0.32686016 0.42936438
v 0.40658566 0.3291969 0.42936438
v 0.40658566 0.31319645 0.4521431
v 0.40869302 0.32686016 0.42936438
v 0.40658566 0.3291969 0.42936438
v 0.40658566 0.34431002 0.40658566
v 0.39519632 0.3458676 0.417975
v 0.40658566 0.3291969 0.42936438
v 0.40658566 0.31319645 0.4521431
v 0.39519632 0.3458676 0.417975
v 0.16740915 0.39886644 0.09907301
v 0.32686016 0.38020432 0.26991338
v 0.14463043 0.4027718 0.08768365
v 0.16740915 0.39886644 0.09907301
v 0.32686016 0.38020432 0.26991338
v 0.16740915 0.39340854 0.07629429
v 0.16740915 0.39886644 0.09907301
v 0.05351558 0.40497065 -0.01482057
v 0.14463043 0.4027718 0.08768365
v 0.16740915 0.39886644 0.09907301
v 0.05351558 0.40497065 -0.01482057
v 0.16740915 0.39340854 0.07629429
v 0.39519632 0.32642812 0.44075373
v 0.38380694 0.3382495 0.42799607
v 0.09907301 0.08253606 0.72548765
v 0.39519632 0.32642812 0.44075373
v 0.40658566 0.31319645 0.4521431
v 0.09907301 0.08253606 0.72548765
v 0.39519632 0.32642812 0.44075373
v 0.38380694 0.3382495 0.42799607
v 0.39519632 0.3458676 0.417975
v 0.39519632 0.32642812 0.44075373
v 0.40658566 0.31319645 0.4521431
v 0.39519632 0.3458676 0.417975
v -0.19705029 -0.42066166 0.32686016
v -0.060378 -0.4646281 0.32686016
v -0.00343121 -0.48534045 0.3724176
v -0.19705029 -0.42066166 0.32686016
v -0.09454607 -0.44326812 0.39519632
v -0.00343121 -0.48534045 0.3724176
v -0.01482057 -0.48105967 0.36102822
v -0.060378 -0.4646281 0.32686016
v -0.00343121 -0.48534045 0.3724176
v -0.01482057 -0.48105967 0.36102822
v -0.00343121 -0.48445788 0.36102822
v -0.00343121 -0.48534045 0.3724176
v -0.01482057 -0.48105967 0.36102822
v -0.00343121 -0.48445788 0.36102822
v -0.060378 -0.4646281 0.32686016
v -0.01482057 -0.47276777 0.32686016
v -0.02620993 -0.39066938 0.15734258
v 0.30408144 -0.3736626 0.11046237
v -0.10593543 -0.35675937 0.09907301
v -0.24260773 -0.3931235 0.20157723
v -0.08315671 -0.27839935 -0.04898864
v -0.10593543 -0.35675937 0.09907301
v -0.02620993 -0.39066938 0.15734258
v -0.08315671 -0.27839935 -0.04898864
v -0.10593543 -0.35675937 0.09907301
v -0.01482057 -0.47276777 0.32686016
v -0.24260773 -0.3931235 0.20157723
v -0.10593543 -0.35675937 0.09907301
v -0.01482057 -0.47276777 0.32686016
v -0.02620993 -0.39066938 0.15734258
v -0.08707059 -0.2767758 -0.04898864
v -0.1401035 -0.28816515 -0.00462435
v -0.08315671 -0.27839935 -0.04898864
v -0.08707059 -0.2767758 -0.04898864
v -0.02620993 -0.17427157 -0.1770667
v -0.1401035 -0.28816515 -0.00462435
v -0.08707059 -0.2767758 -0.04898864
v -0.02620993 -0.17427157 -0.1770667
v -0.01482057 -0.21982901 -0.14295954
v -0.14339392 -0.24260773 -0.03759928
v -0.1401035 -0.24611719 -0.03759928
v -0.2493499 -0.2995545 0.08768365
v -0.14339392 -0.24260773 -0.03759928
v -0.1401035 -0.24611719 -0.03759928
v -0.02620993 -0.16315776 -0.18566093
v -0.12871414 -0.26538643 -0.03154443
v -0.1401035 -0.28816515 -0.00462435
v -0.2493499 -0.2995545 0.08768365
v -0.12871414 -0.26538643 -0.03154443
v -0.1401035 -0.24611719 -0.03759928
v -0.2493499 -0.2995545 0.08768365
v -0.12871414 -0.26538643 -0.03154443
v -0.02620993 -0.17427157 -0.1770667
v -0.1401035 -0.28816515 -0.00462435
v -0.12871414 -0.26538643 -0.03154443
v -0.02620993 -0.17427157 -0.1770667
v -0.02620993 -0.16315776 -0.18566093
v -0.12871414 -0.26538643 -0.03154443
v -0.1401035 -0.24611719 -0.03759928
v -0.02620993 -0.16315776 -0.18566093
v 0.03073686 -0.15149286 -0.19065586
v -0.01482057 -0.12105028 -0.20843965
v -0.01482057 -0.11732478 -0.20952165
v -0.01482057 -0.22209528 -0.1401035
v -0.01482057 -0.22972248 -0.12871414
v 0.30408144 -0.3736626 0.11046237
v -0.01482057 -0.22209528 -0.1401035
v 0.30408144 -0.3736626 0.11046237
v 0.2357453 -0.26538643 -0.05081671
v -0.01482057 -0.22209528 -0.1401035
v -0.01482057 -0.21982901 -0.14295954
v 0.2357453 -0.26538643 -0.05081671
v -0.01482057 -0.22209528 -0.1401035
v -0.01482057 -0.21982901 -0.14295954
v -0.08315671 -0.27839935 -0.04898864
v -0.01482057 -0.22209528 -0.1401035
v -0.01482057 -0.22972248 -0.12871414
v -0.08315671 -0.27839935 -0.04898864
v -0.28816515 -0.34693134 0.16740915
v -0.2942794 -0.36789066 0.21296658
v -0.32204702 -0.3337226 0.20157723
v -0.28816515 -0.34693134 0.16740915
v -0.2942794 -0.36789066 0.21296658
v -0.28816515 -0.36789066 0.20290688
v -0.26538643 -0.3430317 0.14463043
v -0.23121837 -0.3337226 0.10956571
v -0.2767758 -0.32829696 0.13324107
v -0.26538643 -0.3430317 0.14463043
v -0.28816515 -0.34693134 0.16740915
v -0.2767758 -0.32829696 0.13324107
v -0.28816515 -0.37289122 0.21296658
v -0.2942794 -0.36789066 0.21296658
v -0.28816515 -0.36789066 0.20290688
v -0.31094387 -0.26538643 0.15182082
v -0.3282847 -0.31094387 0.21296658
v -0.32204702 -0.3337226 0.20157723
v -0.31094387 -0.26538643 0.15182082
v -0.324734 -0.24260773 0.20157723
v -0.3282847 -0.31094387 0.21296658
v -0.31094387 -0.26538643 0.15182082
v -0.324734 -0.24260773 0.20157723
v -0.3407132 0.14463043 0.417975
v 0.43899927 -0.28816515 0.06490494
v 0.46666306 -0.2539971 0.07629429
v 0.4335218 -0.28816515 0.05351558
v 0.43899927 -0.28816515 0.06490494
v 0.44288412 -0.28816515 0.08768365
v 0.46666306 -0.2539971 0.07629429
v 0.44302687 -0.28816515 0.11046237
v 0.44075373 -0.2909534 0.11046237
v 0.47920167 -0.24260773 0.13324107
v 0.44302687 -0.28816515 0.11046237
v 0.44288412 -0.28816515 0.08768365
v 0.47920167 -0.24260773 0.13324107
v 0.44302687 -0.28816515 0.11046237
v 0.44288412 -0.28816515 0.08768365
v 0.44075373 -0.2909534 0.11046237
v 0.30408144 -0.4066804 0.258524
v 0.36102822 -0.37406817 0.21296658
v 0.30846983 -0.40205872 0.2357453
v 0.30408144 -0.4066804 0.258524
v 0.2926921 -0.41094598 0.258524
v 0.11046237 -0.47375244 0.36102822
v 0.30408144 -0.4066804 0.258524
v 0.1181424 -0.47039488 0.36102822
v 0.11046237 -0.47375244 0.36102822
v 0.3154708 -0.38367796 0.16740915
v 0.3724176 -0.33775797 0.08768365
v 0.30408144 -0.3736626 0.11046237
v 0.3154708 -0.38367796 0.16740915
v 0.36102822 -0.37406817 0.21296658
v 0.3724176 -0.33775797 0.08768365
v 0.3154708 -0.38367796 0.16740915
v 0.36102822 -0.37406817 0.21296658
v 0.30846983 -0.40205872 0.2357453
v 0.44611317 -0.17427157 0.06490494
v 0.46271285 -0.11732478 0.09907301
v 0.44075373 -0.1401035 0.06650639
v 0.44611317 -0.17427157 0.06490494
v 0.44075373 -0.21982901 0.0478235
v 0.44075373 -0.1401035 0.06650639
v 0.44611317 -0.17427157 0.06490494
v 0.46271285 -0.11732478 0.09907301
v 0.45873556 -0.24260773 0.06490494
v 0.44611317 -0.17427157 0.06490494
v 0.44075373 -0.21982901 0.0478235
v 0.45873556 -0.24260773 0.06490494
v 0.09907301 -0.04898864 -0.14020647
v 0.05351558 0.3724176 -0.06404205
v 0.44075373 -0.1401035 0.06650639
v 0.09907301 -0.04898864 -0.14020647
v 0.43383116 -0.26538643 0.03073686
v 0.44075373 -0.1401035 0.06650639
v 0.12185172 0.06490494 0.72954303
v 0.12185172 0.07314517 0.72548765
v 0.09907301 0.05351558 0.7452713
v 0.12185172 0.06490494 0.72954303
v 0.38636744 0.12185172 0.56603664
v 0.09907301 0.05351558 0.7452713
v 0.12185172 0.06490494 0.72954303
v 0.39519632 0.258524 0.4946827
v 0.12185172 0.07314517 0.72548765
v 0.12185172 0.06490494 0.72954303
v 0.38636744 0.12185172 0.56603664
v 0.39519632 0.258524 0.4946827
v 0.4095655 0.28130272 0.4749218
v 0.38636744 0.12185172 0.56603664
v 0.4118251 0.26991338 0.4749218
v 0.4095655 0.28130272 0.4749218
v 0.40658566 0.31319645 0.4521431
v 0.40658566 0.2855051 0.4749218
v 0.4095655 0.28130272 0.4749218
v 0.40658566 0.31319645 0.4521431
v 0.4107604 0.30408144 0.4521431
v 0.4095655 0.28130272 0.4749218
v 0.4118251 0.26991338 0.4749218
v 0.49171215 0.14463043 0.30408144
v 0.4095655 0.28130272 0.4749218
v 0.4107604 0.30408144 0.4521431
v 0.49171215 0.14463043 0.30408144
v -0.00934851 -0.11732478 -0.20843965
v -0.00343121 -0.07176736 -0.1983404
v -0.01482057 -0.11732478 -0.20952165
v -0.00934851 -0.11732478 -0.20843965
v 0.03073686 -0.15149286 -0.19065586
v -0.01482057 -0.11732478 -0.20952165
v 0.05351558 -0.47039488 0.3999045
v 0.05351558 -0.47444904 0.39519632
v -0.02620993 -0.43572786 0.44075373
v -0.32988197 -0.2767758 0.22435594
v -0.3282847 -0.31094387 0.21296658
v -0.33212835 -0.2767758 0.2357453
v -0.32988197 -0.2767758 0.22435594
v -0.324734 -0.24260773 0.20157723
v -0.33212835 -0.2767758 0.2357453
v -0.32988197 -0.2767758 0.22435594
v -0.324734 -0.24260773 0.20157723
v -0.3282847 -0.31094387 0.21296658
v -0.32331488 0.12185172 0.5318686
v -0.3337226 0.11046237 0.51141953
v -0.3337226 0.08768365 0.5268932
v -0.32331488 0.12185172 0.5318686
v -0.32233322 0.12185172 0.5338887
v -0.3337226 0.08768365 0.5268932
v -0.32331488 0.12185172 0.5318686
v -0.3337226 0.11046237 0.51141953
v -0.3337226 0.19018787 0.45114616
v -0.32331488 0.12185172 0.5318686
v -0.32233322 0.12185172 0.5338887
v -0.3337226 0.19018787 0.45114616
v -0.32233322 0.12405553 0.5318686
v -0.33274776 0.19018787 0.4521431
v -0.3337226 0.19018787 0.45114616
v -0.32233322 0.12405553 0.5318686
v -0.32233322 0.12185172 0.5338887
v -0.3337226 0.19018787 0.45114616
v -0.32233322 0.12405553 0.5318686
v -0.33274776 0.19018787 0.4521431
v -0.32233322 0.19018787 0.46224502
v 0.06380364 0.04212622 0.736877
v -0.32233322 0.12185172 0.5338887
v -0.2995545 -0.11732478 0.58148396
v -0.27145654 0.16740915 0.5318686
v -0.32233322 0.12185172 0.5338887
v -0.2074899 0.17879851 0.56603664
v -0.27145654 0.16740915 0.5318686
v -0.2074899 0.17879851 0.56603664
v -0.32233322 0.19018787 0.46224502
v -0.27145654 0.16740915 0.5318686
v -0.32233322 0.12405553 0.5318686
v -0.32233322 0.12185172 0.5338887
v -0.27145654 0.16740915 0.5318686
v -0.32233322 0.12405553 0.5318686
v -0.32233322 0.19018787 0.46224502
v -0.19705029 0.17879851 0.57146233
v -0.32233322 0.12185172 0.5338887
v -0.2074899 0.17879851 0.56603664
v -0.19705029 0.17879851 0.57146233
v -0.2074899 0.17879851 0.56603664
v -0.19705029 0.18430498 0.56603664
v -0.19705029 0.17879851 0.57146233
v 0.09907301 0.08253606 0.72548765
v -0.19705029 0.18430498 0.56603664
v -0.32233322 0.20262647 0.417975
v -0.3337226 0.19400468 0.44075373
v -0.31094387 0.2083314 0.417975
v -0.32233322 0.20262647 0.417975
v -0.32411152 0.20157723 0.417975
v -0.3337226 0.19400468 0.44075373
v -0.32233322 0.20262647 0.417975
v -0.31094387 0.2083314 0.417975
v -0.00090025 0.39519632 0.03073686
v -0.32233322 0.20262647 0.417975
v -0.32411152 0.20157723 0.417975
v -0.00090025 0.39519632 0.03073686
v 0.44075373 -0.04739379 0.11046237
v 0.4749218 0.15601979 0.2604303
v 0.46271285 -0.11732478 0.09907301
v 0.4897544 0.15601979 0.2926921
v 0.4749218 0.15601979 0.2604303
v 0.46271285 -0.11732478 0.09907301
v 0.4897544 0.15601979 0.2926921
v 0.40933368 0.3382495 0.40658566
v 0.49171215 0.14463043 0.30408144
v 0.4897544 0.15601979 0.2926921
v 0.47920167 -0.24260773 0.13324107
v 0.49171215 0.14463043 0.30408144
v 0.4897544 0.15601979 0.2926921
v 0.40658566 0.34431002 0.40658566
v 0.40933368 0.3382495 0.40658566
v 0.4897544 0.15601979 0.2926921
v 0.46666306 -0.2539971 0.07629429
v 0.47920167 -0.24260773 0.13324107
v 0.4897544 0.15601979 0.2926921
v 0.46271285 -0.11732478 0.09907301
v 0.46666306 -0.2539971 0.07629429
v 0.06876407 0.3724176 -0.04898864
v 0.4749218 0.15601979 0.2604303
v 0.16740915 0.39340854 0.07629429
v 0.06876407 0.3724176 -0.04898864
v 0.44075373 -0.04739379 0.11046237
v 0.06490494 0.3724176 -0.05301869
v 0.06876407 0.3724176 -0.04898864
v 0.44075373 -0.04739379 0.11046237
v 0.4749218 0.15601979 0.2604303
v 0.3154708 0.3724176 0.24437621
v 0.16740915 0.39340854 0.07629429
v 0.3154708 0.37522966 0.24713466
v 0.05351558 0.39911947 -0.02620993
v 0.05351558 0.40497065 -0.01482057
v 0.16740915 0.39340854 0.07629429
v 0.05351558 0.39911947 -0.02620993
v 0.05351558 0.37748393 -0.060378
v 0.16740915 0.39340854 0.07629429
v 0.04212622 0.39519632 -0.03970359
v 0.05351558 0.37748393 -0.060378
v 0.04212622 0.38544324 -0.04898864
v 0.04212622 0.39519632 -0.03970359
v 0.04212622 0.38544324 -0.04898864
v 0.00795815 0.38380694 -0.02442148
v 0.04212622 0.39519632 -0.03970359
v 0.05351558 0.39911947 -0.02620993
v 0.05351558 0.37748393 -0.060378
v -0.23121837 -0.4060652 0.258524
v -0.19705029 -0.42066166 0.32686016
v -0.060378 -0.4646281 0.32686016
v -0.00343121 -0.48222303 0.34963888
v -0.00343121 -0.48445788 0.36102822
v -0.060378 -0.4646281 0.32686016
v -0.00343121 -0.48222303 0.34963888
v -0.060378 -0.4646281 0.32686016
v -0.24260773 -0.3931235 0.20157723
v -0.00343121 -0.48222303 0.34963888
v -0.01482057 -0.47276777 0.32686016
v -0.24260773 -0.3931235 0.20157723
v -0.00343121 -0.48222303 0.34963888
v 0.30408144 -0.3736626 0.11046237
v 0.11046237 -0.47375244 0.36102822
v -0.00343121 -0.48222303 0.34963888
v -0.00343121 -0.48445788 0.36102822
v 0.11046237 -0.47375244 0.36102822
v -0.01482057 -0.060378 -0.19215503
v -0.00343121 -0.07176736 -0.1983404
v -0.01482057 -0.11732478 -0.20952165
v -0.01482057 -0.060378 -0.19215503
v 0.05351558 0.3724176 -0.06404205
v 0.00795815 0.38380694 -0.02442148
v -0.01482057 -0.060378 -0.19215503
v -0.00343121 -0.07176736 -0.1983404
v 0.05351558 0.3724176 -0.06404205
v -0.08315671 -0.2767758 -0.0508201
v -0.01482057 -0.21982901 -0.14295954
v -0.08315671 -0.27839935 -0.04898864
v -0.08315671 -0.2767758 -0.0508201
v -0.08707059 -0.2767758 -0.04898864
v -0.08315671 -0.27839935 -0.04898864
v -0.08315671 -0.2767758 -0.0508201
v -0.08707059 -0.2767758 -0.04898864
v -0.01482057 -0.21982901 -0.14295954
v 0.13324107 -0.20843965 -0.12196527
v 0.03073686 -0.15149286 -0.19065586
v 0.00795815 -0.19705029 -0.15766867
v 0.13324107 -0.20843965 -0.12196527
v -0.01482057 -0.21982901 -0.14295954
v 0.2357453 -0.26538643 -0.05081671
v 0.13324107 -0.20843965 -0.12196527
v 0.00795815 -0.19705029 -0.15766867
v -0.01482057 -0.21982901 -0.14295954
v 0.13324107 -0.20843965 -0.12196527
v 0.24025545 -0.26538643 -0.04898864
v 0.2357453 -0.26538643 -0.05081671
v 0.13324107 -0.20843965 -0.12196527
v 0.24025545 -0.26538643 -0.04898864
v 0.42936438 -0.26538643 0.02831661
v 0.13324107 -0.20843965 -0.12196527
v 0.03073686 -0.15149286 -0.19065586
v 0.42936438 -0.26538643 0.02831661
v -0.02620993 -0.1401035 -0.20030655
v -0.14339392 -0.24260773 -0.03759928
v -0.2493499 -0.2995545 0.08768365
v -0.02620993 -0.1401035 -0.20030655
v -0.14339392 -0.24260773 -0.03759928
v -0.02620993 -0.16315776 -0.18566093
v -0.02620993 -0.1401035 -0.20030655
v -0.02620993 -0.12871414 -0.20196171
v -0.01482057 -0.11732478 -0.20952165
v -0.02620993 -0.1401035 -0.20030655
v -0.01482057 -0.12105028 -0.20843965
v -0.01482057 -0.11732478 -0.20952165
v 0.02161257 -0.12871414 -0.19705029
v 0.43383116 -0.26538643 0.03073686
v 0.42936438 -0.26538643 0.02831661
v 0.02161257 -0.12871414 -0.19705029
v 0.03073686 -0.15149286 -0.19065586
v 0.42936438 -0.26538643 0.02831661
v -0.01482057 -0.16288222 -0.1886135
v -0.02620993 -0.1401035 -0.20030655
v -0.02620993 -0.16315776 -0.18566093
v -0.01482057 -0.17427157 -0.18051091
v 0.00795815 -0.19705029 -0.15766867
v -0.01482057 -0.21982901 -0.14295954
v -0.01482057 -0.17427157 -0.18051091
v 0.03073686 -0.15149286 -0.19065586
v 0.00795815 -0.19705029 -0.15766867
v -0.01482057 -0.17427157 -0.18051091
v -0.01482057 -0.16288222 -0.1886135
v 0.03073686 -0.15149286 -0.19065586
v -0.01482057 -0.17427157 -0.18051091
v -0.02620993 -0.17427157 -0.1770667
v -0.01482057 -0.21982901 -0.14295954
v -0.01482057 -0.17427157 -0.18051091
v -0.02620993 -0.17427157 -0.1770667
v -0.02620993 -0.16315776 -0.18566093
v -0.01482057 -0.17427157 -0.18051091
v -0.01482057 -0.16288222 -0.1886135
v -0.02620993 -0.16315776 -0.18566093
v -0.27155903 -0.37928 0.20157723
v -0.28816515 -0.34693134 0.16740915
v -0.28816515 -0.36789066 0.20290688
v -0.27155903 -0.37928 0.20157723
v -0.28816515 -0.34693134 0.16740915
v -0.26538643 -0.383282 0.20157723
v -0.27155903 -0.37928 0.20157723
v -0.28816515 -0.37289122 0.21296658
v -0.28816515 -0.36789066 0.20290688
v -0.27155903 -0.37928 0.20157723
v -0.28816515 -0.37289122 0.21296658
v -0.26538643 -0.383282 0.20157723
v -0.28816515 -0.34511194 0.16537063
v -0.28816515 -0.34693134 0.16740915
v -0.32204702 -0.3337226 0.20157723
v -0.28816515 -0.34511194 0.16537063
v -0.28816515 -0.34693134 0.16740915
v -0.2767758 -0.32829696 0.13324107
v -0.26538643 -0.37928 0.1954659
v -0.26538643 -0.3430317 0.14463043
v -0.23121837 -0.3337226 0.10956571
v -0.26538643 -0.37928 0.1954659
v -0.23121837 -0.3337226 0.10956571
v -0.24260773 -0.3931235 0.20157723
v -0.26538643 -0.37928 0.1954659
v -0.26538643 -0.383282 0.20157723
v -0.24260773 -0.3931235 0.20157723
v -0.26538643 -0.37928 0.1954659
v -0.28816515 -0.34693134 0.16740915
v -0.26538643 -0.383282 0.20157723
v -0.26538643 -0.37928 0.1954659
v -0.26538643 -0.3430317 0.14463043
v -0.28816515 -0.34693134 0.16740915
v -0.2897634 -0.32233322 0.14463043
v -0.31094387 -0.26538643 0.15182082
v -0.32204702 -0.3337226 0.20157723
v -0.03759928 -0.11732478 -0.18785006
v -0.31094387 -0.26538643 0.15182082
v -0.02620993 -0.12871414 -0.20196171
v -0.28616497 -0.20843965 0.13324107
v -0.03759928 -0.11732478 -0.18785006
v -0.04116306 -0.09454607 -0.17427157
v -0.33273092 0.19018787 0.417975
v -0.31094387 -0.26538643 0.15182082
v -0.3407132 0.14463043 0.417975
v -0.33273092 0.19018787 0.417975
v -0.3407132 0.14463043 0.417975
v -0.34444728 0.14463043 0.42936438
v -0.33273092 0.19018787 0.417975
v -0.33779082 0.17879851 0.44075373
v -0.34444728 0.14463043 0.42936438
v -0.33273092 0.19018787 0.417975
v -0.33779082 0.17879851 0.44075373
v -0.3337226 0.19400468 0.44075373
v -0.33273092 0.19018787 0.417975
v -0.32411152 0.20157723 0.417975
v -0.3337226 0.19400468 0.44075373
v 0.42936438 -0.30143484 0.08768365
v 0.36102822 -0.37406817 0.21296658
v 0.44288412 -0.28816515 0.08768365
v 0.42936438 -0.30143484 0.08768365
v 0.43899927 -0.28816515 0.06490494
v 0.44288412 -0.28816515 0.08768365
v 0.42936438 -0.30143484 0.08768365
v 0.36102822 -0.37406817 0.21296658
v 0.3724176 -0.33775797 0.08768365
v 0.42936438 -0.30143484 0.08768365
v 0.3724176 -0.33775797 0.08768365
v 0.4335218 -0.28816515 0.05351558
v 0.42936438 -0.30143484 0.08768365
v 0.43899927 -0.28816515 0.06490494
v 0.4335218 -0.28816515 0.05351558
v 0.30408144 -0.40395206 0.2357453
v 0.2926921 -0.40956467 0.24713466
v 0.2926921 -0.41094598 0.258524
v 0.30408144 -0.40395206 0.2357453
v 0.30408144 -0.4066804 0.258524
v 0.2926921 -0.41094598 0.258524
v 0.30408144 -0.40395206 0.2357453
v 0.30408144 -0.4066804 0.258524
v 0.30846983 -0.40205872 0.2357453
v 0.30408144 -0.40395206 0.2357453
v 0.2926921 -0.40956467 0.24713466
v 0.30408144 -0.3736626 0.11046237
v 0.30408144 -0.40395206 0.2357453
v 0.3154708 -0.38367796 0.16740915
v 0.30846983 -0.40205872 0.2357453
v 0.30408144 -0.40395206 0.2357453
v 0.3154708 -0.38367796 0.16740915
v 0.30408144 -0.3736626 0.11046237
v 0.3154708 -0.3443481 0.5318686
v 0.32866815 -0.3337226 0.5318686
v 0.36102822 -0.37406817 0.21296658
v 0.3154708 -0.3443481 0.5318686
v 0.32866815 -0.3337226 0.5318686
v 0.32686016 -0.3337226 0.5363014
v 0.3154708 -0.3443481 0.5318686
v 0.30408144 -0.4066804 0.258524
v 0.1181424 -0.47039488 0.36102822
v 0.3154708 -0.3443481 0.5318686
v 0.1181424 -0.47039488 0.36102822
v 0.11046237 -0.47375244 0.36102822
v 0.3154708 -0.3443481 0.5318686
v 0.09907301 -0.47455463 0.3724176
v 0.11046237 -0.47375244 0.36102822
v 0.3154708 -0.3443481 0.5318686
v 0.09907301 -0.47455463 0.3724176
v 0.08768365 -0.47751614 0.3724176
v 0.3154708 -0.3443481 0.5318686
v 0.05351558 -0.47444904 0.39519632
v 0.08768365 -0.47751614 0.3724176
v 0.3154708 -0.3443481 0.5318686
v 0.05351558 -0.47039488 0.3999045
v 0.05351558 -0.47444904 0.39519632
v 0.3154708 -0.3443481 0.5318686
v 0.05351558 -0.47039488 0.3999045
v -0.02620993 -0.43572786 0.44075373
v 0.30408144 0.05351558 0.62717783
v 0.38636744 0.12185172 0.56603664
v 0.09907301 0.05351558 0.7452713
v 0.29782188 0.0193475 0.63437283
v 0.38636744 0.12185172 0.56603664
v 0.32686016 -0.3337226 0.5363014
v 0.29782188 0.0193475 0.63437283
v 0.22435594 -0.09454607 0.6737192
v 0.32686016 -0.3337226 0.5363014
v 0.29782188 0.0193475 0.63437283
v 0.30408144 0.05351558 0.62717783
v 0.38636744 0.12185172 0.56603664
v 0.29782188 0.0193475 0.63437283
v 0.22435594 -0.09454607 0.6737192
v 0.09907301 0.05351558 0.7452713
v 0.29782188 0.0193475 0.63437283
v 0.30408144 0.05351558 0.62717783
v 0.09907301 0.05351558 0.7452713
v 0.20157723 -0.09454607 0.6777711
v 0.07629429 0.04212622 0.738673
v 0.09907301 0.05351558 0.7452713
v 0.20157723 -0.09454607 0.6777711
v 0.22435594 -0.09454607 0.6737192
v 0.09907301 0.05351558 0.7452713
v 0.20157723 -0.09454607 0.6777711
v 0.07629429 0.04212622 0.738673
v 0.06490494 0.04112763 0.736877
v 0.20157723 -0.09454607 0.6777711
v 0.06490494 0.04112763 0.736877
v -0.02620993 -0.43572786 0.44075373
v 0.40658566 0.28130272 0.47695425
v 0.38636744 0.12185172 0.56603664
v 0.40658566 0.2855051 0.4749218
v 0.40658566 0.28130272 0.47695425
v 0.4095655 0.28130272 0.4749218
v 0.40658566 0.2855051 0.4749218
v 0.40658566 0.28130272 0.47695425
v 0.4095655 0.28130272 0.4749218
v 0.38636744 0.12185172 0.56603664
v -0.31094387 -0.31583065 0.39519632
v -0.31094387 -0.31094387 0.400452
v -0.32583877 -0.31094387 0.3724176
v -0.31094387 -0.31583065 0.39519632
v -0.31094387 -0.31094387 0.400452
v -0.09454607 -0.44326812 0.39519632
v -0.31094387 -0.31583065 0.39519632
v -0.19705029 -0.42066166 0.32686016
v -0.09454607 -0.44326812 0.39519632
v 0.07629429 0.05351558 0.7408947
v 0.06380364 0.04212622 0.736877
v -0.32233322 0.12185172 0.5338887
v 0.07629429 0.05351558 0.7408947
v -0.19705029 0.17879851 0.57146233
v -0.32233322 0.12185172 0.5338887
v 0.07629429 0.05351558 0.7408947
v -0.19705029 0.17879851 0.57146233
v 0.09907301 0.08253606 0.72548765
v 0.07629429 0.05351558 0.7408947
v 0.09907301 0.08253606 0.72548765
v 0.09907301 0.05351558 0.7452713
v 0.06490494 0.04212622 0.7373357
v 0.07629429 0.04212622 0.738673
v 0.09907301 0.05351558 0.7452713
v 0.06490494 0.04212622 0.7373357
v 0.07629429 0.04212622 0.738673
v 0.06490494 0.04112763 0.736877
v 0.06490494 0.04212622 0.7373357
v 0.07629429 0.05351558 0.7408947
v 0.09907301 0.05351558 0.7452713
v 0.06490494 0.04212622 0.7373357
v 0.07629429 0.05351558 0.7408947
v 0.06380364 0.04212622 0.736877
v 0.06490494 0.04212622 0.7373357
v 0.06490494 0.04112763 0.736877
v -0.2995545 -0.11732478 0.58148396
v 0.06490494 0.04212622 0.7373357
v 0.06380364 0.04212622 0.736877
v -0.2995545 -0.11732478 0.58148396
v 0.44075373 -0.04898864 0.10966945
v 0.46271285 -0.11732478 0.09907301
v 0.44075373 -0.1401035 0.06650639
v 0.44075373 -0.04898864 0.10966945
v 0.44075373 -0.04739379 0.11046237
v 0.46271285 -0.11732478 0.09907301
v 0.44075373 -0.04898864 0.10966945
v 0.05351558 0.3724176 -0.06404205
v 0.44075373 -0.1401035 0.06650639
v 0.44075373 -0.04898864 0.10966945
v 0.05351558 0.3724176 -0.06404205
v 0.06490494 0.3724176 -0.05301869
v 0.44075373 -0.04898864 0.10966945
v 0.44075373 -0.04739379 0.11046237
v 0.06490494 0.3724176 -0.05301869
v 0.4749218 0.16740915 0.26917434
v 0.4897544 0.15601979 0.2926921
v 0.4749218 0.15601979 0.2604303
v 0.4749218 0.16740915 0.26917434
v 0.3330483 0.3724176 0.26991338
v 0.3154708 0.37522966 0.24713466
v 0.4749218 0.16740915 0.26917434
v 0.3330483 0.3724176 0.26991338
v 0.35657683 0.36102822 0.2926921
v 0.4749218 0.16740915 0.26917434
v 0.3154708 0.3724176 0.24437621
v 0.3154708 0.37522966 0.24713466
v 0.4749218 0.16740915 0.26917434
v 0.4749218 0.15601979 0.2604303
v 0.16740915 0.39340854 0.07629429
v 0.4749218 0.16740915 0.26917434
v 0.3154708 0.3724176 0.24437621
v 0.16740915 0.39340854 0.07629429
v 0.06490494 0.37701088 -0.04898864
v 0.05351558 0.37748393 -0.060378
v 0.16740915 0.39340854 0.07629429
v 0.06490494 0.37701088 -0.04898864
v 0.06876407 0.3724176 -0.04898864
v 0.16740915 0.39340854 0.07629429
v 0.06490494 0.37701088 -0.04898864
v 0.05351558 0.37748393 -0.060378
v 0.06490494 0.3724176 -0.05301869
v 0.06490494 0.37701088 -0.04898864
v 0.06876407 0.3724176 -0.04898864
v 0.06490494 0.3724176 -0.05301869
v 0.04212622 0.39637554 -0.03759928
v 0.04212622 0.39519632 -0.03970359
v 0.00795815 0.38380694 -0.02442148
v 0.04212622 0.39637554 -0.03759928
v 0.05351558 0.39911947 -0.02620993
v 0.05351558 0.40497065 -0.01482057
v 0.04212622 0.39637554 -0.03759928
v 0.04212622 0.39519632 -0.03970359
v 0.05351558 0.39911947 -0.02620993
v -0.26538643 -0.39055648 0.22435594
v -0.26538643 -0.383282 0.20157723
v -0.24260773 -0.3931235 0.20157723
v -0.26538643 -0.39055648 0.22435594
v -0.28816515 -0.37289122 0.21296658
v -0.26538643 -0.383282 0.20157723
v -0.00343121 -0.48178422 0.34845763
v -0.01482057 -0.47276777 0.32686016
v 0.30408144 -0.3736626 0.11046237
v -0.00343121 -0.48178422 0.34845763
v -0.00343121 -0.48222303 0.34963888
v 0.30408144 -0.3736626 0.11046237
v -0.00343121 -0.48178422 0.34845763
v -0.00343121 -0.48222303 0.34963888
v -0.01482057 -0.47276777 0.32686016
v -0.01482057 -0.12871414 -0.20504504
v 0.03073686 -0.15149286 -0.19065586
v -0.01482057 -0.12105028 -0.20843965
v -0.01482057 -0.12871414 -0.20504504
v -0.02620993 -0.1401035 -0.20030655
v -0.01482057 -0.12105028 -0.20843965
v -0.01482057 -0.12871414 -0.20504504
v -0.01482057 -0.16288222 -0.1886135
v 0.03073686 -0.15149286 -0.19065586
v -0.01482057 -0.12871414 -0.20504504
v -0.01482057 -0.16288222 -0.1886135
v -0.02620993 -0.1401035 -0.20030655
v -0.2767758 -0.2539971 0.10962914
v -0.31094387 -0.26538643 0.15182082
v -0.02620993 -0.12871414 -0.20196171
v -0.2767758 -0.2539971 0.10962914
v -0.02620993 -0.1401035 -0.20030655
v -0.02620993 -0.12871414 -0.20196171
v 0.04212622 -0.09454607 -0.18628605
v 0.09907301 -0.04898864 -0.14020647
v 0.43383116 -0.26538643 0.03073686
v 0.04212622 -0.09454607 -0.18628605
v 0.02161257 -0.12871414 -0.19705029
v 0.43383116 -0.26538643 0.03073686
v 0.04212622 -0.09454607 -0.18628605
v -0.00343121 -0.07176736 -0.1983404
v 0.05351558 0.3724176 -0.06404205
v 0.04212622 -0.09454607 -0.18628605
v 0.09907301 -0.04898864 -0.14020647
v 0.05351558 0.3724176 -0.06404205
v 0.04212622 -0.09454607 -0.18628605
v -0.00934851 -0.11732478 -0.20843965
v -0.00343121 -0.07176736 -0.1983404
v 0.04212622 -0.09454607 -0.18628605
v 0.02161257 -0.12871414 -0.19705029
v -0.00934851 -0.11732478 -0.20843965
v 0.0193475 -0.12871414 -0.19776125
v -0.00934851 -0.11732478 -0.20843965
v 0.03073686 -0.15149286 -0.19065586
v 0.0193475 -0.12871414 -0.19776125
v 0.02161257 -0.12871414 -0.19705029
v 0.03073686 -0.15149286 -0.19065586
v 0.0193475 -0.12871414 -0.19776125
v 0.02161257 -0.12871414 -0.19705029
v -0.00934851 -0.11732478 -0.20843965
v -0.28816515 -0.32489413 0.14463043
v -0.28816515 -0.34511194 0.16537063
v -0.32204702 -0.3337226 0.20157723
v -0.28816515 -0.32489413 0.14463043
v -0.2897634 -0.32233322 0.14463043
v -0.32204702 -0.3337226 0.20157723
v -0.28816515 -0.32489413 0.14463043
v -0.28816515 -0.34511194 0.16537063
v -0.2767758 -0.32829696 0.13324107
v -0.262659 -0.28816515 0.09907301
v -0.02620993 -0.1401035 -0.20030655
v -0.2493499 -0.2995545 0.08768365
v -0.26538643 -0.21982901 0.09937644
v -0.03759928 -0.11732478 -0.18785006
v -0.31094387 -0.26538643 0.15182082
v -0.26538643 -0.21982901 0.09937644
v -0.28616497 -0.20843965 0.13324107
v -0.31094387 -0.26538643 0.15182082
v -0.26538643 -0.21982901 0.09937644
v -0.28616497 -0.20843965 0.13324107
v -0.03759928 -0.11732478 -0.18785006
v -0.26316968 0.14463043 0.258524
v -0.04116306 -0.09454607 -0.17427157
v 0.00795815 0.38380694 -0.02442148
v -0.26316968 0.14463043 0.258524
v -0.32233322 0.19018787 0.39219135
v 0.00795815 0.38380694 -0.02442148
v -0.31094387 -0.04898864 0.25158396
v -0.33273092 0.19018787 0.417975
v -0.31094387 -0.26538643 0.15182082
v -0.32233322 0.19244511 0.39519632
v -0.33273092 0.19018787 0.417975
v -0.32411152 0.20157723 0.417975
v -0.32233322 0.19244511 0.39519632
v -0.32233322 0.19018787 0.39219135
v 0.00795815 0.38380694 -0.02442148
v -0.32233322 0.19244511 0.39519632
v -0.32411152 0.20157723 0.417975
v 0.00795815 0.38380694 -0.02442148
v 0.31105468 -0.40205872 0.258524
v 0.30408144 -0.4066804 0.258524
v 0.36102822 -0.37406817 0.21296658
v 0.31105468 -0.40205872 0.258524
v 0.3154708 -0.3443481 0.5318686
v 0.36102822 -0.37406817 0.21296658
v 0.31105468 -0.40205872 0.258524
v 0.3154708 -0.3443481 0.5318686
v 0.30408144 -0.4066804 0.258524
v 0.30408144 -0.32892013 0.54325795
v 0.3154708 -0.3443481 0.5318686
v 0.32686016 -0.3337226 0.5363014
v 0.30408144 -0.32892013 0.54325795
v 0.22435594 -0.09454607 0.6737192
v 0.32686016 -0.3337226 0.5363014
v 0.30408144 -0.32892013 0.54325795
v 0.20157723 -0.09454607 0.6777711
v 0.22435594 -0.09454607 0.6737192
v 0.30408144 -0.32892013 0.54325795
v 0.3154708 -0.3443481 0.5318686
v -0.02620993 -0.43572786 0.44075373
v 0.30408144 -0.32892013 0.54325795
v 0.20157723 -0.09454607 0.6777711
v -0.02620993 -0.43572786 0.44075373
v -0.2767758 -0.37928 0.31406772
v -0.31094387 -0.31583065 0.39519632
v -0.32583877 -0.31094387 0.3724176
v -0.2767758 -0.37928 0.31406772
v -0.31094387 -0.31583065 0.39519632
v -0.19705029 -0.42066166 0.32686016
v 0.4749218 0.16789132 0.26991338
v 0.4897544 0.15601979 0.2926921
v 0.40658566 0.34431002 0.40658566
v 0.4749218 0.16789132 0.26991338
v 0.40658566 0.34431002 0.40658566
v 0.35657683 0.36102822 0.2926921
v 0.4749218 0.16789132 0.26991338
v 0.4749218 0.16740915 0.26917434
v 0.35657683 0.36102822 0.2926921
v 0.04212622 0.40658566 -0.01751506
v 0.05351558 0.40497065 -0.01482057
v 0.04212622 0.4071219 -0.01482057
v 0.04212622 0.40658566 -0.01751506
v 0.04212622 0.39637554 -0.03759928
v 0.05351558 0.40497065 -0.01482057
v 0.04212622 0.40658566 -0.01751506
v 0.04212622 0.39637554 -0.03759928
v 0.00795815 0.38380694 -0.02442148
v 0.04212622 0.40658566 -0.01751506
v 0.00795815 0.38738993 -0.01482057
v 0.00795815 0.38380694 -0.02442148
v 0.04212622 0.40658566 -0.01751506
v -0.00090025 0.39519632 0.03073686
v 0.04212622 0.4071219 -0.01482057
v 0.04212622 0.40658566 -0.01751506
v 0.00795815 0.38738993 -0.01482057
v -0.00090025 0.39519632 0.03073686
v -0.23121837 -0.4048268 0.24713466
v -0.26538643 -0.39055648 0.22435594
v -0.24260773 -0.3931235 0.20157723
v -0.23121837 -0.4048268 0.24713466
v -0.26538643 -0.39055648 0.22435594
v -0.23121837 -0.4060652 0.258524
v -0.23121837 -0.4048268 0.24713466
v -0.060378 -0.4646281 0.32686016
v -0.24260773 -0.3931235 0.20157723
v -0.23121837 -0.4048268 0.24713466
v -0.23121837 -0.4060652 0.258524
v -0.060378 -0.4646281 0.32686016
v -0.2660694 -0.39066938 0.258524
v -0.23121837 -0.4060652 0.258524
v -0.19705029 -0.42066166 0.32686016
v -0.2660694 -0.39066938 0.258524
v -0.26538643 -0.39055648 0.22435594
v -0.23121837 -0.4060652 0.258524
v -0.02620993 -0.07176736 -0.18390958
v -0.03759928 -0.11732478 -0.18785006
v -0.01482057 -0.060378 -0.19215503
v -0.02620993 -0.07176736 -0.18390958
v -0.03759928 -0.11732478 -0.18785006
v -0.04116306 -0.09454607 -0.17427157
v -0.02620993 -0.07176736 -0.18390958
v -0.04116306 -0.09454607 -0.17427157
v 0.00795815 0.38380694 -0.02442148
v -0.25489816 -0.2767758 0.08768365
v -0.2767758 -0.2539971 0.10962914
v -0.02620993 -0.1401035 -0.20030655
v -0.25489816 -0.2767758 0.08768365
v -0.262659 -0.28816515 0.09907301
v -0.02620993 -0.1401035 -0.20030655
v -0.25489816 -0.2767758 0.08768365
v -0.2767758 -0.2539971 0.10962914
v -0.31094387 -0.26538643 0.15182082
v -0.25489816 -0.2767758 0.08768365
v -0.262659 -0.28816515 0.09907301
v -0.31094387 -0.26538643 0.15182082
v -0.28816515 -0.32233322 0.14245601
v -0.28816515 -0.32489413 0.14463043
v -0.2767758 -0.32829696 0.13324107
v -0.28816515 -0.32233322 0.14245601
v -0.28816515 -0.32489413 0.14463043
v -0.2897634 -0.32233322 0.14463043
v -0.28816515 -0.32233322 0.14245601
v -0.2767758 -0.32233322 0.12948161
v -0.2767758 -0.32829696 0.13324107
v -0.28816515 -0.32233322 0.14245601
v -0.2767758 -0.32233322 0.12948161
v -0.2493499 -0.2995545 0.08768365
v -0.28816515 -0.32233322 0.14245601
v -0.262659 -0.28816515 0.09907301
v -0.2493499 -0.2995545 0.08768365
v -0.28816515 -0.32233322 0.14245601
v -0.2897634 -0.32233322 0.14463043
v -0.31094387 -0.26538643 0.15182082
v -0.28816515 -0.32233322 0.14245601
v -0.262659 -0.28816515 0.09907301
v -0.31094387 -0.26538643 0.15182082
v -0.01683764 -0.11732478 -0.20843965
v -0.03759928 -0.11732478 -0.18785006
v -0.01482057 -0.060378 -0.19215503
v -0.01683764 -0.11732478 -0.20843965
v -0.01482057 -0.060378 -0.19215503
v -0.01482057 -0.11732478 -0.20952165
v -0.01683764 -0.11732478 -0.20843965
v -0.03759928 -0.11732478 -0.18785006
v -0.02620993 -0.12871414 -0.20196171
v -0.01683764 -0.11732478 -0.20843965
v -0.02620993 -0.12871414 -0.20196171
v -0.01482057 -0.11732478 -0.20952165
v -0.19716933 0.03073686 0.11046237
v -0.28616497 -0.20843965 0.13324107
v -0.04116306 -0.09454607 -0.17427157
v -0.19716933 0.03073686 0.11046237
v -0.26316968 0.14463043 0.258524
v -0.04116306 -0.09454607 -0.17427157
v -0.19716933 0.03073686 0.11046237
v -0.26316968 0.14463043 0.258524
v -0.28616497 -0.20843965 0.13324107
v -0.32373273 0.19018787 0.39519632
v -0.31094387 -0.04898864 0.25158396
v -0.32233322 0.19018787 0.39219135
v -0.32373273 0.19018787 0.39519632
v -0.31094387 -0.04898864 0.25158396
v -0.33273092 0.19018787 0.417975
v -0.32373273 0.19018787 0.39519632
v -0.32233322 0.19244511 0.39519632
v -0.32233322 0.19018787 0.39219135
v -0.32373273 0.19018787 0.39519632
v -0.32233322 0.19244511 0.39519632
v -0.33273092 0.19018787 0.417975
v -0.2995545 0.04212622 0.27308273
v -0.26316968 0.14463043 0.258524
v -0.28616497 -0.20843965 0.13324107
v -0.29000026 -0.36789066 0.30408144
v -0.32233322 -0.33834574 0.2357453
v -0.32583877 -0.31094387 0.3724176
v -0.29000026 -0.36789066 0.30408144
v -0.29108393 -0.36789066 0.2926921
v -0.32233322 -0.33834574 0.2357453
v 0.4752169 0.16740915 0.26991338
v 0.4749218 0.16740915 0.26917434
v 0.4897544 0.15601979 0.2926921
v 0.4752169 0.16740915 0.26991338
v 0.4749218 0.16789132 0.26991338
v 0.4897544 0.15601979 0.2926921
v 0.4752169 0.16740915 0.26991338
v 0.4749218 0.16789132 0.26991338
v 0.4749218 0.16740915 0.26917434
v -0.28118306 -0.37928 0.22435594
v -0.26538643 -0.39055648 0.22435594
v -0.28816515 -0.37289122 0.21296658
v -0.28118306 -0.37928 0.22435594
v -0.2660694 -0.39066938 0.258524
v -0.26538643 -0.39055648 0.22435594
v -0.28118306 -0.37928 0.22435594
v -0.28816515 -0.37289122 0.21296658
v -0.2942794 -0.36789066 0.21296658
v -0.02079887 -0.060378 -0.18566093
v -0.01482057 -0.060378 -0.19215503
v 0.00795815 0.38380694 -0.02442148
v -0.02079887 -0.060378 -0.18566093
v -0.02620993 -0.07176736 -0.18390958
v 0.00795815 0.38380694 -0.02442148
v -0.02079887 -0.060378 -0.18566093
v -0.02620993 -0.07176736 -0.18390958
v -0.01482057 -0.060378 -0.19215503
v -0.3087923 -0.04898864 0.24713466
v -0.2995545 0.04212622 0.27308273
v -0.28616497 -0.20843965 0.13324107
v -0.3087923 -0.04898864 0.24713466
v -0.28616497 -0.20843965 0.13324107
v -0.31094387 -0.26538643 0.15182082
v -0.3087923 -0.04898864 0.24713466
v -0.31094387 -0.04898864 0.25158396
v -0.31094387 -0.26538643 0.15182082
v -0.3087923 -0.04898864 0.24713466
v -0.31094387 -0.04898864 0.25158396
v -0.32233322 0.19018787 0.39219135
v -0.3087923 -0.04898864 0.24713466
v -0.2995545 0.04212622 0.27308273
v -0.32233322 0.19018787 0.39219135
v -0.2790853 0.11046237 0.26991338
v -0.26316968 0.14463043 0.258524
v -0.32233322 0.19018787 0.39219135
v -0.2790853 0.11046237 0.26991338
v -0.2995545 0.04212622 0.27308273
v -0.32233322 0.19018787 0.39219135
v -0.2790853 0.11046237 0.26991338
v -0.2995545 0.04212622 0.27308273
v -0.26316968 0.14463043 0.258524
v -0.2767758 -0.38248318 0.30408144
v -0.28118306 -0.37928 0.22435594
v -0.2942794 -0.36789066 0.21296658
v -0.2767758 -0.38248318 0.30408144
v -0.2942794 -0.36789066 0.21296658
v -0.32233322 -0.33834574 0.2357453
v -0.2767758 -0.38248318 0.30408144
v -0.29108393 -0.36789066 0.2926921
v -0.32233322 -0.33834574 0.2357453
v -0.2767758 -0.38248318 0.30408144
v -0.29000026 -0.36789066 0.30408144
v -0.29108393 -0.36789066 0.2926921
v -0.2767758 -0.38248318 0.30408144
v -0.28118306 -0.37928 0.22435594
v -0.2660694 -0.39066938 0.258524
v -0.2767758 -0.38248318 0.30408144
v -0.2767758 -0.37928 0.31406772
v -0.19705029 -0.42066166 0.32686016
v -0.2767758 -0.38248318 0.30408144
v -0.2660694 -0.39066938 0.258524
v -0.19705029 -0.42066166 0.32686016
v -0.2767758 -0.38248318 0.30408144
v -0.2767758 -0.37928 0.31406772
v -0.32583877 -0.31094387 0.3724176
v -0.2767758 -0.38248318 0.30408144
v -0.29000026 -0.36789066 0.30408144
v -0.32583877 -0.31094387 0.3724176
f 1 2 3
f 4 5 6
f 7 8 9
f 10 11 12
f 13 14 15
f 16 17 18
f 19 20 21
f 22 23 24
f 25 26 27
f 28 29 30
f 31 32 33
f 34 35 36
f 37 38 39
f 40 41 42
f 43 44 45
f 46 47 48
f 49 50 51
f 52 53 54
f 55 56 57
f 58 59 60
f 61 62 63
f 64 65 66
f 67 68 69
f 70 71 72
f 73 74 75
f 76 77 78
f 79 80 81
f 82 83 84
f 85 86 87
f 88 89 90
f 91 92 93
f 94 95 96
f 97 98 99
f 100 101 102
f 103 104 105
f 106 107 108
f 109 110 111
f 112 113 114
f 115 116 117
f 118 119 120
f 121 122 123
f 124 125 126
f 127 128 129
f 130 131 132
f 133 134 135
f 136 137 138
f 139 140 141
f 142 143 144
f 145 146 147
f 148 149 150
f 151 152 153
f 154 155 156
f 157 158 159
f 160 161 162
f 163 164 165
f 166 167 168
f 169 170 171
f 172 173 174
f 175 176 177
f 178 179 180
f 181 182 183
f 184 185 186
f 187 188 189
f 190 191 192
f 193 194 195
f 196 197 198
f 199 200 201
f 202 203 204
f 205 206 207
f 208 209 210
f 211 212 213
f 214 215 216
f 217 218 219
f 220 221 222
f 223 224 225
f 226 227 228
f 229 230 231
f 232 233 234
f 235 236 237
f 238 239 240
f 241 242 243
f 244 245 246
f 247 248 249
f 250 251 252
f 253 254 255
f 256 257 258
f 259 260 261
f 262 263 264
f 265 266 267
f 268 269 270
f 271 272 273
f 274 275 276
f 277 278 279
f 280 281 282
f 283 284 285
f 286 287 288
f 289 290 291
f 292 293 294
f 295 296 297
f 298 299 300
f 301 302 303
f 304 305 306
f 307 308 309
f 310 311 312
f 313 314 315
f 316 317 318
f 319 320 321
f 322 323 324
f 325 326 327
f 328 329 330
f 331 332 333
f 334 335 336
f 337 338 339
f 340 341 342
f 343 344 345
f 346 347 348
f 349 350 351
f 352 353 354
f 355 356 357
f 358 359 360
f 361 362 363
f 364 365 366
f 367 368 369
f 370 371 372
f 373 374 375
f 376 377 378
f 379 380 381
f 382 383 384
f 385 386 387
f 388 389 390
f 391 392 393
f 394 395 396
f 397 398 399
f 400 401 402
f 403 404 405
f 406 407 408
f 409 410 411
f 412 413 414
f 415 416 417
f 418 419 420
f 421 422 423
f 424 425 426
f 427 428 429
f 430 431 432
f 433 434 435
f 436 437 438
f 439 440 441
f 442 443 444
f 445 446 447
f 448 449 450
f 451 452 453
f 454 455 456
f 457 458 459
f 460 461 462
f 463 464 465
f 466 467 468
f 469 470 471
f 472 473 474
f 475 476 477
f 478 479 480
f 481 482 483
f 484 485 486
f 487 488 489
f 490 491 492
f 493 494 495
f 496 497 498
f 499 500 501
f 502 503 504
f 505 506 507
f 508 509 510
f 511 512 513
f 514 515 516
f 517 518 519
f 520 521 522
f 523 524 525
f 526 527 528
f 529 530 531
f 532 533 534
f 535 536 537
f 538 539 540
f 541 542 543
f 544 545 546
f 547 548 549
f 550 551 552
f 553 554 555
f 556 557 558
f 559 560 561
f 562 563 564
f 565 566 567
f 568 569 570
f 571 572 573
f 574 575 576
f 577 578 579
f 580 581 582
f 583 584 585
f 586 587 588
f 589 590 591
f 592 593 594
f 595 596 597
f 598 599 600
f 601 602 603
f 604 605 606
f 607 608 609
f 610 611 612
f 613 614 615
f 616 617 618
f 619 620 621
f 622 623 624
f 625 626 627
f 628 629 630
f 631 632 633
f 634 635 636
f 637 638 639
f 640 641 642
f 643 644 645
f 646 647 648
f 649 650 651
f 652 653 654
f 655 656 657
f 658 659 660
f 661 662 663
f 664 665 666
f 667 668 669
f 670 671 672
f 673 674 675
f 676 677 678
f 679 680 681
f 682 683 684
f 685 686 687
f 688 689 690
f 691 692 693
f 694 695 696
f 697 698 699
f 700 701 702
f 703 704 705
f 706 707 708
f 709 710 711
f 712 713 714
f 715 716 717
f 718 719 720
f 721 722 723
f 724 725 726
f 727 728 729
f 730 731 732
f 733 734 735
f 736 737 738
f 739 740 741
f 742 743 744
f 745 746 747
f 748 749 750
f 751 752 753
f 754 755 756
f 757 758 759
f 760 761 762
f 763 764 765
f 766 767 768
f 769 770 771
f 772 773 774
f 775 776 777
f 778 779 780
f 781 782 783
f 784 785 786
f 787 788 789
f 790 791 792
f 793 794 795
f 796 797 798
f 799 800 801
f 802 803 804
f 805 806 807
f 808 809 810
f 811 812 813
f 814 815 816
f 817 818 819
f 820 821 822
f 823 824 825
f 826 827 828
f 829 830 831
f 832 833 834
f 835 836 837
f 838 839 840
f 841 842 843
f 844 845 846
f 847 848 849
f 850 851 852
f 853 854 855
f 856 857 858
f 859 860 861
f 862 863 864
f 865 866 867
f 868 869 870
f 871 872 873
f 874 875 876
f 877 878 879
f 880 881 882
f 883 884 885
f 886 887 888
f 889 890 891
f 892 893 894
f 895 896 897
f 898 899 900
f 901 902 903
f 904 905 906
f 907 908 909
f 910 911 912
f 913 914 915
f 916 917 918
f 919 920 921
f 922 923 924
f 925 926 927
f 928 929 930
f 931 932 933
f 934 935 936
f 937 938 939
f 940 941 942
f 943 944 945
f 946 947 948
f 949 950 951
f 952 953 954
f 955 956 957
f 958 959 960
f 961 962 963
f 964 965 966
f 967 968 969
f 970 971 972
f 973 974 975
f 976 977 978
f 979 980 981
f 982 983 984
f 985 986 987
f 988 989 990
f 991 992 993
f 994 995 996
f 997 998 999
f 1000 1001 1002
f 1003 1004 1005
f 1006 1007 1008
f 1009 1010 1011
f 1012 1013 1014
f 1015 1016 1017
f 1018 1019 1020
f 1021 1022 1023
f 1024 1025 1026
f 1027 1028 1029
f 1030 1031 1032
f 1033 1034 1035
f 1036 1037 1038
f 1039 1040 1041
f 1042 1043 1044
f 1045 1046 1047
f 1048 1049 1050
f 1051 1052 1053
f 1054 1055 1056
f 1057 1058 1059
f 1060 1061 1062
f 1063 1064 1065
f 1066 1067 1068
f 1069 1070 1071
f 1072 1073 1074
f 1075 1076 1077
f 1078 1079 1080
f 1081 1082 1083
f 1084 1085 1086
f 1087 1088 1089
f 1090 1091 1092
f 1093 1094 1095
f 1096 1097 1098
f 1099 1100 1101
f 1102 1103 1104
f 1105 1106 1107
f 1108 1109 1110
f 1111 1112 1113
f 1114 1115 1116
f 1117 1118 1119
f 1120 1121 1122
f 1123 1124 1125
f 1126 1127 1128
f 1129 1130 1131
f 1132 1133 1134
f 1135 1136 1137
f 1138 1139 1140
f 1141 1142 1143
f 1144 1145 1146
f 1147 1148 1149
f 1150 1151 1152
f 1153 1154 1155
f 1156 1157 1158
f 1159 1160 1161
f 1162 1163 1164
f 1165 1166 1167
f 1168 1169 1170
f 1171 1172 1173
f 1174 1175 1176
f 1177 1178 1179
f 1180 1181 1182
f 1183 1184 1185
f 1186 1187 1188
f 1189 1190 1191
f 1192 1193 1194
f 1195 1196 1197
f 1198 1199 1200
f 1201 1202 1203
f 1204 1205 1206
f 1207 1208 1209
f 1210 1211 1212
f 1213 1214 1215
f 1216 1217 1218
f 1219 1220 1221
f 1222 1223 1224
f 1225 1226 1227
f 1228 1229 1230
f 1231 1232 1233
f 1234 1235 1236
f 1237 1238 1239
f 1240 1241 1242
f 1243 1244 1245
f 1246 1247 1248
f 1249 1250 1251
f 1252 1253 1254
f 1255 1256 1257
f 1258 1259 1260
f 1261 1262 1263
f 1264 1265 1266
f 1267 1268 1269
f 1270 1271 1272
f 1273 1274 1275
f 1276 1277 1278
f 1279 1280 1281
f 1282 1283 1284
f 1285 1286 1287
f 1288 1289 1290
f 1291 1292 1293
f 1294 1295 1296
f 1297 1298 1299
f 1300 1301 1302
f 1303 1304 1305
f 1306 1307 1308
f 1309 1310 1311
f 1312 1313 1314
f 1315 1316 1317
f 1318 1319 1320
f 1321 1322 1323
f 1324 1325 1326
f 1327 1328 1329
f 1330 1331 1332
f 1333 1334 1335
f 1336 1337 1338
f 1339 1340 1341
f 1342 1343 1344
f 1345 1346 1347
f 1348 1349 1350
f 1351 1352 1353
f 1354 1355 1356
f 1357 1358 1359
f 1360 1361 1362
f 1363 1364 1365
f 1366 1367 1368
f 1369 1370 1371
f 1372 1373 1374
f 1375 1376 1377
f 1378 1379 1380
f 1381 1382 1383
f 1384 1385 1386
f 1387 1388 1389
f 1390 1391 1392
f 1393 1394 1395
f 1396 1397 1398
f 1399 1400 1401
f 1402 1403 1404
f 1405 1406 1407
f 1408 1409 1410
f 1411 1412 1413
f 1414 1415 1416
f 1417 1418 1419
f 1420 1421 1422
f 1423 1424 1425
f 1426 1427 1428
f 1429 1430 1431
f 1432 1433 1434
f 1435 1436 1437
f 1438 1439 1440
f 1441 1442 1443
f 1444 1445 1446
f 1447 1448 1449
f 1450 1451 1452
f 1453 1454 1455
f 1456 1457 1458
f 1459 1460 1461
f 1462 1463 1464
f 1465 1466 1467
f 1468 1469 1470
