# https://github.com/mikedh/trimesh
v -0.03972782 -0.01741297 0.04804310
v -0.03745273 -0.03574067 0.04280662
v -0.03704980 -0.01348561 0.06548203
v -0.02227298 0.02186067 0.06375256
v -0.03574067 0.02316980 0.05125351
v 0.00484209 0.04653576 0.01007858
v -0.02264946 0.02118448 0.06506168
v 0.03495189 -0.04294972 0.01269682
v 0.03887925 -0.03917746 0.00876946
v 0.02709716 -0.03050419 -0.00584100
v -0.01086736 -0.05095036 0.04542486
v -0.00301264 -0.05008366 0.05066135
v -0.03443155 -0.02108976 0.06113432
v -0.03959164 0.01662419 0.04935223
v -0.03817567 -0.03181331 0.02709716
v -0.03835892 0.01007858 0.06056244
v 0.04721384 0.03495189 0.05197047
v 0.04673398 0.03957586 0.04673398
v 0.05651864 0.01662419 0.03495189
v -0.00010348 0.04542486 0.00353297
v 0.00091473 0.04411574 -0.00280707
v 0.00484209 0.04676480 -0.00185837
v 0.01662419 0.04629561 0.01007858
v 0.02971540 0.04463579 0.02709716
v 0.04411574 0.03887925 0.04919495
v 0.04477030 0.03966193 0.04804310
v 0.01138770 0.00948690 0.08338939
v 0.01138770 0.00615122 0.08566337
v 0.04673398 0.03281668 0.05458871
v -0.03835892 0.02186067 0.05185588
v -0.03574067 0.02382544 0.04869767
v -0.01610385 -0.03312243 -0.00053153
v -0.03181331 -0.03773528 0.01531507
v -0.02866091 -0.03443155 0.01007858
v 0.04149750 -0.04299634 0.02447892
v 0.05078378 -0.03328268 0.01138770
v 0.05508065 -0.02788595 0.01531507
v 0.01400594 0.00793391 0.08362245
v 0.04935223 -0.03312243 0.00582664
v 0.04986565 -0.03050419 0.00353297
v 0.05363943 -0.02919507 0.00876946
v -0.03574067 -0.03630237 0.04542486
v -0.00039439 -0.05558188 0.04331700
v -0.03854833 -0.03181331 0.03364277
v -0.03773387 -0.03574067 0.02447892
v -0.03795212 -0.03574067 0.02709716
v -0.03704980 -0.03889031 0.02709716
v -0.02264946 0.02055155 0.06568533
v 0.00746034 0.00472731 0.08469851
v -0.03443155 -0.01348561 0.06683724
v -0.03312243 -0.01872209 0.06394623
v 0.05318539 -0.01348561 0.01138770
v 0.04098584 0.04149750 0.03364277
v 0.03757013 0.04370165 0.03102453
v 0.01924243 0.04521937 0.00876946
v 0.03626101 0.04296823 0.02824775
v 0.04673398 0.03599959 0.05197047
v -0.00039439 -0.05542793 0.04018838
v 0.01073314 -0.05471671 0.04280662
v 0.01269682 -0.05445430 0.04149750
v -0.00301264 -0.04490453 0.01808535
v -0.00955824 -0.03199993 -0.00563088
v -0.02657682 -0.03835892 0.01259376
v -0.02788595 -0.04518661 0.02316980
v -0.00170351 -0.02526770 -0.01643213
v -0.03382522 -0.04228628 0.02447892
v -0.03701690 -0.03835892 0.02316980
v 0.04280662 -0.03882276 0.01007858
v 0.03429733 -0.04675384 0.02775172
v 0.03495189 -0.04674487 0.02971540
v 0.05066135 -0.01610385 0.00764441
v 0.03757013 -0.03835892 0.06164384
v 0.04441005 0.01400594 0.06506168
v 0.04733622 0.03102453 0.05458871
v 0.00615122 0.04280662 -0.00736116
v 0.00615122 -0.05453437 0.04542486
v -0.03732575 -0.02788595 0.02316980
v -0.03704980 0.01400594 0.06136652
v -0.03725420 0.02316980 0.04804310
v 0.00615122 0.04654835 -0.00170351
v 0.00790392 0.04280662 -0.00563088
v -0.02264946 -0.04835191 0.03757013
v -0.00694000 -0.05340553 0.03757013
v -0.00170351 -0.05434112 0.03757013
v -0.01217649 -0.04100682 0.01138770
v -0.00301264 -0.01939249 -0.02084642
v 0.00353297 -0.01741297 -0.02191447
v -0.00301264 -0.01610385 -0.02302374
v -0.00181944 -0.01348561 -0.02402076
v -0.03312243 -0.03987717 0.01924243
v -0.03574067 -0.03050419 0.01745067
v 0.01138770 -0.00563088 -0.01611569
v -0.00039439 -0.00824912 -0.02279775
v 0.00876946 0.00615122 0.08516031
v -0.03120190 0.01924243 0.06113432
v 0.05066135 -0.00544756 0.01269682
v 0.05458871 0.01793331 0.02993452
v 0.05629361 0.01793331 0.03364277
v 0.00484209 0.04542486 -0.00456363
v -0.02657682 -0.04660299 0.02906084
v -0.00170351 -0.00694000 -0.02208679
v 0.01531507 -0.02395858 -0.01401900
v -0.00170351 -0.01872209 -0.02167971
v -0.03321428 -0.03704980 0.01649922
v -0.00432176 -0.01348561 -0.02159196
v -0.03289253 -0.02395858 0.01531507
v -0.00473139 -0.01086736 -0.02003121
v -0.03824493 0.02186067 0.04804310
v 0.04935223 -0.03464768 0.01007858
v 0.03626101 -0.03958024 0.06113432
v 0.03495189 0.00615122 0.07208941
v 0.03423240 0.00222385 0.07291642
v 0.02578804 -0.01086736 0.07743899
v 0.02316980 -0.01086736 0.07790472
v 0.05458871 0.01924243 0.03093958
v -0.03050419 -0.04489155 0.02578804
v 0.00484209 -0.01086736 -0.02141219
v -0.03019069 -0.03312243 0.01138770
v -0.03024939 0.01662419 0.02971540
v -0.03704980 0.02186067 0.04507947
v -0.03561702 -0.00563088 0.02866199
v 0.03495189 -0.03780691 0.06244344
v -0.03181331 -0.04396358 0.03495189
v -0.03443155 0.00484209 0.03138882
f 3 1 2
f 4 5 6
f 4 5 7
f 8 9 10
f 11 12 13
f 1 15 14
f 16 14 1
f 16 3 1
f 17 18 19
f 22 23 6
f 22 20 6
f 24 23 6
f 25 7 26
f 25 27 7
f 30 5 7
f 31 20 6
f 26 4 6
f 26 24 6
f 32 33 34
f 35 36 37
f 38 27 28
f 38 27 29
f 39 40 10
f 39 9 10
f 42 11 13
f 42 3 13
f 42 3 2
f 43 11 12
f 44 2 1
f 45 46 15
f 46 47 2
f 46 2 44
f 48 30 7
f 49 50 12
f 51 12 13
f 51 50 12
f 51 50 3
f 51 3 13
f 54 24 23
f 54 55 56
f 54 24 26
f 54 18 26
f 54 53 18
f 54 56 53
f 57 27 29
f 31 5 6
f 31 30 5
f 4 26 7
f 58 59 43
f 58 59 60
f 61 8 62
f 63 32 33
f 63 64 62
f 63 32 62
f 65 8 62
f 66 47 67
f 36 41 37
f 68 8 9
f 68 39 9
f 69 8 60
f 69 70 60
f 40 71 41
f 40 39 41
f 72 35 37
f 72 37 19
f 73 74 19
f 73 72 19
f 76 59 43
f 76 43 12
f 15 44 46
f 15 44 1
f 67 45 46
f 67 46 47
f 77 15 14
f 78 16 3
f 78 50 3
f 30 16 14
f 79 20 21
f 80 23 22
f 57 18 17
f 57 18 26
f 23 54 55
f 23 80 55
f 25 57 27
f 25 57 26
f 82 83 43
f 82 11 43
f 43 58 83
f 84 61 8
f 85 64 62
f 85 61 62
f 85 84 64
f 85 84 61
f 62 86 32
f 62 86 65
f 32 34 86
f 87 88 89
f 65 8 10
f 90 66 67
f 91 45 67
f 91 77 45
f 91 77 14
f 39 36 41
f 70 35 69
f 8 35 68
f 8 35 69
f 71 52 41
f 92 75 71
f 92 40 71
f 38 73 28
f 38 73 29
f 74 57 29
f 74 57 17
f 74 17 19
f 15 77 45
f 78 16 30
f 94 78 50
f 95 78 48
f 95 48 30
f 95 78 30
f 48 27 7
f 79 30 31
f 79 31 20
f 96 97 52
f 98 97 52
f 98 18 19
f 98 37 19
f 98 41 37
f 98 52 41
f 81 97 55
f 81 96 97
f 80 75 55
f 99 75 21
f 99 80 75
f 100 82 83
f 58 83 64
f 58 84 64
f 58 8 60
f 101 93 89
f 101 75 21
f 101 93 75
f 102 87 65
f 102 65 10
f 102 10 40
f 102 87 40
f 88 34 86
f 103 88 86
f 103 87 65
f 103 86 65
f 64 90 66
f 64 33 63
f 64 33 90
f 104 91 67
f 105 91 88
f 106 105 107
f 108 91 14
f 108 30 14
f 108 79 30
f 109 35 36
f 109 39 36
f 109 35 68
f 109 68 39
f 110 72 35
f 110 70 60
f 110 59 60
f 110 76 59
f 110 76 12
f 111 73 28
f 112 73 72
f 112 113 72
f 112 111 73
f 112 113 28
f 112 111 28
f 114 49 28
f 114 113 28
f 114 49 12
f 29 74 73
f 42 82 11
f 94 48 78
f 94 48 27
f 94 27 28
f 94 49 28
f 94 49 50
f 96 52 71
f 96 75 71
f 96 75 81
f 115 98 97
f 115 56 53
f 115 97 55
f 115 56 55
f 75 81 55
f 116 66 64
f 58 84 8
f 88 103 87
f 117 92 40
f 117 87 40
f 117 93 75
f 117 92 75
f 117 89 93
f 117 87 89
f 104 90 67
f 104 90 33
f 118 88 34
f 106 105 91
f 119 107 21
f 119 120 21
f 121 108 91
f 120 108 79
f 120 79 21
f 70 110 35
f 122 110 72
f 122 113 72
f 122 114 113
f 122 110 12
f 122 114 12
f 123 42 2
f 123 42 82
f 115 98 18
f 115 18 53
f 22 99 80
f 22 99 21
f 22 21 20
f 100 116 64
f 100 83 64
f 116 100 82
f 101 105 107
f 101 107 21
f 118 91 88
f 104 33 34
f 104 118 34
f 104 118 91
f 89 105 101
f 89 105 88
f 119 106 107
f 120 121 108
f 124 119 106
f 123 47 2
f 121 124 106
f 121 106 91
f 121 124 120
f 124 119 120
f 123 116 66
f 123 66 47
f 123 116 82