# https://github.com/mikedh/trimesh
v -0.06180709 -0.05655144 -0.03142669
v -0.09731304 -0.06151559 0.01009901
v -0.09008395 -0.04811099 -0.01849288
v -0.04781547 -0.04280745 -0.04191829
v -0.09908947 -0.03339628 0.00812191
v -0.09671855 0.02913271 0.01761635
v -0.06687326 -0.02336011 0.06892771
v -0.06425557 -0.06333674 0.06991889
v -0.05334763 0.03076341 -0.02462162
v -0.08535936 0.07054076 0.00460856
v -0.02303750 0.19458902 0.07737308
v -0.01393902 0.19939274 0.05100959
v -0.02484945 0.17420496 0.07154736
v -0.04657682 0.20153044 0.05107738
v -0.01648067 0.17890762 0.04733166
v -0.03035656 0.18037870 0.03498697
v -0.04985666 0.17683862 0.05937009
v -0.00479647 -0.07320146 0.05412034
v 0.01063962 -0.07002908 0.02776550
v -0.04364541 -0.07459236 0.07300119
v 0.01237321 0.12785298 0.06634549
v -0.02135278 0.13017992 0.09702638
v -0.04679739 0.13933287 0.09347221
v 0.00471414 0.11982829 0.08244517
v 0.01410990 0.11959764 0.04689396
v -0.02159637 0.00825842 -0.02479101
v -0.04019210 0.08781759 -0.01797639
v -0.02859271 -0.05037520 -0.03476183
v 0.01385035 -0.04473598 0.02735957
v -0.01307699 -0.06069704 0.06801558
v 0.01156395 -0.05899180 0.04677124
v -0.07898863 0.14349303 0.04037623
v -0.01704587 0.13614644 0.00195793
v -0.01390631 0.10245123 -0.00359494
v 0.01561833 0.07094558 0.06959651
v -0.03155637 0.07518902 0.10171800
v 0.01715989 0.02282894 0.04872694
v 0.01696698 0.07048003 0.04263076
v -0.02778659 0.05072172 0.09490416
v -0.01775366 0.06703248 -0.01561638
v -0.03010609 -0.00040532 0.08734010
v 0.00642782 0.02108118 0.02097007
v -0.04065668 0.14036044 -0.00171958
v -0.07945053 0.10046111 0.00496860
v -0.06768580 0.14931400 0.02010173
v -0.04822895 -0.04846197 0.08157131
v -0.08996333 0.06512307 0.03810748
v -0.07130064 0.02845342 0.06669510
v -0.05678508 0.05748664 0.09145312
v -0.08895927 0.10915791 0.03929681
v -0.05296384 0.10498773 0.09461267
f 2 3 1
f 6 3 5
f 7 5 8
f 3 4 1
f 11 13 12
f 12 13 15
f 16 12 15
f 11 14 13
f 14 17 13
f 14 11 12
f 12 16 14
f 18 1 19
f 1 18 2
f 20 2 18
f 5 3 2
f 6 10 3
f 21 15 13
f 13 22 21
f 21 22 24
f 13 23 22
f 4 3 9
f 6 5 7
f 10 9 3
f 4 27 26
f 26 28 4
f 19 1 28
f 4 28 1
f 29 19 28
f 30 18 31
f 18 19 31
f 29 28 26
f 13 17 23
f 14 16 17
f 21 25 15
f 25 33 15
f 24 35 21
f 37 21 35
f 35 24 36
f 39 35 36
f 37 38 21
f 40 34 38
f 26 27 40
f 35 31 37
f 37 42 38
f 33 25 34
f 15 33 16
f 27 4 9
f 27 34 40
f 27 33 34
f 33 27 43
f 43 27 44
f 44 45 43
f 40 42 26
f 8 46 7
f 2 20 8
f 5 2 8
f 20 18 30
f 8 20 46
f 6 48 47
f 48 49 47
f 6 47 10
f 9 10 27
f 7 46 49
f 48 7 49
f 48 6 7
f 17 16 32
f 51 50 49
f 50 47 49
f 50 10 47
f 39 49 46
f 41 39 46
f 42 29 26
f 31 19 29
f 31 29 37
f 41 30 31
f 46 30 41
f 20 30 46
f 16 43 45
f 33 43 16
f 41 31 35
f 38 42 40
f 37 29 42
f 35 39 41
f 49 36 51
f 44 27 10
f 50 32 10
f 44 10 32
f 22 36 24
f 36 22 23
f 36 23 51
f 23 17 32
f 32 50 23
f 23 50 51
f 44 32 45
f 16 45 32
f 38 25 21
f 25 38 34
f 36 49 39