# https://github.com/mikedh/trimesh
v -0.03155812 0.07661408 -0.00265072
v -0.04169826 -0.00076346 -0.04605764
v -0.05720206 -0.04983215 0.03509442
v 0.05396700 -0.03629270 -0.04039587
v -0.04228312 -0.02347295 -0.03473409
v 0.05207974 -0.04605764 -0.02395383
v 0.04645696 -0.07247924 0.04264345
v 0.06171657 0.00867282 0.08416311
v 0.05976779 -0.03850861 -0.02152329
v -0.03662135 0.03929135 0.07661408
v -0.02718507 0.07000361 0.01999637
v -0.04255369 -0.00642524 -0.04417038
v -0.05695547 -0.05549393 0.03131991
v -0.02529781 0.02565814 0.08876094
v -0.02718507 0.02377088 0.08917708
v 0.05396700 0.00489831 0.09574182
v -0.03850861 0.03131991 0.08653622
v 0.06529054 0.01056008 -0.02308187
v 0.05585426 -0.02718507 -0.04467195
v 0.07095231 0.05019248 -0.00143084
v 0.03886894 -0.07877885 0.04264345
v 0.02754540 -0.07664105 0.03886894
v 0.04075620 -0.07874783 0.04075620
v 0.04264345 -0.07095113 0.02377088
v -0.04983215 -0.05926844 0.03220116
v -0.05549393 -0.05648623 0.03131991
v 0.03509442 -0.07625376 0.04878280
v 0.02565814 0.01810911 0.09035001
v 0.05585426 0.01363062 0.08982489
v 0.05962877 0.01615461 0.08416311
v 0.07561979 0.05396700 0.01056008
v 0.07283957 0.05680191 0.00867282
v -0.04269022 -0.01586152 -0.04228312
v 0.07509185 0.04830522 0.00489831
v 0.05207974 -0.03095958 -0.04585874
v 0.03698168 -0.02718507 -0.04730664
v -0.03095958 -0.01208701 -0.05192839
v -0.03284684 0.00489831 -0.04413694
v -0.03850861 -0.01019975 -0.05207953
v 0.05962877 -0.03095958 -0.04422262
v -0.05360667 -0.05994179 0.03698168
v -0.05619311 -0.05360667 0.04641797
v -0.05613986 -0.05738118 0.03509442
v -0.02718507 -0.01774878 -0.04759570
v 0.04075620 -0.07625376 0.04904441
v 0.02754540 -0.07436649 0.04948701
v 0.05396700 0.00037881 0.09359940
v -0.05549393 -0.05360667 0.04735510
v -0.04039587 -0.06174004 0.04453071
v -0.04983215 -0.05926844 0.04261752
v -0.00265072 -0.06870472 0.04745335
v -0.04119088 0.03131991 0.08416311
v 0.06042651 0.01056008 0.08793763
v 0.05585426 0.00489831 0.09519843
v 0.06100456 0.01433459 0.08416311
v 0.07342888 0.05585426 0.00489831
v -0.04093011 -0.01161519 -0.04887662
v -0.03662135 0.02565814 0.08729102
v -0.04039587 0.01999637 0.08487129
v -0.04605764 -0.01019975 0.07004172
v -0.04303997 0.02377088 0.08416311
v 0.07275161 0.05019248 -0.00076346
v 0.07079238 0.02943265 -0.01114338
v 0.07257406 0.03320717 -0.00453798
v 0.06162948 -0.02718507 -0.04039587
v 0.06247346 -0.02152329 -0.03850861
v 0.05585426 -0.03284684 -0.04479648
v -0.03095958 -0.01397426 -0.05180953
v -0.05054717 -0.00831249 0.06151603
v 0.04830522 -0.06681747 0.01869215
v 0.04075620 -0.07823076 0.04453071
v 0.04923733 -0.06681747 0.02188362
v 0.05396700 -0.05172287 -0.00831249
v -0.03850861 -0.01215852 -0.05178765
v 0.04775257 -0.06115569 0.05585426
v 0.05744923 -0.01019975 0.08038860
v 0.06011436 0.00678557 0.08982489
v 0.00867282 -0.07229176 0.04641797
v -0.04108817 0.04075620 0.06529054
v -0.04276690 0.02754540 0.08038860
v 0.05734428 0.00489831 0.09359940
v -0.01774878 0.07700743 0.00301105
v 0.07095231 0.05784877 0.00678557
v 0.07095231 0.05727599 0.00489831
v 0.07479889 0.05207974 0.00413676
v 0.06151603 -0.02152329 -0.03972043
v 0.06187082 -0.02718507 -0.03662135
v 0.01433459 -0.02529781 -0.04689796
v -0.01963604 0.07772423 -0.00076346
v 0.02565814 0.06753411 0.00112379
v 0.04453071 -0.07628039 0.04264345
v 0.05962877 -0.03299757 -0.04228312
v 0.04468582 -0.07460889 0.04641797
v 0.04264345 -0.06493021 0.05632071
v -0.00265072 -0.07018804 0.04453071
v 0.06340328 0.05396700 -0.00082079
v -0.02341055 0.07661408 -0.00488259
v -0.02341055 0.07707353 -0.00453798
v 0.04853100 -0.04322675 0.06771611
v 0.05585426 0.06097966 0.00867282
v -0.02907232 0.05585426 -0.01647032
v -0.03850861 0.00180633 -0.04605764
v -0.03095958 0.07661408 -0.00358830
v 0.04075620 0.06348959 0.00112379
v 0.01810911 0.06955288 0.00489831
f 1 2 3
f 4 5 6
f 7 9 8
f 10 11 1
f 12 2 3
f 12 13 3
f 14 15 16
f 14 15 17
f 18 19 20
f 21 22 23
f 24 5 6
f 24 22 25
f 24 5 25
f 24 22 23
f 26 5 25
f 10 28 29
f 28 14 16
f 28 14 17
f 28 29 16
f 32 30 31
f 33 12 13
f 34 9 8
f 35 36 19
f 37 38 19
f 25 41 22
f 42 13 3
f 43 41 13
f 43 42 13
f 26 41 25
f 26 41 13
f 44 4 5
f 47 48 46
f 49 50 41
f 51 48 46
f 51 49 48
f 17 10 28
f 53 30 29
f 55 30 31
f 55 53 30
f 55 8 31
f 55 8 53
f 56 32 31
f 57 33 12
f 57 12 2
f 58 15 17
f 58 59 15
f 60 59 15
f 60 15 16
f 60 47 16
f 60 47 48
f 61 58 59
f 61 60 48
f 61 60 59
f 62 18 20
f 34 8 31
f 64 34 9
f 65 64 66
f 35 19 40
f 67 35 40
f 37 36 19
f 37 68 36
f 37 39 38
f 69 42 3
f 69 1 3
f 41 43 42
f 48 50 41
f 48 49 50
f 48 41 42
f 23 70 24
f 71 27 21
f 71 23 21
f 72 9 7
f 72 73 9
f 68 44 5
f 68 35 36
f 68 67 35
f 68 37 39
f 75 76 77
f 75 8 7
f 75 76 8
f 78 49 51
f 78 51 46
f 10 17 52
f 79 69 80
f 79 69 1
f 29 53 54
f 81 53 54
f 81 77 53
f 77 76 8
f 77 53 8
f 54 47 16
f 54 29 16
f 82 11 1
f 57 2 39
f 17 61 52
f 17 61 58
f 83 56 84
f 56 83 32
f 84 62 56
f 84 62 20
f 85 62 56
f 85 34 31
f 85 64 34
f 63 64 66
f 63 85 64
f 86 66 40
f 86 19 40
f 86 63 66
f 86 18 19
f 86 62 18
f 86 63 62
f 65 66 40
f 87 65 9
f 88 44 4
f 88 44 68
f 89 82 1
f 90 83 84
f 90 89 83
f 61 69 80
f 61 52 80
f 61 42 48
f 23 71 91
f 45 71 27
f 92 73 9
f 6 73 70
f 6 92 73
f 5 68 74
f 93 71 45
f 94 75 45
f 94 27 45
f 94 47 46
f 94 27 46
f 81 75 54
f 95 49 41
f 95 78 49
f 78 27 46
f 78 27 21
f 78 95 21
f 52 79 80
f 79 10 1
f 79 52 10
f 85 62 63
f 85 56 31
f 87 65 64
f 87 64 9
f 67 88 4
f 88 68 67
f 96 97 20
f 96 84 20
f 98 90 89
f 61 69 42
f 91 23 70
f 91 70 72
f 91 72 7
f 92 67 40
f 73 70 72
f 92 65 9
f 92 65 40
f 6 70 24
f 33 57 74
f 74 68 39
f 57 74 39
f 93 75 45
f 71 93 91
f 93 75 7
f 93 91 7
f 99 47 54
f 99 94 47
f 99 75 54
f 77 81 75
f 95 41 22
f 95 21 22
f 100 83 32
f 100 82 11
f 100 30 32
f 100 10 29
f 100 11 10
f 100 30 29
f 97 19 20
f 97 38 19
f 102 39 38
f 102 97 38
f 102 97 101
f 102 39 2
f 103 101 97
f 103 102 101
f 103 1 2
f 103 102 2
f 104 90 84
f 104 96 84
f 92 67 4
f 92 4 6
f 5 26 13
f 99 94 75
f 105 89 83
f 105 100 83
f 105 89 82
f 105 100 82
f 98 96 97
f 98 104 96
f 98 104 90
f 98 89 1
f 98 103 1
f 98 103 97
f 33 5 74
f 33 5 13