v -0.035220980459770124 -0.015005918390804599 -0.05385718390804598
v 0.05174798505747127 -0.029950744827586213 -0.04764511724137931
v -0.02279684137931035 -0.02297393908045977 -0.043503737931034486
v 0.06003074252873564 -0.012443393103448276 -0.04170324942528736
v 0.0020514333333333337 0.07659625747126438 -0.004554924137931035
v -0.035220980459770124 -0.012443393103448276 -0.05647727586206897
v -0.054157325287356325 -0.02279684137931035 -0.02900890804597701
v -0.06326821379310346 -0.06006925287356322 0.039323845977011496
v -0.0501567643678161 -0.01865546206896552 -0.043503737931034486
v -0.054157325287356325 -0.02279684137931035 -0.02900890804597701
v -0.04907169540229885 0.0020514333333333337 -0.04143304827586207
v -0.04902815287356322 -0.008302014942528736 -0.049715804597701155
v -0.054157325287356325 -0.02279684137931035 -0.02900890804597701
v -0.04907169540229885 0.0020514333333333337 -0.04143304827586207
v -0.051019804597701154 0.0041221229885057475 -0.01865546206896552
v -0.006231325287356322 -0.07327525287356322 0.045535913793103455
v 0.05174798505747127 -0.029950744827586213 -0.04764511724137931
v -0.02279684137931035 -0.02297393908045977 -0.043503737931034486
v -0.006231325287356322 -0.07327525287356322 0.045535913793103455
v 0.05174798505747127 -0.029950744827586213 -0.04764511724137931
v 0.04139453563218391 -0.07796650574712645 0.04346522413793104
v -0.006231325287356322 -0.07327525287356322 0.045535913793103455
v 0.04139453563218391 -0.07796650574712645 0.04346522413793104
v 0.04139453563218391 -0.08018536781609195 0.04967729195402299
v -0.006231325287356322 -0.07327525287356322 0.045535913793103455
v -0.062139942528735635 -0.06320556321839081 0.04967729195402299
v -0.062139942528735635 -0.06313884367816093 0.047606603448275865
v -0.04764511724137931 -0.008302014942528736 -0.052649954022988506
v -0.04764511724137931 -0.01037270459770115 -0.053263059770114946
v -0.04902815287356322 -0.008302014942528736 -0.049715804597701155
v -0.04764511724137931 -0.008302014942528736 -0.052649954022988506
v -0.04764511724137931 -0.01037270459770115 -0.053263059770114946
v -0.045574427586206896 -0.01037270459770115 -0.0553077816091954
v -0.04393184367816092 0.04967729195402299 -0.016584773563218393
v -0.04907169540229885 0.0020514333333333337 -0.04143304827586207
v -0.051019804597701154 0.0041221229885057475 -0.01865546206896552
v -0.04393184367816092 0.04967729195402299 -0.016584773563218393
v -0.043503737931034486 0.04967729195402299 -0.018390710344827588
v -0.04907169540229885 0.0020514333333333337 -0.04143304827586207
v -0.049715804597701155 -0.019167889655172413 -0.043503737931034486
v -0.04764511724137931 -0.024179072413793107 -0.035220980459770124
v -0.057998566666666675 -0.06178486206896552 0.03725315632183908
v -0.049715804597701155 -0.019167889655172413 -0.043503737931034486
v -0.04764511724137931 -0.024179072413793107 -0.035220980459770124
v -0.02279684137931035 -0.02297393908045977 -0.043503737931034486
v 0.07452557471264369 0.06534860919540231 0.0041221229885057475
v 0.07659625747126438 0.062101425287356335 0.0033526367816091958
v 0.07038419540229886 0.0683135 0.0026368402298850577
v 0.05174798505747127 0.04139453563218391 -0.014913183908045977
v 0.07038419540229886 0.0683135 0.0026368402298850577
v 0.0020514333333333337 0.07659625747126438 -0.004554924137931035
v 0.05174798505747127 0.04139453563218391 -0.014913183908045977
v 0.06003074252873564 -0.012443393103448276 -0.04170324942528736
v 0.0020514333333333337 0.07659625747126438 -0.004554924137931035
v 0.07245487816091956 0.05174798505747127 -0.004503541379310346
v 0.07659625747126438 0.062101425287356335 0.0033526367816091958
v 0.07038419540229886 0.0683135 0.0026368402298850577
v 0.07245487816091956 0.05174798505747127 -0.004503541379310346
v 0.06003074252873564 -0.012443393103448276 -0.04170324942528736
v 0.07038419540229886 0.0683135 0.0026368402298850577
v -0.06256254022988507 -0.05385718390804598 0.03311177816091954
v -0.054157325287356325 -0.02279684137931035 -0.02900890804597701
v -0.06326821379310346 -0.06006925287356322 0.039323845977011496
v -0.06331129310344828 -0.062139942528735635 0.04967729195402299
v -0.062139942528735635 -0.06320556321839081 0.04967729195402299
v -0.062139942528735635 -0.062139942528735635 0.05075856551724139
v -0.06006925287356322 -0.0631393367816092 0.04346522413793104
v -0.062139942528735635 -0.061309954022988514 0.039323845977011496
v -0.057998566666666675 -0.06178486206896552 0.03725315632183908
v -0.06006925287356322 -0.0631393367816092 0.04346522413793104
v -0.006231325287356322 -0.07327525287356322 0.045535913793103455
v -0.057998566666666675 -0.06178486206896552 0.03725315632183908
v -0.06006925287356322 -0.0631393367816092 0.04346522413793104
v -0.006231325287356322 -0.07327525287356322 0.045535913793103455
v -0.062139942528735635 -0.06313884367816093 0.047606603448275865
v -0.06313662413793104 -0.062139942528735635 0.045535913793103455
v -0.062139942528735635 -0.061309954022988514 0.039323845977011496
v -0.06326821379310346 -0.06006925287356322 0.039323845977011496
v -0.039362359770114944 0.02689970804597701 0.10608906896551726
v -0.039362359770114944 0.028970398850574716 0.10722648275862069
v -0.062139942528735635 -0.062139942528735635 0.05075856551724139
v 0.055889364367816094 -1.925632183908046e-05 0.1080248275862069
v -0.039362359770114944 0.028970398850574716 0.10722648275862069
v 0.03311177816091954 0.01447557011494253 0.11093585057471265
v 0.05675933103448276 -0.012443393103448276 0.09109108620689656
v 0.0604749195402299 0.016546260919540232 0.09730316091954025
v 0.07714079310344829 0.06624281609195402 0.01033419195402299
v 0.05875978620689656 0.012404880459770116 0.10558591494252874
v 0.05796004942528736 0.012404880459770116 0.10714430229885058
v 0.056379183908045985 -1.925632183908046e-05 0.10765659770114944
v 0.05875978620689656 0.012404880459770116 0.10558591494252874
v 0.05675933103448276 -0.012443393103448276 0.09109108620689656
v 0.056379183908045985 -1.925632183908046e-05 0.10765659770114944
v 0.05875978620689656 0.012404880459770116 0.10558591494252874
v 0.05675933103448276 -0.012443393103448276 0.09109108620689656
v 0.0604749195402299 0.016546260919540232 0.09730316091954025
v 0.07038419540229886 0.0702004367816092 0.01033419195402299
v 0.07124567816091955 0.055889364367816094 0.03725315632183908
v 0.07038419540229886 0.0561525908045977 0.03725315632183908
v 0.045535913793103455 -0.06006925287356322 0.07453811494252874
v -0.039362359770114944 0.02689970804597701 0.10608906896551726
v -0.062139942528735635 -0.062139942528735635 0.05075856551724139
v -0.02900890804597701 0.08487901149425288 0.007428919540229885
v -0.02900890804597701 0.08538940804597701 0.006192812643678161
v -0.020726151724137935 0.08531109195402299 0.0041221229885057475
v 0.016546260919540232 0.07866695057471265 -0.00018019885057471267
v 0.07038419540229886 0.0683135 0.0026368402298850577
v 0.0020514333333333337 0.07659625747126438 -0.004554924137931035
v -0.02900890804597701 -0.06421063218390805 0.034220647126436785
v -0.04764511724137931 -0.024179072413793107 -0.035220980459770124
v -0.057998566666666675 -0.06178486206896552 0.03725315632183908
v -0.02900890804597701 -0.06421063218390805 0.034220647126436785
v -0.006231325287356322 -0.07327525287356322 0.045535913793103455
v -0.057998566666666675 -0.06178486206896552 0.03725315632183908
v -0.02900890804597701 -0.06421063218390805 0.034220647126436785
v -0.04764511724137931 -0.024179072413793107 -0.035220980459770124
v -0.02279684137931035 -0.02297393908045977 -0.043503737931034486
v -0.02900890804597701 -0.06421063218390805 0.034220647126436785
v -0.006231325287356322 -0.07327525287356322 0.045535913793103455
v -0.02279684137931035 -0.02297393908045977 -0.043503737931034486
v 0.05796004942528736 -0.034750970114942534 -0.039362359770114944
v 0.05174798505747127 -0.029950744827586213 -0.04764511724137931
v 0.04139453563218391 -0.07796650574712645 0.04346522413793104
v 0.05796004942528736 -0.034750970114942534 -0.039362359770114944
v 0.062101425287356335 -0.030129359770114945 -0.045574427586206896
v 0.05174798505747127 -0.029950744827586213 -0.04764511724137931
v -0.048339247126436787 -0.01037270459770115 -0.05178649425287357
v -0.04764511724137931 -0.01037270459770115 -0.053263059770114946
v -0.04902815287356322 -0.008302014942528736 -0.049715804597701155
v -0.04628529540229886 -0.008302014942528736 -0.05385718390804598
v -0.04764511724137931 -0.008302014942528736 -0.052649954022988506
v -0.045574427586206896 -0.01037270459770115 -0.0553077816091954
v -0.04143304827586207 0.00633002643678161 -0.04764511724137931
v 0.0020514333333333337 0.07659625747126438 -0.004554924137931035
v -0.035220980459770124 -0.012443393103448276 -0.05647727586206897
v -0.04143304827586207 0.00633002643678161 -0.04764511724137931
v -0.035220980459770124 0.07659625747126438 -0.010052358620689655
v 0.0020514333333333337 0.07659625747126438 -0.004554924137931035
v -0.045574427586206896 -0.013673695402298852 -0.05385718390804598
v -0.035220980459770124 -0.015005918390804599 -0.05385718390804598
v -0.02279684137931035 -0.02297393908045977 -0.043503737931034486
v -0.045574427586206896 -0.013673695402298852 -0.05385718390804598
v -0.049715804597701155 -0.019167889655172413 -0.043503737931034486
v -0.02279684137931035 -0.02297393908045977 -0.043503737931034486
v -0.06006925287356322 -0.05872032183908046 0.03311177816091954
v -0.049715804597701155 -0.019167889655172413 -0.043503737931034486
v -0.057998566666666675 -0.06178486206896552 0.03725315632183908
v -0.06006925287356322 -0.05872032183908046 0.03311177816091954
v -0.062139942528735635 -0.061309954022988514 0.039323845977011496
v -0.057998566666666675 -0.06178486206896552 0.03725315632183908
v -0.06006925287356322 -0.05872032183908046 0.03311177816091954
v -0.049715804597701155 -0.019167889655172413 -0.043503737931034486
v -0.062139942528735635 -0.061309954022988514 0.039323845977011496
v -0.062139942528735635 -0.06006925287356322 0.03740198850574713
v -0.062139942528735635 -0.061309954022988514 0.039323845977011496
v -0.06326821379310346 -0.06006925287356322 0.039323845977011496
v 0.07659625747126438 0.0629806091954023 0.0041221229885057475
v 0.07452557471264369 0.06534860919540231 0.0041221229885057475
v 0.07659625747126438 0.062101425287356335 0.0033526367816091958
v 0.05796004942528736 -0.026938221839080463 -0.047744714942528736
v 0.053818674712643684 -0.026938221839080463 -0.04869979655172414
v 0.06003074252873564 -0.012443393103448276 -0.04170324942528736
v 0.06417212183908047 0.05174798505747127 -0.007250673563218392
v 0.06003074252873564 -0.012443393103448276 -0.04170324942528736
v 0.07038419540229886 0.0683135 0.0026368402298850577
v 0.06417212183908047 0.05174798505747127 -0.007250673563218392
v 0.05174798505747127 0.04139453563218391 -0.014913183908045977
v 0.07038419540229886 0.0683135 0.0026368402298850577
v 0.06417212183908047 0.05174798505747127 -0.007250673563218392
v 0.05174798505747127 0.04139453563218391 -0.014913183908045977
v 0.06003074252873564 -0.012443393103448276 -0.04170324942528736
v 0.06417212183908047 -0.006231325287356322 -0.03650667816091954
v 0.06417212183908047 -0.014514083908045977 -0.03991925862068966
v 0.06003074252873564 -0.012443393103448276 -0.04170324942528736
v 0.06417212183908047 -0.006231325287356322 -0.03650667816091954
v 0.07245487816091956 0.05174798505747127 -0.004503541379310346
v 0.06003074252873564 -0.012443393103448276 -0.04170324942528736
v 0.06417212183908047 -0.006231325287356322 -0.03650667816091954
v 0.07245487816091956 0.05174798505747127 -0.004503541379310346
v 0.07659625747126438 0.062101425287356335 0.0033526367816091958
v -0.0634482816091954 -0.057998566666666675 0.04346522413793104
v -0.06326821379310346 -0.06006925287356322 0.039323845977011496
v -0.06355798850574713 -0.057998566666666675 0.045535913793103455
v -0.0634482816091954 -0.057998566666666675 0.04346522413793104
v -0.06256254022988507 -0.05385718390804598 0.03311177816091954
v -0.06355798850574713 -0.057998566666666675 0.045535913793103455
v -0.0634482816091954 -0.057998566666666675 0.04346522413793104
v -0.06256254022988507 -0.05385718390804598 0.03311177816091954
v -0.06326821379310346 -0.06006925287356322 0.039323845977011496
v -0.06346894252873564 -0.062139942528735635 0.047606603448275865
v -0.062139942528735635 -0.06320556321839081 0.04967729195402299
v -0.062139942528735635 -0.06313884367816093 0.047606603448275865
v -0.06346894252873564 -0.062139942528735635 0.047606603448275865
v -0.06331129310344828 -0.062139942528735635 0.04967729195402299
v -0.062139942528735635 -0.06320556321839081 0.04967729195402299
v -0.06346894252873564 -0.062139942528735635 0.047606603448275865
v -0.06313662413793104 -0.062139942528735635 0.045535913793103455
v -0.062139942528735635 -0.06313884367816093 0.047606603448275865
v -0.06346894252873564 -0.062139942528735635 0.047606603448275865
v -0.06313662413793104 -0.062139942528735635 0.045535913793103455
v -0.06326821379310346 -0.06006925287356322 0.039323845977011496
v -0.06346894252873564 -0.062139942528735635 0.047606603448275865
v -0.06326821379310346 -0.06006925287356322 0.039323845977011496
v -0.06355798850574713 -0.057998566666666675 0.045535913793103455
v -0.062139942528735635 -0.06284826781609196 0.045535913793103455
v -0.06313662413793104 -0.062139942528735635 0.045535913793103455
v -0.062139942528735635 -0.06313884367816093 0.047606603448275865
v -0.062139942528735635 -0.06284826781609196 0.045535913793103455
v -0.06313662413793104 -0.062139942528735635 0.045535913793103455
v -0.062139942528735635 -0.061309954022988514 0.039323845977011496
v -0.062139942528735635 -0.06284826781609196 0.045535913793103455
v -0.06006925287356322 -0.0631393367816092 0.04346522413793104
v -0.062139942528735635 -0.06313884367816093 0.047606603448275865
v -0.062139942528735635 -0.06284826781609196 0.045535913793103455
v -0.06006925287356322 -0.0631393367816092 0.04346522413793104
v -0.062139942528735635 -0.061309954022988514 0.039323845977011496
v 0.055889364367816094 0.0020514333333333337 0.10827803448275863
v 0.05796004942528736 0.012404880459770116 0.10714430229885058
v 0.056379183908045985 -1.925632183908046e-05 0.10765659770114944
v 0.055889364367816094 0.0020514333333333337 0.10827803448275863
v 0.055889364367816094 -1.925632183908046e-05 0.1080248275862069
v 0.056379183908045985 -1.925632183908046e-05 0.10765659770114944
v 0.055889364367816094 0.0020514333333333337 0.10827803448275863
v 0.05796004942528736 0.012404880459770116 0.10714430229885058
v 0.03311177816091954 0.01447557011494253 0.11093585057471265
v 0.055889364367816094 0.0020514333333333337 0.10827803448275863
v 0.055889364367816094 -1.925632183908046e-05 0.1080248275862069
v 0.03311177816091954 0.01447557011494253 0.11093585057471265
v -0.06354767816091955 -0.057998566666666675 0.047606603448275865
v -0.06346894252873564 -0.062139942528735635 0.047606603448275865
v -0.06355798850574713 -0.057998566666666675 0.045535913793103455
v -0.06354767816091955 -0.057998566666666675 0.047606603448275865
v -0.06346894252873564 -0.062139942528735635 0.047606603448275865
v -0.06331129310344828 -0.062139942528735635 0.04967729195402299
v 0.039323845977011496 0.02068764022988506 0.10431871264367816
v -0.039362359770114944 0.028970398850574716 0.10722648275862069
v 0.03311177816091954 0.01447557011494253 0.11093585057471265
v 0.039323845977011496 0.02068764022988506 0.10431871264367816
v 0.0248290183908046 0.02689970804597701 0.10028081609195404
v -0.039362359770114944 0.028970398850574716 0.10722648275862069
v -0.035220980459770124 0.06727442528735632 0.04139453563218391
v 0.07038419540229886 0.0561525908045977 0.03725315632183908
v -0.02900890804597701 0.0828083287356322 0.01148712183908046
v 0.05174798505747127 0.016546260919540232 0.10604246551724139
v 0.039323845977011496 0.02068764022988506 0.10431871264367816
v 0.03311177816091954 0.01447557011494253 0.11093585057471265
v 0.05174798505747127 0.016546260919540232 0.10604246551724139
v 0.039323845977011496 0.02068764022988506 0.10431871264367816
v 0.05174798505747127 0.017032202298850576 0.10558591494252874
v 0.05796004942528736 0.01447557011494253 0.10583950229885059
v 0.05174798505747127 0.016546260919540232 0.10604246551724139
v 0.05796004942528736 0.012404880459770116 0.10714430229885058
v 0.05796004942528736 0.01447557011494253 0.10583950229885059
v 0.05174798505747127 0.016546260919540232 0.10604246551724139
v 0.05174798505747127 0.017032202298850576 0.10558591494252874
v 0.047606603448275865 0.0733531724137931 0.01033419195402299
v 0.07038419540229886 0.0561525908045977 0.03725315632183908
v -0.02900890804597701 0.0828083287356322 0.01148712183908046
v 0.047606603448275865 0.0733531724137931 0.01033419195402299
v 0.07038419540229886 0.0702004367816092 0.01033419195402299
v 0.07038419540229886 0.0561525908045977 0.03725315632183908
v 0.047606603448275865 0.0733531724137931 0.01033419195402299
v -0.02900890804597701 0.08487901149425288 0.007428919540229885
v -0.02900890804597701 0.0828083287356322 0.01148712183908046
v 0.047606603448275865 0.0733531724137931 0.01033419195402299
v 0.07038419540229886 0.0702004367816092 0.01033419195402299
v -0.020726151724137935 0.08531109195402299 0.0041221229885057475
v 0.047606603448275865 0.0733531724137931 0.01033419195402299
v -0.02900890804597701 0.08487901149425288 0.007428919540229885
v -0.020726151724137935 0.08531109195402299 0.0041221229885057475
v 0.07659625747126438 0.06738425632183909 0.01033419195402299
v 0.07124567816091955 0.055889364367816094 0.03725315632183908
v 0.07714079310344829 0.06624281609195402 0.01033419195402299
v 0.07659625747126438 0.06738425632183909 0.01033419195402299
v 0.07038419540229886 0.0702004367816092 0.01033419195402299
v 0.07124567816091955 0.055889364367816094 0.03725315632183908
v 0.07659625747126438 0.06738425632183909 0.01033419195402299
v 0.0683135 0.07050850574712644 0.0041221229885057475
v 0.07038419540229886 0.0702004367816092 0.01033419195402299
v 0.07659625747126438 0.06738425632183909 0.01033419195402299
v 0.07659625747126438 0.0629806091954023 0.0041221229885057475
v 0.07714079310344829 0.06624281609195402 0.01033419195402299
v 0.07659625747126438 0.06738425632183909 0.01033419195402299
v 0.07659625747126438 0.0629806091954023 0.0041221229885057475
v 0.07452557471264369 0.06534860919540231 0.0041221229885057475
v 0.07695264367816092 0.062101425287356335 0.0041221229885057475
v 0.06647959770114943 -0.020726151724137935 -0.039362359770114944
v 0.07659625747126438 0.062101425287356335 0.0033526367816091958
v 0.07695264367816092 0.062101425287356335 0.0041221229885057475
v 0.07659625747126438 0.0629806091954023 0.0041221229885057475
v 0.07714079310344829 0.06624281609195402 0.01033419195402299
v 0.07695264367816092 0.062101425287356335 0.0041221229885057475
v 0.07659625747126438 0.0629806091954023 0.0041221229885057475
v 0.07659625747126438 0.062101425287356335 0.0033526367816091958
v 0.06494093908045977 -0.02900890804597701 -0.04143304827586207
v 0.06647959770114943 -0.020726151724137935 -0.039362359770114944
v 0.06352514367816094 -0.02900890804597701 -0.045574427586206896
v 0.06494093908045977 -0.02900890804597701 -0.04143304827586207
v 0.06647959770114943 -0.020726151724137935 -0.039362359770114944
v 0.06307328735632185 -0.03729167011494253 -0.02279684137931035
v 0.06624281609195402 -0.020726151724137935 -0.039721741379310345
v 0.06647959770114943 -0.020726151724137935 -0.039362359770114944
v 0.06352514367816094 -0.02900890804597701 -0.045574427586206896
v 0.047606603448275865 -0.07509770804597701 0.04139453563218391
v 0.04139453563218391 -0.07796650574712645 0.04346522413793104
v 0.04139453563218391 -0.08018536781609195 0.04967729195402299
v 0.047606603448275865 -0.07509770804597701 0.04139453563218391
v 0.05174798505747127 -0.06428309540229886 0.018616950574712646
v 0.04139453563218391 -0.07796650574712645 0.04346522413793104
v 0.05174798505747127 -0.062139942528735635 0.014023934482758621
v 0.05174798505747127 -0.06428309540229886 0.018616950574712646
v 0.04139453563218391 -0.07796650574712645 0.04346522413793104
v 0.05174798505747127 -0.062139942528735635 0.014023934482758621
v 0.05174798505747127 -0.06428309540229886 0.018616950574712646
v 0.06003074252873564 -0.03729167011494253 -0.033791479310344825
v 0.05174798505747127 -0.062139942528735635 0.014023934482758621
v 0.05796004942528736 -0.034750970114942534 -0.039362359770114944
v 0.04139453563218391 -0.07796650574712645 0.04346522413793104
v 0.05174798505747127 -0.062139942528735635 0.014023934482758621
v 0.05796004942528736 -0.034750970114942534 -0.039362359770114944
v 0.06003074252873564 -0.03729167011494253 -0.033791479310344825
v 0.045544540229885064 -0.06006925287356322 0.07452557471264369
v 0.0449014459770115 -0.07663477471264368 0.06003074252873564
v 0.056379183908045985 -1.925632183908046e-05 0.10765659770114944
v 0.045544540229885064 -0.06006925287356322 0.07452557471264369
v 0.045535913793103455 -0.06006925287356322 0.07453811494252874
v 0.056379183908045985 -1.925632183908046e-05 0.10765659770114944
v 0.045544540229885064 -0.06006925287356322 0.07452557471264369
v 0.045535913793103455 -0.06006925287356322 0.07453811494252874
v 0.0449014459770115 -0.07663477471264368 0.06003074252873564
v 0.055889364367816094 -0.0007912229885057472 0.10765659770114944
v 0.055889364367816094 -1.925632183908046e-05 0.1080248275862069
v 0.056379183908045985 -1.925632183908046e-05 0.10765659770114944
v 0.055889364367816094 -0.0007912229885057472 0.10765659770114944
v 0.045535913793103455 -0.06006925287356322 0.07453811494252874
v 0.056379183908045985 -1.925632183908046e-05 0.10765659770114944
v 0.055889364367816094 -0.0007912229885057472 0.10765659770114944
v 0.055889364367816094 -1.925632183908046e-05 0.1080248275862069
v -0.039362359770114944 0.028970398850574716 0.10722648275862069
v -0.03729167011494253 0.02689970804597701 0.10649106321839082
v -0.039362359770114944 0.02689970804597701 0.10608906896551726
v -0.039362359770114944 0.028970398850574716 0.10722648275862069
v -0.03729167011494253 0.02689970804597701 0.10649106321839082
v 0.045535913793103455 -0.06006925287356322 0.07453811494252874
v -0.039362359770114944 0.02689970804597701 0.10608906896551726
v -0.03729167011494253 0.02689970804597701 0.10649106321839082
v 0.055889364367816094 -0.0007912229885057472 0.10765659770114944
v -0.039362359770114944 0.028970398850574716 0.10722648275862069
v -0.03729167011494253 0.02689970804597701 0.10649106321839082
v 0.055889364367816094 -0.0007912229885057472 0.10765659770114944
v 0.045535913793103455 -0.06006925287356322 0.07453811494252874
v 0.045535913793103455 -0.07914580804597701 0.05174798505747127
v 0.04697306896551725 -0.07663477471264368 0.053818674712643684
v 0.0449014459770115 -0.07663477471264368 0.06003074252873564
v 0.045535913793103455 -0.07914580804597701 0.05174798505747127
v 0.04307498160919541 -0.07870545977011495 0.05796004942528736
v 0.0449014459770115 -0.07663477471264368 0.06003074252873564
v 0.039323845977011496 -0.07663477471264368 0.06053696551724139
v -0.062139942528735635 -0.06320556321839081 0.04967729195402299
v -0.062139942528735635 -0.062139942528735635 0.05075856551724139
v 0.039323845977011496 -0.07663477471264368 0.06053696551724139
v 0.045535913793103455 -0.06006925287356322 0.07453811494252874
v -0.062139942528735635 -0.062139942528735635 0.05075856551724139
v 0.05796004942528736 -0.02900890804597701 -0.047634572413793104
v 0.062101425287356335 -0.030129359770114945 -0.045574427586206896
v 0.05174798505747127 -0.029950744827586213 -0.04764511724137931
v 0.062101425287356335 -0.031398312643678164 -0.043503737931034486
v 0.05796004942528736 -0.034750970114942534 -0.039362359770114944
v 0.06003074252873564 -0.03729167011494253 -0.033791479310344825
v 0.062101425287356335 -0.031398312643678164 -0.043503737931034486
v 0.05796004942528736 -0.034750970114942534 -0.039362359770114944
v 0.062101425287356335 -0.030129359770114945 -0.045574427586206896
v 0.062101425287356335 -0.031398312643678164 -0.043503737931034486
v 0.062101425287356335 -0.030129359770114945 -0.045574427586206896
v 0.06352514367816094 -0.02900890804597701 -0.045574427586206896
v 0.062101425287356335 -0.031398312643678164 -0.043503737931034486
v 0.06494093908045977 -0.02900890804597701 -0.04143304827586207
v 0.06352514367816094 -0.02900890804597701 -0.045574427586206896
v -0.039105172413793104 0.0828083287356322 -0.004160635632183908
v -0.04764511724137931 -0.008302014942528736 -0.052649954022988506
v -0.04902815287356322 -0.008302014942528736 -0.049715804597701155
v -0.039105172413793104 0.0828083287356322 -0.004160635632183908
v -0.04393184367816092 0.04967729195402299 -0.016584773563218393
v -0.043503737931034486 0.04967729195402299 -0.018390710344827588
v -0.039105172413793104 0.0828083287356322 -0.004160635632183908
v -0.04907169540229885 0.0020514333333333337 -0.04143304827586207
v -0.04902815287356322 -0.008302014942528736 -0.049715804597701155
v -0.039105172413793104 0.0828083287356322 -0.004160635632183908
v -0.043503737931034486 0.04967729195402299 -0.018390710344827588
v -0.04907169540229885 0.0020514333333333337 -0.04143304827586207
v -0.045574427586206896 -0.008302014942528736 -0.05437682068965517
v -0.04628529540229886 -0.008302014942528736 -0.05385718390804598
v -0.045574427586206896 -0.01037270459770115 -0.0553077816091954
v -0.03315029080459771 0.08548933333333335 -1.925632183908046e-05
v -0.039105172413793104 0.0828083287356322 -0.004160635632183908
v -0.039362359770114944 0.08139302298850576 0.0020514333333333337
v -0.04143304827586207 -0.012443393103448276 -0.05646664367816093
v 0.03725315632183908 -0.026572574712643682 -0.049715804597701155
v 0.05174798505747127 -0.029950744827586213 -0.04764511724137931
v -0.04143304827586207 -0.012443393103448276 -0.05646664367816093
v 0.022758329885057473 -0.02279684137931035 -0.05186922298850575
v -0.035220980459770124 -0.012443393103448276 -0.05647727586206897
v -0.04143304827586207 -0.012443393103448276 -0.05646664367816093
v 0.03725315632183908 -0.026572574712643682 -0.049715804597701155
v 0.022758329885057473 -0.02279684137931035 -0.05186922298850575
v -0.04143304827586207 -0.012443393103448276 -0.05646664367816093
v -0.045574427586206896 -0.008302014942528736 -0.05437682068965517
v -0.045574427586206896 -0.01037270459770115 -0.0553077816091954
v -0.04143304827586207 -0.012443393103448276 -0.05646664367816093
v -0.04143304827586207 0.00633002643678161 -0.04764511724137931
v -0.035220980459770124 -0.012443393103448276 -0.05647727586206897
v -0.04143304827586207 -0.012443393103448276 -0.05646664367816093
v -0.045574427586206896 -0.008302014942528736 -0.05437682068965517
v -0.04143304827586207 0.00633002643678161 -0.04764511724137931
v -0.04764511724137931 -0.012443393103448276 -0.05308075862068966
v -0.04764511724137931 -0.01037270459770115 -0.053263059770114946
v -0.045574427586206896 -0.01037270459770115 -0.0553077816091954
v 0.04967729195402299 -0.026938221839080463 -0.049056581609195404
v 0.053818674712643684 -0.026938221839080463 -0.04869979655172414
v 0.022758329885057473 -0.02279684137931035 -0.05186922298850575
v 0.047606603448275865 -0.02486753103448276 -0.04910977011494253
v 0.053818674712643684 -0.026938221839080463 -0.04869979655172414
v 0.022758329885057473 -0.02279684137931035 -0.05186922298850575
v 0.047606603448275865 -0.02486753103448276 -0.04910977011494253
v 0.022758329885057473 -0.02279684137931035 -0.05186922298850575
v -0.035220980459770124 -0.012443393103448276 -0.05647727586206897
v 0.047606603448275865 -0.02486753103448276 -0.04910977011494253
v 0.053818674712643684 -0.026938221839080463 -0.04869979655172414
v 0.06003074252873564 -0.012443393103448276 -0.04170324942528736
v 0.047606603448275865 -0.02486753103448276 -0.04910977011494253
v 0.06003074252873564 -0.012443393103448276 -0.04170324942528736
v -0.035220980459770124 -0.012443393103448276 -0.05647727586206897
v 0.062101425287356335 -0.02486753103448276 -0.045353712643678164
v 0.05796004942528736 -0.026938221839080463 -0.047744714942528736
v 0.06003074252873564 -0.012443393103448276 -0.04170324942528736
v 0.062101425287356335 0.033614298850574716 0.07866695057471265
v 0.05174798505747127 0.02614198390804598 0.0952324643678161
v 0.06003074252873564 0.02397233563218391 0.0952324643678161
v 0.062101425287356335 0.033614298850574716 0.07866695057471265
v 0.05174798505747127 0.02614198390804598 0.0952324643678161
v 0.07038419540229886 0.0561525908045977 0.03725315632183908
v 0.062101425287356335 0.033614298850574716 0.07866695057471265
v 0.07124567816091955 0.055889364367816094 0.03725315632183908
v 0.06003074252873564 0.02397233563218391 0.0952324643678161
v 0.062101425287356335 0.033614298850574716 0.07866695057471265
v 0.07124567816091955 0.055889364367816094 0.03725315632183908
v 0.07038419540229886 0.0561525908045977 0.03725315632183908
v 0.039323845977011496 0.028994459770114948 0.09316178160919542
v 0.05174798505747127 0.02614198390804598 0.0952324643678161
v 0.07038419540229886 0.0561525908045977 0.03725315632183908
v 0.05174798505747127 0.0248290183908046 0.09719659770114943
v 0.05174798505747127 0.02614198390804598 0.0952324643678161
v 0.06003074252873564 0.02397233563218391 0.0952324643678161
v 0.05174798505747127 0.0248290183908046 0.09719659770114943
v 0.05174798505747127 0.02614198390804598 0.0952324643678161
v 0.0248290183908046 0.02689970804597701 0.10028081609195404
v 0.008263502298850575 0.02972490114942529 0.09937384367816092
v -0.035220980459770124 0.06727442528735632 0.04139453563218391
v 0.07038419540229886 0.0561525908045977 0.03725315632183908
v 0.008263502298850575 0.02972490114942529 0.09937384367816092
v 0.039323845977011496 0.028994459770114948 0.09316178160919542
v 0.07038419540229886 0.0561525908045977 0.03725315632183908
v 0.008263502298850575 0.02972490114942529 0.09937384367816092
v 0.039323845977011496 0.028994459770114948 0.09316178160919542
v 0.05174798505747127 0.02614198390804598 0.0952324643678161
v -0.035220980459770124 0.07743774712643679 0.022758329885057473
v -0.02900890804597701 0.08487901149425288 0.007428919540229885
v -0.02900890804597701 0.0828083287356322 0.01148712183908046
v -0.035220980459770124 0.07743774712643679 0.022758329885057473
v -0.035220980459770124 0.06727442528735632 0.04139453563218391
v -0.02900890804597701 0.0828083287356322 0.01148712183908046
v -0.035220980459770124 0.07743774712643679 0.022758329885057473
v -0.02900890804597701 0.08487901149425288 0.007428919540229885
v -0.02900890804597701 0.08538940804597701 0.006192812643678161
v 0.061607172413793106 0.022758329885057473 0.0952324643678161
v 0.05875978620689656 0.012404880459770116 0.10558591494252874
v 0.0604749195402299 0.016546260919540232 0.09730316091954025
v 0.061607172413793106 0.022758329885057473 0.0952324643678161
v 0.07124567816091955 0.055889364367816094 0.03725315632183908
v 0.06003074252873564 0.02397233563218391 0.0952324643678161
v 0.061607172413793106 0.022758329885057473 0.0952324643678161
v 0.07124567816091955 0.055889364367816094 0.03725315632183908
v 0.07714079310344829 0.06624281609195402 0.01033419195402299
v 0.061607172413793106 0.022758329885057473 0.0952324643678161
v 0.0604749195402299 0.016546260919540232 0.09730316091954025
v 0.07714079310344829 0.06624281609195402 0.01033419195402299
v 0.045535913793103455 0.01447557011494253 0.10852992528735633
v 0.05796004942528736 0.012404880459770116 0.10714430229885058
v 0.03311177816091954 0.01447557011494253 0.11093585057471265
v 0.045535913793103455 0.01447557011494253 0.10852992528735633
v 0.05174798505747127 0.016546260919540232 0.10604246551724139
v 0.03311177816091954 0.01447557011494253 0.11093585057471265
v 0.045535913793103455 0.01447557011494253 0.10852992528735633
v 0.05174798505747127 0.016546260919540232 0.10604246551724139
v 0.05796004942528736 0.012404880459770116 0.10714430229885058
v 0.06003074252873564 0.022758329885057473 0.09651068965517243
v 0.05174798505747127 0.017032202298850576 0.10558591494252874
v 0.06003074252873564 0.02397233563218391 0.0952324643678161
v 0.06003074252873564 0.022758329885057473 0.09651068965517243
v 0.05796004942528736 0.01447557011494253 0.10583950229885059
v 0.05174798505747127 0.017032202298850576 0.10558591494252874
v 0.06003074252873564 0.022758329885057473 0.09651068965517243
v 0.061607172413793106 0.022758329885057473 0.0952324643678161
v 0.06003074252873564 0.02397233563218391 0.0952324643678161
v -0.004160635632183908 0.08298893103448277 0.0041221229885057475
v 0.07038419540229886 0.0702004367816092 0.01033419195402299
v -0.020726151724137935 0.08531109195402299 0.0041221229885057475
v 0.017300406896551726 0.07866695057471265 -1.925632183908046e-05
v 0.016546260919540232 0.07866695057471265 -0.00018019885057471267
v 0.006192812643678161 0.0813283103448276 -1.925632183908046e-05
v 0.017300406896551726 0.07866695057471265 -1.925632183908046e-05
v 0.0683135 0.07050850574712644 0.0041221229885057475
v 0.006192812643678161 0.0813283103448276 -1.925632183908046e-05
v 0.017300406896551726 0.07866695057471265 -1.925632183908046e-05
v 0.016546260919540232 0.07866695057471265 -0.00018019885057471267
v 0.07038419540229886 0.0683135 0.0026368402298850577
v 0.017300406896551726 0.07866695057471265 -1.925632183908046e-05
v 0.0683135 0.07050850574712644 0.0041221229885057475
v 0.07038419540229886 0.0683135 0.0026368402298850577
v 0.07038419540229886 0.06933351724137932 0.0041221229885057475
v 0.0683135 0.07050850574712644 0.0041221229885057475
v 0.07038419540229886 0.0683135 0.0026368402298850577
v 0.07038419540229886 0.06933351724137932 0.0041221229885057475
v 0.07659625747126438 0.06738425632183909 0.01033419195402299
v 0.0683135 0.07050850574712644 0.0041221229885057475
v 0.07509716091954023 0.047606603448275865 -1.925632183908046e-05
v 0.06647959770114943 -0.020726151724137935 -0.039362359770114944
v 0.06307328735632185 -0.03729167011494253 -0.02279684137931035
v 0.07509716091954023 0.047606603448275865 -1.925632183908046e-05
v 0.07695264367816092 0.062101425287356335 0.0041221229885057475
v 0.06647959770114943 -0.020726151724137935 -0.039362359770114944
v 0.07509716091954023 0.047606603448275865 -1.925632183908046e-05
v 0.07695264367816092 0.062101425287356335 0.0041221229885057475
v 0.07714079310344829 0.06624281609195402 0.01033419195402299
v 0.05477810689655173 -0.06421063218390805 0.02689970804597701
v 0.06494093908045977 -0.02900890804597701 -0.04143304827586207
v 0.06307328735632185 -0.03729167011494253 -0.02279684137931035
v 0.05477810689655173 -0.06421063218390805 0.02689970804597701
v 0.07509716091954023 0.047606603448275865 -1.925632183908046e-05
v 0.06307328735632185 -0.03729167011494253 -0.02279684137931035
v 0.06417212183908047 -0.020726151724137935 -0.042434917241379315
v 0.06624281609195402 -0.020726151724137935 -0.039721741379310345
v 0.06352514367816094 -0.02900890804597701 -0.045574427586206896
v 0.06417212183908047 -0.020726151724137935 -0.042434917241379315
v 0.062101425287356335 -0.02486753103448276 -0.045353712643678164
v 0.06003074252873564 -0.012443393103448276 -0.04170324942528736
v 0.07038419540229886 0.016546260919540232 -0.021504319540229886
v 0.06647959770114943 -0.020726151724137935 -0.039362359770114944
v 0.07659625747126438 0.062101425287356335 0.0033526367816091958
v 0.07038419540229886 0.016546260919540232 -0.021504319540229886
v 0.06624281609195402 -0.020726151724137935 -0.039721741379310345
v 0.06647959770114943 -0.020726151724137935 -0.039362359770114944
v 0.07038419540229886 0.016546260919540232 -0.021504319540229886
v 0.06417212183908047 -0.020726151724137935 -0.042434917241379315
v 0.06624281609195402 -0.020726151724137935 -0.039721741379310345
v 0.07038419540229886 0.016546260919540232 -0.021504319540229886
v 0.06417212183908047 -0.006231325287356322 -0.03650667816091954
v 0.07659625747126438 0.062101425287356335 0.0033526367816091958
v 0.07038419540229886 0.016546260919540232 -0.021504319540229886
v 0.06417212183908047 -0.006231325287356322 -0.03650667816091954
v 0.06417212183908047 -0.014514083908045977 -0.03991925862068966
v 0.04967729195402299 -0.07178186666666667 0.03518246666666667
v 0.047606603448275865 -0.07509770804597701 0.04139453563218391
v 0.05174798505747127 -0.06428309540229886 0.018616950574712646
v 0.045535913793103455 -0.07794398850574713 0.047606603448275865
v 0.047606603448275865 -0.07509770804597701 0.04139453563218391
v 0.04139453563218391 -0.08018536781609195 0.04967729195402299
v 0.045535913793103455 -0.07794398850574713 0.047606603448275865
v 0.045535913793103455 -0.07914580804597701 0.05174798505747127
v 0.04139453563218391 -0.08018536781609195 0.04967729195402299
v 0.045535913793103455 -0.07794398850574713 0.047606603448275865
v 0.045535913793103455 -0.07914580804597701 0.05174798505747127
v 0.047606603448275865 -0.07509770804597701 0.04139453563218391
v 0.04139453563218391 -0.07939914942528736 0.05796004942528736
v 0.039323845977011496 -0.07663477471264368 0.06053696551724139
v -0.062139942528735635 -0.06320556321839081 0.04967729195402299
v 0.04139453563218391 -0.07939914942528736 0.05796004942528736
v 0.04307498160919541 -0.07870545977011495 0.05796004942528736
v 0.0449014459770115 -0.07663477471264368 0.06003074252873564
v 0.04139453563218391 -0.07939914942528736 0.05796004942528736
v -0.006231325287356322 -0.07327525287356322 0.045535913793103455
v -0.062139942528735635 -0.06320556321839081 0.04967729195402299
v 0.04139453563218391 -0.07939914942528736 0.05796004942528736
v -0.006231325287356322 -0.07327525287356322 0.045535913793103455
v 0.04139453563218391 -0.08018536781609195 0.04967729195402299
v 0.04139453563218391 -0.07939914942528736 0.05796004942528736
v 0.045535913793103455 -0.07914580804597701 0.05174798505747127
v 0.04139453563218391 -0.08018536781609195 0.04967729195402299
v 0.04139453563218391 -0.07939914942528736 0.05796004942528736
v 0.045535913793103455 -0.07914580804597701 0.05174798505747127
v 0.04307498160919541 -0.07870545977011495 0.05796004942528736
v 0.062101425287356335 -0.02900890804597701 -0.0468265459770115
v 0.062101425287356335 -0.030129359770114945 -0.045574427586206896
v 0.06352514367816094 -0.02900890804597701 -0.045574427586206896
v 0.062101425287356335 -0.02900890804597701 -0.0468265459770115
v 0.05796004942528736 -0.02900890804597701 -0.047634572413793104
v 0.062101425287356335 -0.030129359770114945 -0.045574427586206896
v 0.062101425287356335 -0.02900890804597701 -0.0468265459770115
v 0.062101425287356335 -0.02486753103448276 -0.045353712643678164
v 0.05796004942528736 -0.026938221839080463 -0.047744714942528736
v 0.062101425287356335 -0.02900890804597701 -0.0468265459770115
v 0.05796004942528736 -0.026938221839080463 -0.047744714942528736
v 0.053818674712643684 -0.026938221839080463 -0.04869979655172414
v 0.062101425287356335 -0.02900890804597701 -0.0468265459770115
v 0.05796004942528736 -0.02900890804597701 -0.047634572413793104
v 0.053818674712643684 -0.026938221839080463 -0.04869979655172414
v 0.062101425287356335 -0.02900890804597701 -0.0468265459770115
v 0.06417212183908047 -0.020726151724137935 -0.042434917241379315
v 0.06352514367816094 -0.02900890804597701 -0.045574427586206896
v 0.062101425287356335 -0.02900890804597701 -0.0468265459770115
v 0.06417212183908047 -0.020726151724137935 -0.042434917241379315
v 0.062101425287356335 -0.02486753103448276 -0.045353712643678164
v -0.043503737931034486 0.017454706896551726 -0.04143304827586207
v -0.04764511724137931 -0.008302014942528736 -0.052649954022988506
v -0.045574427586206896 -1.925632183908046e-05 -0.05001747126436782
v -0.043503737931034486 0.017454706896551726 -0.04143304827586207
v -0.039105172413793104 0.0828083287356322 -0.004160635632183908
v -0.04764511724137931 -0.008302014942528736 -0.052649954022988506
v -0.043503737931034486 0.017454706896551726 -0.04143304827586207
v -0.04143304827586207 0.00633002643678161 -0.04764511724137931
v -0.035220980459770124 0.07659625747126438 -0.010052358620689655
v -0.045574427586206896 -0.0020899459770114944 -0.05114545977011495
v -0.045574427586206896 -0.008302014942528736 -0.05437682068965517
v -0.04628529540229886 -0.008302014942528736 -0.05385718390804598
v -0.045574427586206896 -0.0020899459770114944 -0.05114545977011495
v -0.04764511724137931 -0.008302014942528736 -0.052649954022988506
v -0.045574427586206896 -1.925632183908046e-05 -0.05001747126436782
v -0.045574427586206896 -0.0020899459770114944 -0.05114545977011495
v -0.04628529540229886 -0.008302014942528736 -0.05385718390804598
v -0.04764511724137931 -0.008302014942528736 -0.052649954022988506
v -0.045574427586206896 -0.0020899459770114944 -0.05114545977011495
v -0.043503737931034486 0.017454706896551726 -0.04143304827586207
v -0.045574427586206896 -1.925632183908046e-05 -0.05001747126436782
v -0.031079597701149427 0.08073763563218392 -0.006919072413793104
v -0.02486753103448276 0.0828083287356322 -0.004722652873563218
v -0.03239736781609196 0.08487901149425288 -0.004160635632183908
v -0.031079597701149427 0.08073763563218392 -0.006919072413793104
v -0.035220980459770124 0.07659625747126438 -0.010052358620689655
v 0.0020514333333333337 0.07659625747126438 -0.004554924137931035
v -0.031079597701149427 0.08073763563218392 -0.006919072413793104
v -0.02486753103448276 0.0828083287356322 -0.004722652873563218
v 0.0020514333333333337 0.07659625747126438 -0.004554924137931035
v -0.04143304827586207 -0.012860266666666667 -0.0559278735632184
v -0.045574427586206896 -0.013673695402298852 -0.05385718390804598
v -0.035220980459770124 -0.015005918390804599 -0.05385718390804598
v -0.04143304827586207 -0.012860266666666667 -0.0559278735632184
v -0.04143304827586207 -0.012443393103448276 -0.05646664367816093
v -0.045574427586206896 -0.013673695402298852 -0.05385718390804598
v -0.04143304827586207 -0.012860266666666667 -0.0559278735632184
v -0.035220980459770124 -0.015005918390804599 -0.05385718390804598
v 0.05174798505747127 -0.029950744827586213 -0.04764511724137931
v -0.04143304827586207 -0.012860266666666667 -0.0559278735632184
v -0.04143304827586207 -0.012443393103448276 -0.05646664367816093
v 0.05174798505747127 -0.029950744827586213 -0.04764511724137931
v -0.045574427586206896 -0.012443393103448276 -0.05504850574712644
v -0.04143304827586207 -0.012443393103448276 -0.05646664367816093
v -0.045574427586206896 -0.01037270459770115 -0.0553077816091954
v -0.045574427586206896 -0.012443393103448276 -0.05504850574712644
v -0.04143304827586207 -0.012443393103448276 -0.05646664367816093
v -0.045574427586206896 -0.013673695402298852 -0.05385718390804598
v -0.045574427586206896 -0.012443393103448276 -0.05504850574712644
v -0.04764511724137931 -0.012443393103448276 -0.05308075862068966
v -0.045574427586206896 -0.01037270459770115 -0.0553077816091954
v -0.048437351724137934 -0.012443393103448276 -0.05178649425287357
v -0.048339247126436787 -0.01037270459770115 -0.05178649425287357
v -0.04764511724137931 -0.01037270459770115 -0.053263059770114946
v -0.048437351724137934 -0.012443393103448276 -0.05178649425287357
v -0.04764511724137931 -0.012443393103448276 -0.05308075862068966
v -0.04764511724137931 -0.01037270459770115 -0.053263059770114946
v -0.048437351724137934 -0.012443393103448276 -0.05178649425287357
v -0.054157325287356325 -0.02279684137931035 -0.02900890804597701
v -0.0501567643678161 -0.01865546206896552 -0.043503737931034486
v -0.048437351724137934 -0.012443393103448276 -0.05178649425287357
v -0.054157325287356325 -0.02279684137931035 -0.02900890804597701
v -0.04902815287356322 -0.008302014942528736 -0.049715804597701155
v -0.048437351724137934 -0.012443393103448276 -0.05178649425287357
v -0.048339247126436787 -0.01037270459770115 -0.05178649425287357
v -0.04902815287356322 -0.008302014942528736 -0.049715804597701155
v -0.04764511724137931 -0.013886187356321841 -0.05178649425287357
v -0.045574427586206896 -0.012443393103448276 -0.05504850574712644
v -0.045574427586206896 -0.013673695402298852 -0.05385718390804598
v -0.04764511724137931 -0.013886187356321841 -0.05178649425287357
v -0.045574427586206896 -0.012443393103448276 -0.05504850574712644
v -0.04764511724137931 -0.012443393103448276 -0.05308075862068966
v 0.05174798505747127 -0.02900890804597701 -0.048523034482758624
v 0.05796004942528736 -0.02900890804597701 -0.047634572413793104
v 0.053818674712643684 -0.026938221839080463 -0.04869979655172414
v 0.05174798505747127 -0.02900890804597701 -0.048523034482758624
v 0.04967729195402299 -0.026938221839080463 -0.049056581609195404
v 0.053818674712643684 -0.026938221839080463 -0.04869979655172414
v 0.05174798505747127 -0.02900890804597701 -0.048523034482758624
v 0.05796004942528736 -0.02900890804597701 -0.047634572413793104
v 0.05174798505747127 -0.029950744827586213 -0.04764511724137931
v 0.05174798505747127 -0.02900890804597701 -0.048523034482758624
v 0.03725315632183908 -0.026572574712643682 -0.049715804597701155
v 0.05174798505747127 -0.029950744827586213 -0.04764511724137931
v 0.05174798505747127 -0.02900890804597701 -0.048523034482758624
v 0.04967729195402299 -0.026938221839080463 -0.049056581609195404
v 0.022758329885057473 -0.02279684137931035 -0.05186922298850575
v 0.05174798505747127 -0.02900890804597701 -0.048523034482758624
v 0.03725315632183908 -0.026572574712643682 -0.049715804597701155
v 0.022758329885057473 -0.02279684137931035 -0.05186922298850575
v -0.040419790804597705 0.02689970804597701 0.10558591494252874
v -0.05385718390804598 0.008263502298850575 0.0848855091954023
v -0.06331129310344828 -0.062139942528735635 0.04967729195402299
v -0.040419790804597705 0.02689970804597701 0.10558591494252874
v -0.039362359770114944 0.028970398850574716 0.10722648275862069
v -0.062139942528735635 -0.062139942528735635 0.05075856551724139
v -0.040419790804597705 0.02689970804597701 0.10558591494252874
v -0.06331129310344828 -0.062139942528735635 0.04967729195402299
v -0.062139942528735635 -0.062139942528735635 0.05075856551724139
v -0.05697988505747127 0.01033419195402299 0.08073763563218392
v -0.05385718390804598 0.008263502298850575 0.0848855091954023
v -0.06331129310344828 -0.062139942528735635 0.04967729195402299
v -0.05697988505747127 0.01033419195402299 0.08073763563218392
v -0.05404499425287357 0.03518246666666667 0.09109108620689656
v -0.05385718390804598 0.03518246666666667 0.09161094252873564
v -0.05697988505747127 0.01033419195402299 0.08073763563218392
v -0.06354767816091955 -0.057998566666666675 0.047606603448275865
v -0.06331129310344828 -0.062139942528735635 0.04967729195402299
v -0.05697988505747127 0.01033419195402299 0.08073763563218392
v -0.06354767816091955 -0.057998566666666675 0.047606603448275865
v -0.06355798850574713 -0.057998566666666675 0.045535913793103455
v -0.05697988505747127 0.01033419195402299 0.08073763563218392
v -0.06256254022988507 -0.05385718390804598 0.03311177816091954
v -0.06355798850574713 -0.057998566666666675 0.045535913793103455
v -0.04862336551724138 0.055889364367816094 0.04967729195402299
v -0.04393184367816092 0.04967729195402299 -0.016584773563218393
v -0.051019804597701154 0.0041221229885057475 -0.01865546206896552
v 0.05174798505747127 0.022758329885057473 0.09952497241379311
v 0.05174798505747127 0.017032202298850576 0.10558591494252874
v 0.06003074252873564 0.02397233563218391 0.0952324643678161
v 0.05174798505747127 0.022758329885057473 0.09952497241379311
v 0.05174798505747127 0.0248290183908046 0.09719659770114943
v 0.06003074252873564 0.02397233563218391 0.0952324643678161
v 0.008263502298850575 0.028970398850574716 0.1003133103448276
v 0.0248290183908046 0.02689970804597701 0.10028081609195404
v -0.039362359770114944 0.028970398850574716 0.10722648275862069
v 0.008263502298850575 0.028970398850574716 0.1003133103448276
v 0.008263502298850575 0.02972490114942529 0.09937384367816092
v -0.039362359770114944 0.028970398850574716 0.10722648275862069
v 0.008263502298850575 0.028970398850574716 0.1003133103448276
v 0.008263502298850575 0.02972490114942529 0.09937384367816092
v 0.0248290183908046 0.02689970804597701 0.10028081609195404
v -0.01865546206896552 0.03742576666666667 0.09109108620689656
v 0.008263502298850575 0.02972490114942529 0.09937384367816092
v -0.035220980459770124 0.06727442528735632 0.04139453563218391
v 0.0248290183908046 0.027437333333333334 0.09937384367816092
v 0.05174798505747127 0.02614198390804598 0.0952324643678161
v 0.0248290183908046 0.02689970804597701 0.10028081609195404
v 0.0248290183908046 0.027437333333333334 0.09937384367816092
v 0.008263502298850575 0.02972490114942529 0.09937384367816092
v 0.0248290183908046 0.02689970804597701 0.10028081609195404
v 0.0248290183908046 0.027437333333333334 0.09937384367816092
v 0.008263502298850575 0.02972490114942529 0.09937384367816092
v 0.05174798505747127 0.02614198390804598 0.0952324643678161
v -0.03315029080459771 0.08367968965517242 0.006192812643678161
v -0.03315029080459771 0.08548933333333335 -1.925632183908046e-05
v -0.039362359770114944 0.08139302298850576 0.0020514333333333337
v -0.03315029080459771 0.08367968965517242 0.006192812643678161
v -0.035220980459770124 0.07743774712643679 0.022758329885057473
v -0.039362359770114944 0.08139302298850576 0.0020514333333333337
v -0.03315029080459771 0.08367968965517242 0.006192812643678161
v -0.035220980459770124 0.07743774712643679 0.022758329885057473
v -0.02900890804597701 0.08538940804597701 0.006192812643678161
v 0.05836147126436782 0.01447557011494253 0.10558591494252874
v 0.06003074252873564 0.022758329885057473 0.09651068965517243
v 0.05796004942528736 0.01447557011494253 0.10583950229885059
v 0.05836147126436782 0.01447557011494253 0.10558591494252874
v 0.06003074252873564 0.022758329885057473 0.09651068965517243
v 0.061607172413793106 0.022758329885057473 0.0952324643678161
v 0.05836147126436782 0.01447557011494253 0.10558591494252874
v 0.05796004942528736 0.01447557011494253 0.10583950229885059
v 0.05796004942528736 0.012404880459770116 0.10714430229885058
v 0.05836147126436782 0.01447557011494253 0.10558591494252874
v 0.05875978620689656 0.012404880459770116 0.10558591494252874
v 0.05796004942528736 0.012404880459770116 0.10714430229885058
v 0.05836147126436782 0.01447557011494253 0.10558591494252874
v 0.061607172413793106 0.022758329885057473 0.0952324643678161
v 0.05875978620689656 0.012404880459770116 0.10558591494252874
v -0.01865546206896552 0.08468556666666667 -0.0020899459770114944
v -0.02900890804597701 0.08694970689655174 -0.0017452390804597703
v 0.006192812643678161 0.0813283103448276 -1.925632183908046e-05
v -0.01865546206896552 0.08468556666666667 -0.0020899459770114944
v 0.016546260919540232 0.07866695057471265 -0.00018019885057471267
v 0.006192812643678161 0.0813283103448276 -1.925632183908046e-05
v -0.01865546206896552 0.08468556666666667 -0.0020899459770114944
v 0.016546260919540232 0.07866695057471265 -0.00018019885057471267
v 0.0020514333333333337 0.07659625747126438 -0.004554924137931035
v -0.01865546206896552 0.08468556666666667 -0.0020899459770114944
v -0.02486753103448276 0.0828083287356322 -0.004722652873563218
v 0.0020514333333333337 0.07659625747126438 -0.004554924137931035
v -0.03315029080459771 0.08492617816091955 -0.004160635632183908
v -0.02900890804597701 0.08694970689655174 -0.0017452390804597703
v -0.039105172413793104 0.0828083287356322 -0.004160635632183908
v 0.0020514333333333337 0.0828083287356322 0.001904416091954023
v -0.02900890804597701 0.08694970689655174 -0.0017452390804597703
v 0.006192812643678161 0.0813283103448276 -1.925632183908046e-05
v 0.0020514333333333337 0.0828083287356322 0.001904416091954023
v 0.0020514333333333337 0.08286240229885058 0.0020514333333333337
v 0.006192812643678161 0.0813283103448276 -1.925632183908046e-05
v 0.0020514333333333337 0.0828083287356322 0.001904416091954023
v 0.0020514333333333337 0.08286240229885058 0.0020514333333333337
v -0.02900890804597701 0.08694970689655174 -0.0017452390804597703
v -0.02900890804597701 0.08720907701149426 -1.925632183908046e-05
v 0.0020514333333333337 0.08286240229885058 0.0020514333333333337
v -0.020726151724137935 0.08531109195402299 0.0041221229885057475
v -0.02900890804597701 0.08720907701149426 -1.925632183908046e-05
v 0.0020514333333333337 0.08286240229885058 0.0020514333333333337
v -0.02900890804597701 0.08694970689655174 -0.0017452390804597703
v -0.02900890804597701 0.08720907701149426 -1.925632183908046e-05
v -0.02900890804597701 0.08538940804597701 0.006192812643678161
v -0.020726151724137935 0.08531109195402299 0.0041221229885057475
v -0.02900890804597701 0.08720907701149426 -1.925632183908046e-05
v -0.03315029080459771 0.08367968965517242 0.006192812643678161
v -0.02900890804597701 0.08538940804597701 0.006192812643678161
v -0.02900890804597701 0.08720907701149426 -1.925632183908046e-05
v -0.03315029080459771 0.08367968965517242 0.006192812643678161
v -0.03315029080459771 0.08548933333333335 -1.925632183908046e-05
v -0.02900890804597701 0.08720907701149426 -1.925632183908046e-05
v -0.03315029080459771 0.08548933333333335 -1.925632183908046e-05
v -0.039105172413793104 0.0828083287356322 -0.004160635632183908
v -0.02900890804597701 0.08720907701149426 -1.925632183908046e-05
v -0.02900890804597701 0.08694970689655174 -0.0017452390804597703
v -0.039105172413793104 0.0828083287356322 -0.004160635632183908
v 0.0020514333333333337 0.0828083287356322 0.0022108287356321843
v -0.004160635632183908 0.08298893103448277 0.0041221229885057475
v 0.07038419540229886 0.0702004367816092 0.01033419195402299
v 0.0020514333333333337 0.0828083287356322 0.0022108287356321843
v 0.0020514333333333337 0.08286240229885058 0.0020514333333333337
v 0.07038419540229886 0.0702004367816092 0.01033419195402299
v 0.0020514333333333337 0.0828083287356322 0.0022108287356321843
v -0.004160635632183908 0.08298893103448277 0.0041221229885057475
v -0.020726151724137935 0.08531109195402299 0.0041221229885057475
v 0.0020514333333333337 0.0828083287356322 0.0022108287356321843
v 0.0020514333333333337 0.08286240229885058 0.0020514333333333337
v -0.020726151724137935 0.08531109195402299 0.0041221229885057475
v 0.07151570114942529 0.0683135 0.0041221229885057475
v 0.07452557471264369 0.06534860919540231 0.0041221229885057475
v 0.07038419540229886 0.0683135 0.0026368402298850577
v 0.07151570114942529 0.0683135 0.0041221229885057475
v 0.07038419540229886 0.06933351724137932 0.0041221229885057475
v 0.07038419540229886 0.0683135 0.0026368402298850577
v 0.07151570114942529 0.0683135 0.0041221229885057475
v 0.07659625747126438 0.06738425632183909 0.01033419195402299
v 0.07452557471264369 0.06534860919540231 0.0041221229885057475
v 0.07151570114942529 0.0683135 0.0041221229885057475
v 0.07038419540229886 0.06933351724137932 0.0041221229885057475
v 0.07659625747126438 0.06738425632183909 0.01033419195402299
v 0.06034555172413794 -0.03729167011494253 -0.03315029080459771
v 0.05477810689655173 -0.06421063218390805 0.02689970804597701
v 0.06494093908045977 -0.02900890804597701 -0.04143304827586207
v 0.06034555172413794 -0.03729167011494253 -0.03315029080459771
v 0.062101425287356335 -0.031398312643678164 -0.043503737931034486
v 0.06003074252873564 -0.03729167011494253 -0.033791479310344825
v 0.06034555172413794 -0.03729167011494253 -0.03315029080459771
v 0.062101425287356335 -0.031398312643678164 -0.043503737931034486
v 0.06494093908045977 -0.02900890804597701 -0.04143304827586207
v 0.06034555172413794 -0.03729167011494253 -0.03315029080459771
v 0.05319136321839081 -0.062139942528735635 0.016546260919540232
v 0.05477810689655173 -0.06421063218390805 0.02689970804597701
v 0.06034555172413794 -0.03729167011494253 -0.03315029080459771
v 0.05174798505747127 -0.06428309540229886 0.018616950574712646
v 0.06003074252873564 -0.03729167011494253 -0.033791479310344825
v 0.06034555172413794 -0.03729167011494253 -0.03315029080459771
v 0.05319136321839081 -0.062139942528735635 0.016546260919540232
v 0.05174798505747127 -0.06428309540229886 0.018616950574712646
v 0.06417212183908047 -0.018215501149425287 -0.04143304827586207
v 0.07038419540229886 0.016546260919540232 -0.021504319540229886
v 0.06417212183908047 -0.014514083908045977 -0.03991925862068966
v 0.06417212183908047 -0.018215501149425287 -0.04143304827586207
v 0.07038419540229886 0.016546260919540232 -0.021504319540229886
v 0.06417212183908047 -0.020726151724137935 -0.042434917241379315
v 0.06417212183908047 -0.018215501149425287 -0.04143304827586207
v 0.06417212183908047 -0.014514083908045977 -0.03991925862068966
v 0.06003074252873564 -0.012443393103448276 -0.04170324942528736
v 0.06417212183908047 -0.018215501149425287 -0.04143304827586207
v 0.06417212183908047 -0.020726151724137935 -0.042434917241379315
v 0.06003074252873564 -0.012443393103448276 -0.04170324942528736
v 0.04967729195402299 -0.07577927586206898 0.047606603448275865
v 0.04967729195402299 -0.07178186666666667 0.03518246666666667
v 0.047606603448275865 -0.07509770804597701 0.04139453563218391
v 0.04967729195402299 -0.07577927586206898 0.047606603448275865
v 0.045535913793103455 -0.07914580804597701 0.05174798505747127
v 0.047606603448275865 -0.07509770804597701 0.04139453563218391
v 0.04346522413793104 -0.07663477471264368 0.060385821839080464
v 0.039323845977011496 -0.07663477471264368 0.06053696551724139
v 0.045535913793103455 -0.06006925287356322 0.07453811494252874
v 0.04346522413793104 -0.07663477471264368 0.060385821839080464
v 0.04139453563218391 -0.07939914942528736 0.05796004942528736
v 0.039323845977011496 -0.07663477471264368 0.06053696551724139
v 0.04346522413793104 -0.07663477471264368 0.060385821839080464
v 0.045535913793103455 -0.06006925287356322 0.07453811494252874
v 0.0449014459770115 -0.07663477471264368 0.06003074252873564
v 0.04346522413793104 -0.07663477471264368 0.060385821839080464
v 0.04139453563218391 -0.07939914942528736 0.05796004942528736
v 0.0449014459770115 -0.07663477471264368 0.06003074252873564
v -0.039362359770114944 0.05174798505747127 -0.023063797701149427
v -0.043503737931034486 0.017454706896551726 -0.04143304827586207
v -0.035220980459770124 0.07659625747126438 -0.010052358620689655
v -0.039362359770114944 0.05174798505747127 -0.023063797701149427
v -0.043503737931034486 0.017454706896551726 -0.04143304827586207
v -0.039105172413793104 0.0828083287356322 -0.004160635632183908
v -0.043503737931034486 0.016546260919540232 -0.04190991379310345
v -0.045574427586206896 -0.008302014942528736 -0.05437682068965517
v -0.04143304827586207 0.00633002643678161 -0.04764511724137931
v -0.043503737931034486 0.016546260919540232 -0.04190991379310345
v -0.043503737931034486 0.017454706896551726 -0.04143304827586207
v -0.04143304827586207 0.00633002643678161 -0.04764511724137931
v -0.043503737931034486 0.016546260919540232 -0.04190991379310345
v -0.045574427586206896 -0.0020899459770114944 -0.05114545977011495
v -0.045574427586206896 -0.008302014942528736 -0.05437682068965517
v -0.043503737931034486 0.016546260919540232 -0.04190991379310345
v -0.045574427586206896 -0.0020899459770114944 -0.05114545977011495
v -0.043503737931034486 0.017454706896551726 -0.04143304827586207
v -0.049715804597701155 -0.01865546206896552 -0.04434737931034483
v -0.045574427586206896 -0.013673695402298852 -0.05385718390804598
v -0.049715804597701155 -0.019167889655172413 -0.043503737931034486
v -0.049715804597701155 -0.01865546206896552 -0.04434737931034483
v -0.04764511724137931 -0.013886187356321841 -0.05178649425287357
v -0.045574427586206896 -0.013673695402298852 -0.05385718390804598
v -0.049715804597701155 -0.01865546206896552 -0.04434737931034483
v -0.04764511724137931 -0.013886187356321841 -0.05178649425287357
v -0.04764511724137931 -0.012443393103448276 -0.05308075862068966
v -0.049715804597701155 -0.01865546206896552 -0.04434737931034483
v -0.06326821379310346 -0.06006925287356322 0.039323845977011496
v -0.0501567643678161 -0.01865546206896552 -0.043503737931034486
v -0.049715804597701155 -0.01865546206896552 -0.04434737931034483
v -0.062139942528735635 -0.06006925287356322 0.03740198850574713
v -0.06326821379310346 -0.06006925287356322 0.039323845977011496
v -0.049715804597701155 -0.01865546206896552 -0.04434737931034483
v -0.049715804597701155 -0.019167889655172413 -0.043503737931034486
v -0.062139942528735635 -0.061309954022988514 0.039323845977011496
v -0.049715804597701155 -0.01865546206896552 -0.04434737931034483
v -0.062139942528735635 -0.06006925287356322 0.03740198850574713
v -0.062139942528735635 -0.061309954022988514 0.039323845977011496
v -0.049715804597701155 -0.01865546206896552 -0.04434737931034483
v -0.048437351724137934 -0.012443393103448276 -0.05178649425287357
v -0.0501567643678161 -0.01865546206896552 -0.043503737931034486
v -0.049715804597701155 -0.01865546206896552 -0.04434737931034483
v -0.048437351724137934 -0.012443393103448276 -0.05178649425287357
v -0.04764511724137931 -0.012443393103448276 -0.05308075862068966
v -0.051824364367816095 0.03518246666666667 0.0952324643678161
v -0.05697988505747127 0.01033419195402299 0.08073763563218392
v -0.05385718390804598 0.03518246666666667 0.09161094252873564
v -0.051824364367816095 0.03518246666666667 0.0952324643678161
v -0.05697988505747127 0.01033419195402299 0.08073763563218392
v -0.05385718390804598 0.008263502298850575 0.0848855091954023
v -0.052221747126436784 0.04346522413793104 0.07245487816091956
v -0.06256254022988507 -0.05385718390804598 0.03311177816091954
v -0.054157325287356325 -0.02279684137931035 -0.02900890804597701
v -0.052221747126436784 0.04346522413793104 0.07245487816091956
v -0.05697988505747127 0.01033419195402299 0.08073763563218392
v -0.06256254022988507 -0.05385718390804598 0.03311177816091954
v -0.052221747126436784 0.04346522413793104 0.07245487816091956
v -0.054157325287356325 -0.02279684137931035 -0.02900890804597701
v -0.051019804597701154 0.0041221229885057475 -0.01865546206896552
v -0.052221747126436784 0.04346522413793104 0.07245487816091956
v -0.04862336551724138 0.055889364367816094 0.04967729195402299
v -0.051019804597701154 0.0041221229885057475 -0.01865546206896552
v -0.052221747126436784 0.04346522413793104 0.07245487816091956
v -0.04862336551724138 0.055889364367816094 0.04967729195402299
v -0.05404499425287357 0.03518246666666667 0.09109108620689656
v -0.040101717241379314 0.08073763563218392 0.0020514333333333337
v -0.039105172413793104 0.0828083287356322 -0.004160635632183908
v -0.04393184367816092 0.04967729195402299 -0.016584773563218393
v -0.040101717241379314 0.08073763563218392 0.0020514333333333337
v -0.04862336551724138 0.055889364367816094 0.04967729195402299
v -0.04393184367816092 0.04967729195402299 -0.016584773563218393
v -0.040101717241379314 0.08073763563218392 0.0020514333333333337
v -0.039105172413793104 0.0828083287356322 -0.004160635632183908
v -0.039362359770114944 0.08139302298850576 0.0020514333333333337
v -0.05385718390804598 0.035423687356321835 0.09109108620689656
v -0.05404499425287357 0.03518246666666667 0.09109108620689656
v -0.05385718390804598 0.03518246666666667 0.09161094252873564
v -0.05385718390804598 0.035423687356321835 0.09109108620689656
v -0.04862336551724138 0.055889364367816094 0.04967729195402299
v -0.05404499425287357 0.03518246666666667 0.09109108620689656
v 0.04139453563218391 0.022758329885057473 0.10171608735632184
v 0.039323845977011496 0.02068764022988506 0.10431871264367816
v 0.05174798505747127 0.017032202298850576 0.10558591494252874
v 0.04139453563218391 0.022758329885057473 0.10171608735632184
v 0.05174798505747127 0.022758329885057473 0.09952497241379311
v 0.05174798505747127 0.017032202298850576 0.10558591494252874
v 0.04139453563218391 0.022758329885057473 0.10171608735632184
v 0.039323845977011496 0.02068764022988506 0.10431871264367816
v 0.0248290183908046 0.02689970804597701 0.10028081609195404
v 0.04139453563218391 0.022758329885057473 0.10171608735632184
v 0.05174798505747127 0.0248290183908046 0.09719659770114943
v 0.0248290183908046 0.02689970804597701 0.10028081609195404
v 0.04139453563218391 0.022758329885057473 0.10171608735632184
v 0.05174798505747127 0.022758329885057473 0.09952497241379311
v 0.05174798505747127 0.0248290183908046 0.09719659770114943
v -0.043503737931034486 0.03999880459770115 0.09109108620689656
v -0.035220980459770124 0.07743774712643679 0.022758329885057473
v -0.035220980459770124 0.06727442528735632 0.04139453563218391
v -0.043503737931034486 0.03999880459770115 0.09109108620689656
v -0.01865546206896552 0.03742576666666667 0.09109108620689656
v -0.035220980459770124 0.06727442528735632 0.04139453563218391
v -0.043503737931034486 0.03999880459770115 0.09109108620689656
v 0.008263502298850575 0.02972490114942529 0.09937384367816092
v -0.039362359770114944 0.028970398850574716 0.10722648275862069
v -0.043503737931034486 0.03999880459770115 0.09109108620689656
v -0.01865546206896552 0.03742576666666667 0.09109108620689656
v 0.008263502298850575 0.02972490114942529 0.09937384367816092
v -0.02486753103448276 0.08352135632183909 -0.004160635632183908
v -0.02900890804597701 0.08694970689655174 -0.0017452390804597703
v -0.03239736781609196 0.08487901149425288 -0.004160635632183908
v -0.02486753103448276 0.08352135632183909 -0.004160635632183908
v -0.01865546206896552 0.08468556666666667 -0.0020899459770114944
v -0.02900890804597701 0.08694970689655174 -0.0017452390804597703
v -0.02486753103448276 0.08352135632183909 -0.004160635632183908
v -0.02486753103448276 0.0828083287356322 -0.004722652873563218
v -0.03239736781609196 0.08487901149425288 -0.004160635632183908
v -0.02486753103448276 0.08352135632183909 -0.004160635632183908
v -0.01865546206896552 0.08468556666666667 -0.0020899459770114944
v -0.02486753103448276 0.0828083287356322 -0.004722652873563218
v -0.03315029080459771 0.08487901149425288 -0.004234751724137931
v -0.031079597701149427 0.08073763563218392 -0.006919072413793104
v -0.035220980459770124 0.07659625747126438 -0.010052358620689655
v -0.03315029080459771 0.08487901149425288 -0.004234751724137931
v -0.031079597701149427 0.08073763563218392 -0.006919072413793104
v -0.03239736781609196 0.08487901149425288 -0.004160635632183908
v -0.03315029080459771 0.08487901149425288 -0.004234751724137931
v -0.02900890804597701 0.08694970689655174 -0.0017452390804597703
v -0.03239736781609196 0.08487901149425288 -0.004160635632183908
v -0.03315029080459771 0.08487901149425288 -0.004234751724137931
v -0.03315029080459771 0.08492617816091955 -0.004160635632183908
v -0.02900890804597701 0.08694970689655174 -0.0017452390804597703
v 0.05796004942528736 0.07245487816091956 0.003807298850574713
v 0.0683135 0.07050850574712644 0.0041221229885057475
v 0.006192812643678161 0.0813283103448276 -1.925632183908046e-05
v 0.05796004942528736 0.07245487816091956 0.003807298850574713
v 0.05796004942528736 0.07256783333333333 0.0041221229885057475
v 0.006192812643678161 0.0813283103448276 -1.925632183908046e-05
v 0.05796004942528736 0.07245487816091956 0.003807298850574713
v 0.05796004942528736 0.07256783333333333 0.0041221229885057475
v 0.0683135 0.07050850574712644 0.0041221229885057475
v 0.002328350574712644 0.0828083287356322 0.0020514333333333337
v 0.0020514333333333337 0.08286240229885058 0.0020514333333333337
v 0.006192812643678161 0.0813283103448276 -1.925632183908046e-05
v 0.002328350574712644 0.0828083287356322 0.0020514333333333337
v 0.05796004942528736 0.07256783333333333 0.0041221229885057475
v 0.006192812643678161 0.0813283103448276 -1.925632183908046e-05
v 0.002328350574712644 0.0828083287356322 0.0020514333333333337
v 0.05796004942528736 0.07256783333333333 0.0041221229885057475
v 0.0020514333333333337 0.08286240229885058 0.0020514333333333337
v 0.055889364367816094 0.07313045287356323 0.006192812643678161
v 0.0020514333333333337 0.08286240229885058 0.0020514333333333337
v 0.07038419540229886 0.0702004367816092 0.01033419195402299
v 0.055889364367816094 0.07313045287356323 0.006192812643678161
v 0.05796004942528736 0.07256783333333333 0.0041221229885057475
v 0.0020514333333333337 0.08286240229885058 0.0020514333333333337
v 0.055889364367816094 0.07313045287356323 0.006192812643678161
v 0.0683135 0.07050850574712644 0.0041221229885057475
v 0.07038419540229886 0.0702004367816092 0.01033419195402299
v 0.055889364367816094 0.07313045287356323 0.006192812643678161
v 0.05796004942528736 0.07256783333333333 0.0041221229885057475
v 0.0683135 0.07050850574712644 0.0041221229885057475
v 0.05174798505747127 -0.07289309655172414 0.04346522413793104
v 0.04967729195402299 -0.07577927586206898 0.047606603448275865
v 0.04967729195402299 -0.07178186666666667 0.03518246666666667
v -0.03729167011494253 0.0828083287356322 -0.005238034482758621
v -0.039362359770114944 0.05174798505747127 -0.023063797701149427
v -0.035220980459770124 0.07659625747126438 -0.010052358620689655
v -0.03729167011494253 0.0828083287356322 -0.005238034482758621
v -0.039362359770114944 0.05174798505747127 -0.023063797701149427
v -0.039105172413793104 0.0828083287356322 -0.004160635632183908
v -0.03729167011494253 0.0828083287356322 -0.005238034482758621
v -0.03315029080459771 0.08487901149425288 -0.004234751724137931
v -0.035220980459770124 0.07659625747126438 -0.010052358620689655
v -0.03729167011494253 0.0828083287356322 -0.005238034482758621
v -0.03315029080459771 0.08492617816091955 -0.004160635632183908
v -0.039105172413793104 0.0828083287356322 -0.004160635632183908
v -0.03729167011494253 0.0828083287356322 -0.005238034482758621
v -0.03315029080459771 0.08487901149425288 -0.004234751724137931
v -0.03315029080459771 0.08492617816091955 -0.004160635632183908
v -0.04961888735632185 0.03311177816091954 0.09730316091954025
v -0.040419790804597705 0.02689970804597701 0.10558591494252874
v -0.05385718390804598 0.008263502298850575 0.0848855091954023
v -0.04961888735632185 0.03311177816091954 0.09730316091954025
v -0.051824364367816095 0.03518246666666667 0.0952324643678161
v -0.05385718390804598 0.008263502298850575 0.0848855091954023
v -0.04961888735632185 0.03311177816091954 0.09730316091954025
v -0.040419790804597705 0.02689970804597701 0.10558591494252874
v -0.039362359770114944 0.028970398850574716 0.10722648275862069
v -0.04961888735632185 0.03311177816091954 0.09730316091954025
v -0.051824364367816095 0.03518246666666667 0.0952324643678161
v -0.039362359770114944 0.028970398850574716 0.10722648275862069
v -0.05397268965517242 0.03518246666666667 0.08902039080459771
v -0.05697988505747127 0.01033419195402299 0.08073763563218392
v -0.05404499425287357 0.03518246666666667 0.09109108620689656
v -0.05397268965517242 0.03518246666666667 0.08902039080459771
v -0.052221747126436784 0.04346522413793104 0.07245487816091956
v -0.05404499425287357 0.03518246666666667 0.09109108620689656
v -0.05397268965517242 0.03518246666666667 0.08902039080459771
v -0.052221747126436784 0.04346522413793104 0.07245487816091956
v -0.05697988505747127 0.01033419195402299 0.08073763563218392
v -0.045574427586206896 0.056736091954022995 0.055889364367816094
v -0.05385718390804598 0.035423687356321835 0.09109108620689656
v -0.04862336551724138 0.055889364367816094 0.04967729195402299
v -0.045574427586206896 0.056736091954022995 0.055889364367816094
v -0.04764511724137931 0.04290821609195403 0.08487901149425288
v -0.035220980459770124 0.07743774712643679 0.022758329885057473
v -0.045574427586206896 0.056736091954022995 0.055889364367816094
v -0.05385718390804598 0.035423687356321835 0.09109108620689656
v -0.04764511724137931 0.04290821609195403 0.08487901149425288
v -0.043503737931034486 0.04788054482758621 0.07659625747126438
v -0.04764511724137931 0.04290821609195403 0.08487901149425288
v -0.035220980459770124 0.07743774712643679 0.022758329885057473
v -0.043503737931034486 0.04788054482758621 0.07659625747126438
v -0.043503737931034486 0.03999880459770115 0.09109108620689656
v -0.035220980459770124 0.07743774712643679 0.022758329885057473
v -0.043503737931034486 0.04788054482758621 0.07659625747126438
v -0.043503737931034486 0.03999880459770115 0.09109108620689656
v -0.04764511724137931 0.04290821609195403 0.08487901149425288
v -0.04764511724137931 0.034716344827586204 0.09730316091954025
v -0.043503737931034486 0.03999880459770115 0.09109108620689656
v -0.039362359770114944 0.028970398850574716 0.10722648275862069
v -0.049715804597701155 0.03578475517241379 0.0952324643678161
v -0.043503737931034486 0.03999880459770115 0.09109108620689656
v -0.04764511724137931 0.04290821609195403 0.08487901149425288
v -0.049715804597701155 0.03578475517241379 0.0952324643678161
v -0.04764511724137931 0.034716344827586204 0.09730316091954025
v -0.043503737931034486 0.03999880459770115 0.09109108620689656
v 0.05174798505747127 -0.06938909655172414 0.03311177816091954
v 0.05174798505747127 -0.07289309655172414 0.04346522413793104
v 0.05477810689655173 -0.06421063218390805 0.02689970804597701
v 0.05174798505747127 -0.06938909655172414 0.03311177816091954
v 0.05319136321839081 -0.062139942528735635 0.016546260919540232
v 0.05174798505747127 -0.06428309540229886 0.018616950574712646
v 0.05174798505747127 -0.06938909655172414 0.03311177816091954
v 0.05319136321839081 -0.062139942528735635 0.016546260919540232
v 0.05477810689655173 -0.06421063218390805 0.02689970804597701
v 0.05174798505747127 -0.06938909655172414 0.03311177816091954
v 0.04967729195402299 -0.07178186666666667 0.03518246666666667
v 0.05174798505747127 -0.06428309540229886 0.018616950574712646
v 0.05174798505747127 -0.06938909655172414 0.03311177816091954
v 0.05174798505747127 -0.07289309655172414 0.04346522413793104
v 0.04967729195402299 -0.07178186666666667 0.03518246666666667
v 0.05210410574712644 -0.07249339080459771 0.04346522413793104
v 0.05174798505747127 -0.07289309655172414 0.04346522413793104
v 0.05477810689655173 -0.06421063218390805 0.02689970804597701
v 0.05210410574712644 -0.07249339080459771 0.04346522413793104
v 0.05675933103448276 -0.012443393103448276 0.09109108620689656
v 0.07714079310344829 0.06624281609195402 0.01033419195402299
v 0.05210410574712644 -0.07249339080459771 0.04346522413793104
v 0.05675933103448276 -0.012443393103448276 0.09109108620689656
v 0.056379183908045985 -1.925632183908046e-05 0.10765659770114944
v 0.05210410574712644 -0.07249339080459771 0.04346522413793104
v 0.07509716091954023 0.047606603448275865 -1.925632183908046e-05
v 0.07714079310344829 0.06624281609195402 0.01033419195402299
v 0.05210410574712644 -0.07249339080459771 0.04346522413793104
v 0.05477810689655173 -0.06421063218390805 0.02689970804597701
v 0.07509716091954023 0.047606603448275865 -1.925632183908046e-05
v -0.04422736781609196 0.06624281609195402 0.03311177816091954
v -0.040101717241379314 0.08073763563218392 0.0020514333333333337
v -0.04862336551724138 0.055889364367816094 0.04967729195402299
v -0.04422736781609196 0.06624281609195402 0.03311177816091954
v -0.045574427586206896 0.056736091954022995 0.055889364367816094
v -0.04862336551724138 0.055889364367816094 0.04967729195402299
v -0.05178649425287357 0.03522226206896552 0.0952324643678161
v -0.049715804597701155 0.03578475517241379 0.0952324643678161
v -0.04764511724137931 0.04290821609195403 0.08487901149425288
v -0.05178649425287357 0.03522226206896552 0.0952324643678161
v -0.05385718390804598 0.035423687356321835 0.09109108620689656
v -0.04764511724137931 0.04290821609195403 0.08487901149425288
v -0.05178649425287357 0.03522226206896552 0.0952324643678161
v -0.049715804597701155 0.03578475517241379 0.0952324643678161
v -0.04764511724137931 0.034716344827586204 0.09730316091954025
v -0.05178649425287357 0.03522226206896552 0.0952324643678161
v -0.051824364367816095 0.03518246666666667 0.0952324643678161
v -0.05385718390804598 0.03518246666666667 0.09161094252873564
v -0.05178649425287357 0.03522226206896552 0.0952324643678161
v -0.05385718390804598 0.035423687356321835 0.09109108620689656
v -0.05385718390804598 0.03518246666666667 0.09161094252873564
v -0.05178649425287357 0.03522226206896552 0.0952324643678161
v -0.051824364367816095 0.03518246666666667 0.0952324643678161
v -0.039362359770114944 0.028970398850574716 0.10722648275862069
v -0.05178649425287357 0.03522226206896552 0.0952324643678161
v -0.04764511724137931 0.034716344827586204 0.09730316091954025
v -0.039362359770114944 0.028970398850574716 0.10722648275862069
v 0.050769181609195406 -0.07456408045977012 0.047606603448275865
v 0.05174798505747127 -0.07289309655172414 0.04346522413793104
v 0.04967729195402299 -0.07577927586206898 0.047606603448275865
v 0.050769181609195406 -0.07456408045977012 0.047606603448275865
v 0.05210410574712644 -0.07249339080459771 0.04346522413793104
v 0.05174798505747127 -0.07289309655172414 0.04346522413793104
v 0.050769181609195406 -0.07456408045977012 0.047606603448275865
v 0.05210410574712644 -0.07249339080459771 0.04346522413793104
v 0.056379183908045985 -1.925632183908046e-05 0.10765659770114944
v 0.050769181609195406 -0.07456408045977012 0.047606603448275865
v 0.0449014459770115 -0.07663477471264368 0.06003074252873564
v 0.056379183908045985 -1.925632183908046e-05 0.10765659770114944
v 0.050769181609195406 -0.07456408045977012 0.047606603448275865
v 0.04697306896551725 -0.07663477471264368 0.053818674712643684
v 0.0449014459770115 -0.07663477471264368 0.06003074252873564
v 0.050769181609195406 -0.07456408045977012 0.047606603448275865
v 0.045535913793103455 -0.07914580804597701 0.05174798505747127
v 0.04697306896551725 -0.07663477471264368 0.053818674712643684
v 0.050769181609195406 -0.07456408045977012 0.047606603448275865
v 0.04967729195402299 -0.07577927586206898 0.047606603448275865
v 0.045535913793103455 -0.07914580804597701 0.05174798505747127
v -0.043503737931034486 0.06695249425287357 0.03311177816091954
v -0.045574427586206896 0.056736091954022995 0.055889364367816094
v -0.035220980459770124 0.07743774712643679 0.022758329885057473
v -0.043503737931034486 0.06695249425287357 0.03311177816091954
v -0.04422736781609196 0.06624281609195402 0.03311177816091954
v -0.045574427586206896 0.056736091954022995 0.055889364367816094
v -0.043503737931034486 0.06695249425287357 0.03311177816091954
v -0.035220980459770124 0.07743774712643679 0.022758329885057473
v -0.039362359770114944 0.08139302298850576 0.0020514333333333337
v -0.043503737931034486 0.06695249425287357 0.03311177816091954
v -0.040101717241379314 0.08073763563218392 0.0020514333333333337
v -0.039362359770114944 0.08139302298850576 0.0020514333333333337
v -0.043503737931034486 0.06695249425287357 0.03311177816091954
v -0.04422736781609196 0.06624281609195402 0.03311177816091954
v -0.040101717241379314 0.08073763563218392 0.0020514333333333337
f 1 2 3
f 4 5 6
f 7 8 9
f 10 11 12
f 13 14 15
f 16 17 18
f 19 20 21
f 22 23 24
f 25 26 27
f 28 29 30
f 31 32 33
f 34 35 36
f 37 38 39
f 40 41 42
f 43 44 45
f 46 47 48
f 49 50 51
f 52 53 54
f 55 56 57
f 58 59 60
f 61 62 63
f 64 65 66
f 67 68 69
f 70 71 72
f 73 74 75
f 76 77 78
f 79 80 81
f 82 83 84
f 85 86 87
f 88 89 90
f 91 92 93
f 94 95 96
f 97 98 99
f 100 101 102
f 103 104 105
f 106 107 108
f 109 110 111
f 112 113 114
f 115 116 117
f 118 119 120
f 121 122 123
f 124 125 126
f 127 128 129
f 130 131 132
f 133 134 135
f 136 137 138
f 139 140 141
f 142 143 144
f 145 146 147
f 148 149 150
f 151 152 153
f 154 155 156
f 157 158 159
f 160 161 162
f 163 164 165
f 166 167 168
f 169 170 171
f 172 173 174
f 175 176 177
f 178 179 180
f 181 182 183
f 184 185 186
f 187 188 189
f 190 191 192
f 193 194 195
f 196 197 198
f 199 200 201
f 202 203 204
f 205 206 207
f 208 209 210
f 211 212 213
f 214 215 216
f 217 218 219
f 220 221 222
f 223 224 225
f 226 227 228
f 229 230 231
f 232 233 234
f 235 236 237
f 238 239 240
f 241 242 243
f 244 245 246
f 247 248 249
f 250 251 252
f 253 254 255
f 256 257 258
f 259 260 261
f 262 263 264
f 265 266 267
f 268 269 270
f 271 272 273
f 274 275 276
f 277 278 279
f 280 281 282
f 283 284 285
f 286 287 288
f 289 290 291
f 292 293 294
f 295 296 297
f 298 299 300
f 301 302 303
f 304 305 306
f 307 308 309
f 310 311 312
f 313 314 315
f 316 317 318
f 319 320 321
f 322 323 324
f 325 326 327
f 328 329 330
f 331 332 333
f 334 335 336
f 337 338 339
f 340 341 342
f 343 344 345
f 346 347 348
f 349 350 351
f 352 353 354
f 355 356 357
f 358 359 360
f 361 362 363
f 364 365 366
f 367 368 369
f 370 371 372
f 373 374 375
f 376 377 378
f 379 380 381
f 382 383 384
f 385 386 387
f 388 389 390
f 391 392 393
f 394 395 396
f 397 398 399
f 400 401 402
f 403 404 405
f 406 407 408
f 409 410 411
f 412 413 414
f 415 416 417
f 418 419 420
f 421 422 423
f 424 425 426
f 427 428 429
f 430 431 432
f 433 434 435
f 436 437 438
f 439 440 441
f 442 443 444
f 445 446 447
f 448 449 450
f 451 452 453
f 454 455 456
f 457 458 459
f 460 461 462
f 463 464 465
f 466 467 468
f 469 470 471
f 472 473 474
f 475 476 477
f 478 479 480
f 481 482 483
f 484 485 486
f 487 488 489
f 490 491 492
f 493 494 495
f 496 497 498
f 499 500 501
f 502 503 504
f 505 506 507
f 508 509 510
f 511 512 513
f 514 515 516
f 517 518 519
f 520 521 522
f 523 524 525
f 526 527 528
f 529 530 531
f 532 533 534
f 535 536 537
f 538 539 540
f 541 542 543
f 544 545 546
f 547 548 549
f 550 551 552
f 553 554 555
f 556 557 558
f 559 560 561
f 562 563 564
f 565 566 567
f 568 569 570
f 571 572 573
f 574 575 576
f 577 578 579
f 580 581 582
f 583 584 585
f 586 587 588
f 589 590 591
f 592 593 594
f 595 596 597
f 598 599 600
f 601 602 603
f 604 605 606
f 607 608 609
f 610 611 612
f 613 614 615
f 616 617 618
f 619 620 621
f 622 623 624
f 625 626 627
f 628 629 630
f 631 632 633
f 634 635 636
f 637 638 639
f 640 641 642
f 643 644 645
f 646 647 648
f 649 650 651
f 652 653 654
f 655 656 657
f 658 659 660
f 661 662 663
f 664 665 666
f 667 668 669
f 670 671 672
f 673 674 675
f 676 677 678
f 679 680 681
f 682 683 684
f 685 686 687
f 688 689 690
f 691 692 693
f 694 695 696
f 697 698 699
f 700 701 702
f 703 704 705
f 706 707 708
f 709 710 711
f 712 713 714
f 715 716 717
f 718 719 720
f 721 722 723
f 724 725 726
f 727 728 729
f 730 731 732
f 733 734 735
f 736 737 738
f 739 740 741
f 742 743 744
f 745 746 747
f 748 749 750
f 751 752 753
f 754 755 756
f 757 758 759
f 760 761 762
f 763 764 765
f 766 767 768
f 769 770 771
f 772 773 774
f 775 776 777
f 778 779 780
f 781 782 783
f 784 785 786
f 787 788 789
f 790 791 792
f 793 794 795
f 796 797 798
f 799 800 801
f 802 803 804
f 805 806 807
f 808 809 810
f 811 812 813
f 814 815 816
f 817 818 819
f 820 821 822
f 823 824 825
f 826 827 828
f 829 830 831
f 832 833 834
f 835 836 837
f 838 839 840
f 841 842 843
f 844 845 846
f 847 848 849
f 850 851 852
f 853 854 855
f 856 857 858
f 859 860 861
f 862 863 864
f 865 866 867
f 868 869 870
f 871 872 873
f 874 875 876
f 877 878 879
f 880 881 882
f 883 884 885
f 886 887 888
f 889 890 891
f 892 893 894
f 895 896 897
f 898 899 900
f 901 902 903
f 904 905 906
f 907 908 909
f 910 911 912
f 913 914 915
f 916 917 918
f 919 920 921
f 922 923 924
f 925 926 927
f 928 929 930
f 931 932 933
f 934 935 936
f 937 938 939
f 940 941 942
f 943 944 945
f 946 947 948
f 949 950 951
f 952 953 954
f 955 956 957
f 958 959 960
f 961 962 963
f 964 965 966
f 967 968 969
f 970 971 972
f 973 974 975
f 976 977 978
f 979 980 981
f 982 983 984
f 985 986 987
f 988 989 990
f 991 992 993
f 994 995 996
f 997 998 999
f 1000 1001 1002
f 1003 1004 1005
f 1006 1007 1008
f 1009 1010 1011
f 1012 1013 1014
f 1015 1016 1017
f 1018 1019 1020
f 1021 1022 1023
f 1024 1025 1026
f 1027 1028 1029
f 1030 1031 1032
f 1033 1034 1035
f 1036 1037 1038
f 1039 1040 1041
f 1042 1043 1044
f 1045 1046 1047
f 1048 1049 1050
f 1051 1052 1053
f 1054 1055 1056
f 1057 1058 1059
f 1060 1061 1062
f 1063 1064 1065
f 1066 1067 1068
f 1069 1070 1071
f 1072 1073 1074
f 1075 1076 1077
f 1078 1079 1080
f 1081 1082 1083
f 1084 1085 1086
f 1087 1088 1089
f 1090 1091 1092
f 1093 1094 1095
f 1096 1097 1098
f 1099 1100 1101
f 1102 1103 1104
f 1105 1106 1107
f 1108 1109 1110
f 1111 1112 1113
f 1114 1115 1116
f 1117 1118 1119
f 1120 1121 1122
f 1123 1124 1125
f 1126 1127 1128
f 1129 1130 1131
f 1132 1133 1134
f 1135 1136 1137
f 1138 1139 1140
f 1141 1142 1143
f 1144 1145 1146
f 1147 1148 1149
f 1150 1151 1152
f 1153 1154 1155
f 1156 1157 1158
f 1159 1160 1161
f 1162 1163 1164
f 1165 1166 1167
f 1168 1169 1170
f 1171 1172 1173
f 1174 1175 1176
f 1177 1178 1179
f 1180 1181 1182
f 1183 1184 1185
f 1186 1187 1188
f 1189 1190 1191
f 1192 1193 1194
f 1195 1196 1197
f 1198 1199 1200
f 1201 1202 1203
f 1204 1205 1206
f 1207 1208 1209
f 1210 1211 1212
f 1213 1214 1215
f 1216 1217 1218
